<svg xmlns="http://www.w3.org/2000/svg" width="1366" height="1094.389" viewBox="0 0 1366 1094.389"><path d="M2774.382,1094.39h-.046c-14.2,0-28.559-.364-42.678-1.08-14.52-.737-29.213-1.867-43.671-3.361-14.843-1.534-29.877-3.5-44.685-5.83-15.178-2.393-30.561-5.249-45.72-8.487-15.52-3.315-31.258-7.128-46.777-11.332-15.868-4.3-31.969-9.132-47.856-14.365-16.233-5.347-32.7-11.264-48.955-17.585-16.591-6.453-33.439-13.516-50.076-20.993-121.837-54.756-243.877-82.519-362.73-82.519-9.161,0-18.431.167-27.554.495V84.728l.021-.007c1.053-.31,10.788-3.144,28.032-7.325,16.741-4.059,44.2-10.257,79.923-16.73,40.153-7.275,82.355-13.409,125.434-18.23,53.847-6.026,109.223-10.006,164.59-11.831,13.281-.438,26.766-.66,40.082-.66,21.259,0,42.265.539,64.219,1.648,19.581.989,39.48,2.413,60.835,4.352,39.7,3.6,78.683,8.51,116.385,13.255h.011l2.214.279h.011c36.135,4.547,77.091,9.7,118.75,13.429,22.016,1.971,42.622,3.419,63,4.426,22.849,1.13,44.789,1.679,67.071,1.679,21.835,0,44.041-.555,66-1.649,23.389-1.166,47.42-2.988,71.424-5.417,48.7-4.348,94.675-10.31,136.642-17.721,33.573-5.929,64.671-12.793,92.428-20.4C3335.4,17.058,3352.827,10.94,3363.1,7c11.145-4.276,16.485-6.973,16.536-7V943.079c-46.725,13.082-95.652,30.724-147.452,49.4l-.013,0c-11.072,3.992-22.521,8.121-34,12.223-27.7,9.893-60.756,21.516-95.977,32.7-36.552,11.608-70,21.012-102.271,28.751C2920.712,1085.156,2846.94,1094.39,2774.382,1094.39Z" transform="translate(-2013.633)" fill="#fff"/></svg>