<svg xmlns="http://www.w3.org/2000/svg" width="1366" height="1102.39" viewBox="0 0 1366 1102.39"><path d="M2769.382,1102.39h-.046c-9.024,0-18.14-.146-27.094-.434-5.781-.876-11.613-1.762-17.577-2.669q-7.638-1.162-15.321-2.328c-45.892-6.958-94.833-14.208-144.257-19.662-27-6.679-54.415-14.825-81.475-24.212-28.047-9.729-56.542-21.077-84.7-33.729-121.836-54.755-243.879-82.519-362.739-82.519-7.489,0-15.074.112-22.545.331V84.728l.021-.007c1.053-.309,10.788-3.144,28.032-7.325,16.743-4.059,44.2-10.257,79.922-16.73,40.154-7.275,82.357-13.409,125.434-18.23,53.848-6.026,109.224-10.007,164.59-11.831,13.281-.438,26.767-.66,40.083-.66,21.258,0,42.262.539,64.215,1.648,19.573.989,39.472,2.412,60.832,4.352,39.7,3.6,78.687,8.511,116.388,13.255l2.229.28c36.14,4.547,77.1,9.7,118.762,13.431,22.016,1.971,42.622,3.419,63,4.426,22.852,1.13,44.791,1.679,67.072,1.679,21.832,0,44.038-.555,66-1.649,23.389-1.165,47.419-2.988,71.423-5.417,48.7-4.348,94.678-10.31,136.642-17.721,33.572-5.929,64.669-12.793,92.428-20.4C3335.4,17.058,3352.828,10.94,3363.1,7c11.135-4.273,16.483-6.973,16.536-7V949.695c-48.232,13.208-98.868,31.466-152.478,50.8l-.007,0-.249.09c-10.995,3.965-22.364,8.064-33.736,12.127-27.693,9.893-60.752,21.515-95.977,32.7-36.553,11.609-70.006,21.013-102.271,28.751C2915.713,1093.156,2841.941,1102.39,2769.382,1102.39Z" transform="translate(-2013.633 0)" fill="rgba(159,168,123,0.16)"/></svg>