<svg xmlns="http://www.w3.org/2000/svg" width="683.883" height="649.096" viewBox="0 0 683.883 649.096"><g transform="translate(15.625 -10.116)"><path d="M30.812,60.416a4.679,4.679,0,1,0-4.674-4.683A4.678,4.678,0,0,0,30.812,60.416Z" transform="translate(310.607 304.508)" fill="#182e54"/><path d="M29.564,62.138a4.674,4.674,0,1,0-4.683-4.674A4.685,4.685,0,0,0,29.564,62.138Z" transform="translate(301.258 317.375)" fill="#182e54"/><path d="M29.564,58.687A4.679,4.679,0,1,0,24.881,54,4.687,4.687,0,0,0,29.564,58.687Z" transform="translate(301.258 291.649)" fill="#182e54"/><path d="M32.639,60.416a4.679,4.679,0,1,0-4.683-4.683A4.674,4.674,0,0,0,32.639,60.416Z" transform="translate(324.128 304.508)" fill="#182e54"/><path d="M31.928,62.553a4.679,4.679,0,1,0-4.666-4.674A4.676,4.676,0,0,0,31.928,62.553Z" transform="translate(318.967 320.402)" fill="#182e54"/><path d="M30.133,63.882A4.683,4.683,0,1,0,25.442,59.2,4.676,4.676,0,0,0,30.133,63.882Z" transform="translate(305.431 330.227)" fill="#182e54"/><circle cx="4.68" cy="4.68" r="4.68" transform="translate(311.916 326.385)" fill="#182e54"/><path d="M30.133,56.965a4.683,4.683,0,1,0-4.691-4.683A4.681,4.681,0,0,0,30.133,56.965Z" transform="translate(305.431 278.783)" fill="#182e54"/><path d="M31.928,58.278A4.679,4.679,0,1,0,27.262,53.6,4.676,4.676,0,0,0,31.928,58.278Z" transform="translate(318.967 288.607)" fill="#182e54"/><path d="M34.448,60.416a4.679,4.679,0,1,0-4.674-4.683A4.678,4.678,0,0,0,34.448,60.416Z" transform="translate(337.649 304.508)" fill="#182e54"/><circle cx="4.68" cy="4.68" r="4.68" transform="translate(363.439 374.283)" fill="#182e54"/><path d="M32.636,64.469A4.679,4.679,0,1,0,27.97,59.8,4.674,4.674,0,0,0,32.636,64.469Z" transform="translate(324.232 334.652)" fill="#182e54"/><circle cx="7.531" cy="7.531" r="7.531" transform="translate(273.528 362.286)" fill="#182e54"/><path d="M30.946,60.357a7.53,7.53,0,1,0-7.535-7.526A7.528,7.528,0,0,0,30.946,60.357Z" transform="translate(290.325 261.647)" fill="#182e54"/><path d="M30.688,55.236a4.683,4.683,0,1,0-4.683-4.683A4.681,4.681,0,0,0,30.688,55.236Z" transform="translate(309.618 265.923)" fill="#182e54"/><path d="M32.636,56.37a4.683,4.683,0,1,0-4.666-4.683A4.683,4.683,0,0,0,32.636,56.37Z" transform="translate(324.232 274.357)" fill="#182e54"/><circle cx="4.678" cy="4.678" r="4.678" transform="translate(363.441 336.848)" fill="#182e54"/><path d="M36.266,60.416a4.679,4.679,0,1,0-4.674-4.683A4.678,4.678,0,0,0,36.266,60.416Z" transform="translate(351.171 304.508)" fill="#182e54"/><path d="M38.424,68.03A7.53,7.53,0,1,0,30.9,60.5,7.542,7.542,0,0,0,38.424,68.03Z" transform="translate(346.009 318.714)" fill="#182e54"/><path d="M37.4,70.057a7.53,7.53,0,1,0-7.535-7.535A7.522,7.522,0,0,0,37.4,70.057Z" transform="translate(338.326 333.789)" fill="#182e54"/><path d="M35.775,71.657a7.526,7.526,0,1,0-7.518-7.518A7.522,7.522,0,0,0,35.775,71.657Z" transform="translate(326.367 345.756)" fill="#182e54"/><path d="M31.249,67.341a4.683,4.683,0,1,0-4.683-4.691A4.685,4.685,0,0,0,31.249,67.341Z" transform="translate(313.79 355.953)" fill="#182e54"/><path d="M29,67.689a4.679,4.679,0,1,0-4.683-4.674A4.676,4.676,0,0,0,29,67.689Z" transform="translate(297.078 358.6)" fill="#182e54"/><path d="M26.762,67.341a4.683,4.683,0,1,0-4.691-4.691A4.683,4.683,0,0,0,26.762,67.341Z" transform="translate(280.359 355.953)" fill="#182e54"/><path d="M27.233,71.657a7.526,7.526,0,1,0-7.526-7.518A7.52,7.52,0,0,0,27.233,71.657Z" transform="translate(262.777 345.756)" fill="#182e54"/><path d="M25.624,70.057A7.53,7.53,0,1,0,18.1,62.522,7.529,7.529,0,0,0,25.624,70.057Z" transform="translate(250.811 333.789)" fill="#182e54"/><path d="M24.6,68.03A7.53,7.53,0,1,0,17.064,60.5,7.542,7.542,0,0,0,24.6,68.03Z" transform="translate(243.12 318.714)" fill="#182e54"/><path d="M24.251,65.782a7.53,7.53,0,1,0-7.543-7.535A7.528,7.528,0,0,0,24.251,65.782Z" transform="translate(240.473 301.995)" fill="#182e54"/><path d="M22.085,58.176A4.683,4.683,0,1,0,17.4,53.494,4.683,4.683,0,0,0,22.085,58.176Z" transform="translate(245.634 287.789)" fill="#182e54"/><circle cx="7.525" cy="7.525" r="7.525" transform="translate(268.912 316.653)" fill="#182e54"/><path d="M27.233,59.89a7.526,7.526,0,1,0-7.526-7.526A7.528,7.528,0,0,0,27.233,59.89Z" transform="translate(262.777 258.241)" fill="#182e54"/><path d="M29.276,58.865a7.53,7.53,0,1,0-7.543-7.526A7.528,7.528,0,0,0,29.276,58.865Z" transform="translate(277.845 250.55)" fill="#182e54"/><path d="M31.516,58.509a7.53,7.53,0,1,0-7.535-7.526A7.535,7.535,0,0,0,31.516,58.509Z" transform="translate(294.565 247.903)" fill="#182e54"/><path d="M33.755,58.865a7.53,7.53,0,1,0-7.526-7.526A7.529,7.529,0,0,0,33.755,58.865Z" transform="translate(311.284 250.55)" fill="#182e54"/><path d="M35.775,59.89a7.526,7.526,0,1,0-7.518-7.526A7.529,7.529,0,0,0,35.775,59.89Z" transform="translate(326.367 258.241)" fill="#182e54"/><path d="M37.4,61.5a7.526,7.526,0,1,0-7.535-7.526A7.52,7.52,0,0,0,37.4,61.5Z" transform="translate(338.326 270.207)" fill="#182e54"/><path d="M35.91,58.176a4.683,4.683,0,1,0-4.674-4.683A4.678,4.678,0,0,0,35.91,58.176Z" transform="translate(348.523 287.789)" fill="#182e54"/><path d="M40.607,65.782a7.53,7.53,0,1,0-7.535-7.535A7.522,7.522,0,0,0,40.607,65.782Z" transform="translate(362.178 301.995)" fill="#182e54"/><path d="M40.313,68.034a7.526,7.526,0,1,0-7.526-7.518A7.52,7.52,0,0,0,40.313,68.034Z" transform="translate(360.058 318.81)" fill="#182e54"/><path d="M39.474,70.162a7.53,7.53,0,1,0-7.526-7.535A7.537,7.537,0,0,0,39.474,70.162Z" transform="translate(353.818 334.57)" fill="#182e54"/><circle cx="7.527" cy="7.527" r="7.527" transform="translate(374.468 405.227)" fill="#182e54"/><path d="M36.379,73.449a7.526,7.526,0,1,0-7.526-7.526A7.529,7.529,0,0,0,36.379,73.449Z" transform="translate(330.8 359.084)" fill="#182e54"/><path d="M34.317,74.428A7.53,7.53,0,1,0,26.791,66.9,7.528,7.528,0,0,0,34.317,74.428Z" transform="translate(315.464 366.298)" fill="#182e54"/><path d="M32.078,74.847a7.526,7.526,0,1,0-7.526-7.535A7.537,7.537,0,0,0,32.078,74.847Z" transform="translate(298.811 369.481)" fill="#182e54"/><path d="M29.8,74.7a7.526,7.526,0,1,0-7.526-7.518A7.522,7.522,0,0,0,29.8,74.7Z" transform="translate(281.899 368.41)" fill="#182e54"/><path d="M27.645,74a7.526,7.526,0,1,0-7.535-7.518A7.526,7.526,0,0,0,27.645,74Z" transform="translate(265.775 363.174)" fill="#182e54"/><path d="M25.713,72.787a7.53,7.53,0,1,0-7.526-7.535A7.542,7.542,0,0,0,25.713,72.787Z" transform="translate(251.473 354.093)" fill="#182e54"/><path d="M24.153,71.125A7.53,7.53,0,1,0,16.627,63.6,7.522,7.522,0,0,0,24.153,71.125Z" transform="translate(239.87 341.732)" fill="#182e54"/><path d="M23.071,69.12A7.526,7.526,0,1,0,15.528,61.6,7.519,7.519,0,0,0,23.071,69.12Z" transform="translate(231.697 326.887)" fill="#182e54"/><path d="M22.488,66.913a7.526,7.526,0,1,0-7.526-7.526A7.524,7.524,0,0,0,22.488,66.913Z" transform="translate(227.487 310.473)" fill="#182e54"/><path d="M22.488,64.634A7.526,7.526,0,1,0,14.962,57.1,7.526,7.526,0,0,0,22.488,64.634Z" transform="translate(227.487 293.523)" fill="#182e54"/><path d="M23.071,62.427A7.526,7.526,0,1,0,15.528,54.9,7.52,7.52,0,0,0,23.071,62.427Z" transform="translate(231.697 277.109)" fill="#182e54"/><path d="M24.153,60.43A7.526,7.526,0,1,0,16.627,52.9,7.522,7.522,0,0,0,24.153,60.43Z" transform="translate(239.87 262.257)" fill="#182e54"/><path d="M25.713,58.769a7.526,7.526,0,1,0-7.526-7.526A7.54,7.54,0,0,0,25.713,58.769Z" transform="translate(251.473 249.903)" fill="#182e54"/><path d="M27.645,57.556a7.53,7.53,0,1,0-7.535-7.535A7.529,7.529,0,0,0,27.645,57.556Z" transform="translate(265.775 240.815)" fill="#182e54"/><path d="M29.8,56.852a7.53,7.53,0,1,0-7.526-7.526A7.529,7.529,0,0,0,29.8,56.852Z" transform="translate(281.899 235.579)" fill="#182e54"/><path d="M32.078,56.709a7.53,7.53,0,1,0-7.526-7.526A7.535,7.535,0,0,0,32.078,56.709Z" transform="translate(298.811 234.515)" fill="#182e54"/><path d="M34.317,57.136a7.53,7.53,0,1,0-7.526-7.526A7.522,7.522,0,0,0,34.317,57.136Z" transform="translate(315.464 237.691)" fill="#182e54"/><path d="M36.379,58.106a7.53,7.53,0,1,0-7.526-7.526A7.535,7.535,0,0,0,36.379,58.106Z" transform="translate(330.8 244.905)" fill="#182e54"/><path d="M38.143,59.559a7.53,7.53,0,1,0-7.535-7.535A7.542,7.542,0,0,0,38.143,59.559Z" transform="translate(343.852 255.712)" fill="#182e54"/><path d="M39.474,61.394a7.526,7.526,0,1,0-7.526-7.526A7.529,7.529,0,0,0,39.474,61.394Z" transform="translate(353.818 269.426)" fill="#182e54"/><path d="M40.313,63.521a7.53,7.53,0,1,0-7.526-7.535A7.529,7.529,0,0,0,40.313,63.521Z" transform="translate(360.058 285.179)" fill="#182e54"/><path d="M42.417,65.782a7.53,7.53,0,1,0-7.526-7.535A7.529,7.529,0,0,0,42.417,65.782Z" transform="translate(375.706 301.995)" fill="#182e54"/><path d="M42.178,68.034a7.522,7.522,0,1,0-7.526-7.518A7.522,7.522,0,0,0,42.178,68.034Z" transform="translate(373.929 318.87)" fill="#182e54"/><circle cx="7.531" cy="7.531" r="7.531" transform="translate(402.635 390.152)" fill="#182e54"/><path d="M40.326,72.186a7.526,7.526,0,1,0-7.518-7.535A7.537,7.537,0,0,0,40.326,72.186Z" transform="translate(360.214 349.69)" fill="#182e54"/><path d="M38.807,73.889a7.53,7.53,0,1,0-7.526-7.535A7.524,7.524,0,0,0,38.807,73.889Z" transform="translate(348.858 362.289)" fill="#182e54"/><path d="M36.955,75.221a7.526,7.526,0,1,0-7.518-7.535A7.531,7.531,0,0,0,36.955,75.221Z" transform="translate(335.143 372.263)" fill="#182e54"/><path d="M34.879,76.157a7.53,7.53,0,1,0-7.526-7.535A7.542,7.542,0,0,0,34.879,76.157Z" transform="translate(319.643 379.157)" fill="#182e54"/><path d="M32.657,76.631A7.53,7.53,0,1,0,25.122,69.1,7.52,7.52,0,0,0,32.657,76.631Z" transform="translate(303.051 382.683)" fill="#182e54"/><path d="M30.367,76.631A7.53,7.53,0,1,0,22.841,69.1,7.529,7.529,0,0,0,30.367,76.631Z" transform="translate(286.086 382.683)" fill="#182e54"/><path d="M28.145,76.157a7.53,7.53,0,1,0-7.535-7.535A7.535,7.535,0,0,0,28.145,76.157Z" transform="translate(269.493 379.157)" fill="#182e54"/><path d="M26.053,75.221a7.526,7.526,0,1,0-7.526-7.535A7.531,7.531,0,0,0,26.053,75.221Z" transform="translate(254.001 372.263)" fill="#182e54"/><path d="M24.2,73.889a7.53,7.53,0,1,0-7.518-7.535A7.524,7.524,0,0,0,24.2,73.889Z" transform="translate(240.287 362.289)" fill="#182e54"/><path d="M22.682,72.186a7.526,7.526,0,1,0-7.526-7.535A7.529,7.529,0,0,0,22.682,72.186Z" transform="translate(228.93 349.69)" fill="#182e54"/><path d="M21.542,70.219a7.53,7.53,0,1,0-7.526-7.526A7.528,7.528,0,0,0,21.542,70.219Z" transform="translate(220.451 334.994)" fill="#182e54"/><path d="M20.837,68.034a7.522,7.522,0,1,0-7.526-7.518A7.515,7.515,0,0,0,20.837,68.034Z" transform="translate(215.208 318.87)" fill="#182e54"/><path d="M20.6,65.782a7.53,7.53,0,1,0-7.526-7.535A7.529,7.529,0,0,0,20.6,65.782Z" transform="translate(213.438 301.995)" fill="#182e54"/><path d="M20.837,63.505a7.526,7.526,0,1,0-7.526-7.526A7.517,7.517,0,0,0,20.837,63.505Z" transform="translate(215.208 285.127)" fill="#182e54"/><path d="M21.542,61.345a7.53,7.53,0,1,0-7.526-7.526A7.533,7.533,0,0,0,21.542,61.345Z" transform="translate(220.451 268.995)" fill="#182e54"/><path d="M22.682,59.37a7.53,7.53,0,1,0-7.526-7.535A7.529,7.529,0,0,0,22.682,59.37Z" transform="translate(228.93 254.306)" fill="#182e54"/><path d="M24.2,57.675a7.53,7.53,0,1,0-7.518-7.526A7.528,7.528,0,0,0,24.2,57.675Z" transform="translate(240.287 241.7)" fill="#182e54"/><path d="M26.053,56.326A7.526,7.526,0,1,0,18.527,48.8,7.535,7.535,0,0,0,26.053,56.326Z" transform="translate(254.001 231.734)" fill="#182e54"/><path d="M28.145,55.407a7.53,7.53,0,1,0-7.535-7.535A7.535,7.535,0,0,0,28.145,55.407Z" transform="translate(269.493 224.832)" fill="#182e54"/><path d="M30.367,54.933A7.53,7.53,0,1,0,22.841,47.4,7.537,7.537,0,0,0,30.367,54.933Z" transform="translate(286.086 221.307)" fill="#182e54"/><path d="M32.657,54.933A7.53,7.53,0,1,0,25.122,47.4,7.528,7.528,0,0,0,32.657,54.933Z" transform="translate(303.051 221.307)" fill="#182e54"/><path d="M34.879,55.407a7.53,7.53,0,1,0-7.526-7.535A7.542,7.542,0,0,0,34.879,55.407Z" transform="translate(319.643 224.832)" fill="#182e54"/><path d="M36.955,56.326A7.526,7.526,0,1,0,29.437,48.8,7.535,7.535,0,0,0,36.955,56.326Z" transform="translate(335.143 231.734)" fill="#182e54"/><path d="M38.807,57.675a7.53,7.53,0,1,0-7.526-7.526A7.528,7.528,0,0,0,38.807,57.675Z" transform="translate(348.858 241.7)" fill="#182e54"/><path d="M40.326,59.37a7.53,7.53,0,1,0-7.518-7.535A7.537,7.537,0,0,0,40.326,59.37Z" transform="translate(360.214 254.306)" fill="#182e54"/><path d="M41.482,61.345a7.53,7.53,0,1,0-7.535-7.526A7.533,7.533,0,0,0,41.482,61.345Z" transform="translate(368.686 268.995)" fill="#182e54"/><path d="M42.178,63.505a7.526,7.526,0,1,0-7.526-7.526A7.524,7.524,0,0,0,42.178,63.505Z" transform="translate(373.929 285.127)" fill="#182e54"/><path d="M44.235,65.782a7.53,7.53,0,1,0-7.526-7.535A7.529,7.529,0,0,0,44.235,65.782Z" transform="translate(389.228 301.995)" fill="#182e54"/><path d="M44.03,68.046A7.526,7.526,0,1,0,36.5,60.529,7.522,7.522,0,0,0,44.03,68.046Z" transform="translate(387.703 318.9)" fill="#182e54"/><circle cx="7.531" cy="7.531" r="7.531" transform="translate(419.09 390.449)" fill="#182e54"/><path d="M42.442,72.31a7.53,7.53,0,1,0-7.535-7.535A7.529,7.529,0,0,0,42.442,72.31Z" transform="translate(375.825 350.546)" fill="#182e54"/><path d="M41.092,74.147a7.526,7.526,0,1,0-7.526-7.526A7.529,7.529,0,0,0,41.092,74.147Z" transform="translate(365.852 364.275)" fill="#182e54"/><circle cx="7.527" cy="7.527" r="7.527" transform="translate(369.441 447.281)" fill="#182e54"/><path d="M35.441,77.878a7.526,7.526,0,1,0-7.526-7.526A7.522,7.522,0,0,0,35.441,77.878Z" transform="translate(323.823 392.024)" fill="#182e54"/><path d="M33.216,78.386A7.526,7.526,0,1,0,25.69,70.86,7.529,7.529,0,0,0,33.216,78.386Z" transform="translate(307.275 395.802)" fill="#182e54"/><path d="M30.945,78.5A7.53,7.53,0,1,0,23.41,70.97,7.528,7.528,0,0,0,30.945,78.5Z" transform="translate(290.318 396.553)" fill="#182e54"/><path d="M28.684,78.19a7.53,7.53,0,1,0-7.535-7.535A7.542,7.542,0,0,0,28.684,78.19Z" transform="translate(273.502 394.278)" fill="#182e54"/><path d="M26.514,77.485a7.53,7.53,0,1,0-7.535-7.535A7.542,7.542,0,0,0,26.514,77.485Z" transform="translate(257.363 389.034)" fill="#182e54"/><path d="M24.5,76.388a7.522,7.522,0,1,0-7.526-7.526A7.529,7.529,0,0,0,24.5,76.388Z" transform="translate(242.421 381.002)" fill="#182e54"/><path d="M22.7,74.973a7.526,7.526,0,1,0-7.518-7.535A7.537,7.537,0,0,0,22.7,74.973Z" transform="translate(229.16 370.418)" fill="#182e54"/><circle cx="7.527" cy="7.527" r="7.527" transform="translate(231.675 415.839)" fill="#182e54"/><path d="M20.041,71.3a7.53,7.53,0,1,0-7.526-7.518A7.533,7.533,0,0,0,20.041,71.3Z" transform="translate(209.288 343.064)" fill="#182e54"/><path d="M19.231,69.159a7.526,7.526,0,1,0-7.518-7.518A7.529,7.529,0,0,0,19.231,69.159Z" transform="translate(203.323 327.178)" fill="#182e54"/><path d="M18.832,66.914a7.526,7.526,0,1,0-7.526-7.526A7.529,7.529,0,0,0,18.832,66.914Z" transform="translate(200.296 310.481)" fill="#182e54"/><path d="M18.832,64.641a7.53,7.53,0,1,0-7.526-7.535A7.537,7.537,0,0,0,18.832,64.641Z" transform="translate(200.296 293.509)" fill="#182e54"/><path d="M19.231,62.4a7.53,7.53,0,1,0-7.518-7.535A7.538,7.538,0,0,0,19.231,62.4Z" transform="translate(203.323 276.812)" fill="#182e54"/><path d="M17.527,54.894a4.679,4.679,0,1,0-4.674-4.674A4.676,4.676,0,0,0,17.527,54.894Z" transform="translate(211.802 263.439)" fill="#182e54"/><path d="M21.211,58.3a7.53,7.53,0,1,0-7.526-7.526A7.529,7.529,0,0,0,21.211,58.3Z" transform="translate(217.989 246.356)" fill="#182e54"/><path d="M22.7,56.574a7.526,7.526,0,1,0-7.518-7.526A7.529,7.529,0,0,0,22.7,56.574Z" transform="translate(229.16 233.578)" fill="#182e54"/><path d="M24.5,55.16a7.53,7.53,0,1,0-7.526-7.535A7.537,7.537,0,0,0,24.5,55.16Z" transform="translate(242.421 222.995)" fill="#182e54"/><circle cx="7.529" cy="7.529" r="7.529" transform="translate(276.348 253.974)" fill="#182e54"/><path d="M28.684,53.374a7.53,7.53,0,1,0-7.535-7.535A7.537,7.537,0,0,0,28.684,53.374Z" transform="translate(273.502 209.712)" fill="#182e54"/><path d="M28.431,47.7a4.679,4.679,0,1,0-4.683-4.683A4.687,4.687,0,0,0,28.431,47.7Z" transform="translate(292.832 209.95)" fill="#182e54"/><path d="M30.7,47.8a4.679,4.679,0,1,0-4.674-4.683A4.678,4.678,0,0,0,30.7,47.8Z" transform="translate(309.789 210.708)" fill="#182e54"/><path d="M35.441,53.685a7.535,7.535,0,1,0-7.526-7.535A7.529,7.529,0,0,0,35.441,53.685Z" transform="translate(323.823 211.965)" fill="#182e54"/><path d="M37.539,54.574a7.53,7.53,0,1,0-7.526-7.526A7.535,7.535,0,0,0,37.539,54.574Z" transform="translate(339.427 218.637)" fill="#182e54"/><path d="M39.452,55.823A7.526,7.526,0,1,0,31.917,48.3,7.52,7.52,0,0,0,39.452,55.823Z" transform="translate(353.588 227.993)" fill="#182e54"/><path d="M41.092,57.408a7.53,7.53,0,1,0-7.526-7.526A7.535,7.535,0,0,0,41.092,57.408Z" transform="translate(365.852 239.714)" fill="#182e54"/><path d="M42.442,59.246a7.526,7.526,0,1,0-7.535-7.526A7.533,7.533,0,0,0,42.442,59.246Z" transform="translate(375.825 253.451)" fill="#182e54"/><path d="M43.432,61.3A7.526,7.526,0,1,0,35.9,53.775,7.535,7.535,0,0,0,43.432,61.3Z" transform="translate(383.188 268.735)" fill="#182e54"/><path d="M44.03,63.5A7.526,7.526,0,1,0,36.5,55.975,7.524,7.524,0,0,0,44.03,63.5Z" transform="translate(387.703 285.097)" fill="#182e54"/><path d="M43.547,60.416a4.679,4.679,0,1,0-4.683-4.683A4.678,4.678,0,0,0,43.547,60.416Z" transform="translate(405.255 304.508)" fill="#182e54"/><circle cx="4.68" cy="4.68" r="4.68" transform="translate(442.614 374.76)" fill="#182e54"/><path d="M42.836,64.911a4.679,4.679,0,1,0-4.683-4.674A4.679,4.679,0,0,0,42.836,64.911Z" transform="translate(399.967 337.939)" fill="#182e54"/><path d="M41.962,67.012a4.674,4.674,0,1,0-4.683-4.674A4.674,4.674,0,0,0,41.962,67.012Z" transform="translate(393.467 353.625)" fill="#182e54"/><path d="M31.516,80.335A7.535,7.535,0,1,0,23.981,72.8,7.542,7.542,0,0,0,31.516,80.335Z" transform="translate(294.565 410.171)" fill="#182e54"/><path d="M29.241,80.149a7.53,7.53,0,1,0-7.535-7.535A7.54,7.54,0,0,0,29.241,80.149Z" transform="translate(277.645 408.847)" fill="#182e54"/><path d="M20.444,72.183a4.679,4.679,0,1,0-4.674-4.674A4.676,4.676,0,0,0,20.444,72.183Z" transform="translate(233.496 392.024)" fill="#182e54"/><circle cx="4.68" cy="4.68" r="4.68" transform="translate(234.621 442.342)" fill="#182e54"/><path d="M17.226,68.973A4.683,4.683,0,1,0,12.552,64.3,4.676,4.676,0,0,0,17.226,68.973Z" transform="translate(209.563 368.091)" fill="#182e54"/><path d="M16.033,67.012a4.674,4.674,0,1,0-4.674-4.674A4.683,4.683,0,0,0,16.033,67.012Z" transform="translate(200.69 353.625)" fill="#182e54"/><path d="M15.168,64.911a4.679,4.679,0,1,0-4.683-4.674A4.681,4.681,0,0,0,15.168,64.911Z" transform="translate(194.19 337.939)" fill="#182e54"/><path d="M14.627,62.691a4.679,4.679,0,1,0-4.674-4.683A4.683,4.683,0,0,0,14.627,62.691Z" transform="translate(190.233 321.428)" fill="#182e54"/><path d="M17.141,63.5a7.526,7.526,0,1,0-7.526-7.526A7.522,7.522,0,0,0,17.141,63.5Z" transform="translate(187.719 285.075)" fill="#182e54"/><path d="M17.226,51.866a4.679,4.679,0,1,0-4.674-4.674A4.676,4.676,0,0,0,17.226,51.866Z" transform="translate(209.563 240.919)" fill="#182e54"/><path d="M18.717,50.131a4.679,4.679,0,1,0-4.683-4.683A4.683,4.683,0,0,0,18.717,50.131Z" transform="translate(220.585 228.015)" fill="#182e54"/><path d="M20.444,48.656a4.683,4.683,0,1,0-4.674-4.683A4.683,4.683,0,0,0,20.444,48.656Z" transform="translate(233.496 216.985)" fill="#182e54"/><path d="M22.39,47.456a4.679,4.679,0,1,0-4.674-4.683A4.688,4.688,0,0,0,22.39,47.456Z" transform="translate(247.97 208.12)" fill="#182e54"/><path d="M24.5,46.59a4.683,4.683,0,1,0-4.674-4.683A4.683,4.683,0,0,0,24.5,46.59Z" transform="translate(263.655 201.62)" fill="#182e54"/><path d="M26.727,46.05a4.679,4.679,0,1,0-4.683-4.683A4.676,4.676,0,0,0,26.727,46.05Z" transform="translate(280.158 197.663)" fill="#182e54"/><path d="M29,45.87A4.679,4.679,0,1,0,24.319,41.2,4.676,4.676,0,0,0,29,45.87Z" transform="translate(297.078 196.324)" fill="#182e54"/><path d="M31.269,46.05A4.679,4.679,0,1,0,26.6,41.367,4.678,4.678,0,0,0,31.269,46.05Z" transform="translate(314.006 197.663)" fill="#182e54"/><path d="M33.5,46.59a4.683,4.683,0,1,0-4.691-4.683A4.681,4.681,0,0,0,33.5,46.59Z" transform="translate(330.502 201.62)" fill="#182e54"/><path d="M45.357,60.416a4.679,4.679,0,1,0-4.674-4.683A4.678,4.678,0,0,0,45.357,60.416Z" transform="translate(418.784 304.508)" fill="#182e54"/><path d="M45.2,62.693a4.679,4.679,0,1,0-4.674-4.683A4.678,4.678,0,0,0,45.2,62.693Z" transform="translate(417.601 321.443)" fill="#182e54"/><path d="M44.723,64.927a4.679,4.679,0,1,0-4.674-4.683A4.688,4.688,0,0,0,44.723,64.927Z" transform="translate(414.068 338.058)" fill="#182e54"/><path d="M43.935,67.072a4.679,4.679,0,1,0-4.666-4.683A4.685,4.685,0,0,0,43.935,67.072Z" transform="translate(408.267 354.012)" fill="#182e54"/><circle cx="4.68" cy="4.68" r="4.68" transform="translate(252.369 475.136)" fill="#182e54"/><path d="M18.928,73.31a4.678,4.678,0,1,0-4.683-4.666A4.67,4.67,0,0,0,18.928,73.31Z" transform="translate(222.154 400.406)" fill="#182e54"/><circle cx="4.68" cy="4.68" r="4.68" transform="translate(222.08 451.471)" fill="#182e54"/><circle cx="4.68" cy="4.68" r="4.68" transform="translate(209.704 436.723)" fill="#182e54"/><path d="M14.554,68.091a4.674,4.674,0,1,0-4.683-4.674A4.678,4.678,0,0,0,14.554,68.091Z" transform="translate(189.623 361.65)" fill="#182e54"/><circle cx="4.68" cy="4.68" r="4.68" transform="translate(191.659 402.792)" fill="#182e54"/><circle cx="4.68" cy="4.68" r="4.68" transform="translate(186.353 384.269)" fill="#182e54"/><path d="M12.678,61.55a4.674,4.674,0,1,0-4.683-4.666A4.672,4.672,0,0,0,12.678,61.55Z" transform="translate(175.671 313.002)" fill="#182e54"/><path d="M14.554,52.734a4.679,4.679,0,1,0-4.683-4.683A4.674,4.674,0,0,0,14.554,52.734Z" transform="translate(189.623 247.375)" fill="#182e54"/><path d="M15.764,50.8a4.679,4.679,0,1,0-4.683-4.683A4.681,4.681,0,0,0,15.764,50.8Z" transform="translate(198.623 232.976)" fill="#182e54"/><circle cx="4.68" cy="4.68" r="4.68" transform="translate(222.08 259.657)" fill="#182e54"/><path d="M18.928,47.521a4.679,4.679,0,1,0-4.683-4.674A4.672,4.672,0,0,0,18.928,47.521Z" transform="translate(222.154 208.604)" fill="#182e54"/><circle cx="4.68" cy="4.68" r="4.68" transform="translate(252.369 235.997)" fill="#182e54"/><path d="M22.872,45.244a4.679,4.679,0,1,0-4.683-4.674A4.679,4.679,0,0,0,22.872,45.244Z" transform="translate(251.487 191.669)" fill="#182e54"/><path d="M25.043,44.546a4.683,4.683,0,1,0-4.683-4.683A4.683,4.683,0,0,0,25.043,44.546Z" transform="translate(267.634 186.418)" fill="#182e54"/><path d="M27.291,44.142a4.679,4.679,0,1,0-4.683-4.683A4.678,4.678,0,0,0,27.291,44.142Z" transform="translate(284.353 183.473)" fill="#182e54"/><path d="M29.557,44.062a4.679,4.679,0,1,0-4.666-4.674A4.676,4.676,0,0,0,29.557,44.062Z" transform="translate(301.333 182.878)" fill="#182e54"/><path d="M31.835,44.3a4.679,4.679,0,1,0-4.674-4.674A4.681,4.681,0,0,0,31.835,44.3Z" transform="translate(318.215 184.655)" fill="#182e54"/><circle cx="4.68" cy="4.68" r="4.68" transform="translate(364.065 224.255)" fill="#182e54"/><path d="M36.167,45.716a4.683,4.683,0,1,0-4.674-4.683A4.7,4.7,0,0,0,36.167,45.716Z" transform="translate(350.434 195.12)" fill="#182e54"/><path d="M47.048,62.7a4.679,4.679,0,1,0-4.691-4.683A4.676,4.676,0,0,0,47.048,62.7Z" transform="translate(431.234 321.458)" fill="#182e54"/><path d="M46.6,64.93a4.674,4.674,0,1,0-4.666-4.674A4.676,4.676,0,0,0,46.6,64.93Z" transform="translate(428.066 338.14)" fill="#182e54"/><path d="M45.891,67.109a4.679,4.679,0,1,0-4.666-4.683A4.678,4.678,0,0,0,45.891,67.109Z" transform="translate(422.815 354.287)" fill="#182e54"/><path d="M21.252,76.867a4.679,4.679,0,1,0-4.674-4.674A4.681,4.681,0,0,0,21.252,76.867Z" transform="translate(239.506 426.861)" fill="#182e54"/><circle cx="4.68" cy="4.68" r="4.68" transform="translate(239.202 485.089)" fill="#182e54"/><circle cx="4.68" cy="4.68" r="4.68" transform="translate(223.612 473.768)" fill="#182e54"/><path d="M15.748,72.863a4.679,4.679,0,1,0-4.683-4.691A4.69,4.69,0,0,0,15.748,72.863Z" transform="translate(198.504 397.081)" fill="#182e54"/><path d="M14.293,71.1A4.679,4.679,0,1,0,9.61,66.429,4.674,4.674,0,0,0,14.293,71.1Z" transform="translate(187.682 383.992)" fill="#182e54"/><path d="M13.053,69.184A4.683,4.683,0,1,0,8.387,64.5,4.683,4.683,0,0,0,13.053,69.184Z" transform="translate(178.586 369.652)" fill="#182e54"/><path d="M12.089,67.109a4.679,4.679,0,1,0-4.674-4.683A4.676,4.676,0,0,0,12.089,67.109Z" transform="translate(171.357 354.287)" fill="#182e54"/><path d="M11.383,64.93a4.674,4.674,0,1,0-4.674-4.674A4.674,4.674,0,0,0,11.383,64.93Z" transform="translate(166.106 338.14)" fill="#182e54"/><path d="M13.053,51.657a4.679,4.679,0,1,0-4.666-4.683A4.678,4.678,0,0,0,13.053,51.657Z" transform="translate(178.586 239.364)" fill="#182e54"/><path d="M14.293,49.729A4.679,4.679,0,1,0,9.61,45.055,4.674,4.674,0,0,0,14.293,49.729Z" transform="translate(187.682 225.025)" fill="#182e54"/><path d="M15.748,47.962a4.674,4.674,0,1,0-4.683-4.674A4.676,4.676,0,0,0,15.748,47.962Z" transform="translate(198.504 211.943)" fill="#182e54"/><path d="M17.412,46.4a4.674,4.674,0,1,0-4.683-4.674A4.676,4.676,0,0,0,17.412,46.4Z" transform="translate(210.879 200.318)" fill="#182e54"/><path d="M19.26,45.065a4.679,4.679,0,1,0-4.683-4.683A4.688,4.688,0,0,0,19.26,45.065Z" transform="translate(224.624 190.337)" fill="#182e54"/><path d="M21.252,43.972a4.683,4.683,0,1,0-4.674-4.683A4.683,4.683,0,0,0,21.252,43.972Z" transform="translate(239.506 182.149)" fill="#182e54"/><path d="M23.391,43.124A4.679,4.679,0,1,0,18.7,38.441,4.676,4.676,0,0,0,23.391,43.124Z" transform="translate(255.288 175.901)" fill="#182e54"/><path d="M25.6,42.556a4.679,4.679,0,1,0-4.691-4.674A4.672,4.672,0,0,0,25.6,42.556Z" transform="translate(271.739 171.677)" fill="#182e54"/><path d="M27.852,42.27A4.679,4.679,0,1,0,23.178,37.6,4.676,4.676,0,0,0,27.852,42.27Z" transform="translate(288.592 169.55)" fill="#182e54"/><path d="M30.144,42.27A4.679,4.679,0,1,0,25.461,37.6,4.672,4.672,0,0,0,30.144,42.27Z" transform="translate(305.572 169.55)" fill="#182e54"/><path d="M32.4,42.556a4.679,4.679,0,1,0-4.674-4.674A4.676,4.676,0,0,0,32.4,42.556Z" transform="translate(322.418 171.677)" fill="#182e54"/><circle cx="4.68" cy="4.68" r="4.68" transform="translate(368.803 209.667)" fill="#182e54"/><circle cx="4.68" cy="4.68" r="4.68" transform="translate(489.044 374.802)" fill="#182e54"/><path d="M9.019,61.558a4.679,4.679,0,1,0-4.666-4.674A4.681,4.681,0,0,0,9.019,61.558Z" transform="translate(148.584 313.002)" fill="#182e54"/><path d="M12.806,48.653A4.674,4.674,0,1,0,8.14,43.978,4.676,4.676,0,0,0,12.806,48.653Z" transform="translate(176.749 217.082)" fill="#182e54"/><path d="M23.909,41.073a4.679,4.679,0,1,0-4.674-4.683A4.685,4.685,0,0,0,23.909,41.073Z" transform="translate(259.267 160.647)" fill="#182e54"/><path d="M26.14,40.628a4.683,4.683,0,1,0-4.666-4.683A4.683,4.683,0,0,0,26.14,40.628Z" transform="translate(275.919 157.271)" fill="#182e54"/><path d="M45.811,49.6a4.679,4.679,0,1,0-4.666-4.674A4.683,4.683,0,0,0,45.811,49.6Z" transform="translate(422.22 224.088)" fill="#182e54"/><circle cx="4.68" cy="4.68" r="4.68" transform="translate(489.571 430.444)" fill="#182e54"/><path d="M47.9,71.318a4.674,4.674,0,1,0-4.683-4.674A4.674,4.674,0,0,0,47.9,71.318Z" transform="translate(437.608 385.65)" fill="#182e54"/><path d="M46.645,73.233a4.674,4.674,0,1,0-4.674-4.683A4.683,4.683,0,0,0,46.645,73.233Z" transform="translate(428.363 399.893)" fill="#182e54"/><circle cx="4.68" cy="4.68" r="4.68" transform="translate(458.203 478.744)" fill="#182e54"/><path d="M43.593,76.638a4.683,4.683,0,1,0-4.674-4.683A4.683,4.683,0,0,0,43.593,76.638Z" transform="translate(405.664 425.098)" fill="#182e54"/><path d="M41.818,78.06a4.674,4.674,0,1,0-4.674-4.674A4.676,4.676,0,0,0,41.818,78.06Z" transform="translate(392.463 435.793)" fill="#182e54"/><path d="M39.911,79.311a4.679,4.679,0,1,0-4.683-4.674A4.679,4.679,0,0,0,39.911,79.311Z" transform="translate(378.213 445.038)" fill="#182e54"/><path d="M37.868,80.347a4.679,4.679,0,1,0-4.674-4.666A4.674,4.674,0,0,0,37.868,80.347Z" transform="translate(363.085 452.743)" fill="#182e54"/><path d="M35.736,81.166a4.679,4.679,0,1,0-4.674-4.674A4.676,4.676,0,0,0,35.736,81.166Z" transform="translate(347.229 458.834)" fill="#182e54"/><circle cx="4.68" cy="4.68" r="4.68" transform="translate(359.673 535.631)" fill="#182e54"/><path d="M31.267,82.115A4.679,4.679,0,1,0,26.6,77.432,4.678,4.678,0,0,0,31.267,82.115Z" transform="translate(314.051 465.892)" fill="#182e54"/><path d="M29,82.234a4.679,4.679,0,1,0-4.683-4.683A4.678,4.678,0,0,0,29,82.234Z" transform="translate(297.078 466.777)" fill="#182e54"/><path d="M26.713,82.115a4.679,4.679,0,1,0-4.674-4.683A4.676,4.676,0,0,0,26.713,82.115Z" transform="translate(280.121 465.892)" fill="#182e54"/><path d="M24.473,81.766a4.683,4.683,0,1,0-4.691-4.683A4.676,4.676,0,0,0,24.473,81.766Z" transform="translate(263.335 463.229)" fill="#182e54"/><path d="M22.26,81.166a4.679,4.679,0,1,0-4.683-4.674A4.687,4.687,0,0,0,22.26,81.166Z" transform="translate(246.936 458.834)" fill="#182e54"/><path d="M7.184,60.416A4.679,4.679,0,1,0,2.5,55.733,4.676,4.676,0,0,0,7.184,60.416Z" transform="translate(134.81 304.508)" fill="#182e54"/><path d="M7.3,58.128A4.674,4.674,0,1,0,2.62,53.453,4.674,4.674,0,0,0,7.3,58.128Z" transform="translate(135.695 287.551)" fill="#182e54"/><path d="M7.652,55.88A4.679,4.679,0,1,0,2.978,51.2,4.678,4.678,0,0,0,7.652,55.88Z" transform="translate(138.357 270.772)" fill="#182e54"/><path d="M8.243,53.674a4.679,4.679,0,1,0-4.674-4.683A4.685,4.685,0,0,0,8.243,53.674Z" transform="translate(142.753 254.366)" fill="#182e54"/><path d="M9.062,51.549a4.683,4.683,0,1,0-4.674-4.674A4.674,4.674,0,0,0,9.062,51.549Z" transform="translate(148.844 238.502)" fill="#182e54"/><path d="M39.9,41.521a4.679,4.679,0,1,0-4.674-4.674A4.676,4.676,0,0,0,39.9,41.521Z" transform="translate(378.213 163.979)" fill="#182e54"/><path d="M41.818,42.757a4.674,4.674,0,1,0-4.674-4.674A4.676,4.676,0,0,0,41.818,42.757Z" transform="translate(392.463 173.231)" fill="#182e54"/><path d="M43.593,44.2a4.679,4.679,0,1,0-4.674-4.674A4.681,4.681,0,0,0,43.593,44.2Z" transform="translate(405.664 183.919)" fill="#182e54"/><path d="M45.216,45.817a4.679,4.679,0,1,0-4.683-4.683A4.683,4.683,0,0,0,45.216,45.817Z" transform="translate(417.668 195.93)" fill="#182e54"/><path d="M46.637,47.592a4.679,4.679,0,1,0-4.666-4.683A4.69,4.69,0,0,0,46.637,47.592Z" transform="translate(428.363 209.132)" fill="#182e54"/><circle cx="4.68" cy="4.68" r="4.68" transform="translate(480.821 263.521)" fill="#182e54"/><circle cx="4.68" cy="4.68" r="4.68" transform="translate(489.571 280.689)" fill="#182e54"/><path d="M49.752,53.674a4.679,4.679,0,1,0-4.683-4.683A4.678,4.678,0,0,0,49.752,53.674Z" transform="translate(451.404 254.366)" fill="#182e54"/><path d="M50.335,55.888A4.683,4.683,0,1,0,45.661,51.2,4.683,4.683,0,0,0,50.335,55.888Z" transform="translate(455.807 270.765)" fill="#182e54"/><path d="M49.923,71.4a4.679,4.679,0,1,0-4.674-4.683A4.676,4.676,0,0,0,49.923,71.4Z" transform="translate(452.743 386.201)" fill="#182e54"/><path d="M48.765,73.369a4.679,4.679,0,1,0-4.674-4.683A4.683,4.683,0,0,0,48.765,73.369Z" transform="translate(444.13 400.845)" fill="#182e54"/><path d="M47.431,75.224a4.683,4.683,0,1,0-4.683-4.683A4.679,4.679,0,0,0,47.431,75.224Z" transform="translate(434.142 414.582)" fill="#182e54"/><circle cx="4.68" cy="4.68" r="4.68" transform="translate(464.11 494.87)" fill="#182e54"/><path d="M44.228,78.482A4.679,4.679,0,1,0,39.562,73.8,4.678,4.678,0,0,0,44.228,78.482Z" transform="translate(410.446 438.872)" fill="#182e54"/><path d="M42.429,79.869a4.679,4.679,0,1,0-4.683-4.683A4.681,4.681,0,0,0,42.429,79.869Z" transform="translate(396.94 449.188)" fill="#182e54"/><path d="M40.473,81.074a4.679,4.679,0,1,0-4.666-4.683A4.677,4.677,0,0,0,40.473,81.074Z" transform="translate(382.519 458.15)" fill="#182e54"/><path d="M38.433,82.093a4.683,4.683,0,1,0-4.674-4.683A4.678,4.678,0,0,0,38.433,82.093Z" transform="translate(367.287 465.669)" fill="#182e54"/><path d="M36.3,82.888a4.674,4.674,0,1,0-4.674-4.666A4.672,4.672,0,0,0,36.3,82.888Z" transform="translate(351.409 471.701)" fill="#182e54"/><path d="M34.094,83.5a4.683,4.683,0,1,0-4.674-4.683A4.676,4.676,0,0,0,34.094,83.5Z" transform="translate(335.017 476.156)" fill="#182e54"/><path d="M31.859,83.88a4.679,4.679,0,1,0-4.691-4.674A4.672,4.672,0,0,0,31.859,83.88Z" transform="translate(318.268 479.019)" fill="#182e54"/><path d="M29.557,84.053a4.683,4.683,0,1,0-4.666-4.683A4.69,4.69,0,0,0,29.557,84.053Z" transform="translate(301.333 480.246)" fill="#182e54"/><path d="M27.3,83.99a4.678,4.678,0,1,0-4.691-4.683A4.676,4.676,0,0,0,27.3,83.99Z" transform="translate(284.338 479.837)" fill="#182e54"/><path d="M25.023,83.723A4.683,4.683,0,1,0,20.34,79.04,4.681,4.681,0,0,0,25.023,83.723Z" transform="translate(267.485 477.784)" fill="#182e54"/><path d="M22.784,83.222a4.679,4.679,0,1,0-4.674-4.674A4.676,4.676,0,0,0,22.784,83.222Z" transform="translate(250.9 474.125)" fill="#182e54"/><path d="M20.62,82.517a4.679,4.679,0,1,0-4.683-4.683A4.688,4.688,0,0,0,20.62,82.517Z" transform="translate(234.738 468.882)" fill="#182e54"/><path d="M5.385,61.558A4.679,4.679,0,1,0,.711,56.884,4.679,4.679,0,0,0,5.385,61.558Z" transform="translate(121.497 313.002)" fill="#182e54"/><path d="M5.385,59.274A4.679,4.679,0,1,0,.711,54.591,4.676,4.676,0,0,0,5.385,59.274Z" transform="translate(121.497 296.015)" fill="#182e54"/><path d="M5.605,57.008A4.683,4.683,0,1,0,.931,52.334,4.676,4.676,0,0,0,5.605,57.008Z" transform="translate(123.133 279.102)" fill="#182e54"/><path d="M6.053,54.768A4.683,4.683,0,1,0,1.37,50.085,4.681,4.681,0,0,0,6.053,54.768Z" transform="translate(126.398 262.435)" fill="#182e54"/><circle cx="4.678" cy="4.678" r="4.678" transform="translate(133.276 289.375)" fill="#182e54"/><path d="M38.433,38.746a4.679,4.679,0,1,0-4.674-4.674A4.676,4.676,0,0,0,38.433,38.746Z" transform="translate(367.287 143.341)" fill="#182e54"/><path d="M40.473,39.759a4.679,4.679,0,1,0-4.666-4.683A4.683,4.683,0,0,0,40.473,39.759Z" transform="translate(382.519 150.875)" fill="#182e54"/><path d="M42.429,40.964a4.679,4.679,0,1,0-4.683-4.683A4.676,4.676,0,0,0,42.429,40.964Z" transform="translate(396.94 159.837)" fill="#182e54"/><path d="M44.228,42.35a4.679,4.679,0,1,0-4.666-4.674A4.683,4.683,0,0,0,44.228,42.35Z" transform="translate(410.446 170.145)" fill="#182e54"/><path d="M45.916,43.906a4.679,4.679,0,1,0-4.683-4.683A4.683,4.683,0,0,0,45.916,43.906Z" transform="translate(422.874 181.717)" fill="#182e54"/><path d="M47.431,45.615a4.679,4.679,0,1,0-4.683-4.674A4.672,4.672,0,0,0,47.431,45.615Z" transform="translate(434.142 194.428)" fill="#182e54"/><path d="M48.765,47.463a4.679,4.679,0,1,0-4.674-4.683A4.683,4.683,0,0,0,48.765,47.463Z" transform="translate(444.13 208.172)" fill="#182e54"/><path d="M49.923,49.432a4.679,4.679,0,1,0-4.674-4.683A4.681,4.681,0,0,0,49.923,49.432Z" transform="translate(452.743 222.816)" fill="#182e54"/><path d="M50.894,51.5a4.679,4.679,0,1,0-4.683-4.683A4.674,4.674,0,0,0,50.894,51.5Z" transform="translate(459.897 238.219)" fill="#182e54"/><path d="M51.643,53.65a4.674,4.674,0,1,0-4.674-4.674A4.681,4.681,0,0,0,51.643,53.65Z" transform="translate(465.535 254.247)" fill="#182e54"/><path d="M52.2,55.875A4.679,4.679,0,1,0,47.515,51.2,4.674,4.674,0,0,0,52.2,55.875Z" transform="translate(469.596 270.735)" fill="#182e54"/><path d="M51.936,71.468a4.683,4.683,0,1,0-4.683-4.683A4.676,4.676,0,0,0,51.936,71.468Z" transform="translate(467.647 386.647)" fill="#182e54"/><path d="M50.854,73.464A4.674,4.674,0,1,0,46.171,68.8,4.678,4.678,0,0,0,50.854,73.464Z" transform="translate(459.6 401.611)" fill="#182e54"/><path d="M48.163,77.172a4.683,4.683,0,1,0-4.674-4.683A4.678,4.678,0,0,0,48.163,77.172Z" transform="translate(439.653 429.062)" fill="#182e54"/><circle cx="4.68" cy="4.68" r="4.68" transform="translate(439.713 534.807)" fill="#182e54"/><path d="M41.056,82.839a4.683,4.683,0,1,0-4.674-4.683A4.688,4.688,0,0,0,41.056,82.839Z" transform="translate(386.796 471.217)" fill="#182e54"/><circle cx="4.68" cy="4.68" r="4.68" transform="translate(405.807 553.05)" fill="#182e54"/><circle cx="4.68" cy="4.68" r="4.68" transform="translate(387.762 559.822)" fill="#182e54"/><path d="M34.666,85.225a4.674,4.674,0,1,0-4.683-4.683A4.678,4.678,0,0,0,34.666,85.225Z" transform="translate(339.204 489.082)" fill="#182e54"/><path d="M32.419,85.64a4.679,4.679,0,1,0-4.683-4.674A4.674,4.674,0,0,0,32.419,85.64Z" transform="translate(322.492 492.109)" fill="#182e54"/><path d="M30.152,85.845a4.679,4.679,0,1,0-4.691-4.674A4.672,4.672,0,0,0,30.152,85.845Z" transform="translate(305.572 493.633)" fill="#182e54"/><circle cx="4.68" cy="4.68" r="4.68" transform="translate(311.76 570.122)" fill="#182e54"/><circle cx="4.68" cy="4.68" r="4.68" transform="translate(292.57 568.391)" fill="#182e54"/><path d="M23.338,85.225a4.674,4.674,0,1,0-4.683-4.683A4.678,4.678,0,0,0,23.338,85.225Z" transform="translate(254.953 489.082)" fill="#182e54"/><path d="M21.128,84.632a4.683,4.683,0,1,0-4.674-4.683A4.676,4.676,0,0,0,21.128,84.632Z" transform="translate(238.584 484.552)" fill="#182e54"/><path d="M9.656,78.829A7.526,7.526,0,1,0,2.13,71.312,7.528,7.528,0,0,0,9.656,78.829Z" transform="translate(132.051 399.097)" fill="#182e54"/><path d="M3.547,60.416a4.679,4.679,0,1,0-4.683-4.683A4.678,4.678,0,0,0,3.547,60.416Z" transform="translate(107.76 304.508)" fill="#182e54"/><path d="M3.948,55.871A4.679,4.679,0,1,0-.726,51.188,4.678,4.678,0,0,0,3.948,55.871Z" transform="translate(110.809 270.706)" fill="#182e54"/><path d="M4.465,53.644A4.679,4.679,0,1,0-.218,48.97,4.681,4.681,0,0,0,4.465,53.644Z" transform="translate(114.588 254.142)" fill="#182e54"/><path d="M9.656,52.726A7.53,7.53,0,1,0,2.13,45.2,7.529,7.529,0,0,0,9.656,52.726Z" transform="translate(132.051 204.892)" fill="#182e54"/><path d="M30.358,40.353a7.53,7.53,0,1,0-7.518-7.526A7.524,7.524,0,0,0,30.358,40.353Z" transform="translate(286.079 112.87)" fill="#182e54"/><path d="M32.666,40.353a7.53,7.53,0,1,0-7.543-7.526A7.52,7.52,0,0,0,32.666,40.353Z" transform="translate(303.058 112.87)" fill="#182e54"/><circle cx="4.68" cy="4.68" r="4.68" transform="translate(405.807 158.079)" fill="#182e54"/><path d="M41.056,38a4.679,4.679,0,1,0-4.674-4.674A4.681,4.681,0,0,0,41.056,38Z" transform="translate(386.796 137.8)" fill="#182e54"/><circle cx="4.68" cy="4.68" r="4.68" transform="translate(439.713 176.326)" fill="#182e54"/><path d="M46.593,42.026a4.683,4.683,0,1,0-4.683-4.683A4.687,4.687,0,0,0,46.593,42.026Z" transform="translate(427.909 167.668)" fill="#182e54"/><path d="M50.854,47.368a4.683,4.683,0,1,0-4.683-4.683A4.687,4.687,0,0,0,50.854,47.368Z" transform="translate(459.6 207.406)" fill="#182e54"/><path d="M51.936,49.38A4.683,4.683,0,1,0,47.253,44.7,4.676,4.676,0,0,0,51.936,49.38Z" transform="translate(467.647 222.363)" fill="#182e54"/><path d="M53.539,53.644a4.679,4.679,0,1,0-4.683-4.674A4.676,4.676,0,0,0,53.539,53.644Z" transform="translate(479.569 254.142)" fill="#182e54"/><path d="M54.047,55.871a4.679,4.679,0,1,0-4.683-4.683A4.678,4.678,0,0,0,54.047,55.871Z" transform="translate(483.348 270.706)" fill="#182e54"/><path d="M58.773,65.782a7.53,7.53,0,1,0-7.518-7.535A7.524,7.524,0,0,0,58.773,65.782Z" transform="translate(497.412 301.995)" fill="#182e54"/><path d="M58.407,70.33A7.53,7.53,0,1,0,50.872,62.8,7.533,7.533,0,0,0,58.407,70.33Z" transform="translate(494.563 335.82)" fill="#182e54"/><path d="M57.932,72.565A7.53,7.53,0,1,0,50.4,65.03,7.547,7.547,0,0,0,57.932,72.565Z" transform="translate(491.03 352.442)" fill="#182e54"/><path d="M57.272,74.742a7.526,7.526,0,1,0-7.535-7.526A7.528,7.528,0,0,0,57.272,74.742Z" transform="translate(486.122 368.7)" fill="#182e54"/><path d="M56.431,76.866A7.526,7.526,0,1,0,48.9,69.349,7.52,7.52,0,0,0,56.431,76.866Z" transform="translate(479.867 384.497)" fill="#182e54"/><path d="M55.4,78.92a7.53,7.53,0,1,0-7.518-7.526A7.519,7.519,0,0,0,55.4,78.92Z" transform="translate(472.318 399.707)" fill="#182e54"/><path d="M54.232,80.874A7.53,7.53,0,1,0,46.7,73.356,7.52,7.52,0,0,0,54.232,80.874Z" transform="translate(463.512 414.239)" fill="#182e54"/><path d="M52.889,82.714a7.526,7.526,0,1,0-7.535-7.526A7.529,7.529,0,0,0,52.889,82.714Z" transform="translate(453.524 427.991)" fill="#182e54"/><path d="M51.4,84.459a7.535,7.535,0,1,0-7.535-7.535A7.54,7.54,0,0,0,51.4,84.459Z" transform="translate(442.427 440.843)" fill="#182e54"/><path d="M43.607,83.443a4.679,4.679,0,1,0-4.674-4.683A4.678,4.678,0,0,0,43.607,83.443Z" transform="translate(405.768 475.769)" fill="#182e54"/><path d="M44.151,89.959a7.535,7.535,0,1,0-7.535-7.535A7.535,7.535,0,0,0,44.151,89.959Z" transform="translate(388.536 481.748)" fill="#182e54"/><circle cx="7.527" cy="7.527" r="7.527" transform="translate(389.662 571.568)" fill="#182e54"/><path d="M37.736,92.334a7.53,7.53,0,1,0-7.526-7.526A7.52,7.52,0,0,0,37.736,92.334Z" transform="translate(340.892 499.472)" fill="#182e54"/><path d="M30.706,87.635a4.679,4.679,0,1,0-4.674-4.683A4.69,4.69,0,0,0,30.706,87.635Z" transform="translate(309.819 506.946)" fill="#182e54"/><path d="M28.431,87.675a4.674,4.674,0,1,0-4.683-4.666A4.678,4.678,0,0,0,28.431,87.675Z" transform="translate(292.832 507.303)" fill="#182e54"/><path d="M26.406,92.564a7.526,7.526,0,1,0-7.535-7.535A7.522,7.522,0,0,0,26.406,92.564Z" transform="translate(256.56 501.249)" fill="#182e54"/><path d="M24.182,92.05a7.53,7.53,0,1,0-7.535-7.526A7.528,7.528,0,0,0,24.182,92.05Z" transform="translate(240.019 497.36)" fill="#182e54"/><path d="M17.871,89.4a7.53,7.53,0,1,0-7.526-7.535A7.547,7.547,0,0,0,17.871,89.4Z" transform="translate(193.149 477.658)" fill="#182e54"/><path d="M15.952,88.177a7.53,7.53,0,1,0-7.535-7.526A7.52,7.52,0,0,0,15.952,88.177Z" transform="translate(178.809 468.555)" fill="#182e54"/><path d="M12.434,85.268A7.53,7.53,0,1,0,4.9,77.733,7.537,7.537,0,0,0,12.434,85.268Z" transform="translate(152.645 446.919)" fill="#182e54"/><path d="M9.444,81.813a7.53,7.53,0,1,0-7.526-7.535A7.529,7.529,0,0,0,9.444,81.813Z" transform="translate(130.474 421.223)" fill="#182e54"/><path d="M8.188,79.91A7.53,7.53,0,1,0,.653,72.384,7.533,7.533,0,0,0,8.188,79.91Z" transform="translate(121.066 407.07)" fill="#182e54"/><path d="M7.072,77.916A7.535,7.535,0,1,0-.446,70.382,7.542,7.542,0,0,0,7.072,77.916Z" transform="translate(112.892 392.18)" fill="#182e54"/><path d="M6.159,75.814A7.526,7.526,0,1,0-1.376,68.28,7.535,7.535,0,0,0,6.159,75.814Z" transform="translate(105.975 376.673)" fill="#182e54"/><path d="M5.4,73.664a7.53,7.53,0,1,0-7.526-7.526A7.522,7.522,0,0,0,5.4,73.664Z" transform="translate(100.39 360.616)" fill="#182e54"/><path d="M4.831,71.452a7.53,7.53,0,1,0-7.526-7.526A7.529,7.529,0,0,0,4.831,71.452Z" transform="translate(96.165 344.164)" fill="#182e54"/><path d="M4.267,66.924A7.53,7.53,0,1,0-3.268,59.4,7.535,7.535,0,0,0,4.267,66.924Z" transform="translate(91.904 310.488)" fill="#182e54"/><path d="M4.267,64.64a7.53,7.53,0,1,0-7.535-7.535A7.537,7.537,0,0,0,4.267,64.64Z" transform="translate(91.904 293.501)" fill="#182e54"/><circle cx="4.68" cy="4.68" r="4.68" transform="translate(96.319 307.723)" fill="#182e54"/><path d="M5.4,57.891a7.526,7.526,0,1,0-7.526-7.526A7.528,7.528,0,0,0,5.4,57.891Z" transform="translate(100.39 243.373)" fill="#182e54"/><path d="M8.188,51.654A7.53,7.53,0,1,0,.653,44.119,7.535,7.535,0,0,0,8.188,51.654Z" transform="translate(121.066 196.919)" fill="#182e54"/><path d="M9.452,49.743a7.526,7.526,0,1,0-7.535-7.526A7.528,7.528,0,0,0,9.452,49.743Z" transform="translate(130.466 182.773)" fill="#182e54"/><path d="M12.434,46.288A7.526,7.526,0,1,0,4.9,38.762,7.529,7.529,0,0,0,12.434,46.288Z" transform="translate(152.645 157.077)" fill="#182e54"/><path d="M15.952,43.387a7.53,7.53,0,1,0-7.535-7.526A7.526,7.526,0,0,0,15.952,43.387Z" transform="translate(178.809 135.435)" fill="#182e54"/><path d="M17.871,42.163a7.53,7.53,0,1,0-7.526-7.526A7.535,7.535,0,0,0,17.871,42.163Z" transform="translate(193.149 126.331)" fill="#182e54"/><path d="M22.01,40.22a7.53,7.53,0,1,0-7.535-7.535A7.535,7.535,0,0,0,22.01,40.22Z" transform="translate(223.865 111.88)" fill="#182e54"/><path d="M24.182,39.514a7.53,7.53,0,1,0-7.535-7.535A7.535,7.535,0,0,0,24.182,39.514Z" transform="translate(240.019 106.63)" fill="#182e54"/><path d="M28.649,38.65a7.526,7.526,0,1,0-7.518-7.526A7.524,7.524,0,0,0,28.649,38.65Z" transform="translate(273.368 100.271)" fill="#182e54"/><path d="M30.945,38.515A7.53,7.53,0,1,0,23.41,30.98,7.517,7.517,0,0,0,30.945,38.515Z" transform="translate(290.318 99.2)" fill="#182e54"/><path d="M33.22,38.563a7.53,7.53,0,1,0-7.526-7.535A7.537,7.537,0,0,0,33.22,38.563Z" transform="translate(307.305 99.557)" fill="#182e54"/><path d="M35.492,38.8a7.53,7.53,0,1,0-7.526-7.535A7.529,7.529,0,0,0,35.492,38.8Z" transform="translate(324.203 101.334)" fill="#182e54"/><circle cx="7.525" cy="7.525" r="7.525" transform="translate(371.1 128.691)" fill="#182e54"/><circle cx="7.531" cy="7.531" r="7.531" transform="translate(389.657 133.867)" fill="#182e54"/><path d="M44.151,41.613a7.53,7.53,0,1,0-7.535-7.526A7.528,7.528,0,0,0,44.151,41.613Z" transform="translate(388.536 122.241)" fill="#182e54"/><path d="M43.607,37.389a4.679,4.679,0,1,0-4.674-4.683A4.683,4.683,0,0,0,43.607,37.389Z" transform="translate(405.768 133.248)" fill="#182e54"/><path d="M47.989,44.066a7.535,7.535,0,1,0-7.518-7.535A7.537,7.537,0,0,0,47.989,44.066Z" transform="translate(417.207 140.425)" fill="#182e54"/><path d="M49.765,45.522a7.535,7.535,0,1,0-7.535-7.543A7.538,7.538,0,0,0,49.765,45.522Z" transform="translate(430.289 151.254)" fill="#182e54"/><circle cx="7.531" cy="7.531" r="7.531" transform="translate(486.292 195.194)" fill="#182e54"/><path d="M54.24,50.681A7.526,7.526,0,1,0,46.7,43.155,7.52,7.52,0,0,0,54.24,50.681Z" transform="translate(463.512 189.75)" fill="#182e54"/><path d="M55.407,52.643a7.53,7.53,0,1,0-7.526-7.535A7.519,7.519,0,0,0,55.407,52.643Z" transform="translate(472.318 204.275)" fill="#182e54"/><path d="M57.272,56.813a7.53,7.53,0,1,0-7.535-7.535A7.535,7.535,0,0,0,57.272,56.813Z" transform="translate(486.122 235.289)" fill="#182e54"/><path d="M57.932,58.991A7.526,7.526,0,1,0,50.4,51.465,7.535,7.535,0,0,0,57.932,58.991Z" transform="translate(491.03 251.554)" fill="#182e54"/><path d="M60.607,65.782a7.53,7.53,0,1,0-7.535-7.535A7.529,7.529,0,0,0,60.607,65.782Z" transform="translate(510.925 301.995)" fill="#182e54"/><path d="M60.509,68.065a7.53,7.53,0,1,0-7.526-7.535A7.542,7.542,0,0,0,60.509,68.065Z" transform="translate(510.263 318.974)" fill="#182e54"/><path d="M60.24,70.324A7.526,7.526,0,1,0,52.714,62.8,7.524,7.524,0,0,0,60.24,70.324Z" transform="translate(508.263 335.842)" fill="#182e54"/><path d="M59.8,72.573a7.53,7.53,0,1,0-7.526-7.535A7.537,7.537,0,0,0,59.8,72.573Z" transform="translate(504.953 352.502)" fill="#182e54"/><path d="M59.175,74.772a7.53,7.53,0,1,0-7.526-7.535A7.542,7.542,0,0,0,59.175,74.772Z" transform="translate(500.342 368.857)" fill="#182e54"/><path d="M58.393,76.914a7.53,7.53,0,1,0-7.535-7.526A7.528,7.528,0,0,0,58.393,76.914Z" transform="translate(494.459 384.787)" fill="#182e54"/><path d="M57.436,78.989A7.53,7.53,0,1,0,49.9,71.454,7.537,7.537,0,0,0,57.436,78.989Z" transform="translate(487.341 400.22)" fill="#182e54"/><path d="M56.312,80.974a7.526,7.526,0,1,0-7.526-7.535A7.529,7.529,0,0,0,56.312,80.974Z" transform="translate(479.049 415.05)" fill="#182e54"/><path d="M55.043,82.881a7.53,7.53,0,1,0-7.526-7.526A7.54,7.54,0,0,0,55.043,82.881Z" transform="translate(469.611 429.166)" fill="#182e54"/><path d="M53.629,84.666A7.526,7.526,0,1,0,46.1,77.149,7.528,7.528,0,0,0,53.629,84.666Z" transform="translate(459.094 442.509)" fill="#182e54"/><path d="M52.078,86.344a7.526,7.526,0,1,0-7.526-7.535A7.531,7.531,0,0,0,52.078,86.344Z" transform="translate(447.559 454.989)" fill="#182e54"/><path d="M50.409,87.9a7.53,7.53,0,1,0-7.535-7.535A7.529,7.529,0,0,0,50.409,87.9Z" transform="translate(435.079 466.517)" fill="#182e54"/><path d="M46.7,90.586a7.53,7.53,0,1,0-7.518-7.526A7.529,7.529,0,0,0,46.7,90.586Z" transform="translate(407.62 486.471)" fill="#182e54"/><path d="M44.723,91.7a7.53,7.53,0,1,0-7.535-7.535A7.537,7.537,0,0,0,44.723,91.7Z" transform="translate(392.79 494.771)" fill="#182e54"/><path d="M42.649,92.666a7.535,7.535,0,1,0-7.535-7.535A7.54,7.54,0,0,0,42.649,92.666Z" transform="translate(377.365 501.881)" fill="#182e54"/><path d="M40.5,93.449a7.53,7.53,0,1,0-7.526-7.526A7.535,7.535,0,0,0,40.5,93.449Z" transform="translate(361.427 507.764)" fill="#182e54"/><path d="M38.307,94.061a7.526,7.526,0,1,0-7.535-7.535A7.542,7.542,0,0,0,38.307,94.061Z" transform="translate(345.072 512.383)" fill="#182e54"/><path d="M33.783,94.791a7.535,7.535,0,1,0-7.518-7.535A7.542,7.542,0,0,0,33.783,94.791Z" transform="translate(311.552 517.686)" fill="#182e54"/><path d="M31.516,94.873a7.53,7.53,0,1,0-7.535-7.526A7.54,7.54,0,0,0,31.516,94.873Z" transform="translate(294.565 518.355)" fill="#182e54"/><path d="M29.225,94.791A7.535,7.535,0,1,0,21.7,87.257,7.529,7.529,0,0,0,29.225,94.791Z" transform="translate(277.593 517.686)" fill="#182e54"/><path d="M26.957,94.506a7.526,7.526,0,1,0-7.526-7.535A7.531,7.531,0,0,0,26.957,94.506Z" transform="translate(260.725 515.693)" fill="#182e54"/><path d="M24.725,94.061a7.526,7.526,0,1,0-7.535-7.535A7.535,7.535,0,0,0,24.725,94.061Z" transform="translate(244.057 512.383)" fill="#182e54"/><path d="M22.534,93.449a7.53,7.53,0,1,0-7.543-7.526A7.526,7.526,0,0,0,22.534,93.449Z" transform="translate(227.703 507.764)" fill="#182e54"/><path d="M20.375,92.666a7.535,7.535,0,1,0-7.526-7.535A7.542,7.542,0,0,0,20.375,92.666Z" transform="translate(211.772 501.881)" fill="#182e54"/><path d="M18.309,91.7a7.53,7.53,0,1,0-7.535-7.535A7.537,7.537,0,0,0,18.309,91.7Z" transform="translate(196.339 494.771)" fill="#182e54"/><path d="M16.308,90.586A7.53,7.53,0,1,0,8.782,83.06,7.528,7.528,0,0,0,16.308,90.586Z" transform="translate(181.524 486.471)" fill="#182e54"/><path d="M14.408,89.317a7.53,7.53,0,1,0-7.526-7.535A7.531,7.531,0,0,0,14.408,89.317Z" transform="translate(167.393 477.033)" fill="#182e54"/><path d="M12.607,87.9a7.53,7.53,0,1,0-7.518-7.535A7.531,7.531,0,0,0,12.607,87.9Z" transform="translate(154.058 466.517)" fill="#182e54"/><path d="M10.946,86.344A7.526,7.526,0,1,0,3.411,78.81,7.529,7.529,0,0,0,10.946,86.344Z" transform="translate(141.578 454.989)" fill="#182e54"/><path d="M9.395,84.666A7.526,7.526,0,1,0,1.86,77.149,7.515,7.515,0,0,0,9.395,84.666Z" transform="translate(130.042 442.509)" fill="#182e54"/><path d="M7.981,82.881A7.53,7.53,0,1,0,.446,75.355,7.528,7.528,0,0,0,7.981,82.881Z" transform="translate(119.526 429.166)" fill="#182e54"/><path d="M6.7,80.974A7.526,7.526,0,1,0-.823,73.44,7.537,7.537,0,0,0,6.7,80.974Z" transform="translate(110.088 415.05)" fill="#182e54"/><path d="M5.58,78.989a7.53,7.53,0,1,0-7.518-7.535A7.544,7.544,0,0,0,5.58,78.989Z" transform="translate(101.795 400.22)" fill="#182e54"/><path d="M4.639,76.914A7.53,7.53,0,1,0-2.9,69.388,7.529,7.529,0,0,0,4.639,76.914Z" transform="translate(94.67 384.787)" fill="#182e54"/><path d="M3.849,74.772a7.53,7.53,0,1,0-7.535-7.535A7.535,7.535,0,0,0,3.849,74.772Z" transform="translate(88.795 368.857)" fill="#182e54"/><path d="M3.229,72.573a7.53,7.53,0,1,0-7.535-7.535A7.529,7.529,0,0,0,3.229,72.573Z" transform="translate(84.184 352.502)" fill="#182e54"/><path d="M2.522,68.065A7.53,7.53,0,1,0-5.021,60.53,7.54,7.54,0,0,0,2.522,68.065Z" transform="translate(78.866 318.974)" fill="#182e54"/><path d="M2.417,65.782a7.53,7.53,0,1,0-7.526-7.535A7.529,7.529,0,0,0,2.417,65.782Z" transform="translate(78.211 301.995)" fill="#182e54"/><path d="M2.522,63.491a7.526,7.526,0,1,0-7.543-7.526A7.528,7.528,0,0,0,2.522,63.491Z" transform="translate(78.866 285.022)" fill="#182e54"/><path d="M2.784,61.231A7.53,7.53,0,1,0-4.751,53.7,7.528,7.528,0,0,0,2.784,61.231Z" transform="translate(80.874 268.147)" fill="#182e54"/><path d="M3.229,58.991a7.53,7.53,0,1,0-7.535-7.535A7.535,7.535,0,0,0,3.229,58.991Z" transform="translate(84.184 251.487)" fill="#182e54"/><path d="M3.849,56.792a7.53,7.53,0,1,0-7.535-7.526A7.522,7.522,0,0,0,3.849,56.792Z" transform="translate(88.795 235.133)" fill="#182e54"/><path d="M4.639,54.649A7.53,7.53,0,1,0-2.9,47.123,7.529,7.529,0,0,0,4.639,54.649Z" transform="translate(94.67 219.194)" fill="#182e54"/><path d="M5.588,52.575a7.53,7.53,0,1,0-7.526-7.526A7.54,7.54,0,0,0,5.588,52.575Z" transform="translate(101.795 203.769)" fill="#182e54"/><path d="M6.7,50.582A7.53,7.53,0,1,0-.823,43.047,7.537,7.537,0,0,0,6.7,50.582Z" transform="translate(110.088 188.946)" fill="#182e54"/><path d="M7.981,48.683A7.53,7.53,0,1,0,.446,41.148,7.529,7.529,0,0,0,7.981,48.683Z" transform="translate(119.526 174.823)" fill="#182e54"/><path d="M9.395,46.889A7.53,7.53,0,1,0,1.86,39.354,7.529,7.529,0,0,0,9.395,46.889Z" transform="translate(130.042 161.48)" fill="#182e54"/><path d="M10.946,45.212a7.53,7.53,0,1,0-7.535-7.535A7.535,7.535,0,0,0,10.946,45.212Z" transform="translate(141.578 149.008)" fill="#182e54"/><path d="M12.607,43.661a7.53,7.53,0,1,0-7.518-7.526A7.524,7.524,0,0,0,12.607,43.661Z" transform="translate(154.058 137.472)" fill="#182e54"/><path d="M14.408,42.247a7.53,7.53,0,1,0-7.526-7.535A7.526,7.526,0,0,0,14.408,42.247Z" transform="translate(167.393 126.956)" fill="#182e54"/><path d="M16.308,40.978a7.53,7.53,0,1,0-7.526-7.535A7.524,7.524,0,0,0,16.308,40.978Z" transform="translate(181.524 117.518)" fill="#182e54"/><circle cx="7.531" cy="7.531" r="7.531" transform="translate(207.117 134.015)" fill="#182e54"/><path d="M20.375,38.9a7.526,7.526,0,1,0-7.526-7.526A7.529,7.529,0,0,0,20.375,38.9Z" transform="translate(211.772 102.108)" fill="#182e54"/><path d="M22.534,38.115a7.53,7.53,0,1,0-7.543-7.526A7.526,7.526,0,0,0,22.534,38.115Z" transform="translate(227.703 96.225)" fill="#182e54"/><path d="M24.725,37.495A7.53,7.53,0,1,0,17.19,29.96,7.535,7.535,0,0,0,24.725,37.495Z" transform="translate(244.057 91.614)" fill="#182e54"/><path d="M29.234,36.781A7.53,7.53,0,1,0,21.7,29.255,7.52,7.52,0,0,0,29.234,36.781Z" transform="translate(277.593 86.303)" fill="#182e54"/><path d="M31.516,36.683a7.526,7.526,0,1,0-7.535-7.526A7.54,7.54,0,0,0,31.516,36.683Z" transform="translate(294.565 85.641)" fill="#182e54"/><path d="M33.783,36.781a7.53,7.53,0,1,0-7.518-7.526A7.535,7.535,0,0,0,33.783,36.781Z" transform="translate(311.552 86.303)" fill="#182e54"/><path d="M36.067,37.041a7.526,7.526,0,1,0-7.535-7.526A7.533,7.533,0,0,0,36.067,37.041Z" transform="translate(328.412 88.304)" fill="#182e54"/><circle cx="7.531" cy="7.531" r="7.531" transform="translate(375.848 114.046)" fill="#182e54"/><path d="M40.49,38.115a7.53,7.53,0,1,0-7.518-7.526A7.535,7.535,0,0,0,40.49,38.115Z" transform="translate(361.434 96.225)" fill="#182e54"/><path d="M42.649,38.9a7.526,7.526,0,1,0-7.535-7.526A7.528,7.528,0,0,0,42.649,38.9Z" transform="translate(377.365 102.108)" fill="#182e54"/><path d="M44.723,39.862a7.53,7.53,0,1,0-7.535-7.526A7.54,7.54,0,0,0,44.723,39.862Z" transform="translate(392.79 109.218)" fill="#182e54"/><path d="M46.7,40.978a7.53,7.53,0,1,0-7.518-7.526A7.524,7.524,0,0,0,46.7,40.978Z" transform="translate(407.62 117.518)" fill="#182e54"/><path d="M48.607,42.247a7.53,7.53,0,1,0-7.526-7.526A7.522,7.522,0,0,0,48.607,42.247Z" transform="translate(421.744 126.956)" fill="#182e54"/><path d="M50.409,43.661a7.53,7.53,0,1,0-7.535-7.526A7.522,7.522,0,0,0,50.409,43.661Z" transform="translate(435.079 137.472)" fill="#182e54"/><path d="M52.078,45.212a7.53,7.53,0,1,0-7.526-7.535A7.537,7.537,0,0,0,52.078,45.212Z" transform="translate(447.559 149.008)" fill="#182e54"/><path d="M53.629,46.889A7.53,7.53,0,1,0,46.1,39.354,7.537,7.537,0,0,0,53.629,46.889Z" transform="translate(459.094 161.48)" fill="#182e54"/><path d="M56.312,50.582a7.53,7.53,0,1,0-7.526-7.535A7.529,7.529,0,0,0,56.312,50.582Z" transform="translate(479.049 188.946)" fill="#182e54"/><circle cx="7.529" cy="7.529" r="7.529" transform="translate(537.248 241.285)" fill="#182e54"/><path d="M58.393,54.641a7.526,7.526,0,1,0-7.535-7.526A7.528,7.528,0,0,0,58.393,54.641Z" transform="translate(494.459 219.202)" fill="#182e54"/><path d="M59.175,56.784a7.526,7.526,0,1,0-7.526-7.526A7.529,7.529,0,0,0,59.175,56.784Z" transform="translate(500.342 235.14)" fill="#182e54"/><path d="M59.8,58.991a7.53,7.53,0,1,0-7.526-7.535A7.542,7.542,0,0,0,59.8,58.991Z" transform="translate(504.953 251.487)" fill="#182e54"/><path d="M60.509,63.491a7.526,7.526,0,1,0-7.526-7.526A7.529,7.529,0,0,0,60.509,63.491Z" transform="translate(510.263 285.022)" fill="#182e54"/><path d="M62.417,65.782a7.53,7.53,0,1,0-7.526-7.535A7.535,7.535,0,0,0,62.417,65.782Z" transform="translate(524.454 301.995)" fill="#182e54"/><path d="M62.325,68.065a7.53,7.53,0,1,0-7.518-7.535A7.542,7.542,0,0,0,62.325,68.065Z" transform="translate(523.829 318.974)" fill="#182e54"/><path d="M62.072,70.326A7.526,7.526,0,1,0,54.554,62.8,7.531,7.531,0,0,0,62.072,70.326Z" transform="translate(521.948 335.857)" fill="#182e54"/><path d="M61.66,72.58a7.53,7.53,0,1,0-7.526-7.526A7.535,7.535,0,0,0,61.66,72.58Z" transform="translate(518.824 352.554)" fill="#182e54"/><path d="M61.068,74.78a7.526,7.526,0,1,0-7.518-7.526A7.524,7.524,0,0,0,61.068,74.78Z" transform="translate(514.48 368.983)" fill="#182e54"/><path d="M60.33,76.948A7.53,7.53,0,1,0,52.8,69.413,7.54,7.54,0,0,0,60.33,76.948Z" transform="translate(508.932 385.04)" fill="#182e54"/><circle cx="7.531" cy="7.531" r="7.531" transform="translate(554.104 464.622)" fill="#182e54"/><path d="M58.363,81.063a7.526,7.526,0,1,0-7.518-7.526A7.529,7.529,0,0,0,58.363,81.063Z" transform="translate(494.362 415.712)" fill="#182e54"/><path d="M57.168,83.014a7.53,7.53,0,1,0-7.526-7.535A7.542,7.542,0,0,0,57.168,83.014Z" transform="translate(485.415 430.155)" fill="#182e54"/><path d="M55.825,84.862A7.53,7.53,0,1,0,48.3,77.327,7.537,7.537,0,0,0,55.825,84.862Z" transform="translate(475.427 443.9)" fill="#182e54"/><path d="M54.358,86.6a7.526,7.526,0,1,0-7.535-7.526A7.528,7.528,0,0,0,54.358,86.6Z" transform="translate(464.449 456.87)" fill="#182e54"/><path d="M52.75,88.227a7.526,7.526,0,1,0-7.526-7.535A7.537,7.537,0,0,0,52.75,88.227Z" transform="translate(452.557 468.993)" fill="#182e54"/><path d="M49.211,91.127a7.535,7.535,0,1,0-7.526-7.535A7.535,7.535,0,0,0,49.211,91.127Z" transform="translate(426.236 490.435)" fill="#182e54"/><path d="M47.291,92.358a7.53,7.53,0,1,0-7.526-7.535A7.547,7.547,0,0,0,47.291,92.358Z" transform="translate(411.956 499.65)" fill="#182e54"/><path d="M45.285,93.451a7.53,7.53,0,1,0-7.526-7.535A7.537,7.537,0,0,0,45.285,93.451Z" transform="translate(397.037 507.779)" fill="#182e54"/><path d="M43.2,94.393a7.53,7.53,0,1,0-7.526-7.535A7.529,7.529,0,0,0,43.2,94.393Z" transform="translate(381.56 514.785)" fill="#182e54"/><path d="M41.059,95.178a7.53,7.53,0,1,0-7.526-7.526A7.522,7.522,0,0,0,41.059,95.178Z" transform="translate(365.606 520.624)" fill="#182e54"/><path d="M38.862,95.8a7.53,7.53,0,1,0-7.526-7.526A7.529,7.529,0,0,0,38.862,95.8Z" transform="translate(349.267 525.272)" fill="#182e54"/><path d="M36.625,96.256A7.526,7.526,0,1,0,29.1,88.722,7.537,7.537,0,0,0,36.625,96.256Z" transform="translate(332.629 528.708)" fill="#182e54"/><path d="M34.368,96.559a7.53,7.53,0,1,0-7.535-7.535A7.524,7.524,0,0,0,34.368,96.559Z" transform="translate(315.776 530.895)" fill="#182e54"/><path d="M32.071,96.686a7.53,7.53,0,1,0-7.518-7.535A7.531,7.531,0,0,0,32.071,96.686Z" transform="translate(298.819 531.839)" fill="#182e54"/><path d="M29.8,96.635a7.526,7.526,0,1,0-7.526-7.526A7.524,7.524,0,0,0,29.8,96.635Z" transform="translate(281.832 531.527)" fill="#182e54"/><path d="M27.529,96.433a7.53,7.53,0,1,0-7.535-7.543A7.519,7.519,0,0,0,27.529,96.433Z" transform="translate(264.912 529.958)" fill="#182e54"/><path d="M25.276,96.055a7.53,7.53,0,1,0-7.535-7.526A7.528,7.528,0,0,0,25.276,96.055Z" transform="translate(248.155 527.146)" fill="#182e54"/><circle cx="7.531" cy="7.531" r="7.531" transform="translate(247.178 603.55)" fill="#182e54"/><path d="M20.877,94.8a7.53,7.53,0,1,0-7.526-7.526A7.535,7.535,0,0,0,20.877,94.8Z" transform="translate(215.505 517.849)" fill="#182e54"/><path d="M18.77,93.933A7.526,7.526,0,1,0,11.235,86.4,7.529,7.529,0,0,0,18.77,93.933Z" transform="translate(199.768 511.431)" fill="#182e54"/><path d="M16.725,92.922A7.53,7.53,0,1,0,9.19,85.4,7.524,7.524,0,0,0,16.725,92.922Z" transform="translate(184.558 503.845)" fill="#182e54"/><path d="M14.746,91.756A7.53,7.53,0,1,0,7.228,84.23,7.529,7.529,0,0,0,14.746,91.756Z" transform="translate(169.966 495.173)" fill="#182e54"/><path d="M12.889,90.448a7.53,7.53,0,1,0-7.535-7.535A7.542,7.542,0,0,0,12.889,90.448Z" transform="translate(156.029 485.445)" fill="#182e54"/><path d="M11.119,89A7.53,7.53,0,1,0,3.584,81.47,7.517,7.517,0,0,0,11.119,89Z" transform="translate(142.865 474.713)" fill="#182e54"/><path d="M9.451,87.427a7.526,7.526,0,1,0-7.526-7.535A7.524,7.524,0,0,0,9.451,87.427Z" transform="translate(130.526 463.043)" fill="#182e54"/><path d="M6.5,83.957a7.535,7.535,0,1,0-7.526-7.535A7.535,7.535,0,0,0,6.5,83.957Z" transform="translate(108.593 437.109)" fill="#182e54"/><path d="M5.237,82.045A7.526,7.526,0,1,0-2.3,74.519,7.52,7.52,0,0,0,5.237,82.045Z" transform="translate(99.118 423.016)" fill="#182e54"/><path d="M4.1,80.06a7.526,7.526,0,1,0-7.526-7.526A7.528,7.528,0,0,0,4.1,80.06Z" transform="translate(90.714 408.252)" fill="#182e54"/><circle cx="7.527" cy="7.527" r="7.527" transform="translate(79.019 455.851)" fill="#182e54"/><circle cx="7.531" cy="7.531" r="7.531" transform="translate(72.053 437.876)" fill="#182e54"/><path d="M1.627,73.69A7.53,7.53,0,1,0-5.9,66.155,7.537,7.537,0,0,0,1.627,73.69Z" transform="translate(72.336 360.809)" fill="#182e54"/><path d="M1.125,71.461A7.529,7.529,0,0,0,8.66,63.935,7.542,7.542,0,0,0,1.125,56.4,7.535,7.535,0,0,0-6.4,63.935,7.522,7.522,0,0,0,1.125,71.461Z" transform="translate(68.602 344.231)" fill="#182e54"/><path d="M.781,69.2a7.53,7.53,0,1,0-7.518-7.526A7.515,7.515,0,0,0,.781,69.2Z" transform="translate(66.103 327.43)" fill="#182e54"/><path d="M.612,66.924a7.53,7.53,0,1,0,0-15.061,7.53,7.53,0,0,0,0,15.061Z" transform="translate(64.846 310.488)" fill="#182e54"/><path d="M.612,64.64a7.537,7.537,0,0,0,7.535-7.535A7.526,7.526,0,1,0,.612,64.64Z" transform="translate(64.846 293.501)" fill="#182e54"/><path d="M.781,62.362a7.53,7.53,0,1,0-7.518-7.526A7.535,7.535,0,0,0,.781,62.362Z" transform="translate(66.103 276.559)" fill="#182e54"/><path d="M1.125,60.094A7.526,7.526,0,1,0-6.4,52.568,7.529,7.529,0,0,0,1.125,60.094Z" transform="translate(68.602 259.758)" fill="#182e54"/><path d="M1.627,57.874A7.53,7.53,0,1,0-5.9,50.348,7.529,7.529,0,0,0,1.627,57.874Z" transform="translate(72.336 243.18)" fill="#182e54"/><path d="M2.293,55.689a7.53,7.53,0,1,0-7.526-7.526A7.54,7.54,0,0,0,2.293,55.689Z" transform="translate(77.289 226.929)" fill="#182e54"/><path d="M3.118,53.559a7.53,7.53,0,1,0-7.526-7.535A7.531,7.531,0,0,0,3.118,53.559Z" transform="translate(83.425 211.088)" fill="#182e54"/><path d="M4.1,51.5a7.53,7.53,0,1,0-7.526-7.535A7.529,7.529,0,0,0,4.1,51.5Z" transform="translate(90.714 195.744)" fill="#182e54"/><path d="M5.237,49.511A7.53,7.53,0,1,0-2.3,41.976,7.528,7.528,0,0,0,5.237,49.511Z" transform="translate(99.118 180.981)" fill="#182e54"/><path d="M6.5,47.614a7.53,7.53,0,1,0-7.526-7.526A7.528,7.528,0,0,0,6.5,47.614Z" transform="translate(108.593 166.872)" fill="#182e54"/><path d="M7.912,45.817A7.53,7.53,0,1,0,.386,38.291,7.533,7.533,0,0,0,7.912,45.817Z" transform="translate(119.08 153.507)" fill="#182e54"/><path d="M9.451,44.12a7.526,7.526,0,1,0-7.526-7.526A7.522,7.522,0,0,0,9.451,44.12Z" transform="translate(130.526 140.953)" fill="#182e54"/><path d="M11.11,42.559a7.53,7.53,0,1,0-7.526-7.535A7.524,7.524,0,0,0,11.11,42.559Z" transform="translate(142.865 129.276)" fill="#182e54"/><path d="M14.746,39.808a7.53,7.53,0,1,0-7.518-7.535A7.537,7.537,0,0,0,14.746,39.808Z" transform="translate(169.966 108.816)" fill="#182e54"/><path d="M16.725,38.633A7.526,7.526,0,1,0,9.19,31.107,7.529,7.529,0,0,0,16.725,38.633Z" transform="translate(184.558 100.144)" fill="#182e54"/><path d="M18.77,37.623A7.53,7.53,0,1,0,11.235,30.1,7.522,7.522,0,0,0,18.77,37.623Z" transform="translate(199.768 92.566)" fill="#182e54"/><path d="M20.877,36.75a7.526,7.526,0,1,0-7.526-7.526A7.528,7.528,0,0,0,20.877,36.75Z" transform="translate(215.505 86.14)" fill="#182e54"/><path d="M23.057,36.053a7.53,7.53,0,1,0-7.535-7.526A7.535,7.535,0,0,0,23.057,36.053Z" transform="translate(231.652 80.889)" fill="#182e54"/><path d="M25.276,35.5a7.526,7.526,0,1,0-7.535-7.526A7.528,7.528,0,0,0,25.276,35.5Z" transform="translate(248.155 76.85)" fill="#182e54"/><path d="M29.8,34.912a7.526,7.526,0,1,0-7.526-7.526A7.529,7.529,0,0,0,29.8,34.912Z" transform="translate(281.832 72.47)" fill="#182e54"/><path d="M32.071,34.878a7.53,7.53,0,1,0-7.518-7.526A7.535,7.535,0,0,0,32.071,34.878Z" transform="translate(298.819 72.15)" fill="#182e54"/><path d="M34.368,35a7.53,7.53,0,1,0-7.535-7.535A7.529,7.529,0,0,0,34.368,35Z" transform="translate(315.776 73.095)" fill="#182e54"/><path d="M36.625,35.291A7.526,7.526,0,1,0,29.1,27.765,7.533,7.533,0,0,0,36.625,35.291Z" transform="translate(332.629 75.289)" fill="#182e54"/><path d="M38.862,35.752a7.526,7.526,0,1,0-7.526-7.526A7.522,7.522,0,0,0,38.862,35.752Z" transform="translate(349.267 78.717)" fill="#182e54"/><path d="M41.067,36.386a7.53,7.53,0,1,0-7.535-7.526A7.528,7.528,0,0,0,41.067,36.386Z" transform="translate(365.599 83.366)" fill="#182e54"/><path d="M43.2,37.171a7.53,7.53,0,1,0-7.526-7.526A7.522,7.522,0,0,0,43.2,37.171Z" transform="translate(381.56 89.204)" fill="#182e54"/><path d="M45.285,38.105a7.526,7.526,0,1,0-7.526-7.526A7.529,7.529,0,0,0,45.285,38.105Z" transform="translate(397.037 96.217)" fill="#182e54"/><path d="M47.291,39.206a7.53,7.53,0,1,0-7.526-7.526A7.535,7.535,0,0,0,47.291,39.206Z" transform="translate(411.956 104.339)" fill="#182e54"/><path d="M49.211,40.436a7.526,7.526,0,1,0-7.526-7.526A7.528,7.528,0,0,0,49.211,40.436Z" transform="translate(426.236 113.554)" fill="#182e54"/><path d="M51.033,41.813a7.526,7.526,0,1,0-7.526-7.526A7.529,7.529,0,0,0,51.033,41.813Z" transform="translate(439.787 123.795)" fill="#182e54"/><path d="M52.742,43.336A7.535,7.535,0,1,0,45.224,35.8,7.544,7.544,0,0,0,52.742,43.336Z" transform="translate(452.557 134.996)" fill="#182e54"/><path d="M54.358,44.95a7.526,7.526,0,1,0-7.535-7.526A7.522,7.522,0,0,0,54.358,44.95Z" transform="translate(464.449 147.126)" fill="#182e54"/><path d="M57.168,48.542a7.526,7.526,0,1,0-7.526-7.526A7.535,7.535,0,0,0,57.168,48.542Z" transform="translate(485.415 173.841)" fill="#182e54"/><path d="M58.363,50.5a7.535,7.535,0,1,0-7.518-7.535A7.537,7.537,0,0,0,58.363,50.5Z" transform="translate(494.362 188.277)" fill="#182e54"/><path d="M59.434,52.518A7.53,7.53,0,1,0,51.9,44.992,7.529,7.529,0,0,0,59.434,52.518Z" transform="translate(502.201 203.345)" fill="#182e54"/><path d="M60.33,54.616A7.53,7.53,0,1,0,52.8,47.09,7.528,7.528,0,0,0,60.33,54.616Z" transform="translate(508.932 218.949)" fill="#182e54"/><path d="M61.068,56.767a7.526,7.526,0,1,0-7.518-7.526A7.529,7.529,0,0,0,61.068,56.767Z" transform="translate(514.48 235.014)" fill="#182e54"/><path d="M61.66,58.975a7.526,7.526,0,1,0-7.526-7.526A7.535,7.535,0,0,0,61.66,58.975Z" transform="translate(518.824 251.435)" fill="#182e54"/><path d="M62.325,63.491a7.526,7.526,0,1,0-7.518-7.526A7.535,7.535,0,0,0,62.325,63.491Z" transform="translate(523.829 285.022)" fill="#182e54"/><path d="M64.235,65.782a7.53,7.53,0,1,0-7.526-7.535A7.524,7.524,0,0,0,64.235,65.782Z" transform="translate(537.975 301.995)" fill="#182e54"/><path d="M64.148,68.065A7.53,7.53,0,1,0,56.63,60.53,7.537,7.537,0,0,0,64.148,68.065Z" transform="translate(537.388 318.974)" fill="#182e54"/><path d="M63.916,70.328A7.526,7.526,0,1,0,56.39,62.8,7.529,7.529,0,0,0,63.916,70.328Z" transform="translate(535.603 335.872)" fill="#182e54"/><circle cx="4.68" cy="4.68" r="4.68" transform="translate(591.495 412.976)" fill="#182e54"/><path d="M60.453,69.437a4.679,4.679,0,1,0-4.674-4.674A4.676,4.676,0,0,0,60.453,69.437Z" transform="translate(531.058 371.601)" fill="#182e54"/><path d="M60.4,81.147a7.53,7.53,0,1,0-7.526-7.535A7.537,7.537,0,0,0,60.4,81.147Z" transform="translate(509.483 416.27)" fill="#182e54"/><path d="M59.27,83.116A7.526,7.526,0,1,0,51.735,75.6,7.52,7.52,0,0,0,59.27,83.116Z" transform="translate(500.982 430.981)" fill="#182e54"/><path d="M56.578,86.819a7.53,7.53,0,1,0-7.526-7.535A7.537,7.537,0,0,0,56.578,86.819Z" transform="translate(481.027 458.455)" fill="#182e54"/><path d="M55.058,88.516a7.53,7.53,0,1,0-7.535-7.535A7.524,7.524,0,0,0,55.058,88.516Z" transform="translate(469.655 471.076)" fill="#182e54"/><path d="M49.817,92.914a7.53,7.53,0,1,0-7.535-7.526A7.528,7.528,0,0,0,49.817,92.914Z" transform="translate(430.676 503.785)" fill="#182e54"/><path d="M47.864,94.116A7.526,7.526,0,1,0,40.346,86.6,7.528,7.528,0,0,0,47.864,94.116Z" transform="translate(416.277 512.792)" fill="#182e54"/><path d="M41.621,96.9A7.526,7.526,0,1,0,34.1,89.373,7.535,7.535,0,0,0,41.621,96.9Z" transform="translate(369.786 533.49)" fill="#182e54"/><path d="M39.425,97.545A7.535,7.535,0,1,0,31.9,90.011,7.542,7.542,0,0,0,39.425,97.545Z" transform="translate(353.454 538.168)" fill="#182e54"/><path d="M34.937,98.33A7.53,7.53,0,1,0,27.4,90.8,7.533,7.533,0,0,0,34.937,98.33Z" transform="translate(320.008 544.066)" fill="#182e54"/><path d="M32.659,98.481a7.526,7.526,0,1,0-7.535-7.534A7.522,7.522,0,0,0,32.659,98.481Z" transform="translate(303.066 545.256)" fill="#182e54"/><path d="M30.365,98.481a7.526,7.526,0,1,0-7.526-7.534A7.526,7.526,0,0,0,30.365,98.481Z" transform="translate(286.071 545.256)" fill="#182e54"/><path d="M28.087,98.33A7.53,7.53,0,1,0,20.561,90.8,7.533,7.533,0,0,0,28.087,98.33Z" transform="translate(269.129 544.066)" fill="#182e54"/><path d="M25.824,98.012A7.53,7.53,0,1,0,18.3,90.486,7.524,7.524,0,0,0,25.824,98.012Z" transform="translate(252.298 541.701)" fill="#182e54"/><circle cx="7.531" cy="7.531" r="7.531" transform="translate(251.743 620.647)" fill="#182e54"/><path d="M12.639,88.759a4.679,4.679,0,1,0-4.683-4.674A4.685,4.685,0,0,0,12.639,88.759Z" transform="translate(175.381 515.306)" fill="#182e54"/><path d="M7.1,84.737a4.679,4.679,0,1,0-4.683-4.674A4.672,4.672,0,0,0,7.1,84.737Z" transform="translate(134.215 485.393)" fill="#182e54"/><path d="M1.248,77.759a4.679,4.679,0,1,0-4.683-4.674A4.679,4.679,0,0,0,1.248,77.759Z" transform="translate(90.662 433.495)" fill="#182e54"/><path d="M2.62,81.147a7.53,7.53,0,1,0-7.535-7.535A7.54,7.54,0,0,0,2.62,81.147Z" transform="translate(79.654 416.27)" fill="#182e54"/><path d="M.754,76.967a7.526,7.526,0,1,0-7.526-7.535A7.531,7.531,0,0,0,.754,76.967Z" transform="translate(65.843 385.249)" fill="#182e54"/><path d="M-2.466,69.437a4.676,4.676,0,0,0,4.683-4.674A4.678,4.678,0,0,0-2.466,60.08,4.676,4.676,0,0,0-7.14,64.763,4.674,4.674,0,0,0-2.466,69.437Z" transform="translate(63.106 371.601)" fill="#182e54"/><path d="M-1.227,65.782a7.531,7.531,0,0,0,7.535-7.535,7.529,7.529,0,0,0-7.535-7.526,7.52,7.52,0,0,0-7.518,7.526A7.522,7.522,0,0,0-1.227,65.782Z" transform="translate(51.169 301.995)" fill="#182e54"/><path d="M-.892,61.227a7.528,7.528,0,0,0,7.518-7.535A7.526,7.526,0,0,0-.892,46.166a7.535,7.535,0,0,0-7.535,7.526A7.537,7.537,0,0,0-.892,61.227Z" transform="translate(53.534 268.117)" fill="#182e54"/><path d="M-.5,58.969a7.528,7.528,0,0,0,7.526-7.526A7.528,7.528,0,0,0-.5,43.917,7.522,7.522,0,0,0-8.03,51.443,7.522,7.522,0,0,0-.5,58.969Z" transform="translate(56.487 251.391)" fill="#182e54"/><circle cx="7.529" cy="7.529" r="7.529" transform="translate(74.741 223.08)" fill="#182e54"/><path d="M1.248,43.073A4.679,4.679,0,1,0-3.435,38.39,4.676,4.676,0,0,0,1.248,43.073Z" transform="translate(90.662 175.522)" fill="#182e54"/><path d="M6.446,44.745a7.53,7.53,0,1,0-7.535-7.526A7.52,7.52,0,0,0,6.446,44.745Z" transform="translate(108.11 145.535)" fill="#182e54"/><circle cx="4.678" cy="4.678" r="4.678" transform="translate(122.77 163.75)" fill="#182e54"/><circle cx="4.678" cy="4.678" r="4.678" transform="translate(183.34 116.429)" fill="#182e54"/><path d="M19.248,35.429A7.526,7.526,0,1,0,11.722,27.9,7.528,7.528,0,0,0,19.248,35.429Z" transform="translate(203.39 76.315)" fill="#182e54"/><circle cx="4.68" cy="4.68" r="4.68" transform="translate(236.071 92.949)" fill="#182e54"/><path d="M23.606,34.027a7.53,7.53,0,1,0-7.543-7.535A7.535,7.535,0,0,0,23.606,34.027Z" transform="translate(235.676 65.821)" fill="#182e54"/><path d="M28.087,33.234a7.53,7.53,0,1,0-7.526-7.526A7.54,7.54,0,0,0,28.087,33.234Z" transform="translate(269.129 59.923)" fill="#182e54"/><circle cx="4.68" cy="4.68" r="4.68" transform="translate(311.76 79.601)" fill="#182e54"/><circle cx="4.68" cy="4.68" r="4.68" transform="translate(331.04 79.601)" fill="#182e54"/><path d="M34.937,33.234A7.53,7.53,0,1,0,27.4,25.708,7.528,7.528,0,0,0,34.937,33.234Z" transform="translate(320.008 59.923)" fill="#182e54"/><path d="M34.693,28.186A4.679,4.679,0,1,0,30,23.512,4.672,4.672,0,0,0,34.693,28.186Z" transform="translate(339.345 64.802)" fill="#182e54"/><path d="M36.911,28.661a4.679,4.679,0,1,0-4.674-4.683A4.685,4.685,0,0,0,36.911,28.661Z" transform="translate(355.968 68.335)" fill="#182e54"/><path d="M47.864,37.431a7.526,7.526,0,1,0-7.518-7.526A7.535,7.535,0,0,0,47.864,37.431Z" transform="translate(416.277 91.205)" fill="#182e54"/><path d="M49.817,38.65a7.53,7.53,0,1,0-7.535-7.535A7.529,7.529,0,0,0,49.817,38.65Z" transform="translate(430.676 100.204)" fill="#182e54"/><path d="M53.406,41.461a7.53,7.53,0,1,0-7.526-7.526A7.529,7.529,0,0,0,53.406,41.461Z" transform="translate(457.436 121.11)" fill="#182e54"/><path d="M55.058,43.039a7.526,7.526,0,1,0-7.535-7.526A7.529,7.529,0,0,0,55.058,43.039Z" transform="translate(469.655 132.913)" fill="#182e54"/><path d="M59.262,48.439a7.53,7.53,0,1,0-7.526-7.526A7.528,7.528,0,0,0,59.262,48.439Z" transform="translate(500.989 173.008)" fill="#182e54"/><path d="M60.4,50.409a7.526,7.526,0,1,0-7.526-7.526A7.524,7.524,0,0,0,60.4,50.409Z" transform="translate(509.483 187.727)" fill="#182e54"/><path d="M62.27,54.589a7.53,7.53,0,1,0-7.535-7.535A7.535,7.535,0,0,0,62.27,54.589Z" transform="translate(523.294 218.748)" fill="#182e54"/><path d="M62.967,56.761a7.53,7.53,0,1,0-7.526-7.526A7.529,7.529,0,0,0,62.967,56.761Z" transform="translate(528.544 234.902)" fill="#182e54"/><path d="M64.148,63.491a7.526,7.526,0,1,0-7.518-7.526A7.529,7.529,0,0,0,64.148,63.491Z" transform="translate(537.388 285.022)" fill="#182e54"/><path d="M63.547,60.416a4.679,4.679,0,1,0-4.683-4.683A4.678,4.678,0,0,0,63.547,60.416Z" transform="translate(554.003 304.508)" fill="#182e54"/><path d="M62.861,67.218a4.674,4.674,0,1,0-4.674-4.666A4.674,4.674,0,0,0,62.861,67.218Z" transform="translate(548.967 355.157)" fill="#182e54"/><circle cx="4.68" cy="4.68" r="4.68" transform="translate(602.734 431.778)" fill="#182e54"/><path d="M42.183,98.637a7.53,7.53,0,1,0-7.526-7.526A7.528,7.528,0,0,0,42.183,98.637Z" transform="translate(373.966 546.349)" fill="#182e54"/><path d="M33.229,100.285a7.53,7.53,0,1,0-7.535-7.526A7.533,7.533,0,0,0,33.229,100.285Z" transform="translate(307.305 558.606)" fill="#182e54"/><path d="M30.945,100.323a7.53,7.53,0,1,0-7.535-7.535A7.528,7.528,0,0,0,30.945,100.323Z" transform="translate(290.318 558.889)" fill="#182e54"/><path d="M13.065,91.066a4.679,4.679,0,1,0-4.683-4.683A4.676,4.676,0,0,0,13.065,91.066Z" transform="translate(178.549 532.464)" fill="#182e54"/><path d="M11.066,89.945a4.679,4.679,0,1,0-4.674-4.683A4.676,4.676,0,0,0,11.066,89.945Z" transform="translate(163.749 524.127)" fill="#182e54"/><path d="M9.153,88.688a4.674,4.674,0,1,0-4.674-4.674A4.676,4.676,0,0,0,9.153,88.688Z" transform="translate(149.521 514.837)" fill="#182e54"/><path d="M5.6,85.839A4.683,4.683,0,1,0,.923,81.157,4.676,4.676,0,0,0,5.6,85.839Z" transform="translate(123.074 493.529)" fill="#182e54"/><circle cx="4.68" cy="4.68" r="4.68" transform="translate(110.252 556.494)" fill="#182e54"/><path d="M-.235,78.837a4.683,4.683,0,0,0,4.683-4.683A4.683,4.683,0,0,0-.235,69.472a4.676,4.676,0,0,0-4.674,4.683A4.676,4.676,0,0,0-.235,78.837Z" transform="translate(79.699 441.453)" fill="#182e54"/><path d="M-1.389,76.858A4.692,4.692,0,0,0,3.3,72.167,4.681,4.681,0,0,0-1.389,67.5a4.678,4.678,0,0,0-4.674,4.666A4.688,4.688,0,0,0-1.389,76.858Z" transform="translate(71.116 426.794)" fill="#182e54"/><path d="M-3.283,72.715A4.683,4.683,0,0,0,1.4,68.032a4.688,4.688,0,0,0-4.683-4.683,4.683,4.683,0,0,0-4.683,4.683A4.678,4.678,0,0,0-3.283,72.715Z" transform="translate(56.963 395.914)" fill="#182e54"/><path d="M-4.033,70.555A4.676,4.676,0,0,0,.642,65.872a4.676,4.676,0,0,0-4.674-4.683,4.676,4.676,0,0,0-4.674,4.683A4.676,4.676,0,0,0-4.033,70.555Z" transform="translate(51.452 379.849)" fill="#182e54"/><path d="M-4.622,68.349A4.681,4.681,0,0,0,.052,63.667a4.681,4.681,0,0,0-4.674-4.683,4.683,4.683,0,0,0-4.683,4.683A4.683,4.683,0,0,0-4.622,68.349Z" transform="translate(47.004 363.45)" fill="#182e54"/><circle cx="4.68" cy="4.68" r="4.68" transform="translate(56.447 234.086)" fill="#182e54"/><path d="M-1.389,43.974A4.683,4.683,0,0,0,3.3,39.3a4.69,4.69,0,0,0-4.691-4.683A4.687,4.687,0,0,0-6.063,39.3,4.679,4.679,0,0,0-1.389,43.974Z" transform="translate(71.116 182.223)" fill="#182e54"/><path d="M-.235,42a4.681,4.681,0,0,0,4.683-4.674A4.683,4.683,0,0,0-.235,32.645a4.676,4.676,0,0,0-4.674,4.683A4.674,4.674,0,0,0-.235,42Z" transform="translate(79.699 167.557)" fill="#182e54"/><path d="M2.457,38.308a4.679,4.679,0,1,0-4.683-4.674A4.676,4.676,0,0,0,2.457,38.308Z" transform="translate(99.653 140.083)" fill="#182e54"/><path d="M3.977,36.6A4.679,4.679,0,1,0-.706,31.928,4.679,4.679,0,0,0,3.977,36.6Z" transform="translate(110.958 127.395)" fill="#182e54"/><path d="M11.066,30.887A4.679,4.679,0,1,0,6.392,26.2,4.681,4.681,0,0,0,11.066,30.887Z" transform="translate(163.749 84.89)" fill="#182e54"/><path d="M13.065,29.766a4.679,4.679,0,1,0-4.683-4.674A4.674,4.674,0,0,0,13.065,29.766Z" transform="translate(178.549 76.553)" fill="#182e54"/><circle cx="4.68" cy="4.68" r="4.68" transform="translate(222.212 81.487)" fill="#182e54"/><path d="M19.41,27.226a4.679,4.679,0,1,0-4.674-4.674A4.683,4.683,0,0,0,19.41,27.226Z" transform="translate(225.806 57.662)" fill="#182e54"/><circle cx="4.68" cy="4.68" r="4.68" transform="translate(259.224 70.801)" fill="#182e54"/><path d="M26.133,26a4.683,4.683,0,1,0-4.666-4.683A4.683,4.683,0,0,0,26.133,26Z" transform="translate(275.867 48.454)" fill="#182e54"/><path d="M28.431,25.883A4.683,4.683,0,1,0,23.748,21.2,4.679,4.679,0,0,0,28.431,25.883Z" transform="translate(292.832 47.614)" fill="#182e54"/><path d="M30.715,25.913a4.679,4.679,0,1,0-4.683-4.674A4.676,4.676,0,0,0,30.715,25.913Z" transform="translate(309.819 47.897)" fill="#182e54"/><path d="M35.25,26.44a4.679,4.679,0,1,0-4.683-4.674A4.676,4.676,0,0,0,35.25,26.44Z" transform="translate(343.547 51.816)" fill="#182e54"/><path d="M37.474,26.927A4.679,4.679,0,1,0,32.8,22.253,4.681,4.681,0,0,0,37.474,26.927Z" transform="translate(360.155 55.438)" fill="#182e54"/><path d="M39.669,27.561a4.679,4.679,0,1,0-4.674-4.674A4.674,4.674,0,0,0,39.669,27.561Z" transform="translate(376.48 60.153)" fill="#182e54"/><path d="M65.357,60.416a4.679,4.679,0,1,0-4.674-4.683A4.678,4.678,0,0,0,65.357,60.416Z" transform="translate(567.531 304.508)" fill="#182e54"/><path d="M65.294,62.7a4.679,4.679,0,1,0-4.683-4.683A4.676,4.676,0,0,0,65.294,62.7Z" transform="translate(566.996 321.488)" fill="#182e54"/><path d="M65.086,64.966A4.674,4.674,0,1,0,60.4,60.3,4.672,4.672,0,0,0,65.086,64.966Z" transform="translate(565.389 338.408)" fill="#182e54"/><path d="M64.713,67.23a4.679,4.679,0,1,0-4.674-4.674A4.687,4.687,0,0,0,64.713,67.23Z" transform="translate(562.742 355.187)" fill="#182e54"/><path d="M64.215,69.466a4.683,4.683,0,1,0-4.674-4.674A4.674,4.674,0,0,0,64.215,69.466Z" transform="translate(559.038 371.757)" fill="#182e54"/><path d="M63.586,71.653A4.678,4.678,0,1,0,58.9,66.97,4.683,4.683,0,0,0,63.586,71.653Z" transform="translate(554.293 388.082)" fill="#182e54"/><path d="M13.511,93.319a4.679,4.679,0,1,0-4.674-4.691A4.69,4.69,0,0,0,13.511,93.319Z" transform="translate(181.933 549.22)" fill="#182e54"/><path d="M11.475,92.282A4.678,4.678,0,1,0,6.8,87.6,4.683,4.683,0,0,0,11.475,92.282Z" transform="translate(166.791 541.508)" fill="#182e54"/><path d="M9.518,91.119a4.679,4.679,0,1,0-4.683-4.683A4.676,4.676,0,0,0,9.518,91.119Z" transform="translate(152.169 532.858)" fill="#182e54"/><path d="M7.628,89.835a4.678,4.678,0,1,0-4.683-4.683A4.681,4.681,0,0,0,7.628,89.835Z" transform="translate(138.112 523.308)" fill="#182e54"/><path d="M5.807,88.435a4.679,4.679,0,1,0-4.666-4.674A4.676,4.676,0,0,0,5.807,88.435Z" transform="translate(124.695 512.896)" fill="#182e54"/><path d="M4.1,86.931A4.683,4.683,0,1,0-.573,82.257,4.676,4.676,0,0,0,4.1,86.931Z" transform="translate(111.947 501.651)" fill="#182e54"/><path d="M2.486,85.308a4.679,4.679,0,1,0-4.674-4.674A4.676,4.676,0,0,0,2.486,85.308Z" transform="translate(99.936 489.64)" fill="#182e54"/><path d="M-.417,81.8a4.69,4.69,0,0,0,4.683-4.691A4.681,4.681,0,0,0-.417,72.433,4.681,4.681,0,0,0-5.1,77.107,4.69,4.69,0,0,0-.417,81.8Z" transform="translate(78.278 463.475)" fill="#182e54"/><path d="M-1.7,79.9a4.676,4.676,0,0,0,4.683-4.674A4.683,4.683,0,0,0-1.7,70.543a4.688,4.688,0,0,0-4.683,4.683A4.681,4.681,0,0,0-1.7,79.9Z" transform="translate(68.729 449.418)" fill="#182e54"/><path d="M-2.856,77.927A4.672,4.672,0,0,0,1.81,73.252a4.672,4.672,0,0,0-4.666-4.674,4.683,4.683,0,0,0-4.691,4.674A4.683,4.683,0,0,0-2.856,77.927Z" transform="translate(60.079 434.804)" fill="#182e54"/><path d="M-3.909,75.891A4.674,4.674,0,0,0,.766,71.216a4.674,4.674,0,0,0-4.674-4.674,4.674,4.674,0,0,0-4.674,4.674A4.674,4.674,0,0,0-3.909,75.891Z" transform="translate(52.374 419.661)" fill="#182e54"/><path d="M-4.817,73.8A4.676,4.676,0,0,0-.134,69.128a4.678,4.678,0,0,0-4.683-4.683,4.681,4.681,0,0,0-4.674,4.683A4.679,4.679,0,0,0-4.817,73.8Z" transform="translate(45.621 404.065)" fill="#182e54"/><circle cx="4.68" cy="4.68" r="4.68" transform="translate(29.603 450.375)" fill="#182e54"/><path d="M-6.235,69.466a4.676,4.676,0,0,0,4.683-4.674A4.69,4.69,0,0,0-6.235,60.1,4.687,4.687,0,0,0-10.9,64.792,4.672,4.672,0,0,0-6.235,69.466Z" transform="translate(35.134 371.757)" fill="#182e54"/><path d="M-3.909,44.933A4.681,4.681,0,0,0,.774,40.259a4.683,4.683,0,0,0-4.683-4.683,4.676,4.676,0,0,0-4.674,4.683A4.674,4.674,0,0,0-3.909,44.933Z" transform="translate(52.374 189.356)" fill="#182e54"/><path d="M-2.863,42.905A4.679,4.679,0,0,0,1.8,38.223,4.679,4.679,0,0,0-2.863,33.54a4.683,4.683,0,0,0-4.683,4.683A4.683,4.683,0,0,0-2.863,42.905Z" transform="translate(60.087 174.213)" fill="#182e54"/><path d="M-1.7,40.931a4.676,4.676,0,0,0,4.683-4.674A4.683,4.683,0,0,0-1.7,31.574a4.688,4.688,0,0,0-4.683,4.683A4.681,4.681,0,0,0-1.7,40.931Z" transform="translate(68.729 159.591)" fill="#182e54"/><circle cx="4.678" cy="4.678" r="4.678" transform="translate(73.184 175.228)" fill="#182e54"/><path d="M.983,37.237A4.679,4.679,0,1,0-3.7,32.554,4.676,4.676,0,0,0,.983,37.237Z" transform="translate(88.691 132.118)" fill="#182e54"/><path d="M2.486,35.523a4.679,4.679,0,1,0-4.674-4.674A4.676,4.676,0,0,0,2.486,35.523Z" transform="translate(99.936 119.37)" fill="#182e54"/><path d="M4.1,33.908A4.679,4.679,0,1,0-.573,29.234,4.676,4.676,0,0,0,4.1,33.908Z" transform="translate(111.947 107.359)" fill="#182e54"/><path d="M7.628,31a4.679,4.679,0,1,0-4.683-4.674A4.674,4.674,0,0,0,7.628,31Z" transform="translate(138.112 85.708)" fill="#182e54"/><path d="M9.518,29.713a4.679,4.679,0,1,0-4.683-4.674A4.674,4.674,0,0,0,9.518,29.713Z" transform="translate(152.169 76.159)" fill="#182e54"/><path d="M11.484,28.55A4.679,4.679,0,1,0,6.8,23.876,4.674,4.674,0,0,0,11.484,28.55Z" transform="translate(166.791 67.509)" fill="#182e54"/><path d="M13.511,27.513a4.679,4.679,0,1,0-4.674-4.674A4.681,4.681,0,0,0,13.511,27.513Z" transform="translate(181.933 59.796)" fill="#182e54"/><path d="M15.607,26.606a4.679,4.679,0,1,0-4.674-4.674A4.676,4.676,0,0,0,15.607,26.606Z" transform="translate(197.522 53.051)" fill="#182e54"/><path d="M17.757,25.832a4.679,4.679,0,1,0-4.674-4.674A4.674,4.674,0,0,0,17.757,25.832Z" transform="translate(213.512 47.294)" fill="#182e54"/><path d="M19.959,25.2a4.679,4.679,0,1,0-4.683-4.683A4.676,4.676,0,0,0,19.959,25.2Z" transform="translate(229.822 42.557)" fill="#182e54"/><path d="M26.719,24.124a4.679,4.679,0,1,0-4.683-4.674A4.674,4.674,0,0,0,26.719,24.124Z" transform="translate(280.099 34.591)" fill="#182e54"/><path d="M29,24.052a4.679,4.679,0,1,0-4.683-4.674A4.676,4.676,0,0,0,29,24.052Z" transform="translate(297.078 34.056)" fill="#182e54"/><path d="M31.277,24.124A4.679,4.679,0,1,0,26.6,19.45,4.676,4.676,0,0,0,31.277,24.124Z" transform="translate(314.065 34.591)" fill="#182e54"/><path d="M33.56,24.339a4.679,4.679,0,1,0-4.683-4.674A4.672,4.672,0,0,0,33.56,24.339Z" transform="translate(330.978 36.19)" fill="#182e54"/><path d="M35.816,24.7a4.679,4.679,0,1,0-4.683-4.683A4.681,4.681,0,0,0,35.816,24.7Z" transform="translate(347.757 38.853)" fill="#182e54"/><circle cx="4.68" cy="4.68" r="4.68" transform="translate(397.699 58.392)" fill="#182e54"/><path d="M40.239,25.832a4.679,4.679,0,1,0-4.683-4.674A4.674,4.674,0,0,0,40.239,25.832Z" transform="translate(380.652 47.294)" fill="#182e54"/><path d="M65.294,58.133a4.678,4.678,0,1,0-4.683-4.683A4.676,4.676,0,0,0,65.294,58.133Z" transform="translate(566.996 287.529)" fill="#182e54"/><path d="M67.184,60.416A4.679,4.679,0,1,0,62.5,55.733,4.676,4.676,0,0,0,67.184,60.416Z" transform="translate(581.052 304.508)" fill="#182e54"/><path d="M67.107,62.692a4.674,4.674,0,1,0-4.674-4.683A4.678,4.678,0,0,0,67.107,62.692Z" transform="translate(580.547 321.495)" fill="#182e54"/><path d="M66.9,64.967a4.674,4.674,0,1,0-4.674-4.674A4.676,4.676,0,0,0,66.9,64.967Z" transform="translate(579.022 338.415)" fill="#182e54"/><circle cx="4.68" cy="4.68" r="4.68" transform="translate(638.379 413.091)" fill="#182e54"/><path d="M66.1,69.468a4.679,4.679,0,1,0-4.683-4.674A4.672,4.672,0,0,0,66.1,69.468Z" transform="translate(572.96 371.832)" fill="#182e54"/><path d="M65.479,71.67A4.679,4.679,0,1,0,60.8,67,4.681,4.681,0,0,0,65.479,71.67Z" transform="translate(568.439 388.209)" fill="#182e54"/><path d="M11.923,94.549A4.67,4.67,0,1,0,7.24,89.875,4.674,4.674,0,0,0,11.923,94.549Z" transform="translate(170.056 558.495)" fill="#182e54"/><path d="M9.911,93.482A4.679,4.679,0,1,0,5.228,88.8,4.676,4.676,0,0,0,9.911,93.482Z" transform="translate(155.092 550.433)" fill="#182e54"/><path d="M7.968,92.282a4.678,4.678,0,1,0-4.683-4.691A4.688,4.688,0,0,0,7.968,92.282Z" transform="translate(140.641 541.508)" fill="#182e54"/><path d="M4.314,89.551A4.683,4.683,0,1,0-.369,84.868,4.679,4.679,0,0,0,4.314,89.551Z" transform="translate(113.465 521.129)" fill="#182e54"/><path d="M2.6,88.013a4.679,4.679,0,1,0-4.666-4.674A4.676,4.676,0,0,0,2.6,88.013Z" transform="translate(100.843 509.758)" fill="#182e54"/><path d="M1,86.386A4.679,4.679,0,1,0-3.67,81.712,4.681,4.681,0,0,0,1,86.386Z" transform="translate(88.914 497.657)" fill="#182e54"/><circle cx="4.68" cy="4.68" r="4.68" transform="translate(49.913 528.998)" fill="#182e54"/><path d="M-4.355,79.01A4.683,4.683,0,0,0,.328,74.327a4.676,4.676,0,0,0-4.683-4.674,4.679,4.679,0,0,0-4.674,4.674A4.687,4.687,0,0,0-4.355,79.01Z" transform="translate(49.057 442.799)" fill="#182e54"/><path d="M-6.328,74.888a4.674,4.674,0,0,0,4.683-4.666,4.678,4.678,0,0,0-4.683-4.683,4.678,4.678,0,0,0-4.683,4.683A4.674,4.674,0,0,0-6.328,74.888Z" transform="translate(34.316 412.202)" fill="#182e54"/><path d="M-7.139,72.766a4.685,4.685,0,0,0,4.683-4.691A4.676,4.676,0,0,0-7.139,63.4a4.674,4.674,0,0,0-4.674,4.674A4.683,4.683,0,0,0-7.139,72.766Z" transform="translate(28.351 396.293)" fill="#182e54"/><path d="M-7.812,70.574a4.676,4.676,0,0,0,4.674-4.683,4.674,4.674,0,0,0-4.674-4.674,4.674,4.674,0,0,0-4.674,4.674A4.676,4.676,0,0,0-7.812,70.574Z" transform="translate(23.346 380.057)" fill="#182e54"/><circle cx="4.68" cy="4.68" r="4.68" transform="translate(6.284 422.55)" fill="#182e54"/><path d="M-4.362,41.822A4.683,4.683,0,0,0,.321,37.139a4.676,4.676,0,0,0-4.683-4.674,4.672,4.672,0,0,0-4.666,4.674A4.679,4.679,0,0,0-4.362,41.822Z" transform="translate(49.064 166.218)" fill="#182e54"/><path d="M-3.183,39.861A4.678,4.678,0,0,0,1.5,35.178,4.676,4.676,0,0,0-3.183,30.5a4.679,4.679,0,0,0-4.674,4.674A4.681,4.681,0,0,0-3.183,39.861Z" transform="translate(57.774 151.633)" fill="#182e54"/><circle cx="4.678" cy="4.678" r="4.678" transform="translate(72.566 150.962)" fill="#182e54"/><path d="M1.013,34.446A4.679,4.679,0,1,0-3.67,29.763,4.676,4.676,0,0,0,1.013,34.446Z" transform="translate(88.914 111.36)" fill="#182e54"/><path d="M2.6,32.826a4.683,4.683,0,1,0-4.666-4.691A4.692,4.692,0,0,0,2.6,32.826Z" transform="translate(100.843 99.252)" fill="#182e54"/><path d="M7.968,28.551a4.679,4.679,0,1,0-4.683-4.683A4.687,4.687,0,0,0,7.968,28.551Z" transform="translate(140.641 67.516)" fill="#182e54"/><path d="M9.911,27.357a4.683,4.683,0,1,0-4.683-4.683A4.688,4.688,0,0,0,9.911,27.357Z" transform="translate(155.092 58.577)" fill="#182e54"/><path d="M11.923,26.267A4.679,4.679,0,1,0,7.24,21.584,4.681,4.681,0,0,0,11.923,26.267Z" transform="translate(170.056 50.53)" fill="#182e54"/><circle cx="4.68" cy="4.68" r="4.68" transform="translate(212.728 52.295)" fill="#182e54"/><circle cx="4.678" cy="4.678" r="4.678" transform="translate(231.063 46.339)" fill="#182e54"/><circle cx="4.68" cy="4.68" r="4.68" transform="translate(249.716 41.488)" fill="#182e54"/><path d="M27.289,22.28A4.683,4.683,0,1,0,22.606,17.6,4.683,4.683,0,0,0,27.289,22.28Z" transform="translate(284.338 20.817)" fill="#182e54"/><path d="M29.557,22.246a4.683,4.683,0,1,0-4.666-4.683A4.69,4.69,0,0,0,29.557,22.246Z" transform="translate(301.333 20.564)" fill="#182e54"/><path d="M34.127,22.587A4.683,4.683,0,1,0,29.444,17.9,4.683,4.683,0,0,0,34.127,22.587Z" transform="translate(335.195 23.1)" fill="#182e54"/><path d="M36.381,22.954A4.679,4.679,0,1,0,31.7,18.271,4.678,4.678,0,0,0,36.381,22.954Z" transform="translate(351.959 25.889)" fill="#182e54"/><path d="M38.6,23.462a4.679,4.679,0,1,0-4.674-4.674A4.676,4.676,0,0,0,38.6,23.462Z" transform="translate(368.522 29.668)" fill="#182e54"/><path d="M67.107,58.14a4.683,4.683,0,1,0-4.674-4.683A4.683,4.683,0,0,0,67.107,58.14Z" transform="translate(580.547 287.521)" fill="#182e54"/><path d="M69,60.416a4.679,4.679,0,1,0-4.683-4.683A4.678,4.678,0,0,0,69,60.416Z" transform="translate(594.573 304.508)" fill="#182e54"/><path d="M67.954,69.476A4.679,4.679,0,1,0,63.28,64.8,4.688,4.688,0,0,0,67.954,69.476Z" transform="translate(586.846 371.891)" fill="#182e54"/><circle cx="4.68" cy="4.68" r="4.68" transform="translate(147.116 644.575)" fill="#182e54"/><path d="M1.116,89.1a4.678,4.678,0,1,0-4.674-4.674A4.676,4.676,0,0,0,1.116,89.1Z" transform="translate(89.747 517.849)" fill="#182e54"/><circle cx="4.68" cy="4.68" r="4.68" transform="translate(37.48 538.029)" fill="#182e54"/><path d="M-5.828,80.094a4.678,4.678,0,0,0,4.683-4.683,4.678,4.678,0,0,0-4.683-4.683,4.678,4.678,0,0,0-4.683,4.683A4.678,4.678,0,0,0-5.828,80.094Z" transform="translate(38.035 450.794)" fill="#182e54"/><path d="M-9.378,71.685A4.676,4.676,0,0,0-4.7,67.011a4.678,4.678,0,0,0-4.683-4.683,4.683,4.683,0,0,0-4.683,4.683A4.681,4.681,0,0,0-9.378,71.685Z" transform="translate(11.632 388.32)" fill="#182e54"/><circle cx="4.68" cy="4.68" r="4.68" transform="translate(27.526 189.608)" fill="#182e54"/><path d="M-4.648,38.79A4.674,4.674,0,0,0,.026,34.116a4.676,4.676,0,0,0-4.674-4.683,4.678,4.678,0,0,0-4.683,4.683A4.676,4.676,0,0,0-4.648,38.79Z" transform="translate(46.811 143.668)" fill="#182e54"/><path d="M-.476,33.369A4.674,4.674,0,0,0,4.2,28.695,4.676,4.676,0,0,0-.476,24.012,4.676,4.676,0,0,0-5.15,28.695,4.674,4.674,0,0,0-.476,33.369Z" transform="translate(77.907 103.35)" fill="#182e54"/><path d="M1.116,31.731a4.679,4.679,0,1,0-4.674-4.683A4.683,4.683,0,0,0,1.116,31.731Z" transform="translate(89.747 91.167)" fill="#182e54"/><path d="M8.346,26.162a4.679,4.679,0,1,0-4.683-4.674A4.674,4.674,0,0,0,8.346,26.162Z" transform="translate(143.452 49.749)" fill="#182e54"/><path d="M10.327,25.031a4.674,4.674,0,1,0-4.674-4.674A4.676,4.676,0,0,0,10.327,25.031Z" transform="translate(158.252 41.396)" fill="#182e54"/><path d="M16.649,22.381A4.683,4.683,0,1,0,11.958,17.7,4.674,4.674,0,0,0,16.649,22.381Z" transform="translate(205.145 21.568)" fill="#182e54"/><path d="M25.579,20.563A4.679,4.679,0,1,0,20.9,15.88,4.676,4.676,0,0,0,25.579,20.563Z" transform="translate(271.62 8.107)" fill="#182e54"/><path d="M27.851,20.432a4.679,4.679,0,1,0-4.674-4.674A4.676,4.676,0,0,0,27.851,20.432Z" transform="translate(288.585 7.132)" fill="#182e54"/><path d="M30.145,20.432a4.679,4.679,0,1,0-4.683-4.674A4.672,4.672,0,0,0,30.145,20.432Z" transform="translate(305.579 7.132)" fill="#182e54"/><path d="M36.937,21.22a4.683,4.683,0,1,0-4.674-4.683A4.678,4.678,0,0,0,36.937,21.22Z" transform="translate(356.161 12.934)" fill="#182e54"/><path d="M39.162,21.73a4.679,4.679,0,1,0-4.674-4.674A4.676,4.676,0,0,0,39.162,21.73Z" transform="translate(372.709 16.786)" fill="#182e54"/><path d="M-10.942,72.794A4.679,4.679,0,0,0-6.268,68.12a4.681,4.681,0,0,0-4.674-4.683,4.678,4.678,0,0,0-4.683,4.683A4.676,4.676,0,0,0-10.942,72.794Z" transform="translate(0 396.568)" fill="#182e54"/><path d="M17.162,20.3a4.674,4.674,0,1,0-4.674-4.674A4.676,4.676,0,0,0,17.162,20.3Z" transform="translate(209.087 6.203)" fill="#182e54"/><path d="M37.5,19.465a4.674,4.674,0,1,0-4.674-4.674A4.681,4.681,0,0,0,37.5,19.465Z" transform="translate(360.363 0)" fill="#182e54"/><path d="M39.725,20a4.679,4.679,0,1,0-4.674-4.674A4.676,4.676,0,0,0,39.725,20Z" transform="translate(376.896 3.905)" fill="#182e54"/></g></svg>