<svg xmlns="http://www.w3.org/2000/svg" width="577.581" height="446.134" viewBox="0 0 577.581 446.134"><path d="M817.255,1057.989a9.3,9.3,0,0,1,12.984,3.767Q823.758,1059.927,817.255,1057.989Zm-33.088-18a9.29,9.29,0,1,1,9.29,9.29A9.289,9.289,0,0,1,784.167,1039.99Zm-26.444-1.906a9.387,9.387,0,0,1-.059-1.052,9.29,9.29,0,1,1,15.719,6.707Q765.556,1040.986,757.723,1038.084Zm102.537-12.1a9.29,9.29,0,1,1,9.29,9.29A9.289,9.289,0,0,1,860.26,1025.987Zm-117.641,6.362q-4.854-1.888-9.736-3.845a9.4,9.4,0,0,1,.85-.976,9.288,9.288,0,0,1,15.811,7.485Q746.077,1033.694,742.619,1032.349Zm91.1-9.314a9.29,9.29,0,1,1,9.29,9.29A9.29,9.29,0,0,1,833.715,1023.035Zm-53.492-5.834a9.29,9.29,0,1,1,9.291,9.29A9.29,9.29,0,0,1,780.224,1017.2Zm-27.007-2.865a9.29,9.29,0,1,1,9.29,9.29A9.289,9.289,0,0,1,753.216,1014.337Zm-27.239-2.81a9.29,9.29,0,1,1,9.29,9.29A9.291,9.291,0,0,1,725.977,1011.527Zm-25.1,3.53a9.291,9.291,0,1,1,6.955,3.026Q704.348,1016.583,700.874,1015.057Zm128.442-14.728a9.29,9.29,0,1,1,9.291,9.29A9.291,9.291,0,0,1,829.316,1000.329Zm-157.863,1.818a9.293,9.293,0,0,1,17.035,7.4Q679.976,1005.76,671.453,1002.147Zm103.376-7.437a9.29,9.29,0,1,1,9.29,9.292A9.29,9.29,0,0,1,774.829,994.711Zm-24.895,3.864a9.3,9.3,0,1,1,6.568,2.719A9.3,9.3,0,0,1,749.934,998.574Zm-30.664-9.18a9.29,9.29,0,1,1,9.291,9.29A9.291,9.291,0,0,1,719.27,989.394Zm-28.354-2.467a9.29,9.29,0,1,1,9.29,9.291A9.29,9.29,0,0,1,690.917,986.927ZM653.163,994.6a9.24,9.24,0,0,1,3.342,1.349C655.39,995.5,654.279,995.048,653.163,994.6Zm11.595-3.358a9.292,9.292,0,1,1,6.568,2.719A9.287,9.287,0,0,1,664.758,991.241Zm-31.291-4.316a9.285,9.285,0,1,1,11.624,4.472Q639.28,989.121,633.467,986.925Zm190.184-9.02a9.29,9.29,0,1,1,9.29,9.29A9.29,9.29,0,0,1,823.651,977.9Zm-220.143-1.752a9.292,9.292,0,0,1,17.012,5.983Q612.012,979.057,603.508,976.153Zm136.176-6.018a9.29,9.29,0,1,1,9.29,9.29A9.289,9.289,0,0,1,739.684,970.135Zm-28.755-2.31a9.29,9.29,0,1,1,9.29,9.29A9.291,9.291,0,0,1,710.929,967.825Zm-29.3-2.075a9.29,9.29,0,1,1,9.29,9.29A9.289,9.289,0,0,1,681.63,965.75Zm-29.99-1.735a9.29,9.29,0,1,1,9.29,9.29A9.289,9.289,0,0,1,651.641,964.014Zm-30.884-1.229a9.29,9.29,0,1,1,9.29,9.29A9.29,9.29,0,0,1,620.756,962.786Zm-32.06-.447a9.29,9.29,0,1,1,9.29,9.29A9.29,9.29,0,0,1,588.7,962.339ZM555.29,961.1a9.292,9.292,0,1,1,17.8,5.225Q564.179,963.618,555.29,961.1Zm261.447-5.271a9.29,9.29,0,1,1,9.29,9.29A9.29,9.29,0,0,1,816.737,955.833ZM759.777,951a9.29,9.29,0,1,1,9.29,9.291A9.289,9.289,0,0,1,759.777,951Zm-29.114-2.159a9.29,9.29,0,1,1,9.29,9.29A9.291,9.291,0,0,1,730.663,948.839ZM540.5,954.374a9.3,9.3,0,1,1,6.572,2.719A9.3,9.3,0,0,1,540.5,954.374ZM701,946.939a9.29,9.29,0,1,1,9.29,9.29A9.289,9.289,0,0,1,701,946.939Zm-27.629,5.027a9.282,9.282,0,1,1,6.568,2.723A9.29,9.29,0,0,1,673.37,951.965Zm-99.994-6.942a9.29,9.29,0,1,1,9.29,9.29A9.289,9.289,0,0,1,573.377,945.023Zm66.058-.651a9.29,9.29,0,1,1,9.291,9.29A9.29,9.29,0,0,1,639.435,944.373Zm-29.6,6.308a9.287,9.287,0,1,1,6.57,2.723A9.289,9.289,0,0,1,609.839,950.681Zm-107.867-2.917a9.292,9.292,0,0,1,16.122,3.667Q510.035,949.518,501.972,947.764Zm-23.208-4.718a9.29,9.29,0,1,1,18.194,3.642Q487.857,944.764,478.764,943.046ZM521.4,941.36a9.293,9.293,0,1,1,6.568,2.719A9.289,9.289,0,0,1,521.4,941.36Zm289.917-.6a9.3,9.3,0,1,1,6.571,2.72A9.3,9.3,0,0,1,811.317,940.756Zm-354.905-1.624q-.037-.415-.038-.84a9.29,9.29,0,1,1,17.731,3.887Q465.252,940.557,456.411,939.132Zm323.206-7.165a9.29,9.29,0,1,1,9.29,9.289A9.289,9.289,0,0,1,779.618,931.967Zm-223.4-2.435a9.29,9.29,0,1,1,9.291,9.29A9.29,9.29,0,0,1,556.214,929.532Zm-122.791,6.223q0-.082,0-.164a9.29,9.29,0,1,1,18.158,2.777Q442.492,936.957,433.423,935.755Zm289.493-.967a9.3,9.3,0,1,1,6.57,2.719A9.3,9.3,0,0,1,722.916,934.788Zm-131.226-7.9a9.29,9.29,0,1,1,9.29,9.29A9.291,9.291,0,0,1,591.69,926.892Zm97.846-.039a9.29,9.29,0,1,1,9.29,9.29A9.289,9.289,0,0,1,689.536,926.853Zm-28.768,5.724a9.29,9.29,0,1,1,6.568,2.72A9.281,9.281,0,0,1,660.768,932.577Zm-35.249-6.672a9.29,9.29,0,1,1,9.29,9.291A9.291,9.291,0,0,1,625.519,925.906Zm-214.61,7.183a9.292,9.292,0,0,1,17.921,2.07Q419.861,934.022,410.909,933.089Zm87.157-8.765a9.29,9.29,0,1,1,9.29,9.291A9.29,9.29,0,0,1,498.065,924.323ZM394.48,931.547a9.322,9.322,0,0,1,6.337.554C398.7,931.908,396.6,931.724,394.48,931.547Zm-26.67-1.771a9.283,9.283,0,1,1,7.448.4Q371.535,929.96,367.81,929.777Zm-25.894-.844a9.292,9.292,0,0,1,18.19.5Q351,929.077,341.916,928.933ZM302.259,921.3a9.29,9.29,0,0,1,15.455,6.95q0,.344-.025.683c-5.16.082-10.318.215-15.43.4Zm174.027-4.72a9.29,9.29,0,1,1,9.29,9.29A9.289,9.289,0,0,1,476.285,916.581Zm61.141-.521a9.29,9.29,0,1,1,9.291,9.29A9.29,9.29,0,0,1,537.426,916.06Zm293.817,5.625a9.282,9.282,0,1,1,6.568,2.723A9.282,9.282,0,0,1,831.243,921.685Zm-513.187-6.719a9.29,9.29,0,1,1,9.29,9.29A9.289,9.289,0,0,1,318.056,914.965Zm69.454,6.261a9.3,9.3,0,1,1,6.568,2.72A9.29,9.29,0,0,1,387.509,921.227Zm411.746-8.2a9.29,9.29,0,1,1,9.29,9.29A9.289,9.289,0,0,1,799.256,913.027Zm-345.562-1.341a9.29,9.29,0,1,1,9.29,9.29A9.29,9.29,0,0,1,453.694,911.686Zm120.929-.394a9.29,9.29,0,1,1,9.29,9.29A9.29,9.29,0,0,1,574.623,911.291Zm194.908-.137a9.29,9.29,0,1,1,9.291,9.289A9.291,9.291,0,0,1,769.531,911.155Zm-361.964-.438a9.29,9.29,0,1,1,9.29,9.29A9.289,9.289,0,0,1,407.567,910.716Zm23.094-1a9.29,9.29,0,1,1,9.291,9.29A9.291,9.291,0,0,1,430.661,909.721Zm308.6-.152a9.29,9.29,0,1,1,9.29,9.291A9.29,9.29,0,0,1,739.259,909.569ZM610,908.76a9.29,9.29,0,1,1,9.291,9.291A9.291,9.291,0,0,1,610,908.76Zm98.327-.393a9.29,9.29,0,1,1,9.29,9.29A9.29,9.29,0,0,1,708.33,908.366Zm-64.427-.654a9.29,9.29,0,1,1,9.29,9.29A9.29,9.29,0,0,1,643.9,907.712Zm32.7-.031a9.29,9.29,0,1,1,9.29,9.29A9.289,9.289,0,0,1,676.6,907.681ZM519.97,911.345a9.292,9.292,0,1,1,6.568,2.719A9.282,9.282,0,0,1,519.97,911.345Zm-181.624-7.462a9.29,9.29,0,1,1,9.291,9.291A9.29,9.29,0,0,1,338.345,903.883Zm-36.086,4.653V890.312a9.29,9.29,0,1,1,0,18.223Zm253.829-11.067a9.29,9.29,0,1,1,9.29,9.29A9.291,9.291,0,0,1,556.088,897.468Zm-57.433,4.923a9.291,9.291,0,1,1,6.568,2.72A9.289,9.289,0,0,1,498.655,902.391Zm-138.906-7.249a9.29,9.29,0,1,1,9.291,9.29A9.29,9.29,0,0,1,359.749,895.142Zm233.264-2.067a9.29,9.29,0,1,1,9.29,9.29A9.291,9.291,0,0,1,593.013,893.075Zm167.927,4.477a9.293,9.293,0,1,1,6.568,2.719A9.289,9.289,0,0,1,760.94,897.552Zm-132.624-6.924a9.29,9.29,0,1,1,9.291,9.291A9.29,9.29,0,0,1,628.316,890.628Zm98.736-.7a9.29,9.29,0,1,1,9.29,9.29A9.289,9.289,0,0,1,727.052,889.925Zm-64.778-.4a9.29,9.29,0,1,1,9.29,9.291A9.29,9.29,0,0,1,662.275,889.528Zm32.848-.147a9.29,9.29,0,1,1,9.29,9.29A9.29,9.29,0,0,1,695.123,889.381Zm-221.375-.071a9.29,9.29,0,1,1,9.29,9.291A9.289,9.289,0,0,1,473.748,889.31ZM382,888.853a9.29,9.29,0,1,1,9.29,9.289A9.289,9.289,0,0,1,382,888.853Zm-67.572-1.633a9.29,9.29,0,1,1,9.291,9.291A9.29,9.29,0,0,1,314.425,887.219Zm221.844-1.66a9.29,9.29,0,1,1,9.29,9.291A9.29,9.29,0,0,1,536.269,885.56ZM453.695,891.9a9.3,9.3,0,1,1,6.571,2.719A9.3,9.3,0,0,1,453.695,891.9Zm-48.886-6.8a9.29,9.29,0,1,1,9.291,9.291A9.29,9.29,0,0,1,404.808,885.093Zm23.09-1.181a9.29,9.29,0,1,1,9.29,9.29A9.289,9.289,0,0,1,427.9,883.913Zm146.786-4.939a9.29,9.29,0,1,1,9.29,9.291A9.29,9.29,0,0,1,574.685,878.973Zm-239.5-1.942a9.29,9.29,0,1,1,9.291,9.29A9.291,9.291,0,0,1,335.182,877.031Zm180.18-1.347a9.29,9.29,0,1,1,9.29,9.29A9.289,9.289,0,0,1,515.362,875.684Zm96.027-.812a9.29,9.29,0,1,1,9.291,9.291A9.291,9.291,0,0,1,611.389,874.872Zm196.454-1.116a9.29,9.29,0,1,1,9.29,9.29A9.289,9.289,0,0,1,807.843,873.756ZM646.629,872.5a9.29,9.29,0,1,1,9.291,9.29A9.291,9.291,0,0,1,646.629,872.5Zm99.089-.974a9.29,9.29,0,1,1,9.29,9.29A9.29,9.29,0,0,1,745.718,871.522Zm-443.46-9.382a9.292,9.292,0,0,1,0,18.095Zm54.591,6.821a9.29,9.29,0,1,1,9.29,9.29A9.289,9.289,0,0,1,356.85,868.961Zm139.444,5.549a9.3,9.3,0,1,1,6.571,2.72A9.3,9.3,0,0,1,496.294,874.509Zm58.873-7.935a9.29,9.29,0,1,1,9.29,9.29A9.29,9.29,0,0,1,555.167,866.574Zm-175.953-3.486a9.29,9.29,0,1,1,9.29,9.29A9.289,9.289,0,0,1,379.214,863.088Zm91.912-.688a9.29,9.29,0,1,1,9.29,9.29A9.29,9.29,0,0,1,471.126,862.4Zm122.108-1.851a9.29,9.29,0,1,1,9.291,9.29A9.29,9.29,0,0,1,593.234,860.549Zm-279.493,5.9a9.282,9.282,0,1,1,6.568,2.723A9.289,9.289,0,0,1,313.741,866.444Zm88.31-6.972a9.29,9.29,0,1,1,9.291,9.29A9.292,9.292,0,0,1,402.051,859.471Zm48.905,6.223a9.3,9.3,0,1,1,6.572,2.72A9.29,9.29,0,0,1,450.956,865.694Zm-23.1-.977a9.292,9.292,0,1,1,6.568,2.719A9.287,9.287,0,0,1,427.857,864.716Zm201.9-8.033a9.29,9.29,0,1,1,9.291,9.29A9.291,9.291,0,0,1,629.755,856.683Zm-92.419,5.857a9.29,9.29,0,1,1,6.568,2.722A9.291,9.291,0,0,1,537.336,862.54Zm127.607-8.175a9.29,9.29,0,1,1,9.29,9.29A9.289,9.289,0,0,1,664.943,854.366Zm36.772,5.384a9.281,9.281,0,1,1,6.568,2.723A9.282,9.282,0,0,1,701.716,859.749Zm-369.594-9.331a9.29,9.29,0,1,1,9.29,9.291A9.289,9.289,0,0,1,332.122,850.418Zm241.851-2.666a9.29,9.29,0,1,1,9.29,9.29A9.29,9.29,0,0,1,573.972,847.752Zm-60.775-.495a9.29,9.29,0,1,1,9.291,9.291A9.29,9.29,0,0,1,513.2,847.257ZM353.985,842.89a9.29,9.29,0,1,1,9.29,9.29A9.29,9.29,0,0,1,353.985,842.89Zm257.762-.716a9.29,9.29,0,1,1,9.29,9.29A9.29,9.29,0,0,1,611.747,842.174Zm-309.488-6.056a9.292,9.292,0,0,1,0,14.557Zm191.547,10.949a9.293,9.293,0,1,1,6.568,2.719A9.289,9.289,0,0,1,493.806,847.067ZM648.113,838.5a9.29,9.29,0,1,1,9.291,9.29A9.29,9.29,0,0,1,648.113,838.5Zm-268.957,5.42a9.3,9.3,0,1,1,6.568,2.719A9.3,9.3,0,0,1,379.156,843.922Zm174.575-7.354a9.29,9.29,0,1,1,9.29,9.29A9.289,9.289,0,0,1,553.731,836.568Zm-85.278-.823a9.29,9.29,0,1,1,9.29,9.29A9.289,9.289,0,0,1,468.454,835.745Zm248.89-.728a9.29,9.29,0,1,1,9.29,9.29A9.289,9.289,0,0,1,717.343,835.017Zm-318.05-1.169a9.29,9.29,0,1,1,9.291,9.29A9.29,9.29,0,0,1,399.293,833.848Zm46.2-.806a9.29,9.29,0,1,1,9.29,9.29A9.289,9.289,0,0,1,445.488,833.042Zm-137.722-.209a9.29,9.29,0,1,1,9.29,9.29A9.29,9.29,0,0,1,307.767,832.833Zm117.328,6.145a9.3,9.3,0,1,1,6.568,2.718A9.289,9.289,0,0,1,425.094,838.978Zm170.329-3.357A9.3,9.3,0,1,1,602,838.34,9.3,9.3,0,0,1,595.423,835.621Zm-60.056-1.978a9.293,9.293,0,1,1,6.568,2.719A9.3,9.3,0,0,1,535.367,833.643Zm-206.236-9.662a9.29,9.29,0,1,1,9.29,9.29A9.29,9.29,0,0,1,329.131,823.981Zm303.821,6.428a9.291,9.291,0,1,1,6.568,2.72A9.3,9.3,0,0,1,632.952,830.408Zm33.514-10.08a9.29,9.29,0,1,1,9.29,9.29A9.289,9.289,0,0,1,666.466,820.328Zm-155.61-1a9.29,9.29,0,1,1,9.29,9.29A9.29,9.29,0,0,1,510.856,819.325Zm61.878-1.937a9.29,9.29,0,1,1,9.29,9.29A9.289,9.289,0,0,1,572.734,817.388ZM351.145,816.9a9.29,9.29,0,1,1,9.29,9.29A9.29,9.29,0,0,1,351.145,816.9Zm417.806-.528a9.29,9.29,0,1,1,9.29,9.29A9.29,9.29,0,0,1,768.951,816.371ZM488.508,813.38a9.29,9.29,0,1,1,9.29,9.29A9.29,9.29,0,0,1,488.508,813.38Zm-112.123,4.826a9.29,9.29,0,1,1,6.568,2.72A9.294,9.294,0,0,1,376.385,818.206ZM614.1,817.013a9.3,9.3,0,1,1,6.57,2.719A9.3,9.3,0,0,1,614.1,817.013ZM465.75,809.276a9.29,9.29,0,1,1,9.29,9.291A9.289,9.289,0,0,1,465.75,809.276Zm-69.214-1.051a9.29,9.29,0,1,1,9.291,9.29A9.29,9.29,0,0,1,396.536,808.225Zm-94.277,6.706a9.42,9.42,0,0,1,0,2.031Zm249.69-7.681a9.29,9.29,0,1,1,9.29,9.29A9.289,9.289,0,0,1,551.948,807.251Zm-106.493,6.362a9.29,9.29,0,1,1,6.568,2.72A9.287,9.287,0,0,1,445.455,813.613Zm-25.844-6.922a9.29,9.29,0,1,1,9.29,9.29A9.289,9.289,0,0,1,419.611,806.691Zm-114.991-.674a9.29,9.29,0,1,1,9.29,9.29A9.29,9.29,0,0,1,304.619,806.017Zm225.843-7.322a9.29,9.29,0,1,1,9.29,9.29A9.29,9.29,0,0,1,530.463,798.694Zm63.9,6.254a9.3,9.3,0,1,1,6.571,2.719A9.29,9.29,0,0,1,594.365,804.948Zm195.722-.228a9.3,9.3,0,1,1,6.568,2.72A9.3,9.3,0,0,1,790.088,804.721Zm-461.18-.476a9.3,9.3,0,1,1,6.572,2.72A9.294,9.294,0,0,1,328.908,804.245Zm303.818-5.77a9.291,9.291,0,1,1,6.568,2.72A9.3,9.3,0,0,1,632.725,798.475ZM508.4,791.767a9.29,9.29,0,1,1,9.29,9.291A9.29,9.29,0,0,1,508.4,791.767Zm-157.355,5.773a9.29,9.29,0,1,1,6.568,2.72A9.286,9.286,0,0,1,351.043,797.539Zm220.086-9.833a9.29,9.29,0,1,1,9.29,9.29A9.289,9.289,0,0,1,571.129,787.706ZM488.6,793.077a9.3,9.3,0,1,1,6.571,2.72A9.29,9.29,0,0,1,488.6,793.077Zm-117.7-7.142a9.29,9.29,0,1,1,9.291,9.29A9.292,9.292,0,0,1,370.893,785.936ZM703.156,784a9.29,9.29,0,1,1,9.29,9.29A9.29,9.29,0,0,1,703.156,784Zm-309.378-1.4a9.29,9.29,0,1,1,9.29,9.29A9.291,9.291,0,0,1,393.778,782.6Zm347.137,5.806a9.3,9.3,0,1,1,6.573,2.719A9.291,9.291,0,0,1,740.915,788.408Zm-300.941-7.3a9.29,9.29,0,1,1,9.291,9.29A9.29,9.29,0,0,1,439.974,781.1Zm-23.125-.115a9.29,9.29,0,1,1,9.29,9.29A9.29,9.29,0,0,1,416.849,780.989Zm388.923-1.049a9.29,9.29,0,1,1,9.291,9.29A9.291,9.291,0,0,1,805.772,779.94Zm-501.5,6.008a9.258,9.258,0,0,1-2.011-3v-7.133a9.289,9.289,0,1,1,2.011,10.134Zm245.655-7.474a9.29,9.29,0,1,1,9.29,9.29A9.289,9.289,0,0,1,549.924,778.474Zm-226.642-7a9.29,9.29,0,1,1,9.29,9.29A9.29,9.29,0,0,1,323.283,771.473Zm204.851-.746a9.29,9.29,0,1,1,9.29,9.29A9.29,9.29,0,0,1,528.133,770.727ZM345.51,765.086a9.29,9.29,0,1,1,9.29,9.291A9.289,9.289,0,0,1,345.51,765.086Zm163.07,5.984a9.29,9.29,0,1,1,6.568,2.722A9.291,9.291,0,0,1,508.58,771.07ZM629.258,760.73a9.29,9.29,0,1,1,9.29,9.29A9.289,9.289,0,0,1,629.258,760.73Zm-258.413,6.085a9.284,9.284,0,1,1,6.568,2.723A9.291,9.291,0,0,1,370.846,766.815Zm22.9-3.268a9.282,9.282,0,1,1,6.568,2.723A9.29,9.29,0,0,1,393.742,763.547Zm20.344-8.247a9.29,9.29,0,1,1,9.291,9.29A9.291,9.291,0,0,1,414.086,755.3Zm25.849,6.486a9.293,9.293,0,1,1,6.568,2.719A9.3,9.3,0,0,1,439.935,761.787Zm227.213-6.8a9.29,9.29,0,1,1,9.29,9.29A9.289,9.289,0,0,1,667.148,754.988Zm-364.89,5.332V745.443a9.29,9.29,0,1,1,0,14.877ZM550.448,756.7a9.3,9.3,0,1,1,6.569,2.718A9.3,9.3,0,0,1,550.448,756.7Zm58.752-7.484a9.29,9.29,0,1,1,9.29,9.29A9.291,9.291,0,0,1,609.2,749.217Zm-288.8-3.865a9.29,9.29,0,1,1,9.29,9.29A9.29,9.29,0,0,1,320.4,745.352Zm205.3-2.266a9.29,9.29,0,1,1,9.29,9.29A9.289,9.289,0,0,1,525.7,743.086Zm-182.992-3.847a9.29,9.29,0,1,1,9.29,9.29A9.289,9.289,0,0,1,342.708,739.239Zm22.651-4.671a9.29,9.29,0,1,1,9.29,9.29A9.289,9.289,0,0,1,365.359,734.568ZM480.516,733.3a9.29,9.29,0,1,1,9.29,9.291A9.29,9.29,0,0,1,480.516,733.3Zm-20.249,3.867a9.3,9.3,0,1,1,6.57,2.719A9.3,9.3,0,0,1,460.267,737.163Zm167.853-6.971a9.29,9.29,0,1,1,9.29,9.29A9.289,9.289,0,0,1,628.12,730.193Zm-20.5-10.718a9.29,9.29,0,1,1,9.29,9.29A9.29,9.29,0,0,1,607.624,719.474ZM317.543,719.3a9.29,9.29,0,1,1,9.29,9.29A9.289,9.289,0,0,1,317.543,719.3Zm22.37-5.874a9.29,9.29,0,1,1,9.29,9.29A9.29,9.29,0,0,1,339.913,713.423Zm246.648-3.5a9.29,9.29,0,1,1,9.29,9.29A9.289,9.289,0,0,1,586.561,709.923ZM362.595,708.9a9.29,9.29,0,1,1,9.29,9.29A9.29,9.29,0,0,1,362.595,708.9Zm115.21-2.011a9.29,9.29,0,1,1,9.29,9.29A9.289,9.289,0,0,1,477.8,706.885Zm-92.3-1.151a9.29,9.29,0,1,1,9.29,9.29A9.29,9.29,0,0,1,385.505,705.734Zm46.184-2.189a9.29,9.29,0,1,1,9.29,9.29A9.289,9.289,0,0,1,431.69,703.545Zm133.3-1.978a9.29,9.29,0,1,1,9.29,9.29A9.29,9.29,0,0,1,564.994,701.567ZM302.259,690.924a9.29,9.29,0,0,1,0,18.568Zm324.421,9.267a9.29,9.29,0,1,1,9.29,9.29A9.29,9.29,0,0,1,626.68,700.192Zm-83.687-5.758a9.29,9.29,0,1,1,9.29,9.29A9.29,9.29,0,0,1,542.992,694.434Zm-90.949-15.92a9.29,9.29,0,1,1,9.29,9.29A9.289,9.289,0,0,1,452.043,678.514Zm-23.116-.764a9.29,9.29,0,1,1,9.29,9.29A9.29,9.29,0,0,1,428.927,677.75Zm-46.214-16.693a9.29,9.29,0,1,1,6.568,2.72A9.281,9.281,0,0,1,382.712,661.056Zm89.633-6.717a9.29,9.29,0,1,1,9.29,9.291A9.289,9.289,0,0,1,472.345,654.34ZM423.4,626.216a9.29,9.29,0,1,1,9.29,9.291A9.289,9.289,0,0,1,423.4,626.216Z" transform="translate(-301.759 -616.426)" fill="#182e54" stroke="rgba(0,0,0,0)" stroke-width="1"/></svg>