<svg xmlns="http://www.w3.org/2000/svg" xmlns:xlink="http://www.w3.org/1999/xlink" width="1366" height="693" viewBox="0 0 1366 693"><defs><clipPath id="a"><rect width="1366" height="693" transform="translate(0 3601)" fill="#173d7a"/></clipPath><linearGradient id="b" x1="0.786" y1="0.026" x2="0.007" y2="1.108" gradientUnits="objectBoundingBox"><stop offset="0" stop-color="#bcd5ff"/><stop offset="1" stop-color="#396caa"/></linearGradient><linearGradient id="e" y1="0.5" x2="1" y2="0.5" gradientUnits="objectBoundingBox"><stop offset="0" stop-color="#173d7a"/><stop offset="0.64" stop-color="#94c3f8"/><stop offset="1" stop-color="#b0dbfe"/></linearGradient><linearGradient id="h" y1="0.5" x2="1" y2="0.5" gradientUnits="objectBoundingBox"><stop offset="0" stop-color="#5778ff"/><stop offset="0.178" stop-color="#5b7cff"/><stop offset="0.388" stop-color="#6a89ff"/><stop offset="0.613" stop-color="#819fff"/><stop offset="0.849" stop-color="#a2bdff"/><stop offset="1" stop-color="#bcd5ff"/></linearGradient><linearGradient id="j" y1="0.5" x2="1" y2="0.5" gradientUnits="objectBoundingBox"><stop offset="0" stop-color="#173d7a"/><stop offset="0.272" stop-color="#78a1de"/><stop offset="0.711" stop-color="#b6d7f8"/><stop offset="1" stop-color="#d4ecff"/></linearGradient><linearGradient id="k" y1="0.5" x2="1" y2="0.5" gradientUnits="objectBoundingBox"><stop offset="0" stop-color="#c0d6ff"/><stop offset="0.298" stop-color="#c4daff"/><stop offset="0.649" stop-color="#d3e9ff"/><stop offset="1" stop-color="#e9ffff"/></linearGradient><linearGradient id="l" y1="0.5" x2="1" y2="0.5" gradientUnits="objectBoundingBox"><stop offset="0" stop-color="#d4ecff"/><stop offset="0.331" stop-color="#abceef"/><stop offset="0.822" stop-color="#2863c2"/><stop offset="1" stop-color="#173d7a"/></linearGradient><linearGradient id="v" x1="0.5" y1="0.777" x2="0.5" y2="0.021" xlink:href="#k"/><linearGradient id="w" x1="0.629" y1="0.848" x2="0.386" y2="0.192" xlink:href="#k"/><linearGradient id="x" y1="0.5" x2="1" y2="0.5" gradientUnits="objectBoundingBox"><stop offset="0" stop-color="#4a77bf"/><stop offset="0.385" stop-color="#92bdee"/><stop offset="1" stop-color="#acdbff"/></linearGradient><linearGradient id="ab" x1="0" y1="0.5" x2="1" y2="0.5" xlink:href="#k"/><linearGradient id="ac" y1="0.5" x2="1" y2="0.5" gradientUnits="objectBoundingBox"><stop offset="0" stop-color="#6090de"/><stop offset="1" stop-color="#b6d0fb"/></linearGradient><linearGradient id="ad" x1="0" y1="0.5" x2="1" y2="0.5" xlink:href="#k"/><linearGradient id="ae" x1="0" y1="0.5" x2="1" y2="0.5" xlink:href="#ac"/><linearGradient id="af" x1="0" y1="0.5" x2="1" y2="0.5" xlink:href="#k"/><linearGradient id="ag" x1="0" y1="0.5" x2="1" y2="0.5" xlink:href="#ac"/></defs><g transform="translate(0 -3601)" clip-path="url(#a)"><rect width="1366" height="693" transform="translate(0 3601)" fill="#173d7a"/><g transform="translate(247 5093.933)"><path d="M812.387,391.071a1.027,1.027,0,0,1-.511-.137L612.236,275.671c-3.679-2.125-5.7-5.01-5.7-8.125s2.025-6,5.7-8.123l130.018-75.064c3.019-1.744,4.682-4,4.682-6.354s-1.664-4.612-4.682-6.356L522.108,44.55c-6.632-3.828-17.422-3.828-24.054,0L424.215,87.18c-3.02,1.743-4.682,4-4.682,6.353s1.663,4.612,4.682,6.354l109.76,63.37c3.678,2.125,5.7,5.009,5.7,8.123s-2.027,6-5.7,8.125L369.868,274.251c-7.2,4.156-18.9,4.156-26.1,0L234.8,211.336a1.023,1.023,0,0,1,1.024-1.77L344.79,272.481c6.634,3.826,17.424,3.826,24.054,0l164.106-94.746c3.02-1.743,4.682-4,4.682-6.354s-1.662-4.61-4.682-6.353l-109.756-63.37c-3.679-2.125-5.708-5.009-5.708-8.125s2.028-6,5.706-8.123l73.839-42.631c7.194-4.156,18.9-4.156,26.1,0l220.143,127.1c3.679,2.123,5.7,5.009,5.7,8.125s-2.025,6-5.7,8.125L613.259,261.192c-3.02,1.744-4.682,4-4.682,6.354s1.664,4.61,4.682,6.354L812.9,389.164a1.022,1.022,0,0,1-.513,1.907Z" transform="translate(218.214 -1544.309)" fill="#1a3b74"/><path d="M535.525,325.983a1.022,1.022,0,0,1-.513-1.907L778.878,182.967c4.161-2.4,6.452-5.533,6.452-8.82s-2.291-6.418-6.452-8.82L593.022,58.023c-8.989-5.188-23.61-5.185-32.6,0L518.882,82.011a1.023,1.023,0,1,1-1.024-1.77L559.4,56.252c9.554-5.51,25.09-5.512,34.64,0L779.9,163.556c4.819,2.784,7.473,6.544,7.473,10.591s-2.654,7.808-7.473,10.591L536.036,325.844A1.02,1.02,0,0,1,535.525,325.983Z" transform="translate(397.422 -1536.423)" fill="#1a3b74"/><path d="M431.881,526.945a30.049,30.049,0,0,1-14.7-3.511L151.68,370.147c-4.117-2.378-6.387-5.6-6.387-9.077s2.268-6.7,6.385-9.075l90.559-52.284c8.1-4.681,21.289-4.681,29.4,0l167.5,96.706c7.542,4.352,19.808,4.355,27.353,0L692.455,265.954c3.459-2,5.365-4.592,5.365-7.3s-1.906-5.309-5.366-7.307L625.682,212.79c-7.542-4.352-19.81-4.355-27.353,0L467.5,288.321c-8.105,4.68-21.291,4.679-29.4,0L255.316,182.787c-7.543-4.355-19.811-4.354-27.351,0L32.834,295.447a1.022,1.022,0,1,1-1.022-1.77l195.132-112.66c8.1-4.677,21.291-4.681,29.394,0L439.132,286.551c7.538,4.352,19.811,4.356,27.35,0L597.307,211.02c8.105-4.68,21.292-4.679,29.4,0l66.775,38.553c4.12,2.378,6.387,5.6,6.387,9.077s-2.267,6.7-6.385,9.075L467.509,398.189c-8.108,4.679-21.3,4.677-29.4,0l-167.5-96.706c-7.54-4.354-19.806-4.352-27.351,0L152.7,353.765c-3.461,2-5.365,4.592-5.365,7.3s1.906,5.308,5.365,7.307l265.5,153.287c7.54,4.354,19.808,4.354,27.35,0l343.56-198.353a1.023,1.023,0,0,1,1.024,1.77L446.577,523.434A30.04,30.04,0,0,1,431.881,526.945Z" transform="translate(89.701 -1457.038)" fill="#182e54"/><path d="M454.668,358.553a1.017,1.017,0,0,1-.51-.137L397.07,325.456a1.023,1.023,0,1,1,1.024-1.77l57.089,32.959a1.022,1.022,0,0,1-.514,1.907Z" transform="translate(320.95 -1364.578)" fill="#1a3b74"/><path d="M336.957,140.585a1.022,1.022,0,0,1-.513-1.907l75.2-43.416a1.023,1.023,0,0,1,1.024,1.77l-75.2,43.416A1.023,1.023,0,0,1,336.957,140.585Z" transform="translate(282.567 -1509.196)" fill="#1a3b74"/><path d="M719.547,224.225a1.022,1.022,0,0,1-.511-.137L620.4,167.14a1.023,1.023,0,1,1,1.024-1.77l98.637,56.95a1.021,1.021,0,0,1-.513,1.906Z" transform="translate(462.342 -1464.81)" fill="#1a3b74"/><path d="M350.547,143.037H316.683a1.022,1.022,0,0,1-1.022-1.022V122.463a1.023,1.023,0,0,1,1.022-1.022h33.862a1.023,1.023,0,0,1,1.022,1.022l0,19.552a1.026,1.026,0,0,1-1.022,1.022Zm-32.842-2.045h31.819l0-17.507H317.706Z" transform="translate(269.733 -1492.535)" fill="#1a3b74"/><path d="M598.425,116.818H564.561a1.022,1.022,0,0,1-1.022-1.022V96.245a1.022,1.022,0,0,1,1.022-1.022h33.864a1.022,1.022,0,0,1,1.022,1.022V115.8A1.022,1.022,0,0,1,598.425,116.818Zm-32.842-2.045H597.4V97.268H565.584Z" transform="translate(426.667 -1509.133)" fill="#1a3b74"/><path d="M291.587,375.61c-6.562,0-13.122-1.44-18.116-4.324-5.03-2.9-7.8-6.828-7.8-11.048s2.771-8.143,7.8-11.046c9.986-5.77,26.238-5.767,36.226,0h0c5.03,2.905,7.8,6.828,7.8,11.048s-2.771,8.143-7.8,11.048C304.7,374.171,298.146,375.61,291.587,375.61Zm0-28.728c-6.188,0-12.377,1.359-17.089,4.079-4.373,2.525-6.782,5.819-6.782,9.276s2.409,6.753,6.781,9.278c9.425,5.441,24.758,5.44,34.184,0,4.37-2.525,6.777-5.82,6.777-9.278s-2.409-6.753-6.782-9.278C303.963,348.241,297.774,346.882,291.584,346.882Z" transform="translate(238.083 -1351.083)" fill="#182e54"/><path d="M295.016,379.677c-7.43,0-14.858-1.631-20.512-4.9-5.7-3.288-8.833-7.731-8.833-12.509s3.138-9.22,8.835-12.508c11.307-6.533,29.708-6.529,41.017,0h0c5.7,3.29,8.833,7.731,8.833,12.509s-3.138,9.22-8.833,12.509C309.868,378.048,302.442,379.677,295.016,379.677Zm0-32.528c-7.006,0-14.015,1.538-19.349,4.619-4.952,2.859-7.679,6.588-7.679,10.5s2.727,7.646,7.678,10.5c10.671,6.161,28.033,6.159,38.706,0,4.948-2.859,7.674-6.59,7.674-10.5s-2.727-7.646-7.679-10.5C309.028,348.687,302.02,347.149,295.012,347.149Z" transform="translate(-338.67 -1449.152)" fill="#1a3b74"/><path d="M217.525,334.94c-7.426,0-14.854-1.633-20.507-4.9-5.7-3.29-8.837-7.731-8.837-12.509s3.138-9.22,8.837-12.509c11.3-6.529,29.708-6.529,41.016,0h0c5.7,3.29,8.833,7.731,8.833,12.509s-3.138,9.22-8.833,12.509C232.381,333.307,224.953,334.94,217.525,334.94Zm0-32.532c-7.008,0-14.016,1.54-19.349,4.621-4.95,2.859-7.678,6.59-7.678,10.5s2.727,7.646,7.678,10.5c10.671,6.161,28.035,6.161,38.7,0,4.952-2.859,7.678-6.59,7.678-10.5s-2.726-7.646-7.678-10.5C231.541,303.948,224.533,302.408,217.523,302.408Z" transform="translate(78.914 -1304.14)" fill="#1a3b74"/><path d="M178.781,312.571c-7.426,0-14.854-1.631-20.509-4.9-5.7-3.288-8.835-7.731-8.835-12.508s3.138-9.22,8.835-12.509c11.309-6.529,29.71-6.529,41.017,0h0c5.7,3.29,8.833,7.733,8.833,12.509s-3.138,9.22-8.835,12.508C193.637,310.938,186.209,312.571,178.781,312.571Zm0-32.53c-7.008,0-14.016,1.538-19.351,4.619-4.95,2.859-7.678,6.588-7.678,10.5s2.727,7.646,7.678,10.5c10.669,6.161,28.035,6.161,38.7,0,4.952-2.859,7.678-6.588,7.678-10.5s-2.726-7.646-7.678-10.5C192.8,281.579,185.789,280.041,178.781,280.041Z" transform="translate(46.016 -1323.134)" fill="#1a3b74"/><path d="M176.617,295.062a1.158,1.158,0,0,1-.581-2.16L222.9,265.846a1.158,1.158,0,0,1,1.159,2L177.2,294.907A1.157,1.157,0,0,1,176.617,295.062Z" transform="translate(68.112 -1333.381)" fill="#1a3b74"/><path d="M328.691,380.818a1.007,1.007,0,0,1-.516-.14l-34.3-20.051a1.022,1.022,0,0,1,1.034-1.764l34.3,20.051a1.022,1.022,0,0,1-.518,1.9Z" transform="translate(255.622 -1342.311)" fill="#182e54"/><path d="M466.4,365.327H432.54a1.023,1.023,0,0,1-1.022-1.022l0-19.552a1.026,1.026,0,0,1,1.022-1.022H466.4a1.023,1.023,0,0,1,1.022,1.022V364.3A1.022,1.022,0,0,1,466.4,365.327Zm-32.84-2.045h31.82V345.776H433.561Z" transform="translate(343.082 -1351.801)" fill="#1a3b74"/><g transform="translate(140.064 -1092.454)"><path d="M286.01,308.705V293.3l-25.1.017-55.687-32.151a5.927,5.927,0,0,0-5.331.222l-55.437,32.007-24.974.017.006,15.446h.013a1.588,1.588,0,0,0,.9,1.28l79.875,46.116a5.923,5.923,0,0,0,5.329-.22l79.108-45.673A2.251,2.251,0,0,0,286.01,308.705Z" transform="translate(-119.483 -245.222)" fill="url(#b)"/><path d="M200.281,347.918,120.406,301.8c-1.367-.79-1.195-2.167.383-3.077l79.106-45.674a5.927,5.927,0,0,1,5.331-.22L285.1,298.947c1.365.788,1.195,2.167-.383,3.077L205.61,347.7A5.924,5.924,0,0,1,200.281,347.918Z" transform="translate(-119.483 -252.299)" fill="#d4ecff"/><path d="M196.216,340.009l-70.8-40.877c-1.211-.7-1.06-1.921.338-2.728l70.121-40.485a5.255,5.255,0,0,1,4.725-.2L271.4,296.6c1.211.7,1.06,1.921-.34,2.729l-70.119,40.483A5.253,5.253,0,0,1,196.216,340.009Z" transform="translate(-115.139 -249.791)" fill="#173d7a"/><path d="M193.641,334.994l-65.049-37.556c-1.111-.642-.973-1.764.313-2.506l64.422-37.193a4.824,4.824,0,0,1,4.342-.179l65.047,37.554c1.113.642.973,1.764-.311,2.506l-64.424,37.2A4.82,4.82,0,0,1,193.641,334.994Z" transform="translate(-112.385 -248.201)" fill="#396caa"/><path d="M167.2,280.093l-7.607-4.392,4.154-2.4,7.607,4.392Z" transform="translate(-85.425 -234.463)" fill="#42ffff"/><path d="M176.752,277.74l-7.606,4.392-4.154-2.4,7.606-4.391Z" transform="translate(-80.84 -232.732)" fill="#42ffff"/><path d="M166.587,278.615l-4.154,2.4-4.154-2.4,4.154-2.4Z" transform="translate(-86.539 -231.989)" fill="#42ffff"/><path d="M177.942,285.171l-4.154,2.4-11.977-6.915,4.153-2.4Z" transform="translate(-83.54 -230.258)" fill="#42ffff"/></g><path d="M382.906,264.367a.972.972,0,0,1-.477-.124l-41.906-23.326a.982.982,0,0,1,0-1.716l206.84-115.206a.992.992,0,0,1,.975.01l91.51,53.613a.983.983,0,1,1-.993,1.7l-91.026-53.329L343.021,240.06l40.366,22.467a.982.982,0,0,1-.48,1.84Z" transform="translate(285.154 -1490.996)" fill="#182e54"/><g transform="translate(1062.54 -1312.751)"><path d="M266.556,303.089V289.482l-22.166.015L195.209,261.1a5.234,5.234,0,0,0-4.708.2L141.54,289.566l-22.057.015,0,13.641h.011a1.4,1.4,0,0,0,.8,1.13l70.544,40.728a5.231,5.231,0,0,0,4.707-.194l69.866-40.338A1.988,1.988,0,0,0,266.556,303.089Z" transform="translate(-119.483 -247.023)" fill="url(#b)"/><path d="M190.842,336.747,120.3,296.019c-1.207-.7-1.055-1.914.338-2.717L190.5,252.964a5.234,5.234,0,0,1,4.708-.194L265.752,293.5c1.205.7,1.055,1.914-.338,2.718l-69.866,40.336A5.232,5.232,0,0,1,190.842,336.747Z" transform="translate(-119.483 -252.299)" fill="#d4ecff"/><path d="M187.849,330.107l-62.528-36.1c-1.07-.617-.936-1.7.3-2.409l61.929-35.755a4.641,4.641,0,0,1,4.173-.173l62.53,36.1c1.07.619.936,1.7-.3,2.41l-61.927,35.754A4.639,4.639,0,0,1,187.849,330.107Z" transform="translate(-116.244 -250.429)" fill="#173d7a"/><path d="M185.954,325.9,128.5,292.728c-.981-.567-.859-1.558.276-2.213l56.9-32.848a4.26,4.26,0,0,1,3.835-.158l57.448,33.167c.983.567.859,1.558-.274,2.213l-56.9,32.85A4.257,4.257,0,0,1,185.954,325.9Z" transform="translate(-114.191 -249.243)" fill="#396caa"/><path d="M166.31,279.3l-6.718-3.879,3.668-2.118,6.718,3.879Z" transform="translate(-94.089 -239.001)" fill="#42ffff"/><path d="M175.378,277.46l-6.718,3.879-3.668-2.118,6.718-3.878Z" transform="translate(-90.671 -237.71)" fill="#42ffff"/><path d="M165.617,278.335l-3.668,2.118-3.668-2.118,3.668-2.118Z" transform="translate(-94.92 -237.156)" fill="#42ffff"/><path d="M176.058,284.363l-3.668,2.118-10.578-6.107,3.668-2.118Z" transform="translate(-92.684 -235.865)" fill="#42ffff"/></g><g transform="translate(1024.14 -1543.514)"><path d="M286.01,308.705V293.3l-25.1.017-55.687-32.151a5.927,5.927,0,0,0-5.331.222l-55.437,32.007-24.974.017.006,15.446h.013a1.588,1.588,0,0,0,.9,1.28l79.875,46.116a5.923,5.923,0,0,0,5.329-.22l79.108-45.673A2.251,2.251,0,0,0,286.01,308.705Z" transform="translate(-119.483 -245.222)" fill="url(#b)"/><path d="M200.281,347.918,120.406,301.8c-1.367-.79-1.195-2.167.383-3.077l79.106-45.674a5.927,5.927,0,0,1,5.331-.22L285.1,298.947c1.365.788,1.195,2.167-.383,3.077L205.61,347.7A5.924,5.924,0,0,1,200.281,347.918Z" transform="translate(-119.483 -252.299)" fill="#d4ecff"/><path d="M196.216,340.009l-70.8-40.877c-1.211-.7-1.06-1.921.338-2.728l70.121-40.485a5.255,5.255,0,0,1,4.725-.2L271.4,296.6c1.211.7,1.06,1.921-.34,2.729l-70.119,40.483A5.253,5.253,0,0,1,196.216,340.009Z" transform="translate(-115.139 -249.791)" fill="#173d7a"/><path d="M193.641,334.994l-65.049-37.556c-1.111-.642-.973-1.764.313-2.506l64.422-37.193a4.824,4.824,0,0,1,4.342-.179l65.047,37.554c1.113.642.973,1.764-.311,2.506l-64.424,37.2A4.82,4.82,0,0,1,193.641,334.994Z" transform="translate(-112.385 -248.201)" fill="#396caa"/><path d="M167.2,280.093l-7.607-4.392,4.154-2.4,7.607,4.392Z" transform="translate(-85.425 -234.463)" fill="#42ffff"/><path d="M176.752,277.74l-7.606,4.392-4.154-2.4,7.606-4.391Z" transform="translate(-80.84 -232.732)" fill="#42ffff"/><path d="M166.587,278.615l-4.154,2.4-4.154-2.4,4.154-2.4Z" transform="translate(-86.539 -231.989)" fill="#42ffff"/><path d="M177.942,285.171l-4.154,2.4-11.977-6.915,4.153-2.4Z" transform="translate(-83.54 -230.258)" fill="#42ffff"/></g><g transform="matrix(0.951, -0.309, 0.309, 0.951, -425.347, -1310.053)"><g transform="translate(0 0)"><path d="M-61.107,730.431s297.432,289.506,773.659,16.083,816.6,50.572,1065.3,9.574,210.712-465,210.712-465,28.889,169.125-352.546,171.891S129.371,144.2,129.371,144.2Z" transform="translate(105 -291.091)" fill="#fff"/></g></g><path d="M263.515,375.876c-14.159,0-27.469-3.185-37.478-8.962-10.3-5.944-15.967-13.942-15.967-22.516s5.67-16.568,15.965-22.514c20.667-11.928,54.288-11.927,74.951,0,10.3,5.946,15.969,13.942,15.969,22.514s-5.672,16.571-15.967,22.514C290.981,372.691,277.672,375.876,263.515,375.876Zm0-61c-13.215,0-26.43,2.9-36.492,8.713-9.661,5.579-14.984,12.969-14.984,20.811s5.322,15.234,14.985,20.812c9.715,5.611,22.676,8.7,36.5,8.7s26.776-3.088,36.49-8.7c9.663-5.577,14.985-12.967,14.985-20.811S309.668,329.167,300,323.589C289.944,317.778,276.725,314.874,263.51,314.874Z" transform="translate(202.882 -1371.296)" fill="#182e54"/><g transform="translate(418.651 -1162.543)"><path d="M252.841,353.242c-6.559,0-13.119-1.442-18.111-4.325-5.033-2.905-7.8-6.83-7.8-11.048s2.771-8.143,7.8-11.048c9.986-5.768,26.238-5.766,36.227,0h0c5.03,2.9,7.8,6.826,7.8,11.046s-2.771,8.143-7.8,11.048C265.961,351.8,259.4,353.242,252.841,353.242Zm0-28.731c-6.191,0-12.377,1.36-17.089,4.079-4.373,2.525-6.782,5.82-6.782,9.279s2.409,6.753,6.782,9.278c9.421,5.438,24.756,5.442,34.181,0,4.372-2.525,6.779-5.82,6.779-9.278s-2.407-6.753-6.781-9.278h0C265.221,325.873,259.03,324.511,252.841,324.511Z" transform="translate(-205.098 -205.091)" fill="#1a3b74"/><ellipse cx="38.984" cy="22.508" rx="38.984" ry="22.508" transform="translate(8.759 110.75)" fill="#173d7a"/><path d="M309.046,284.656V274.063h-3.663a32.589,32.589,0,0,0-10.321-8.9c-18.645-10.765-48.874-10.765-67.519,0a32.575,32.575,0,0,0-10.323,8.9h-3.66v10.594h0c0,7.053,4.661,14.108,13.983,19.491,18.645,10.764,48.876,10.764,67.519,0C304.385,298.766,309.046,291.711,309.046,284.656Z" transform="translate(-213.559 -166.826)" fill="url(#e)"/><ellipse cx="47.743" cy="27.565" rx="47.743" ry="27.565" transform="translate(0 78.128)" fill="#d4ecff"/><path d="M303.98,326.757V312.3H300.6a30.09,30.09,0,0,0-9.532-8.218c-17.219-9.942-45.137-9.942-62.355,0a30.071,30.071,0,0,0-9.532,8.218h-3.382v14.458h0c0,6.516,4.3,13.031,12.915,18,17.219,9.941,45.137,9.941,62.357,0C299.676,339.788,303.98,333.274,303.98,326.757Z" transform="translate(-212.144 -221.471)" fill="#173d7a"/><g transform="translate(3.651 71.674)" opacity="0.51"><path d="M303.98,324.627V310.169H300.6a30.071,30.071,0,0,0-9.532-8.218c-17.219-9.942-45.137-9.942-62.355,0a30.074,30.074,0,0,0-9.532,8.219h-3.382v14.458h0c0,6.514,4.3,13.031,12.915,18,17.219,9.942,45.137,9.942,62.357,0C299.676,337.657,303.98,331.141,303.98,324.627Z" transform="translate(-215.795 -294.494)" fill="#396caa"/></g><ellipse cx="44.092" cy="25.457" rx="44.092" ry="25.457" transform="translate(3.651 65.372)" fill="#d4ecff"/><g transform="translate(52.089 97.487)" opacity="0.51"><path d="M271.485,322.375c-7.579,9.653-17.576,14.814-26.03,17.576,9.8-.557,19.329-3,26.834-7.331,8.61-4.97,12.913-11.486,12.913-18V310.3A46.252,46.252,0,0,0,271.485,322.375Z" transform="translate(-245.455 -310.3)" fill="#396caa"/></g><path d="M309.046,284.656V274.063h-3.663a32.589,32.589,0,0,0-10.321-8.9c-18.645-10.765-48.874-10.765-67.519,0a32.575,32.575,0,0,0-10.323,8.9h-3.66v10.594h0c0,7.053,4.661,14.108,13.983,19.491,18.645,10.764,48.876,10.764,67.519,0C304.385,298.766,309.046,291.711,309.046,284.656Z" transform="translate(-213.559 -193.915)" fill="url(#e)"/><ellipse cx="47.743" cy="27.565" rx="47.743" ry="27.565" transform="translate(0 52.441)" fill="#d4ecff"/><path d="M303.98,310.7V296.243H300.6a30.068,30.068,0,0,0-9.532-8.216c-17.219-9.942-45.137-9.942-62.355,0a30.092,30.092,0,0,0-9.532,8.218h-3.382V310.7h0c0,6.514,4.3,13.029,12.915,18,17.219,9.941,45.137,9.942,62.357,0C299.676,323.732,303.98,317.217,303.98,310.7Z" transform="translate(-212.144 -231.635)" fill="#173d7a"/><g transform="translate(3.651 45.627)" opacity="0.51"><path d="M303.98,308.676V294.218H300.6A30.092,30.092,0,0,0,291.065,286c-17.219-9.941-45.137-9.941-62.355,0a30.092,30.092,0,0,0-9.532,8.218h-3.382v14.46h0c0,6.514,4.3,13.029,12.915,18,17.219,9.941,45.137,9.941,62.357,0C299.676,321.707,303.98,315.192,303.98,308.676Z" transform="translate(-215.795 -278.545)" fill="#396caa"/></g><ellipse cx="44.092" cy="25.457" rx="44.092" ry="25.457" transform="translate(3.651 39.152)" fill="#d4ecff"/><g transform="translate(46.252 69.909)" opacity="0.51"><path d="M273.748,305.488c-9.423,12-22.579,17.058-31.867,19.191,11.776.23,23.68-2.224,32.67-7.414,8.61-4.971,12.913-11.486,12.913-18v-5.85A46.252,46.252,0,0,0,273.748,305.488Z" transform="translate(-241.881 -293.413)" fill="#396caa"/></g><path d="M309.046,284.656V274.063h-3.663a32.589,32.589,0,0,0-10.321-8.9c-18.645-10.765-48.874-10.765-67.519,0a32.575,32.575,0,0,0-10.323,8.9h-3.66v10.594h0c0,7.053,4.661,14.108,13.983,19.491,18.645,10.764,48.876,10.764,67.519,0C304.385,298.766,309.046,291.711,309.046,284.656Z" transform="translate(-213.559 -220.207)" fill="url(#e)"/><ellipse cx="47.743" cy="27.565" rx="47.743" ry="27.565" transform="translate(0 26.22)" fill="#d4ecff"/><path d="M303.98,294.646V280.189H300.6a30.07,30.07,0,0,0-9.532-8.218c-17.219-9.942-45.137-9.942-62.355,0a30.071,30.071,0,0,0-9.532,8.218h-3.382v14.458h0c0,6.516,4.3,13.031,12.915,18,17.219,9.942,45.137,9.942,62.357,0C299.676,307.677,303.98,301.161,303.98,294.646Z" transform="translate(-212.144 -241.801)" fill="#173d7a"/><g transform="translate(3.651 18.668)" opacity="0.51"><path d="M303.98,292.17V277.712H300.6a30.071,30.071,0,0,0-9.532-8.218c-17.219-9.942-45.137-9.942-62.355,0a30.075,30.075,0,0,0-9.532,8.219h-3.382V292.17h0c0,6.514,4.3,13.029,12.915,18,17.219,9.942,45.137,9.942,62.357,0C299.676,305.2,303.98,298.684,303.98,292.17Z" transform="translate(-215.795 -262.037)" fill="#396caa"/></g><ellipse cx="44.092" cy="25.457" rx="44.092" ry="25.457" transform="translate(3.651 12.931)" fill="#d4ecff"/><path d="M309.046,284.656V274.063h-3.663a32.589,32.589,0,0,0-10.321-8.9c-18.645-10.765-48.874-10.765-67.519,0a32.575,32.575,0,0,0-10.323,8.9h-3.66v10.594h0c0,7.053,4.661,14.108,13.983,19.491,18.645,10.764,48.876,10.764,67.519,0C304.385,298.766,309.046,291.711,309.046,284.656Z" transform="translate(-213.559 -246.499)" fill="url(#h)"/><ellipse cx="47.743" cy="27.565" rx="47.743" ry="27.565" transform="translate(0 0)" fill="#d4ecff"/><ellipse cx="47.743" cy="27.565" rx="47.743" ry="27.565" transform="translate(0 0)" fill="#d4ecff"/><g transform="translate(43.637 42.329)" opacity="0.51"><path d="M274.761,288.6c-10.349,13.181-25.2,17.985-34.481,19.738,12.609.678,25.628-1.767,35.285-7.342,8.61-4.97,12.913-11.486,12.913-18v-6.472A46.284,46.284,0,0,0,274.761,288.6Z" transform="translate(-240.28 -276.525)" fill="#396caa"/></g><path d="M309.046,284.656V274.063h-3.663a32.589,32.589,0,0,0-10.321-8.9c-18.645-10.765-48.874-10.765-67.519,0a32.575,32.575,0,0,0-10.323,8.9h-3.66v10.594h0c0,7.053,4.661,14.108,13.983,19.491,18.645,10.764,48.876,10.764,67.519,0C304.385,298.766,309.046,291.711,309.046,284.656Z" transform="translate(-213.559 -246.499)" fill="url(#e)"/><ellipse cx="47.743" cy="27.565" rx="47.743" ry="27.565" transform="translate(0 0)" fill="#d4ecff"/><ellipse cx="47.743" cy="27.565" rx="47.743" ry="27.565" transform="translate(0 0)" fill="#d4ecff"/><path d="M295.332,288.3c-18.645,10.765-48.874,10.765-67.519,0-11.419-6.593-15.831-15.693-13.266-24.229-3.122,8.775,1.2,18.258,12.993,25.065,18.645,10.765,48.876,10.765,67.519,0,7.228-4.173,11.639-9.351,13.264-14.755C306.509,279.483,302.184,284.344,295.332,288.3Z" transform="translate(-213.556 -242.081)" fill="#fff"/><path d="M295.332,304.356c-18.645,10.764-48.874,10.764-67.519,0-11.419-6.591-15.831-15.691-13.266-24.227-3.122,8.775,1.2,18.257,12.993,25.065,18.645,10.764,48.876,10.764,67.519,0,7.228-4.173,11.639-9.351,13.264-14.754C306.509,295.539,302.184,300.4,295.332,304.356Z" transform="translate(-213.556 -231.916)" fill="#fff"/><path d="M295.332,320.411c-18.645,10.765-48.874,10.765-67.519,0-11.419-6.593-15.831-15.693-13.266-24.229-3.122,8.775,1.2,18.257,12.993,25.065,18.645,10.765,48.876,10.765,67.519,0,7.228-4.173,11.639-9.351,13.264-14.755C306.509,311.594,302.184,316.455,295.332,320.411Z" transform="translate(-213.556 -221.751)" fill="#fff"/><path d="M295.332,336.467c-18.645,10.764-48.874,10.764-67.519,0-11.419-6.593-15.831-15.693-13.266-24.229-3.122,8.775,1.2,18.257,12.993,25.065,18.645,10.764,48.876,10.765,67.519,0,7.228-4.173,11.639-9.351,13.264-14.754C306.509,327.65,302.184,332.51,295.332,336.467Z" transform="translate(-213.556 -211.586)" fill="#fff"/><path d="M276.81,271.392v-5.438h-1.88a16.747,16.747,0,0,0-5.3-4.568c-9.573-5.526-25.094-5.526-34.668,0a16.747,16.747,0,0,0-5.3,4.568h-1.88v5.438h0c0,3.622,2.394,7.245,7.181,10.008,9.573,5.527,25.093,5.527,34.666,0C274.417,278.636,276.81,275.014,276.81,271.392Z" transform="translate(-204.554 -246.405)" fill="url(#j)"/><path d="M269.631,278.07c-9.573,5.526-25.093,5.526-34.666,0s-9.573-14.487,0-20.014,25.094-5.528,34.668,0S279.2,272.544,269.631,278.07Z" transform="translate(-204.554 -248.514)" fill="#d4ecff"/><path d="M269.631,278.07c-9.573,5.526-25.093,5.526-34.666,0s-9.573-14.487,0-20.014,25.094-5.528,34.668,0S279.2,272.544,269.631,278.07Z" transform="translate(-204.554 -248.514)" fill="url(#k)"/><path d="M260.745,272.7c-6.446,3.722-16.9,3.722-23.342,0a10.286,10.286,0,0,1-4.153-4.021c-1.664-3.243,2.5-5.6,6.929-8.154,6.444-3.722,11.015-4.643,17.461-.923,4.432,2.559,8.92,5.832,7.258,9.074A10.271,10.271,0,0,1,260.745,272.7Z" transform="translate(-201.33 -246.412)" fill="#173d7a"/><path d="M237.522,264.972c6.444-3.722,16.895-3.722,23.34,0a10.286,10.286,0,0,1,4.151,4.017c1.667-3.242.284-6.9-4.151-9.457-6.446-3.72-16.9-3.72-23.34,0-4.434,2.561-5.817,6.214-4.151,9.457A10.286,10.286,0,0,1,237.522,264.972Z" transform="translate(-201.449 -246.721)" fill="url(#l)"/></g><path d="M321.445,434.374a31.261,31.261,0,0,1-15.585-4.148l-99.53-57.25a.983.983,0,0,1,0-1.705l22.388-12.8a.983.983,0,1,1,.977,1.707l-20.9,11.946,98.042,56.395a29.377,29.377,0,0,0,29.239-.016l181.76-104.8a.99.99,0,0,1,.978,0l46.147,26.316a.982.982,0,1,1-.973,1.707l-45.657-26.037L337.061,430.21A31.256,31.256,0,0,1,321.445,434.374Z" transform="translate(200.202 -1364.563)" fill="#182e54"/><path d="M463.565,432.788a.983.983,0,0,1-.529-1.813L665.958,301.953,505.67,209.413a.985.985,0,0,1,.011-1.71L556.987,179a.983.983,0,1,1,.96,1.716l-49.8,27.862,160.193,92.486a.984.984,0,0,1,.036,1.682L464.091,432.635A.983.983,0,0,1,463.565,432.788Z" transform="translate(362.75 -1456.175)" fill="#182e54"/><path d="M463.229,391.609c-14.157,0-27.466-3.183-37.477-8.961-10.3-5.946-15.967-13.942-15.967-22.516s5.67-16.57,15.967-22.516c20.665-11.927,54.288-11.925,74.952,0,10.3,5.946,15.969,13.943,15.969,22.517S511,376.7,500.706,382.648C490.7,388.426,477.388,391.609,463.229,391.609Zm0-61c-13.214,0-26.429,2.905-36.49,8.713-9.663,5.579-14.985,12.97-14.985,20.812s5.322,15.234,14.985,20.812c9.717,5.61,22.676,8.7,36.493,8.7s26.78-3.09,36.493-8.7c9.663-5.577,14.985-12.969,14.985-20.809s-5.322-15.235-14.987-20.814C489.661,333.512,476.443,330.607,463.226,330.607Z" transform="translate(329.324 -1361.334)" fill="#182e54"/><g transform="translate(745.31 -1137.048)"><path d="M252.841,353.242c-6.559,0-13.119-1.442-18.111-4.325-5.033-2.905-7.8-6.83-7.8-11.048s2.771-8.143,7.8-11.048c9.986-5.768,26.238-5.766,36.227,0h0c5.03,2.9,7.8,6.826,7.8,11.046s-2.771,8.143-7.8,11.048C265.961,351.8,259.4,353.242,252.841,353.242Zm0-28.731c-6.191,0-12.377,1.36-17.089,4.079-4.373,2.525-6.782,5.82-6.782,9.279s2.409,6.753,6.782,9.278c9.421,5.438,24.756,5.442,34.181,0,4.372-2.525,6.779-5.82,6.779-9.278s-2.407-6.753-6.781-9.278h0C265.221,325.873,259.03,324.511,252.841,324.511Z" transform="translate(-205.098 -205.091)" fill="#1a3b74"/><ellipse cx="38.984" cy="22.508" rx="38.984" ry="22.508" transform="translate(8.759 110.75)" fill="#173d7a"/><path d="M309.046,284.656V274.063h-3.663a32.589,32.589,0,0,0-10.321-8.9c-18.645-10.765-48.874-10.765-67.519,0a32.575,32.575,0,0,0-10.323,8.9h-3.66v10.594h0c0,7.053,4.661,14.108,13.983,19.491,18.645,10.764,48.876,10.764,67.519,0C304.385,298.766,309.046,291.711,309.046,284.656Z" transform="translate(-213.559 -166.826)" fill="url(#e)"/><ellipse cx="47.743" cy="27.565" rx="47.743" ry="27.565" transform="translate(0 78.128)" fill="#d4ecff"/><path d="M303.98,326.757V312.3H300.6a30.09,30.09,0,0,0-9.532-8.218c-17.219-9.942-45.137-9.942-62.355,0a30.071,30.071,0,0,0-9.532,8.218h-3.382v14.458h0c0,6.516,4.3,13.031,12.915,18,17.219,9.941,45.137,9.941,62.357,0C299.676,339.788,303.98,333.274,303.98,326.757Z" transform="translate(-212.144 -221.471)" fill="#173d7a"/><g transform="translate(3.651 71.674)" opacity="0.51"><path d="M303.98,324.627V310.169H300.6a30.071,30.071,0,0,0-9.532-8.218c-17.219-9.942-45.137-9.942-62.355,0a30.074,30.074,0,0,0-9.532,8.219h-3.382v14.458h0c0,6.514,4.3,13.031,12.915,18,17.219,9.942,45.137,9.942,62.357,0C299.676,337.657,303.98,331.141,303.98,324.627Z" transform="translate(-215.795 -294.494)" fill="#396caa"/></g><ellipse cx="44.092" cy="25.457" rx="44.092" ry="25.457" transform="translate(3.651 65.372)" fill="#d4ecff"/><g transform="translate(52.089 97.487)" opacity="0.51"><path d="M271.485,322.375c-7.579,9.653-17.576,14.814-26.03,17.576,9.8-.557,19.329-3,26.834-7.331,8.61-4.97,12.913-11.486,12.913-18V310.3A46.252,46.252,0,0,0,271.485,322.375Z" transform="translate(-245.455 -310.3)" fill="#396caa"/></g><path d="M309.046,284.656V274.063h-3.663a32.589,32.589,0,0,0-10.321-8.9c-18.645-10.765-48.874-10.765-67.519,0a32.575,32.575,0,0,0-10.323,8.9h-3.66v10.594h0c0,7.053,4.661,14.108,13.983,19.491,18.645,10.764,48.876,10.764,67.519,0C304.385,298.766,309.046,291.711,309.046,284.656Z" transform="translate(-213.559 -193.915)" fill="url(#e)"/><ellipse cx="47.743" cy="27.565" rx="47.743" ry="27.565" transform="translate(0 52.441)" fill="#d4ecff"/><path d="M303.98,310.7V296.243H300.6a30.068,30.068,0,0,0-9.532-8.216c-17.219-9.942-45.137-9.942-62.355,0a30.092,30.092,0,0,0-9.532,8.218h-3.382V310.7h0c0,6.514,4.3,13.029,12.915,18,17.219,9.941,45.137,9.942,62.357,0C299.676,323.732,303.98,317.217,303.98,310.7Z" transform="translate(-212.144 -231.635)" fill="#173d7a"/><g transform="translate(3.651 45.627)" opacity="0.51"><path d="M303.98,308.676V294.218H300.6A30.092,30.092,0,0,0,291.065,286c-17.219-9.941-45.137-9.941-62.355,0a30.092,30.092,0,0,0-9.532,8.218h-3.382v14.46h0c0,6.514,4.3,13.029,12.915,18,17.219,9.941,45.137,9.941,62.357,0C299.676,321.707,303.98,315.192,303.98,308.676Z" transform="translate(-215.795 -278.545)" fill="#396caa"/></g><ellipse cx="44.092" cy="25.457" rx="44.092" ry="25.457" transform="translate(3.651 39.152)" fill="#d4ecff"/><g transform="translate(46.252 69.909)" opacity="0.51"><path d="M273.748,305.488c-9.423,12-22.579,17.058-31.867,19.191,11.776.23,23.68-2.224,32.67-7.414,8.61-4.971,12.913-11.486,12.913-18v-5.85A46.252,46.252,0,0,0,273.748,305.488Z" transform="translate(-241.881 -293.413)" fill="#396caa"/></g><path d="M309.046,284.656V274.063h-3.663a32.589,32.589,0,0,0-10.321-8.9c-18.645-10.765-48.874-10.765-67.519,0a32.575,32.575,0,0,0-10.323,8.9h-3.66v10.594h0c0,7.053,4.661,14.108,13.983,19.491,18.645,10.764,48.876,10.764,67.519,0C304.385,298.766,309.046,291.711,309.046,284.656Z" transform="translate(-213.559 -220.207)" fill="url(#e)"/><ellipse cx="47.743" cy="27.565" rx="47.743" ry="27.565" transform="translate(0 26.22)" fill="#d4ecff"/><path d="M303.98,294.646V280.189H300.6a30.07,30.07,0,0,0-9.532-8.218c-17.219-9.942-45.137-9.942-62.355,0a30.071,30.071,0,0,0-9.532,8.218h-3.382v14.458h0c0,6.516,4.3,13.031,12.915,18,17.219,9.942,45.137,9.942,62.357,0C299.676,307.677,303.98,301.161,303.98,294.646Z" transform="translate(-212.144 -241.801)" fill="#173d7a"/><g transform="translate(3.651 18.668)" opacity="0.51"><path d="M303.98,292.17V277.712H300.6a30.071,30.071,0,0,0-9.532-8.218c-17.219-9.942-45.137-9.942-62.355,0a30.075,30.075,0,0,0-9.532,8.219h-3.382V292.17h0c0,6.514,4.3,13.029,12.915,18,17.219,9.942,45.137,9.942,62.357,0C299.676,305.2,303.98,298.684,303.98,292.17Z" transform="translate(-215.795 -262.037)" fill="#396caa"/></g><ellipse cx="44.092" cy="25.457" rx="44.092" ry="25.457" transform="translate(3.651 12.931)" fill="#d4ecff"/><path d="M309.046,284.656V274.063h-3.663a32.589,32.589,0,0,0-10.321-8.9c-18.645-10.765-48.874-10.765-67.519,0a32.575,32.575,0,0,0-10.323,8.9h-3.66v10.594h0c0,7.053,4.661,14.108,13.983,19.491,18.645,10.764,48.876,10.764,67.519,0C304.385,298.766,309.046,291.711,309.046,284.656Z" transform="translate(-213.559 -246.499)" fill="url(#h)"/><ellipse cx="47.743" cy="27.565" rx="47.743" ry="27.565" fill="#d4ecff"/><ellipse cx="47.743" cy="27.565" rx="47.743" ry="27.565" fill="#d4ecff"/><g transform="translate(43.637 42.329)" opacity="0.51"><path d="M274.761,288.6c-10.349,13.181-25.2,17.985-34.481,19.738,12.609.678,25.628-1.767,35.285-7.342,8.61-4.97,12.913-11.486,12.913-18v-6.472A46.284,46.284,0,0,0,274.761,288.6Z" transform="translate(-240.28 -276.525)" fill="#396caa"/></g><path d="M309.046,284.656V274.063h-3.663a32.589,32.589,0,0,0-10.321-8.9c-18.645-10.765-48.874-10.765-67.519,0a32.575,32.575,0,0,0-10.323,8.9h-3.66v10.594h0c0,7.053,4.661,14.108,13.983,19.491,18.645,10.764,48.876,10.764,67.519,0C304.385,298.766,309.046,291.711,309.046,284.656Z" transform="translate(-213.559 -246.499)" fill="url(#e)"/><ellipse cx="47.743" cy="27.565" rx="47.743" ry="27.565" fill="#d4ecff"/><ellipse cx="47.743" cy="27.565" rx="47.743" ry="27.565" fill="#d4ecff"/><path d="M295.332,288.3c-18.645,10.765-48.874,10.765-67.519,0-11.419-6.593-15.831-15.693-13.266-24.229-3.122,8.775,1.2,18.258,12.993,25.065,18.645,10.765,48.876,10.765,67.519,0,7.228-4.173,11.639-9.351,13.264-14.755C306.509,279.483,302.184,284.344,295.332,288.3Z" transform="translate(-213.556 -242.081)" fill="#fff"/><path d="M295.332,304.356c-18.645,10.764-48.874,10.764-67.519,0-11.419-6.591-15.831-15.691-13.266-24.227-3.122,8.775,1.2,18.257,12.993,25.065,18.645,10.764,48.876,10.764,67.519,0,7.228-4.173,11.639-9.351,13.264-14.754C306.509,295.539,302.184,300.4,295.332,304.356Z" transform="translate(-213.556 -231.916)" fill="#fff"/><path d="M295.332,320.411c-18.645,10.765-48.874,10.765-67.519,0-11.419-6.593-15.831-15.693-13.266-24.229-3.122,8.775,1.2,18.257,12.993,25.065,18.645,10.765,48.876,10.765,67.519,0,7.228-4.173,11.639-9.351,13.264-14.755C306.509,311.594,302.184,316.455,295.332,320.411Z" transform="translate(-213.556 -221.751)" fill="#fff"/><path d="M295.332,336.467c-18.645,10.764-48.874,10.764-67.519,0-11.419-6.593-15.831-15.693-13.266-24.229-3.122,8.775,1.2,18.257,12.993,25.065,18.645,10.764,48.876,10.765,67.519,0,7.228-4.173,11.639-9.351,13.264-14.754C306.509,327.65,302.184,332.51,295.332,336.467Z" transform="translate(-213.556 -211.586)" fill="#fff"/><path d="M276.81,271.392v-5.438h-1.88a16.747,16.747,0,0,0-5.3-4.568c-9.573-5.526-25.094-5.526-34.668,0a16.747,16.747,0,0,0-5.3,4.568h-1.88v5.438h0c0,3.622,2.394,7.245,7.181,10.008,9.573,5.527,25.093,5.527,34.666,0C274.417,278.636,276.81,275.014,276.81,271.392Z" transform="translate(-204.554 -246.405)" fill="url(#j)"/><path d="M269.631,278.07c-9.573,5.526-25.093,5.526-34.666,0s-9.573-14.487,0-20.014,25.094-5.528,34.668,0S279.2,272.544,269.631,278.07Z" transform="translate(-204.554 -248.514)" fill="#d4ecff"/><path d="M269.631,278.07c-9.573,5.526-25.093,5.526-34.666,0s-9.573-14.487,0-20.014,25.094-5.528,34.668,0S279.2,272.544,269.631,278.07Z" transform="translate(-204.554 -248.514)" fill="url(#k)"/><path d="M260.745,272.7c-6.446,3.722-16.9,3.722-23.342,0a10.286,10.286,0,0,1-4.153-4.021c-1.664-3.243,2.5-5.6,6.929-8.154,6.444-3.722,11.015-4.643,17.461-.923,4.432,2.559,8.92,5.832,7.258,9.074A10.271,10.271,0,0,1,260.745,272.7Z" transform="translate(-201.33 -246.412)" fill="#173d7a"/><path d="M237.522,264.972c6.444-3.722,16.895-3.722,23.34,0a10.286,10.286,0,0,1,4.151,4.017c1.667-3.242.284-6.9-4.151-9.457-6.446-3.72-16.9-3.72-23.34,0-4.434,2.561-5.817,6.214-4.151,9.457A10.286,10.286,0,0,1,237.522,264.972Z" transform="translate(-201.449 -246.721)" fill="url(#l)"/></g><g transform="translate(624.594 -1384.079)"><path d="M266.556,303.089V289.482l-22.166.015L195.209,261.1a5.234,5.234,0,0,0-4.708.2L141.54,289.566l-22.057.015,0,13.641h.011a1.4,1.4,0,0,0,.8,1.13l70.544,40.728a5.231,5.231,0,0,0,4.707-.194l69.866-40.338A1.988,1.988,0,0,0,266.556,303.089Z" transform="translate(-118.941 -111.956)" fill="url(#b)"/><path d="M411.022,280.594l-70.544-40.728c-1.207-.7-1.055-1.914.338-2.719l69.864-40.336a5.235,5.235,0,0,1,4.708-.2l70.544,40.73c1.207.7,1.055,1.912-.338,2.718L415.729,280.4A5.231,5.231,0,0,1,411.022,280.594Z" transform="translate(-339.664 -61.16)" fill="#d4ecff"/><path d="M408.032,273.953l-62.53-36.1c-1.07-.617-.936-1.7.3-2.409l61.929-35.755a4.636,4.636,0,0,1,4.173-.173l62.53,36.1c1.07.617.936,1.7-.3,2.409L412.2,273.78A4.636,4.636,0,0,1,408.032,273.953Z" transform="translate(-336.426 -59.29)" fill="#173d7a"/><path d="M406.135,269.743l-57.448-33.168c-.983-.567-.861-1.558.274-2.213l56.9-32.85a4.265,4.265,0,0,1,3.834-.158l57.448,33.168c.983.567.859,1.558-.274,2.213l-56.9,32.85A4.262,4.262,0,0,1,406.135,269.743Z" transform="translate(-334.372 -58.105)" fill="#396caa"/><path d="M400.509,257.249l-42.371-24.462c-.725-.418-.634-1.148.2-1.631L400.3,206.927a3.141,3.141,0,0,1,2.827-.116L445.5,231.273c.725.418.634,1.15-.2,1.633l-41.964,24.227A3.136,3.136,0,0,1,400.509,257.249Z" transform="translate(-328.278 -54.586)" fill="#173d7a" opacity="0.5"/><g transform="translate(63.36 169.287)"><path d="M386.492,223.145l-6.718-3.879,3.668-2.118,6.718,3.879Z" transform="translate(-377.63 -217.149)" fill="#42ffff"/><path d="M395.559,221.306l-6.718,3.878-3.668-2.118,6.718-3.878Z" transform="translate(-374.212 -215.858)" fill="#42ffff"/><path d="M385.8,222.181l-3.668,2.118-3.668-2.118,3.668-2.118Z" transform="translate(-378.461 -215.304)" fill="#42ffff"/><path d="M396.239,228.209l-3.668,2.118-10.578-6.107,3.668-2.118Z" transform="translate(-376.225 -214.013)" fill="#42ffff"/></g><path d="M406.955,179.8,349.53,146.643l57.423-33.153,57.425,33.154Z" transform="translate(-333.418 -113.49)" fill="#d4ecff"/><path d="M406.955,257.724,349.53,224.57l57.423-33.153,57.425,33.154Z" transform="translate(-333.418 -64.153)" fill="#fff"/><path d="M442.116,133.791V261.055l-57.423,33.153V166.945Z" transform="translate(-311.156 -100.637)" fill="url(#v)"/><path d="M349.53,133.79V261.054l57.425,33.154V166.945Z" transform="translate(-333.418 -100.637)" fill="#173d7a"/><path d="M351.912,138.961V253.349l49.645,28.663V167.623Z" transform="translate(-331.91 -97.364)" fill="#396caa" opacity="0.72"/><path d="M430.164,152.619v3.364l-40.2,23.207v-3.364Z" transform="translate(-307.817 -88.717)" fill="#173d7a"/><path d="M430.164,161.328v3.364l-40.2,23.207v-3.364Z" transform="translate(-307.817 -83.203)" fill="#173d7a"/><path d="M430.164,170.037V173.4l-40.2,23.207v-3.364Z" transform="translate(-307.817 -77.689)" fill="#173d7a"/><path d="M430.164,178.746v3.364l-40.2,23.207v-3.364Z" transform="translate(-307.817 -72.175)" fill="#173d7a"/><path d="M430.164,187.455v3.364l-40.2,23.207v-3.364Z" transform="translate(-307.817 -66.662)" fill="#173d7a"/><path d="M430.164,196.164v3.364l-40.2,23.207v-3.364Z" transform="translate(-307.817 -61.148)" fill="#173d7a"/><path d="M406.955,166.033,350.51,133.444l-.98.566,57.425,33.154,57.423-33.153-.98-.566Z" transform="translate(-333.418 -100.856)" fill="#fff"/><path d="M400.846,165.617l-41.667-24.056,41.665-24.056,41.667,24.056Z" transform="translate(-327.309 -110.947)" fill="#d4ecff"/><path d="M426.358,132.236v2.926l-41.665,24.056v-2.926Z" transform="translate(-311.156 -101.621)" fill="url(#w)"/><path d="M359.179,132.235v2.926l41.667,24.056v-2.926Z" transform="translate(-327.309 -101.622)" fill="#4a7ccc"/><path d="M375.514,137.081l-1.847-1.066.153-.864,17.118-9.962,2.377,1.133-.443.738Z" transform="translate(-318.137 -106.083)" fill="#173d7a"/><path d="M391.488,126.215l1.843,1.064,1.189-.686-3.032-1.75L372.941,135.55l1.189.686Z" transform="translate(-318.596 -106.302)" fill="url(#x)"/><path d="M378.943,139.055l-1.847-1.066.153-.864,17.118-9.962,2.377,1.133-.443.738Z" transform="translate(-315.965 -104.833)" fill="#173d7a"/><path d="M382.327,141.03l-2.026-1.238.332-.692,17.118-9.962,2.377,1.133-.443.738Z" transform="translate(-313.748 -103.583)" fill="#173d7a"/><path d="M391.488,126.215l1.843,1.064,1.189-.686-3.032-1.75L372.941,135.55l1.189.686Z" transform="translate(-313.019 -103.115)" fill="url(#x)"/><path d="M391.488,126.215l1.921,1.134,1.189-.686-3.11-1.82L372.941,135.55l1.189.686Z" transform="translate(-307.442 -99.928)" fill="url(#x)"/><path d="M385.745,143l-2.075-1.275.382-.655,17.118-9.962,2.377,1.133-.443.738Z" transform="translate(-311.564 -102.333)" fill="#173d7a"/><path d="M391.488,126.215l1.934,1.146,1.189-.686-3.123-1.832L372.941,135.55l1.189.686Z" transform="translate(-301.865 -96.741)" fill="url(#x)"/><path d="M349.53,240.942l57.424-34.672V166.945L349.53,133.79Z" transform="translate(-333.418 -100.637)" fill="#8bd7ef" opacity="0.18"/><path d="M385.442,159.251a5.053,5.053,0,0,0-2.285-3.957,1.6,1.6,0,0,0-1.623-.155v0l-1.618.947,1,.034a2.607,2.607,0,0,0-.044.495,5.048,5.048,0,0,0,2.285,3.957,2.7,2.7,0,0,0,.488.22l-.465.87,1.584-.926h0A1.6,1.6,0,0,0,385.442,159.251Z" transform="translate(-314.18 -87.22)" fill="url(#ab)"/><path d="M384.074,159.836c0,1.457-1.024,2.048-2.285,1.318A5.048,5.048,0,0,1,379.5,157.2c0-1.457,1.022-2.048,2.285-1.32A5.056,5.056,0,0,1,384.074,159.836Z" transform="translate(-314.441 -86.851)" fill="url(#ac)"/><path d="M382.728,158.789c0,.838-.59,1.177-1.315.758a2.9,2.9,0,0,1-1.315-2.277c0-.838.588-1.177,1.315-.758A2.9,2.9,0,0,1,382.728,158.789Z" transform="translate(-314.065 -86.365)" fill="#173d7a"/><path d="M355.952,141.132a5.05,5.05,0,0,0-2.285-3.957,1.6,1.6,0,0,0-1.623-.157h0l-1.618.947,1,.034a2.575,2.575,0,0,0-.044.493,5.048,5.048,0,0,0,2.285,3.957,2.41,2.41,0,0,0,.488.22l-.467.872,1.586-.928h0A1.6,1.6,0,0,0,355.952,141.132Z" transform="translate(-332.851 -98.692)" fill="url(#ad)"/><path d="M354.583,141.715c0,1.457-1.022,2.048-2.285,1.32a5.053,5.053,0,0,1-2.285-3.957c0-1.458,1.024-2.048,2.285-1.32A5.048,5.048,0,0,1,354.583,141.715Z" transform="translate(-333.112 -98.323)" fill="url(#ae)"/><path d="M353.237,140.669c0,.838-.588,1.177-1.315.759a2.907,2.907,0,0,1-1.313-2.277c0-.839.588-1.179,1.313-.759A2.9,2.9,0,0,1,353.237,140.669Z" transform="translate(-332.735 -97.837)" fill="#173d7a"/><path d="M385.442,229.041a5.053,5.053,0,0,0-2.285-3.959,1.6,1.6,0,0,0-1.623-.155h0l-1.618.947,1,.034a2.577,2.577,0,0,0-.044.493,5.048,5.048,0,0,0,2.285,3.957,2.491,2.491,0,0,0,.488.22l-.465.87,1.584-.926h0A1.6,1.6,0,0,0,385.442,229.041Z" transform="translate(-314.18 -43.036)" fill="url(#af)"/><path d="M384.074,229.624c0,1.457-1.024,2.048-2.285,1.32a5.049,5.049,0,0,1-2.285-3.959c0-1.457,1.022-2.046,2.285-1.318A5.053,5.053,0,0,1,384.074,229.624Z" transform="translate(-314.441 -42.667)" fill="url(#ag)"/><path d="M382.728,228.578c0,.838-.59,1.177-1.315.759a2.9,2.9,0,0,1-1.315-2.277c0-.839.588-1.179,1.315-.759A2.907,2.907,0,0,1,382.728,228.578Z" transform="translate(-314.065 -42.181)" fill="#173d7a"/><path d="M355.952,210.921a5.053,5.053,0,0,0-2.285-3.957,1.6,1.6,0,0,0-1.623-.155v0l-1.618.947,1,.034a2.587,2.587,0,0,0-.044.493,5.049,5.049,0,0,0,2.285,3.959,2.6,2.6,0,0,0,.488.22l-.467.87,1.586-.926,0,0A1.6,1.6,0,0,0,355.952,210.921Z" transform="translate(-332.851 -54.508)" fill="url(#ad)"/><path d="M354.583,211.5c0,1.458-1.022,2.048-2.285,1.32a5.053,5.053,0,0,1-2.285-3.957c0-1.457,1.024-2.048,2.285-1.32A5.048,5.048,0,0,1,354.583,211.5Z" transform="translate(-333.112 -54.139)" fill="url(#ag)"/><path d="M353.237,210.458c0,.839-.588,1.177-1.315.759a2.907,2.907,0,0,1-1.313-2.277c0-.838.588-1.177,1.313-.759A2.9,2.9,0,0,1,353.237,210.458Z" transform="translate(-332.735 -53.653)" fill="#173d7a"/></g><g transform="translate(884.328 -1483.67)"><path d="M266.556,303.089V289.482l-22.166.015L195.209,261.1a5.234,5.234,0,0,0-4.708.2L141.54,289.566l-22.057.015,0,13.641h.011a1.4,1.4,0,0,0,.8,1.13l70.544,40.728a5.231,5.231,0,0,0,4.707-.194l69.866-40.338A1.988,1.988,0,0,0,266.556,303.089Z" transform="translate(-118.941 -111.956)" fill="url(#b)"/><path d="M411.022,280.594l-70.544-40.728c-1.207-.7-1.055-1.914.338-2.719l69.864-40.336a5.235,5.235,0,0,1,4.708-.2l70.544,40.73c1.207.7,1.055,1.912-.338,2.718L415.729,280.4A5.231,5.231,0,0,1,411.022,280.594Z" transform="translate(-339.664 -61.16)" fill="#d4ecff"/><path d="M408.032,273.953l-62.53-36.1c-1.07-.617-.936-1.7.3-2.409l61.929-35.755a4.636,4.636,0,0,1,4.173-.173l62.53,36.1c1.07.617.936,1.7-.3,2.409L412.2,273.78A4.636,4.636,0,0,1,408.032,273.953Z" transform="translate(-336.426 -59.29)" fill="#173d7a"/><path d="M406.135,269.743l-57.448-33.168c-.983-.567-.861-1.558.274-2.213l56.9-32.85a4.265,4.265,0,0,1,3.834-.158l57.448,33.168c.983.567.859,1.558-.274,2.213l-56.9,32.85A4.262,4.262,0,0,1,406.135,269.743Z" transform="translate(-334.372 -58.105)" fill="#396caa"/><path d="M400.509,257.249l-42.371-24.462c-.725-.418-.634-1.148.2-1.631L400.3,206.927a3.141,3.141,0,0,1,2.827-.116L445.5,231.273c.725.418.634,1.15-.2,1.633l-41.964,24.227A3.136,3.136,0,0,1,400.509,257.249Z" transform="translate(-328.278 -54.586)" fill="#173d7a" opacity="0.5"/><g transform="translate(63.36 169.287)"><path d="M386.492,223.145l-6.718-3.879,3.668-2.118,6.718,3.879Z" transform="translate(-377.63 -217.149)" fill="#42ffff"/><path d="M395.559,221.306l-6.718,3.878-3.668-2.118,6.718-3.878Z" transform="translate(-374.212 -215.858)" fill="#42ffff"/><path d="M385.8,222.181l-3.668,2.118-3.668-2.118,3.668-2.118Z" transform="translate(-378.461 -215.304)" fill="#42ffff"/><path d="M396.239,228.209l-3.668,2.118-10.578-6.107,3.668-2.118Z" transform="translate(-376.225 -214.013)" fill="#42ffff"/></g><path d="M406.955,179.8,349.53,146.643l57.423-33.153,57.425,33.154Z" transform="translate(-333.418 -113.49)" fill="#d4ecff"/><path d="M406.955,257.724,349.53,224.57l57.423-33.153,57.425,33.154Z" transform="translate(-333.418 -64.153)" fill="#fff"/><path d="M442.116,133.791V261.055l-57.423,33.153V166.945Z" transform="translate(-311.156 -100.637)" fill="url(#v)"/><path d="M349.53,133.79V261.054l57.425,33.154V166.945Z" transform="translate(-333.418 -100.637)" fill="#173d7a"/><path d="M351.912,138.961V253.349l49.645,28.663V167.623Z" transform="translate(-331.91 -97.364)" fill="#396caa" opacity="0.72"/><path d="M430.164,152.619v3.364l-40.2,23.207v-3.364Z" transform="translate(-307.817 -88.717)" fill="#173d7a"/><path d="M430.164,161.328v3.364l-40.2,23.207v-3.364Z" transform="translate(-307.817 -83.203)" fill="#173d7a"/><path d="M430.164,170.037V173.4l-40.2,23.207v-3.364Z" transform="translate(-307.817 -77.689)" fill="#173d7a"/><path d="M430.164,178.746v3.364l-40.2,23.207v-3.364Z" transform="translate(-307.817 -72.175)" fill="#173d7a"/><path d="M430.164,187.455v3.364l-40.2,23.207v-3.364Z" transform="translate(-307.817 -66.662)" fill="#173d7a"/><path d="M430.164,196.164v3.364l-40.2,23.207v-3.364Z" transform="translate(-307.817 -61.148)" fill="#173d7a"/><path d="M406.955,166.033,350.51,133.444l-.98.566,57.425,33.154,57.423-33.153-.98-.566Z" transform="translate(-333.418 -100.856)" fill="#fff"/><path d="M400.846,165.617l-41.667-24.056,41.665-24.056,41.667,24.056Z" transform="translate(-327.309 -110.947)" fill="#d4ecff"/><path d="M426.358,132.236v2.926l-41.665,24.056v-2.926Z" transform="translate(-311.156 -101.621)" fill="url(#w)"/><path d="M359.179,132.235v2.926l41.667,24.056v-2.926Z" transform="translate(-327.309 -101.622)" fill="#4a7ccc"/><path d="M375.514,137.081l-1.847-1.066.153-.864,17.118-9.962,2.377,1.133-.443.738Z" transform="translate(-318.137 -106.083)" fill="#173d7a"/><path d="M391.488,126.215l1.843,1.064,1.189-.686-3.032-1.75L372.941,135.55l1.189.686Z" transform="translate(-318.596 -106.302)" fill="url(#x)"/><path d="M378.943,139.055l-1.847-1.066.153-.864,17.118-9.962,2.377,1.133-.443.738Z" transform="translate(-315.965 -104.833)" fill="#173d7a"/><path d="M382.327,141.03l-2.026-1.238.332-.692,17.118-9.962,2.377,1.133-.443.738Z" transform="translate(-313.748 -103.583)" fill="#173d7a"/><path d="M391.488,126.215l1.843,1.064,1.189-.686-3.032-1.75L372.941,135.55l1.189.686Z" transform="translate(-313.019 -103.115)" fill="url(#x)"/><path d="M391.488,126.215l1.921,1.134,1.189-.686-3.11-1.82L372.941,135.55l1.189.686Z" transform="translate(-307.442 -99.928)" fill="url(#x)"/><path d="M385.745,143l-2.075-1.275.382-.655,17.118-9.962,2.377,1.133-.443.738Z" transform="translate(-311.564 -102.333)" fill="#173d7a"/><path d="M391.488,126.215l1.934,1.146,1.189-.686-3.123-1.832L372.941,135.55l1.189.686Z" transform="translate(-301.865 -96.741)" fill="url(#x)"/><path d="M349.53,240.942l57.424-34.672V166.945L349.53,133.79Z" transform="translate(-333.418 -100.637)" fill="#8bd7ef" opacity="0.18"/><path d="M385.442,159.251a5.053,5.053,0,0,0-2.285-3.957,1.6,1.6,0,0,0-1.623-.155v0l-1.618.947,1,.034a2.607,2.607,0,0,0-.044.495,5.048,5.048,0,0,0,2.285,3.957,2.7,2.7,0,0,0,.488.22l-.465.87,1.584-.926h0A1.6,1.6,0,0,0,385.442,159.251Z" transform="translate(-314.18 -87.22)" fill="url(#ab)"/><path d="M384.074,159.836c0,1.457-1.024,2.048-2.285,1.318A5.048,5.048,0,0,1,379.5,157.2c0-1.457,1.022-2.048,2.285-1.32A5.056,5.056,0,0,1,384.074,159.836Z" transform="translate(-314.441 -86.851)" fill="url(#ac)"/><path d="M382.728,158.789c0,.838-.59,1.177-1.315.758a2.9,2.9,0,0,1-1.315-2.277c0-.838.588-1.177,1.315-.758A2.9,2.9,0,0,1,382.728,158.789Z" transform="translate(-314.065 -86.365)" fill="#173d7a"/><path d="M355.952,141.132a5.05,5.05,0,0,0-2.285-3.957,1.6,1.6,0,0,0-1.623-.157h0l-1.618.947,1,.034a2.575,2.575,0,0,0-.044.493,5.048,5.048,0,0,0,2.285,3.957,2.41,2.41,0,0,0,.488.22l-.467.872,1.586-.928h0A1.6,1.6,0,0,0,355.952,141.132Z" transform="translate(-332.851 -98.692)" fill="url(#ad)"/><path d="M354.583,141.715c0,1.457-1.022,2.048-2.285,1.32a5.053,5.053,0,0,1-2.285-3.957c0-1.458,1.024-2.048,2.285-1.32A5.048,5.048,0,0,1,354.583,141.715Z" transform="translate(-333.112 -98.323)" fill="url(#ae)"/><path d="M353.237,140.669c0,.838-.588,1.177-1.315.759a2.907,2.907,0,0,1-1.313-2.277c0-.839.588-1.179,1.313-.759A2.9,2.9,0,0,1,353.237,140.669Z" transform="translate(-332.735 -97.837)" fill="#173d7a"/><path d="M385.442,229.041a5.053,5.053,0,0,0-2.285-3.959,1.6,1.6,0,0,0-1.623-.155h0l-1.618.947,1,.034a2.577,2.577,0,0,0-.044.493,5.048,5.048,0,0,0,2.285,3.957,2.491,2.491,0,0,0,.488.22l-.465.87,1.584-.926h0A1.6,1.6,0,0,0,385.442,229.041Z" transform="translate(-314.18 -43.036)" fill="url(#af)"/><path d="M384.074,229.624c0,1.457-1.024,2.048-2.285,1.32a5.049,5.049,0,0,1-2.285-3.959c0-1.457,1.022-2.046,2.285-1.318A5.053,5.053,0,0,1,384.074,229.624Z" transform="translate(-314.441 -42.667)" fill="url(#ag)"/><path d="M382.728,228.578c0,.838-.59,1.177-1.315.759a2.9,2.9,0,0,1-1.315-2.277c0-.839.588-1.179,1.315-.759A2.907,2.907,0,0,1,382.728,228.578Z" transform="translate(-314.065 -42.181)" fill="#173d7a"/><path d="M355.952,210.921a5.053,5.053,0,0,0-2.285-3.957,1.6,1.6,0,0,0-1.623-.155v0l-1.618.947,1,.034a2.587,2.587,0,0,0-.044.493,5.049,5.049,0,0,0,2.285,3.959,2.6,2.6,0,0,0,.488.22l-.467.87,1.586-.926,0,0A1.6,1.6,0,0,0,355.952,210.921Z" transform="translate(-332.851 -54.508)" fill="url(#ad)"/><path d="M354.583,211.5c0,1.458-1.022,2.048-2.285,1.32a5.053,5.053,0,0,1-2.285-3.957c0-1.457,1.024-2.048,2.285-1.32A5.048,5.048,0,0,1,354.583,211.5Z" transform="translate(-333.112 -54.139)" fill="url(#ag)"/><path d="M353.237,210.458c0,.839-.588,1.177-1.315.759a2.907,2.907,0,0,1-1.313-2.277c0-.838.588-1.177,1.313-.759A2.9,2.9,0,0,1,353.237,210.458Z" transform="translate(-332.735 -53.653)" fill="#173d7a"/></g><path d="M512.945,249.978l-6.718-3.879,3.668-2.118,6.718,3.879Z" transform="translate(390.382 -1414.953)" fill="#42ffff"/><path d="M522.012,248.138l-6.718,3.878-3.668-2.118,6.718-3.879Z" transform="translate(393.8 -1413.662)" fill="#42ffff"/><path d="M512.251,249.013l-3.668,2.118-3.669-2.118,3.668-2.118Z" transform="translate(389.551 -1413.108)" fill="#42ffff"/><path d="M522.692,255.042l-3.668,2.118-10.578-6.107,3.668-2.118Z" transform="translate(391.787 -1411.817)" fill="#42ffff"/><g transform="translate(831.11 -1235.468)"><path d="M529.906,276.327H496.042a1.022,1.022,0,0,1-1.022-1.022l0-19.552a1.026,1.026,0,0,1,1.022-1.022H529.9a1.023,1.023,0,0,1,1.022,1.022l0,19.552a1.023,1.023,0,0,1-1.022,1.022Zm-32.842-2.045h31.82l0-17.507h-31.82Z" transform="translate(-447.824 -172.679)" fill="#1a3b74"/><g transform="translate(0.379 30.276)"><path d="M266.556,303.089V289.482l-22.166.015L195.209,261.1a5.234,5.234,0,0,0-4.708.2L141.54,289.566l-22.057.015,0,13.641h.011a1.4,1.4,0,0,0,.8,1.13l70.544,40.728a5.231,5.231,0,0,0,4.707-.194l69.866-40.338A1.988,1.988,0,0,0,266.556,303.089Z" transform="translate(-119.483 -247.023)" fill="url(#b)"/><path d="M190.842,336.747,120.3,296.019c-1.207-.7-1.055-1.914.338-2.717L190.5,252.964a5.234,5.234,0,0,1,4.708-.194L265.752,293.5c1.205.7,1.055,1.914-.338,2.718l-69.866,40.336A5.232,5.232,0,0,1,190.842,336.747Z" transform="translate(-119.483 -252.299)" fill="#d4ecff"/><path d="M187.849,330.107l-62.528-36.1c-1.07-.617-.936-1.7.3-2.409l61.929-35.755a4.641,4.641,0,0,1,4.173-.173l62.53,36.1c1.07.619.936,1.7-.3,2.41l-61.927,35.754A4.639,4.639,0,0,1,187.849,330.107Z" transform="translate(-116.244 -250.429)" fill="#173d7a"/><path d="M185.954,325.9,128.5,292.728c-.981-.567-.859-1.558.276-2.213l56.9-32.848a4.26,4.26,0,0,1,3.835-.158l57.448,33.167c.983.567.859,1.558-.274,2.213l-56.9,32.85A4.257,4.257,0,0,1,185.954,325.9Z" transform="translate(-114.191 -249.243)" fill="#396caa"/><path d="M166.31,279.3l-6.718-3.879,3.668-2.118,6.718,3.879Z" transform="translate(-94.089 -239.001)" fill="#42ffff"/><path d="M175.378,277.46l-6.718,3.879-3.668-2.118,6.718-3.878Z" transform="translate(-90.671 -237.71)" fill="#42ffff"/><path d="M165.617,278.335l-3.668,2.118-3.668-2.118,3.668-2.118Z" transform="translate(-94.92 -237.156)" fill="#42ffff"/><path d="M176.058,284.363l-3.668,2.118-10.578-6.107,3.668-2.118Z" transform="translate(-92.684 -235.865)" fill="#42ffff"/></g><path d="M613.2,247.142l-30.01.178-41.349-23.873a5.226,5.226,0,0,0-4.707.2l-41.915,24.2-29.1.173v17.678l.018.01a1.479,1.479,0,0,0,.792.993l70.544,40.728a5.231,5.231,0,0,0,4.707-.194l69.866-40.338a2.143,2.143,0,0,0,1.107-1.271l.046-.025Z" transform="translate(-466.12 -192.783)" fill="#07c4ff" opacity="0.4"/><g transform="translate(0.379 0)"><path d="M266.556,303.089V289.482l-22.166.015L195.209,261.1a5.234,5.234,0,0,0-4.708.2L141.54,289.566l-22.057.015,0,13.641h.011a1.4,1.4,0,0,0,.8,1.13l70.544,40.728a5.231,5.231,0,0,0,4.707-.194l69.866-40.338A1.988,1.988,0,0,0,266.556,303.089Z" transform="translate(-119.483 -247.023)" fill="url(#b)"/><path d="M190.842,336.747,120.3,296.019c-1.207-.7-1.055-1.914.338-2.717L190.5,252.964a5.234,5.234,0,0,1,4.708-.194L265.752,293.5c1.205.7,1.055,1.914-.338,2.718l-69.866,40.336A5.232,5.232,0,0,1,190.842,336.747Z" transform="translate(-119.483 -252.299)" fill="#d4ecff"/><path d="M187.849,330.107l-62.528-36.1c-1.07-.617-.936-1.7.3-2.409l61.929-35.755a4.641,4.641,0,0,1,4.173-.173l62.53,36.1c1.07.619.936,1.7-.3,2.41l-61.927,35.754A4.639,4.639,0,0,1,187.849,330.107Z" transform="translate(-116.244 -250.429)" fill="#173d7a"/><path d="M185.954,325.9,128.5,292.728c-.981-.567-.859-1.558.276-2.213l56.9-32.848a4.26,4.26,0,0,1,3.835-.158l57.448,33.167c.983.567.859,1.558-.274,2.213l-56.9,32.85A4.257,4.257,0,0,1,185.954,325.9Z" transform="translate(-114.191 -249.243)" fill="#396caa"/><path d="M166.31,279.3l-6.718-3.879,3.668-2.118,6.718,3.879Z" transform="translate(-94.089 -239.001)" fill="#42ffff"/><path d="M175.378,277.46l-6.718,3.879-3.668-2.118,6.718-3.878Z" transform="translate(-90.671 -237.71)" fill="#42ffff"/><path d="M165.617,278.335l-3.668,2.118-3.668-2.118,3.668-2.118Z" transform="translate(-94.92 -237.156)" fill="#42ffff"/><path d="M176.058,284.363l-3.668,2.118-10.578-6.107,3.668-2.118Z" transform="translate(-92.684 -235.865)" fill="#42ffff"/></g></g></g></g></svg>