<svg xmlns="http://www.w3.org/2000/svg" width="97.303" height="82.351" viewBox="0 0 97.303 82.351"><rect width="51" height="43" rx="6" transform="translate(46.303 11.948)" fill="#1a3b74"/><path d="M189.993,409.71l.737.783c-.006.006-.064.059-.164.158l-.006.006c-.327.3-1.093,1.006-2.14,1.982v10.571a31.944,31.944,0,0,1-36.876,0V411.16l-.4-.427.14-.105a12.3,12.3,0,0,1-2.321-7.2,12.441,12.441,0,0,1,.269-2.578,17.615,17.615,0,0,1,9.665-8.864,17.123,17.123,0,0,1,2.842-.778c.082-.012.164-.029.246-.041a12.044,12.044,0,0,0,3.654,2.327,11.816,11.816,0,0,0,4.373.848l7.554-2.883.684-.263a17.405,17.405,0,0,1,9.869,5.59,16.737,16.737,0,0,1,1.21,1.514c.088.123.175.246.257.368a1.448,1.448,0,0,0-.257.117,1.978,1.978,0,0,0-.386.269,2.493,2.493,0,0,0-.333.368l-2.871,4.005,4.21,4.508,2.415-2.625a18.363,18.363,0,0,1,.3,2.216Q191.379,408.687,189.993,409.71Z" transform="translate(-147.791 -352.566)" fill="#9fa87b"/><path d="M159.215,346.625A4.6,4.6,0,0,0,160.783,350a2.072,2.072,0,0,1,.18.174c0,.026.009.049.013.074,0,.006,0,.013,0,.019,1.234,8.2,6.787,14.148,13.2,14.148s11.97-5.95,13.2-14.148c0-.028,0-.055,0-.082a2.546,2.546,0,0,1,.188-.182,4.613,4.613,0,0,0,1.571-3.382c.277-2.639-.288-4-.989-4.7,1.914-2.881,1.335-7.041,1.175-7.961a12.8,12.8,0,0,0-6.382-8.67,1.212,1.212,0,0,0-1.654.511,7.213,7.213,0,0,1-2.515,2.86c-1.806,1.142-3.657.96-5.8.75-2.3-.226-4.906-.481-7.692,1a10.711,10.711,0,0,0-4.785,5.233,9.983,9.983,0,0,0-.28,6.275C159.543,342.592,158.928,343.935,159.215,346.625Zm3.544-10.086a8.208,8.208,0,0,1,3.666-3.986,7.886,7.886,0,0,1,3.841-.888c.816,0,1.637.081,2.476.163,2.373.233,4.825.473,7.336-1.114h0a9.194,9.194,0,0,0,2.7-2.665,10.012,10.012,0,0,1,4.158,6.329c.326,1.869.378,5.443-1.5,6.985-2.038,1.676-5.826.468-9.489-.7-4.124-1.316-8.39-2.676-11.159-.232A5.736,5.736,0,0,0,163.159,343,8.476,8.476,0,0,1,162.758,336.54Zm.229,10.937a1.214,1.214,0,0,0,2.162-.807c-.087-2.12.336-3.607,1.254-4.418,1.737-1.534,5.335-.385,8.815.726,3.818,1.218,7.749,2.464,10.725.939a1.212,1.212,0,0,0,.545-.2,4.412,4.412,0,0,1,.243,2.654c-.13,1.24-.436,1.518-.79,1.841a2.547,2.547,0,0,0-.952,1.676c0,.008,0,.015-.006.023-1.054,7-5.6,12.081-10.8,12.081s-9.748-5.081-10.8-12.081c0-.018-.009-.033-.013-.05a2.544,2.544,0,0,0-.947-1.651c-.354-.322-.659-.6-.789-1.835a9.644,9.644,0,0,1-.059-1.077A15.3,15.3,0,0,0,162.987,347.476Z" transform="translate(-152.02 -325.145)" fill="#fff"/><path d="M174.822,365.428h2.791a1.214,1.214,0,1,0,0-2.428h-2.791a1.214,1.214,0,1,0,0,2.428Z" transform="translate(-158.027 -340.867)" fill="#9fa87b"/><path d="M189.832,365.428h2.792a1.214,1.214,0,1,0,0-2.428h-2.792a1.214,1.214,0,0,0,0,2.428Z" transform="translate(-164.261 -340.867)" fill="#9fa87b"/><path d="M177.641,378.466a1.214,1.214,0,0,0,.234,1.7,6.063,6.063,0,0,0,7.769,0,1.214,1.214,0,0,0-1.466-1.935,3.664,3.664,0,0,1-4.836,0A1.216,1.216,0,0,0,177.641,378.466Z" transform="translate(-159.6 -347.09)" fill="#9fa87b"/><path d="M208.837,456.856a1.09,1.09,0,1,0,1.09,1.09A1.09,1.09,0,0,0,208.837,456.856Z" transform="translate(-172.206 -379.847)" fill="#fff"/><circle cx="1.09" cy="1.09" r="1.09" transform="translate(81.192 2.333)" fill="#fff"/><circle cx="1.09" cy="1.09" r="1.09" transform="translate(83.713 74.834)" fill="#fff"/><path d="M235.856,337H194.928a6.435,6.435,0,0,0-6.432,6.432v29.246a13.509,13.509,0,0,0-10.653-5.245,1.163,1.163,0,0,0-.479.105h-.022c-.029,0-.058,0-.087,0a1.36,1.36,0,0,0-.133.03c-.029.008-.06.013-.089.023s-.071.032-.107.048-.068.029-.1.048-.053.037-.08.056a1.215,1.215,0,0,0-.108.082.153.153,0,0,0-.016.012,11.241,11.241,0,0,1-7,2.814,1.15,1.15,0,0,0-.424-.083,1.166,1.166,0,0,0-.437.086,11.259,11.259,0,0,1-7.115-2.9l-.015-.012a1.1,1.1,0,0,0-.105-.081c-.027-.02-.053-.042-.081-.059s-.065-.032-.1-.048-.071-.036-.108-.05-.064-.017-.1-.025a1,1,0,0,0-.124-.03c-.032-.005-.065,0-.1-.007a1.223,1.223,0,0,0-.13,0h-.023c-.03,0-.058.01-.087.014h-.008a1.18,1.18,0,0,0-.224-.023,13.563,13.563,0,0,0-13.2,10.682,13.742,13.742,0,0,0-.291,2.821,13.393,13.393,0,0,0,2.19,7.358,1.162,1.162,0,0,0,.173.568v11.854a1.159,1.159,0,0,0,.491.953,33.591,33.591,0,0,0,19.336,6.075h.065a33.9,33.9,0,0,0,19.37-6.074,1.164,1.164,0,0,0,.5-.953V390.651l-.048-.253.334-.309c.824-.766,1.316-1.228,1.333-1.24a1.17,1.17,0,0,0,.053-1.649l-.04-.043,3.337-3.635a5.881,5.881,0,0,0,.7-.924c.058.006.123.006.181.006h14.735a5.862,5.862,0,0,0,4.559,4.559v12.981h-5.847a1.169,1.169,0,0,0,0,2.339h14.032a1.169,1.169,0,1,0,0-2.339h-5.847V387.165a5.862,5.862,0,0,0,4.559-4.559h14.735a6.435,6.435,0,0,0,6.432-6.432V343.432A6.435,6.435,0,0,0,235.856,337Zm-48.9,37.508a4.4,4.4,0,0,0-1.076,1.058l-2.625,3.658a1.162,1.162,0,0,0-1.432.125l-2.713,2.532a12.726,12.726,0,0,1-1.193.988,13.4,13.4,0,0,1-7.542,2.63V373.807l5.945,3.144a1.17,1.17,0,0,0,1.713-.944l.477-6.215A11.2,11.2,0,0,1,186.953,374.508Zm-14.077-2.021a13.85,13.85,0,0,0,3.181-1.355l-.224,2.919Zm-7.534-.044-2.974,1.529-.191-2.921A13.854,13.854,0,0,0,165.342,372.443Zm-15.8,6.153a11.21,11.21,0,0,1,10.213-8.8l.4,6.1a1.17,1.17,0,0,0,1.7.964l6.18-3.177v11.7c-.027,0-.055,0-.082-.008-.327-.041-.655-.1-.976-.17a13.565,13.565,0,0,1-7.034-3.993l-.368-.4a1.171,1.171,0,1,0-1.707,1.6l.368.392a.549.549,0,0,0,.058.058,15.394,15.394,0,0,0,2.777,2.339,15.715,15.715,0,0,0,6.882,2.526,14.238,14.238,0,0,0,2.339.105h0c.026,0,.051,0,.077,0v0a15.777,15.777,0,0,0,8.273-2.626,15.36,15.36,0,0,0,2.058-1.62l.772-.719,1.082-1.012.947,1.012,2.187,2.339.731.783.958,1.023.864.927-1.822,1.687-.661.614a23.4,23.4,0,0,1-15.464,6.291,22.248,22.248,0,0,1-2.263-.07v0l-.082,0a23.315,23.315,0,0,1-14.352-6.468,1.16,1.16,0,0,0-.3-.507,1,1,0,0,0-.081-.076,10.414,10.414,0,0,1-1.713-1.833c-.019-.026-.051-.063-.084-.1a11.086,11.086,0,0,1-2.119-6.546A11.4,11.4,0,0,1,149.54,378.6Zm2.121,13v-.218c.074.072.148.144.222.218a25.653,25.653,0,0,0,16.067,7.215l.082,0v6.564a31.215,31.215,0,0,1-16.371-5.283Zm35.081,8.5a31.544,31.544,0,0,1-16.371,5.279v-6.5a25.647,25.647,0,0,0,16.05-6.095c.109-.093.214-.191.322-.285V400.1Zm4.789-17.283-2.415,2.625-4.21-4.508,2.871-4.005a2.5,2.5,0,0,1,.333-.368,1.98,1.98,0,0,1,.386-.269,1.448,1.448,0,0,1,.257-.117,1.64,1.64,0,0,1,.286-.094l.881-.216a1.168,1.168,0,0,0,1.771,1.5l1.81-1.689a6.053,6.053,0,0,1,.07,3l-.286,1.251-.082.362a3.733,3.733,0,0,1-.871,1.661l-.076.082Zm23.861,2.128a3.511,3.511,0,0,1-3.3-2.339H218.7A3.511,3.511,0,0,1,215.392,384.944Zm24.557-8.77a4.1,4.1,0,0,1-4.093,4.093H195.6l.251-1.076a8.4,8.4,0,0,0-.492-5.252l15.777-14.721h18.287a1.169,1.169,0,0,0,0-2.339H213.643l6.266-5.847h1.33a1.169,1.169,0,1,0,0-2.339h-.426c-.016-.02-.029-.042-.046-.06a1.168,1.168,0,0,0-1.652-.057l-.126.118H197.851a1.169,1.169,0,0,0,0,2.339h18.63l-6.266,5.847H197.851a1.169,1.169,0,0,0,0,2.339h9.858l-14.359,13.4-2.515.617v-29.8a4.1,4.1,0,0,1,4.093-4.093h40.928a4.1,4.1,0,0,1,4.093,4.093Z" transform="translate(-146.96 -330.069)" fill="#fff"/><path d="M251.169,385.339h8.186a1.169,1.169,0,0,0,0-2.339h-8.186a1.169,1.169,0,0,0,0,2.339Z" transform="translate(-189.754 -349.173)" fill="#fff"/><path d="M273.169,385.339h9.355a1.169,1.169,0,0,0,0-2.339h-9.355a1.169,1.169,0,0,0,0,2.339Z" transform="translate(-198.891 -349.173)" fill="#fff"/><path d="M259.049,395H239.169a1.169,1.169,0,1,0,0,2.339h19.879a1.169,1.169,0,0,0,0-2.339Z" transform="translate(-184.77 -354.157)" fill="#fff"/><path d="M287.016,395h-5.847a1.169,1.169,0,1,0,0,2.339h5.847a1.169,1.169,0,0,0,0-2.339Z" transform="translate(-202.213 -354.157)" fill="#fff"/><path d="M287.016,357h-5.847a1.169,1.169,0,1,0,0,2.339h5.847a1.169,1.169,0,0,0,0-2.339Z" transform="translate(-202.213 -338.375)" fill="#fff"/><path d="M233.169,331.339h28.065a1.169,1.169,0,1,0,0-2.339H233.169a1.169,1.169,0,1,0,0,2.339Z" transform="translate(-182.278 -326.746)" fill="#fff"/><path d="M266.9,453H241.169a1.169,1.169,0,0,0,0,2.339H266.9a1.169,1.169,0,1,0,0-2.339Z" transform="translate(-185.601 -378.245)" fill="#fff"/><path d="M185.329,458.2a35.6,35.6,0,0,1-24.8-.885,1.169,1.169,0,0,0-.9,2.16,37.937,37.937,0,0,0,26.437.944,1.169,1.169,0,0,0-.74-2.218Z" transform="translate(-151.924 -380.001)" fill="#fff"/></svg>