<svg xmlns="http://www.w3.org/2000/svg" width="82.152" height="79.062" viewBox="0 0 82.152 79.062"><g transform="translate(0.5)"><g transform="translate(3.355 22.767)"><rect width="69.584" height="23.526" transform="translate(2.063 18.509)" fill="#182e54"/><path d="M73.711,44.1H0V16.446H34.5V0h2.063V16.446H73.711V44.1ZM2.064,18.509V42.035H71.648V18.509Z" fill="#fff" stroke="rgba(0,0,0,0)" stroke-linecap="round" stroke-width="1"/></g><g transform="translate(34.881 12.565)"><path d="M169.006,362.111a3.982,3.982,0,1,1,3.982,3.981A3.986,3.986,0,0,1,169.006,362.111Z" transform="translate(-169.006 -358.13)" fill="#fff"/><path d="M173.932,364.966a1.918,1.918,0,0,0,0-3.836A1.918,1.918,0,0,0,173.932,364.966Z" transform="translate(-169.951 -359.067)" fill="#182e54"/></g><g transform="translate(59.738 48.896)"><rect width="7.734" height="7.734" fill="#9fa87b"/><rect width="3.608" height="3.607" transform="translate(2.063 2.063)" fill="#9fa87b"/></g><rect width="2.751" height="2.063" transform="translate(43.172 52.373)" fill="#9fa87b"/><rect width="2.751" height="2.063" transform="translate(37.67 52.373)" fill="#9fa87b"/><rect width="2.751" height="2.063" transform="translate(32.168 52.373)" fill="#9fa87b"/><g transform="translate(0 67.661)"><path d="M81.152,10.9H0V8.839H15.784V5.053H7.011V.486H9.074v2.5H70.617V0H72.68V5.053h-9.5V8.839H81.152V10.9ZM17.847,5.053V8.839H61.112V5.053Z" fill="#fff" stroke="rgba(0,0,0,0)" stroke-width="1"/><rect width="43.265" height="3.786" transform="translate(17.847 5.053)" fill="#9fa87b"/></g><path d="M163.109,367.077a9.417,9.417,0,0,1,.184-11.191l-1.639-1.254a11.478,11.478,0,0,0-.224,13.644Z" transform="translate(-131.092 -344.473)" fill="#9fa87b"/><path d="M154.269,370.012a18.028,18.028,0,0,1-.076-20.887l-1.686-1.19a20.094,20.094,0,0,0,.085,23.279Z" transform="translate(-127.826 -342.381)" fill="#9fa87b"/><path d="M144.977,372.4a24.427,24.427,0,0,1,.03-31.216l-1.585-1.322a26.494,26.494,0,0,0-.032,33.857Z" transform="translate(-124.221 -339.859)" fill="#9fa87b"/><path d="M184.471,367.077l1.679,1.2a11.479,11.479,0,0,0-.224-13.644l-1.639,1.254A9.416,9.416,0,0,1,184.471,367.077Z" transform="translate(-138.897 -344.473)" fill="#9fa87b"/><path d="M194.337,371.214a20.1,20.1,0,0,0,.085-23.279l-1.686,1.19a18.034,18.034,0,0,1-.076,20.887Z" transform="translate(-141.512 -342.381)" fill="#9fa87b"/><path d="M200.916,372.4l1.588,1.319a26.494,26.494,0,0,0-.032-33.857l-1.585,1.322A24.425,24.425,0,0,1,200.916,372.4Z" transform="translate(-144.08 -339.859)" fill="#9fa87b"/><rect width="2.063" height="3.114" transform="translate(16.655 48.577)" fill="#9fa87b"/><rect width="3.056" height="2.063" transform="translate(19.457 52.157)" fill="#9fa87b"/><rect width="2.063" height="2.945" transform="translate(16.655 55.095)" fill="#9fa87b"/><rect width="3.23" height="2.063" transform="translate(12.777 52.158)" fill="#9fa87b"/></g></svg>