<svg xmlns="http://www.w3.org/2000/svg" width="75.493" height="97.325" viewBox="0 0 75.493 97.325"><g transform="translate(-88.354 -99.461)"><path d="M145.638,190.555c0,2.613-12.393,4.731-27.681,4.731s-27.681-2.118-27.681-4.731,12.393-4.732,27.681-4.732S145.638,187.941,145.638,190.555Z" fill="none" stroke="#fff" stroke-width="3"/><rect width="19.571" height="32.889" transform="translate(108.172 157.514)" fill="#09376e"/><path d="M129.41,190.243a.908.908,0,0,1-.907.908H107.412a.909.909,0,0,1-.908-.908h0a.909.909,0,0,1,.908-.908H128.5a.908.908,0,0,1,.907.908Z" fill="#448cc7"/><path d="M129.41,184.1a.907.907,0,0,1-.907.908H107.412a.908.908,0,0,1-.908-.908h0a.908.908,0,0,1,.908-.907H128.5a.907.907,0,0,1,.907.907Z" fill="#448cc7"/><path d="M129.41,177.952a.908.908,0,0,1-.907.908H107.412a.909.909,0,0,1-.908-.908h0a.908.908,0,0,1,.908-.908H128.5a.907.907,0,0,1,.907.908Z" fill="#448cc7"/><path d="M129.41,171.806a.908.908,0,0,1-.907.908H107.412a.909.909,0,0,1-.908-.908h0a.909.909,0,0,1,.908-.908H128.5a.908.908,0,0,1,.907.908Z" fill="#448cc7"/><path d="M129.41,165.661a.907.907,0,0,1-.907.907H107.412a.908.908,0,0,1-.908-.907h0a.908.908,0,0,1,.908-.908H128.5a.907.907,0,0,1,.907.908Z" fill="#448cc7"/><path d="M162.2,155.664l-7.884-18.431v-3.615a5.234,5.234,0,0,0-.089-.943,30.335,30.335,0,0,0-30.244-28.12v23.854h-1.21a5.209,5.209,0,0,0-5.209,5.209v1.3H93.633a30.347,30.347,0,0,0,23.926,29.633V172.3a5.209,5.209,0,0,0,5.209,5.209H149.1a5.209,5.209,0,0,0,5.208-5.209V157.348h6.774A1.122,1.122,0,0,0,162.2,155.664Z" fill="none" stroke="#fff" stroke-width="3"/><path d="M123.968,159.987v-25.11h25.1a25.093,25.093,0,1,0-25.1,25.11Z" fill="#9fa87b"/><path d="M120.176,100.961h-.006a30.316,30.316,0,0,0-30.316,30.316v.021h30.322Z" fill="none" stroke="#fff" stroke-width="3"/><circle cx="16.603" cy="16.603" r="16.603" transform="translate(104.019 147.272) rotate(-76.813)" fill="#182e54"/><path d="M123.959,137.189v29.784c0,1.9-.279,3.645,2.6,3.645H146.4" fill="none" stroke="#fff" stroke-miterlimit="10" stroke-width="3"/><circle cx="8.79" cy="8.79" r="8.79" transform="matrix(0.161, -0.987, 0.987, 0.161, 113.885, 142.158)" fill="#fff"/><path d="M127.683,134.894a3.711,3.711,0,1,1-3.711-3.711A3.71,3.71,0,0,1,127.683,134.894Z" fill="#1a3b74"/><path d="M156.326,137.418h-8.353a4.937,4.937,0,0,0,0,9.824h12.149Z" fill="#9fa87b"/><path d="M145.449,163.568a1.567,1.567,0,0,0-1.567,1.567v13.793H149.1a6.27,6.27,0,0,0,6.27-6.27v-9.09Z" transform="translate(1 1)" fill="#9fa87b"/></g></svg>