<?xml version="1.0" encoding="UTF-8"?>
<svg width="360px" height="440px" viewBox="0 0 360 440" version="1.1" xmlns="http://www.w3.org/2000/svg" xmlns:xlink="http://www.w3.org/1999/xlink">
    <!-- Generator: Sketch 53 (72520) - https://sketchapp.com -->
    <title>02@2x</title>
    <desc>Created with Sketch.</desc>
    <g id="Page-1" stroke="none" stroke-width="1" fill="none" fill-rule="evenodd">
        <g id="02">
            <path d="M4,0 L356,0 C358.209139,-4.05812251e-16 360,1.790861 360,4 L360,436 C360,438.209139 358.209139,440 356,440 L4,440 C1.790861,440 2.705415e-16,438.209139 0,436 L0,4 C-2.705415e-16,1.790861 1.790861,4.05812251e-16 4,0 Z" id="Rectangle-2-Copy-9" fill="#FFFFFF"></path>
            <path d="M35.872,36.208 L35.872,46 L34.08,46 L34.08,36.208 L30.352,36.208 L30.352,34.608 L39.6,34.608 L39.6,36.208 L35.872,36.208 Z M40.896,36.272 L40.896,34.448 L42.832,34.448 L42.832,36.272 L40.896,36.272 Z M40.992,46 L40.992,37.808 L42.736,37.808 L42.736,46 L40.992,46 Z M54.016,37.648 C55.744,37.648 57.088,38.768 57.088,40.896 L57.088,46 L55.312,46 L55.312,41.216 C55.312,39.824 54.656,39.232 53.616,39.232 C52.624,39.232 51.856,39.856 51.808,41.264 L51.808,46 L50.096,46 L50.096,41.328 C50.096,39.904 49.456,39.232 48.416,39.232 C47.28,39.232 46.576,39.936 46.576,41.248 L46.576,46 L44.832,46 L44.832,37.808 L46.416,37.808 L46.624,38.736 C47.056,38.016 47.872,37.648 48.832,37.648 C50.016,37.648 50.976,38.144 51.456,39.136 C51.936,38.096 52.992,37.648 54.016,37.648 Z M66.88,41.728 L66.88,42.384 L60.608,42.384 C60.64,43.92 61.648,44.72 62.928,44.72 C63.888,44.72 64.688,44.272 65.024,43.376 L66.8,43.376 C66.368,45.04 64.896,46.16 62.896,46.16 C60.448,46.16 58.832,44.464 58.832,41.888 C58.832,39.328 60.448,37.632 62.88,37.632 C65.264,37.632 66.88,39.264 66.88,41.728 Z M62.88,39.024 C61.712,39.024 60.752,39.744 60.624,41.168 L65.104,41.168 C65.008,39.744 64.064,39.024 62.88,39.024 Z M70.416,34.112 L70.416,46 L68.672,46 L68.672,34.112 L70.416,34.112 Z M72.416,36.272 L72.416,34.448 L74.352,34.448 L74.352,36.272 L72.416,36.272 Z M72.512,46 L72.512,37.808 L74.256,37.808 L74.256,46 L72.512,46 Z M80.656,37.648 C82.72,37.648 83.936,39.008 83.936,41.104 L83.936,46 L82.176,46 L82.176,41.472 C82.176,39.936 81.392,39.184 80.192,39.184 C78.832,39.184 78.096,40.144 78.096,41.6 L78.096,46 L76.352,46 L76.352,37.808 L77.936,37.808 L78.064,38.912 C78.528,38.128 79.408,37.648 80.656,37.648 Z M93.728,41.728 L93.728,42.384 L87.456,42.384 C87.488,43.92 88.496,44.72 89.776,44.72 C90.736,44.72 91.536,44.272 91.872,43.376 L93.648,43.376 C93.216,45.04 91.744,46.16 89.744,46.16 C87.296,46.16 85.68,44.464 85.68,41.888 C85.68,39.328 87.296,37.632 89.728,37.632 C92.112,37.632 93.728,39.264 93.728,41.728 Z M89.728,39.024 C88.56,39.024 87.6,39.744 87.472,41.168 L91.952,41.168 C91.856,39.744 90.912,39.024 89.728,39.024 Z" id="Timeline" fill="#05004D" fill-rule="nonzero"></path>
            <g id="Group-4" transform="translate(30.000000, 79.000000)">
                <circle id="Oval" fill="#FFDE90" cx="24" cy="24" r="24"></circle>
                <g id="RI-Expiration-in-2-d" transform="translate(68.854000, 4.448000)" fill-rule="nonzero">
                    <path d="M0.298,11.552 L0.298,0.16 L5.178,0.16 C7.546,0.16 9.114,1.568 9.114,3.808 C9.114,5.568 8.186,6.912 6.618,7.312 L8.874,11.552 L6.842,11.552 L4.73,7.552 L2.09,7.552 L2.09,11.552 L0.298,11.552 Z M2.09,5.984 L5.002,5.984 C6.442,5.984 7.226,5.232 7.226,3.856 C7.226,2.496 6.442,1.76 5.002,1.76 L2.09,1.76 L2.09,5.984 Z M12.73,0.16 L12.73,11.552 L10.922,11.552 L10.922,0.16 L12.73,0.16 Z M19.898,9.936 L25.962,9.936 L25.962,11.552 L18.09,11.552 L18.09,0.16 L25.706,0.16 L25.706,1.76 L19.898,1.76 L19.898,5.024 L24.41,5.024 L24.41,6.608 L19.898,6.608 L19.898,9.936 Z M26.826,11.552 L29.674,7.36 L26.794,3.36 L28.858,3.36 L30.906,6.352 L32.97,3.36 L35.034,3.36 L32.154,7.344 L35.002,11.552 L32.954,11.552 L30.906,8.416 L28.874,11.552 L26.826,11.552 Z M40.906,3.2 C43.082,3.2 44.794,4.72 44.794,7.472 C44.794,10.128 43.162,11.712 40.906,11.712 C39.658,11.712 38.57,11.2 38.074,10.352 L38.074,14.752 L36.33,14.752 L36.33,3.36 L37.93,3.36 L38.074,4.608 C38.57,3.76 39.626,3.2 40.906,3.2 Z M40.554,10.16 C41.978,10.16 42.986,9.152 42.986,7.472 C42.986,5.792 41.994,4.752 40.554,4.752 C39.178,4.736 38.122,5.792 38.122,7.488 C38.122,9.168 39.178,10.16 40.554,10.16 Z M46.49,1.824 L46.49,-7.10542736e-15 L48.426,-7.10542736e-15 L48.426,1.824 L46.49,1.824 Z M46.586,11.552 L46.586,3.36 L48.33,3.36 L48.33,11.552 L46.586,11.552 Z M54.186,3.36 L55.258,3.36 L55.258,4.928 L54.09,4.928 C52.73,4.928 52.202,5.792 52.202,7.184 L52.202,11.552 L50.442,11.552 L50.442,3.36 L52.042,3.36 L52.25,4.416 C52.554,3.84 53.242,3.36 54.186,3.36 Z M64.058,10.24 L64.362,10.24 L64.362,11.552 L63.37,11.552 C62.698,11.552 62.09,11.296 61.962,10.512 C61.498,11.232 60.49,11.712 59.21,11.712 C57.402,11.712 56.25,10.768 56.25,9.2 C56.25,7.808 57.13,6.784 59.37,6.784 L61.754,6.784 L61.754,6.368 C61.754,5.168 61.034,4.608 59.962,4.608 C58.874,4.608 58.17,5.152 58.122,6 L56.506,6 C56.554,4.224 58.01,3.2 60.026,3.2 C61.946,3.2 63.514,4.16 63.514,6.384 L63.514,9.696 C63.514,10.144 63.69,10.24 64.058,10.24 Z M61.754,8.32 L61.754,7.984 L59.61,7.984 C58.426,7.984 58.058,8.512 58.058,9.12 C58.058,9.952 58.714,10.32 59.61,10.32 C60.826,10.32 61.754,9.664 61.754,8.32 Z M68.522,11.552 C67.098,11.552 66.314,10.752 66.314,9.328 L66.314,4.912 L64.938,4.912 L64.938,3.36 L65.642,3.36 C66.154,3.36 66.314,3.104 66.314,2.592 L66.314,1.168 L68.058,1.168 L68.058,3.36 L69.962,3.36 L69.962,4.912 L68.058,4.912 L68.058,8.992 C68.058,9.648 68.25,10 69.018,10 L69.946,10 L69.946,11.552 L68.522,11.552 Z M71.498,1.824 L71.498,-7.10542736e-15 L73.434,-7.10542736e-15 L73.434,1.824 L71.498,1.824 Z M71.594,11.552 L71.594,3.36 L73.338,3.36 L73.338,11.552 L71.594,11.552 Z M75.146,7.456 C75.146,4.928 76.874,3.184 79.354,3.184 C81.85,3.184 83.578,4.928 83.578,7.456 C83.578,9.984 81.85,11.712 79.354,11.712 C76.874,11.712 75.146,9.984 75.146,7.456 Z M76.938,7.44 C76.938,9.12 77.898,10.208 79.354,10.208 C80.826,10.208 81.786,9.12 81.786,7.44 C81.786,5.744 80.826,4.672 79.354,4.672 C77.898,4.672 76.938,5.744 76.938,7.44 Z M89.674,3.2 C91.738,3.2 92.954,4.56 92.954,6.656 L92.954,11.552 L91.194,11.552 L91.194,7.024 C91.194,5.488 90.41,4.736 89.21,4.736 C87.85,4.736 87.114,5.696 87.114,7.152 L87.114,11.552 L85.37,11.552 L85.37,3.36 L86.954,3.36 L87.082,4.464 C87.546,3.68 88.426,3.2 89.674,3.2 Z" id="RIExpiration" fill="#05004D"></path>
                    <path d="M-7.81597009e-14,19.942 L-7.81597009e-14,18.598 L1.428,18.598 L1.428,19.942 L-7.81597009e-14,19.942 Z M0.14,28.552 L0.14,21.468 L1.288,21.468 L1.288,28.552 L0.14,28.552 Z M6.748,21.328 C8.512,21.328 9.548,22.504 9.548,24.31 L9.548,28.552 L8.4,28.552 L8.4,24.548 C8.4,23.078 7.63,22.378 6.482,22.378 C5.152,22.378 4.438,23.33 4.438,24.716 L4.438,28.552 L3.29,28.552 L3.29,21.468 L4.298,21.468 L4.424,22.56 C4.83,21.776 5.656,21.328 6.748,21.328 Z M15.274,27.418 L20.216,27.418 L20.216,28.552 L13.678,28.552 L13.678,27.474 L17.458,23.946 C18.522,22.952 18.942,22.308 18.956,21.496 C18.956,20.32 18.256,19.606 16.926,19.606 C15.778,19.606 14.91,20.39 14.854,21.496 L13.65,21.496 C13.762,19.606 15.274,18.528 16.926,18.528 C18.802,18.528 20.188,19.564 20.188,21.412 C20.188,22.644 19.474,23.554 18.326,24.604 L15.274,27.418 Z M30.254,18.248 L31.402,18.248 L31.402,28.552 L30.394,28.552 L30.254,27.348 C29.764,28.188 28.77,28.692 27.664,28.692 C25.802,28.692 24.29,27.39 24.29,25.038 C24.29,22.658 25.83,21.328 27.664,21.328 C28.798,21.328 29.764,21.818 30.254,22.63 L30.254,18.248 Z M27.846,27.684 C29.176,27.684 30.226,26.704 30.226,25.038 C30.226,23.386 29.176,22.336 27.846,22.35 C26.446,22.364 25.48,23.4 25.48,25.038 C25.48,26.704 26.46,27.684 27.846,27.684 Z M39.662,27.656 L39.914,27.656 L39.914,28.552 L39.214,28.552 C38.654,28.552 38.136,28.328 38.066,27.586 C37.646,28.244 36.722,28.692 35.588,28.692 C34.006,28.692 33.026,27.866 33.026,26.522 C33.026,25.388 33.726,24.478 35.742,24.478 L37.982,24.478 L37.982,24.086 C37.982,22.812 37.24,22.28 36.19,22.28 C35.112,22.28 34.44,22.798 34.384,23.638 L33.278,23.638 C33.362,22.14 34.58,21.328 36.232,21.328 C37.996,21.328 39.144,22.294 39.144,24.072 L39.144,27.11 C39.144,27.558 39.256,27.656 39.662,27.656 Z M37.982,25.654 L37.982,25.332 L35.854,25.332 C34.636,25.332 34.216,25.836 34.216,26.508 C34.216,27.334 34.874,27.74 35.784,27.74 C36.946,27.74 37.982,27.096 37.982,25.654 Z M41.706,21.468 L44.03,27.782 L46.172,21.454 L47.39,21.468 L44.422,29.7 C43.918,31.072 43.148,31.352 42.112,31.352 L40.712,31.352 L40.712,30.316 L42.126,30.316 C42.854,30.316 43.302,29.924 43.302,29.126 C43.302,28.93 43.26,28.734 43.176,28.51 L40.46,21.468 L41.706,21.468 Z M48.09,26.466 L49.252,26.466 C49.28,27.306 50.008,27.796 51.1,27.796 C52.178,27.796 52.864,27.362 52.864,26.62 C52.864,25.99 52.528,25.654 51.702,25.542 L50.232,25.304 C48.888,25.08 48.272,24.436 48.272,23.372 C48.272,22.126 49.462,21.328 51.016,21.328 C52.682,21.328 53.886,22.126 53.9,23.54 L52.766,23.54 C52.738,22.686 52.024,22.224 51.03,22.224 C50.05,22.224 49.406,22.644 49.406,23.344 C49.406,23.946 49.798,24.24 50.68,24.366 L52.122,24.604 C53.41,24.814 54.026,25.43 54.026,26.522 C54.026,27.922 52.752,28.692 51.128,28.692 C49.266,28.692 48.118,27.824 48.09,26.466 Z" id="in2days" fill="#657286"></path>
                </g>
                <rect id="Rectangle" fill="#E6E6E6" x="68" y="51" width="200" height="6"></rect>
                <rect id="Rectangle-Copy-3" fill="#E6E6E6" x="68" y="67" width="145" height="6"></rect>
                <g id="Group-11" transform="translate(13.000000, 12.000000)" fill="#E18400" fill-rule="nonzero">
                    <path d="M10.2580645,3.39681868 C4.59269191,3.39681868 0,7.98951059 0,13.6548832 C0,19.3202558 4.59269191,23.9129477 10.2580645,23.9129477 C15.9234371,23.9129477 20.516129,19.3202558 20.516129,13.6548832 C20.516129,12.7997326 19.8228925,12.1064961 18.9677419,12.1064961 C18.1125914,12.1064961 17.4193548,12.7997326 17.4193548,13.6548832 C17.4193548,17.6099546 14.213136,20.8161735 10.2580645,20.8161735 C6.30299307,20.8161735 3.09677419,17.6099546 3.09677419,13.6548832 C3.09677419,9.69981175 6.30299307,6.49359288 10.2580645,6.49359288 C11.1132151,6.49359288 11.8064516,5.80035636 11.8064516,4.94520578 C11.8064516,4.0900552 11.1132151,3.39681868 10.2580645,3.39681868 Z" id="Shape"></path>
                    <path d="M9.68583866,6.51612167 C5.99831052,6.80765569 3.09677419,9.89242437 3.09677419,13.6548832 C3.09677419,17.6099546 6.30299307,20.8161735 10.2580645,20.8161735 C11.1132151,20.8161735 11.8064516,21.50941 11.8064516,22.3645606 C11.8064516,23.2197112 11.1132151,23.9129477 10.2580645,23.9129477 C4.59269191,23.9129477 -1.17239551e-13,19.3202558 -1.17239551e-13,13.6548832 C-1.17239551e-13,8.18159149 4.28654656,3.70947641 9.68565815,3.41251948 L9.68548564,0.44647052 C9.68546068,0.0171635666 9.96403433,-0.128137844 10.3098905,0.123526569 L16.1677625,4.38604466 C16.5126367,4.63699458 16.5136422,5.04312675 16.1678153,5.29476188 L10.3104391,9.55678419 C9.96559405,9.80770493 9.68602193,9.66702039 9.68599673,9.2337874 L9.68583866,6.51612167 L9.68583866,6.51612167 Z" id="Combined-Shape"></path>
                </g>
            </g>
            <g id="Group-4-Copy-2" transform="translate(30.000000, 299.000000)">
                <circle id="Oval" fill="#CDFFF0" cx="24" cy="24" r="24"></circle>
                <g id="Group-10" transform="translate(13.000000, 12.000000)" fill-rule="nonzero">
                    <path d="M13.3722073,4.20668367 L4.68132143,4.20668367 C4.22804385,4.20668367 3.86277336,4.57148182 3.86277336,5.02148318 L3.86277336,7.92018601 C3.86277336,8.37207024 4.22924983,8.73498556 4.68132143,8.73498556 L13.3722073,8.73498556 L13.3722073,11.9028689 C13.3722073,12.905992 14.0279371,13.2392232 14.8368207,12.6509442 L21.8698581,7.53600801 C22.6808195,6.94621788 22.6787417,5.99394022 21.8698581,5.40566123 L14.8368207,0.290724987 C14.0258593,-0.299065141 13.3722073,0.0373707077 13.3722073,1.03880037 L13.3722073,4.20668367 Z" id="Shape" fill="#00C58C"></path>
                    <path d="M9.50943396,15.0746082 L0.818548075,15.0746082 C0.365270491,15.0746082 1.56319402e-13,15.4394063 1.56319402e-13,15.8894077 L1.56319402e-13,18.7881105 C1.56319402e-13,19.2399948 0.366476468,19.6029101 0.818548075,19.6029101 L9.50943396,19.6029101 L9.50943396,22.7707934 C9.50943396,23.7739165 10.1651637,24.1071478 10.9740474,23.5188688 L18.0070847,18.4039325 C18.8180462,17.8141424 18.8159683,16.8618647 18.0070847,16.2735858 L10.9740474,11.1586495 C10.163086,10.5688594 9.50943396,10.9052952 9.50943396,11.9067249 L9.50943396,15.0746082 Z" id="Shape" fill="#007653" transform="translate(9.307263, 17.338612) scale(-1, 1) translate(-9.307263, -17.338612) "></path>
                </g>
                <g id="RI-Exchange-4-days-a" transform="translate(68.336000, 4.112000)" fill-rule="nonzero">
                    <path d="M0.816,11.888 L0.816,0.496 L5.696,0.496 C8.064,0.496 9.632,1.904 9.632,4.144 C9.632,5.904 8.704,7.248 7.136,7.648 L9.392,11.888 L7.36,11.888 L5.248,7.888 L2.608,7.888 L2.608,11.888 L0.816,11.888 Z M2.608,6.32 L5.52,6.32 C6.96,6.32 7.744,5.568 7.744,4.192 C7.744,2.832 6.96,2.096 5.52,2.096 L2.608,2.096 L2.608,6.32 Z M13.248,0.496 L13.248,11.888 L11.44,11.888 L11.44,0.496 L13.248,0.496 Z M20.416,10.272 L26.48,10.272 L26.48,11.888 L18.608,11.888 L18.608,0.496 L26.224,0.496 L26.224,2.096 L20.416,2.096 L20.416,5.36 L24.928,5.36 L24.928,6.944 L20.416,6.944 L20.416,10.272 Z M27.344,11.888 L30.192,7.696 L27.312,3.696 L29.376,3.696 L31.424,6.688 L33.488,3.696 L35.552,3.696 L32.672,7.68 L35.52,11.888 L33.472,11.888 L31.424,8.752 L29.392,11.888 L27.344,11.888 Z M42.672,6.64 C42.384,5.616 41.6,5.04 40.64,5.04 C39.28,5.04 38.352,6.032 38.352,7.776 C38.352,9.616 39.312,10.512 40.592,10.512 C41.616,10.512 42.368,9.936 42.704,8.848 L44.56,8.848 C44.144,10.832 42.64,12.048 40.624,12.048 C38.192,12.048 36.56,10.352 36.56,7.776 C36.56,5.216 38.192,3.52 40.64,3.52 C42.64,3.52 44.128,4.656 44.56,6.64 L42.672,6.64 Z M50.48,3.52 C52.032,3.52 53.744,4.352 53.744,7.152 L53.744,11.888 L52,11.888 L52,7.424 C52,5.84 51.248,5.12 50.032,5.136 C48.64,5.136 47.888,6.096 47.888,7.472 L47.888,11.888 L46.144,11.888 L46.144,-3.19744231e-14 L47.888,-3.19744231e-14 L47.888,4.752 C48.368,3.984 49.296,3.52 50.48,3.52 Z M63.152,10.576 L63.456,10.576 L63.456,11.888 L62.464,11.888 C61.792,11.888 61.184,11.632 61.056,10.848 C60.592,11.568 59.584,12.048 58.304,12.048 C56.496,12.048 55.344,11.104 55.344,9.536 C55.344,8.144 56.224,7.12 58.464,7.12 L60.848,7.12 L60.848,6.704 C60.848,5.504 60.128,4.944 59.056,4.944 C57.968,4.944 57.264,5.488 57.216,6.336 L55.6,6.336 C55.648,4.56 57.104,3.536 59.12,3.536 C61.04,3.536 62.608,4.496 62.608,6.72 L62.608,10.032 C62.608,10.48 62.784,10.576 63.152,10.576 Z M60.848,8.656 L60.848,8.32 L58.704,8.32 C57.52,8.32 57.152,8.848 57.152,9.456 C57.152,10.288 57.808,10.656 58.704,10.656 C59.92,10.656 60.848,10 60.848,8.656 Z M69.232,3.536 C71.296,3.536 72.512,4.896 72.512,6.992 L72.512,11.888 L70.752,11.888 L70.752,7.36 C70.752,5.824 69.968,5.072 68.768,5.072 C67.408,5.072 66.672,6.032 66.672,7.488 L66.672,11.888 L64.928,11.888 L64.928,3.696 L66.512,3.696 L66.64,4.8 C67.104,4.016 67.984,3.536 69.232,3.536 Z M80.72,3.696 L82.272,3.696 L82.272,11.376 C82.272,13.76 80.672,15.248 78.24,15.248 C76.176,15.248 74.688,14.112 74.416,12.4 L76.16,12.4 C76.416,13.344 77.232,13.808 78.256,13.808 C79.712,13.808 80.56,12.944 80.56,11.664 L80.56,10.384 C80.096,11.216 79.088,11.712 77.888,11.712 C75.76,11.712 74.208,10.16 74.208,7.632 C74.208,5.072 75.76,3.536 77.904,3.536 C79.104,3.536 80.032,4.016 80.544,4.832 L80.72,3.696 Z M78.256,10.176 C79.616,10.176 80.528,9.168 80.528,7.648 C80.528,6.128 79.632,5.072 78.256,5.072 C76.88,5.072 76.016,6.128 76.016,7.648 C76.016,9.168 76.88,10.176 78.256,10.176 Z M92.16,7.616 L92.16,8.272 L85.888,8.272 C85.92,9.808 86.928,10.608 88.208,10.608 C89.168,10.608 89.968,10.16 90.304,9.264 L92.08,9.264 C91.648,10.928 90.176,12.048 88.176,12.048 C85.728,12.048 84.112,10.352 84.112,7.776 C84.112,5.216 85.728,3.52 88.16,3.52 C90.544,3.52 92.16,5.152 92.16,7.616 Z M88.16,4.912 C86.992,4.912 86.032,5.632 85.904,7.056 L90.384,7.056 C90.288,5.632 89.344,4.912 88.16,4.912 Z" id="RIExchange" fill="#05004D"></path>
                    <path d="M4.83,28.888 L4.83,26.844 L2.13162821e-14,26.844 L2.13162821e-14,25.794 L4.704,19.004 L6.02,19.004 L6.02,25.766 L7.462,25.766 L7.462,26.844 L6.02,26.844 L6.02,28.888 L4.83,28.888 Z M1.274,25.766 L4.83,25.766 L4.83,20.656 L1.274,25.766 Z M17.178,18.584 L18.326,18.584 L18.326,28.888 L17.318,28.888 L17.178,27.684 C16.688,28.524 15.694,29.028 14.588,29.028 C12.726,29.028 11.214,27.726 11.214,25.374 C11.214,22.994 12.754,21.664 14.588,21.664 C15.722,21.664 16.688,22.154 17.178,22.966 L17.178,18.584 Z M14.77,28.02 C16.1,28.02 17.15,27.04 17.15,25.374 C17.15,23.722 16.1,22.672 14.77,22.686 C13.37,22.7 12.404,23.736 12.404,25.374 C12.404,27.04 13.384,28.02 14.77,28.02 Z M26.586,27.992 L26.838,27.992 L26.838,28.888 L26.138,28.888 C25.578,28.888 25.06,28.664 24.99,27.922 C24.57,28.58 23.646,29.028 22.512,29.028 C20.93,29.028 19.95,28.202 19.95,26.858 C19.95,25.724 20.65,24.814 22.666,24.814 L24.906,24.814 L24.906,24.422 C24.906,23.148 24.164,22.616 23.114,22.616 C22.036,22.616 21.364,23.134 21.308,23.974 L20.202,23.974 C20.286,22.476 21.504,21.664 23.156,21.664 C24.92,21.664 26.068,22.63 26.068,24.408 L26.068,27.446 C26.068,27.894 26.18,27.992 26.586,27.992 Z M24.906,25.99 L24.906,25.668 L22.778,25.668 C21.56,25.668 21.14,26.172 21.14,26.844 C21.14,27.67 21.798,28.076 22.708,28.076 C23.87,28.076 24.906,27.432 24.906,25.99 Z M28.63,21.804 L30.954,28.118 L33.096,21.79 L34.314,21.804 L31.346,30.036 C30.842,31.408 30.072,31.688 29.036,31.688 L27.636,31.688 L27.636,30.652 L29.05,30.652 C29.778,30.652 30.226,30.26 30.226,29.462 C30.226,29.266 30.184,29.07 30.1,28.846 L27.384,21.804 L28.63,21.804 Z M35.014,26.802 L36.176,26.802 C36.204,27.642 36.932,28.132 38.024,28.132 C39.102,28.132 39.788,27.698 39.788,26.956 C39.788,26.326 39.452,25.99 38.626,25.878 L37.156,25.64 C35.812,25.416 35.196,24.772 35.196,23.708 C35.196,22.462 36.386,21.664 37.94,21.664 C39.606,21.664 40.81,22.462 40.824,23.876 L39.69,23.876 C39.662,23.022 38.948,22.56 37.954,22.56 C36.974,22.56 36.33,22.98 36.33,23.68 C36.33,24.282 36.722,24.576 37.604,24.702 L39.046,24.94 C40.334,25.15 40.95,25.766 40.95,26.858 C40.95,28.258 39.676,29.028 38.052,29.028 C36.19,29.028 35.042,28.16 35.014,26.802 Z M51.604,27.992 L51.856,27.992 L51.856,28.888 L51.156,28.888 C50.596,28.888 50.078,28.664 50.008,27.922 C49.588,28.58 48.664,29.028 47.53,29.028 C45.948,29.028 44.968,28.202 44.968,26.858 C44.968,25.724 45.668,24.814 47.684,24.814 L49.924,24.814 L49.924,24.422 C49.924,23.148 49.182,22.616 48.132,22.616 C47.054,22.616 46.382,23.134 46.326,23.974 L45.22,23.974 C45.304,22.476 46.522,21.664 48.174,21.664 C49.938,21.664 51.086,22.63 51.086,24.408 L51.086,27.446 C51.086,27.894 51.198,27.992 51.604,27.992 Z M49.924,25.99 L49.924,25.668 L47.796,25.668 C46.578,25.668 46.158,26.172 46.158,26.844 C46.158,27.67 46.816,28.076 47.726,28.076 C48.888,28.076 49.924,27.432 49.924,25.99 Z M58.73,21.804 L59.738,21.804 L59.738,28.58 C59.738,30.554 58.408,31.828 56.378,31.828 C54.656,31.828 53.438,30.89 53.172,29.448 L54.362,29.448 C54.6,30.386 55.384,30.862 56.378,30.862 C57.806,30.862 58.604,30.022 58.604,28.762 L58.604,27.418 C58.184,28.244 57.232,28.734 56.14,28.734 C54.362,28.734 52.976,27.432 52.976,25.206 C52.976,22.98 54.348,21.664 56.154,21.664 C57.218,21.664 58.114,22.14 58.59,22.952 L58.73,21.804 Z M56.336,27.74 C57.666,27.74 58.576,26.76 58.576,25.234 C58.576,23.708 57.68,22.672 56.336,22.672 C54.992,22.672 54.166,23.722 54.166,25.22 C54.166,26.746 55.006,27.74 56.336,27.74 Z M61.46,25.36 C61.46,23.176 62.902,21.664 65.044,21.664 C67.186,21.664 68.642,23.176 68.642,25.36 C68.642,27.53 67.186,29.028 65.044,29.028 C62.902,29.028 61.46,27.53 61.46,25.36 Z M62.636,25.346 C62.636,26.97 63.602,28.034 65.044,28.034 C66.486,28.034 67.452,26.97 67.452,25.346 C67.452,23.694 66.486,22.644 65.044,22.644 C63.602,22.644 62.636,23.694 62.636,25.346 Z" id="4daysago" fill="#657286"></path>
                </g>
                <rect id="Rectangle" fill="#E6E6E6" x="68" y="51" width="200" height="6"></rect>
                <rect id="Rectangle-Copy-3" fill="#E6E6E6" x="68" y="67" width="145" height="6"></rect>
            </g>
            <g id="Group-4-Copy" transform="translate(30.000000, 192.000000)">
                <circle id="Oval" fill="#D4D1FF" cx="24" cy="24" r="24"></circle>
                <g id="Group" transform="translate(13.000000, 12.000000)">
                    <path d="M14.5311434,17.9394449 C13.979815,17.3881165 13.979815,16.4942365 14.5311434,15.9429081 C15.0824718,15.3915797 15.9763517,15.3915797 16.5276802,15.9429081 L22.174739,21.5899669 C22.7260674,22.1412953 22.7260674,23.0351753 22.174739,23.5865037 C21.6234106,24.1378321 20.7295306,24.1378321 20.1782022,23.5865037 L14.5311434,17.9394449 Z" id="Path-2" fill="#9C97FF" fill-rule="nonzero"></path>
                    <path d="M9.78458427,0 C15.1961348,0 19.5836404,4.38750562 19.5836404,9.79905618 C19.5836404,15.2106067 15.1961348,19.5981124 9.78458427,19.5981124 C4.38782022,19.5981124 0,15.2106067 0,9.79905618 C0,4.38750562 4.38782022,0 9.78458427,0 M9.78458427,13.4991461 C11.8320449,13.4991461 13.4994607,11.8465169 13.4994607,9.79905618 C13.4994607,7.75159551 11.8320449,6.09896629 9.78458427,6.09896629 C7.75159551,6.09896629 6.08449438,7.75159551 6.08449438,9.79905618 C6.08449438,11.8465169 7.75159551,13.4991461 9.78458427,13.4991461" id="Fill-325" fill="#5C54FF"></path>
                </g>
                <g id="RI-Portfolio-Evaluat" transform="translate(68.490000, 4.096000)" fill-rule="nonzero">
                    <path d="M0.662,11.904 L0.662,0.512 L5.542,0.512 C7.91,0.512 9.478,1.92 9.478,4.16 C9.478,5.92 8.55,7.264 6.982,7.664 L9.238,11.904 L7.206,11.904 L5.094,7.904 L2.454,7.904 L2.454,11.904 L0.662,11.904 Z M2.454,6.336 L5.366,6.336 C6.806,6.336 7.59,5.584 7.59,4.208 C7.59,2.848 6.806,2.112 5.366,2.112 L2.454,2.112 L2.454,6.336 Z M13.094,0.512 L13.094,11.904 L11.286,11.904 L11.286,0.512 L13.094,0.512 Z M18.454,11.904 L18.454,0.512 L23.078,0.512 C25.478,0.512 27.046,2.096 27.046,4.208 C27.046,6.336 25.462,7.904 23.078,7.904 L20.294,7.904 L20.294,11.904 L18.454,11.904 Z M20.294,6.336 L22.934,6.336 C24.358,6.336 25.142,5.504 25.142,4.224 C25.142,2.96 24.358,2.112 22.934,2.112 L20.294,2.112 L20.294,6.336 Z M28.374,7.808 C28.374,5.28 30.102,3.536 32.582,3.536 C35.078,3.536 36.806,5.28 36.806,7.808 C36.806,10.336 35.078,12.064 32.582,12.064 C30.102,12.064 28.374,10.336 28.374,7.808 Z M30.166,7.792 C30.166,9.472 31.126,10.56 32.582,10.56 C34.054,10.56 35.014,9.472 35.014,7.792 C35.014,6.096 34.054,5.024 32.582,5.024 C31.126,5.024 30.166,6.096 30.166,7.792 Z M42.358,3.712 L43.43,3.712 L43.43,5.28 L42.262,5.28 C40.902,5.28 40.374,6.144 40.374,7.536 L40.374,11.904 L38.614,11.904 L38.614,3.712 L40.214,3.712 L40.422,4.768 C40.726,4.192 41.414,3.712 42.358,3.712 Z M47.51,11.904 C46.086,11.904 45.302,11.104 45.302,9.68 L45.302,5.264 L43.926,5.264 L43.926,3.712 L44.63,3.712 C45.142,3.712 45.302,3.456 45.302,2.944 L45.302,1.52 L47.046,1.52 L47.046,3.712 L48.95,3.712 L48.95,5.264 L47.046,5.264 L47.046,9.344 C47.046,10 47.238,10.352 48.006,10.352 L48.934,10.352 L48.934,11.904 L47.51,11.904 Z M49.83,3.712 L51.174,3.712 L51.174,2.384 C51.174,0.832 51.91,-3.55271368e-15 53.686,-3.55271368e-15 L54.886,-3.55271368e-15 L54.886,1.472 L53.99,1.472 C53.11,1.472 52.934,1.904 52.934,2.512 L52.934,3.712 L54.886,3.712 L54.886,5.248 L52.934,5.248 L52.934,11.904 L51.174,11.904 L51.174,5.248 L49.83,5.248 L49.83,3.712 Z M56.006,7.808 C56.006,5.28 57.734,3.536 60.214,3.536 C62.71,3.536 64.438,5.28 64.438,7.808 C64.438,10.336 62.71,12.064 60.214,12.064 C57.734,12.064 56.006,10.336 56.006,7.808 Z M57.798,7.792 C57.798,9.472 58.758,10.56 60.214,10.56 C61.686,10.56 62.646,9.472 62.646,7.792 C62.646,6.096 61.686,5.024 60.214,5.024 C58.758,5.024 57.798,6.096 57.798,7.792 Z M67.974,0.016 L67.974,11.904 L66.23,11.904 L66.23,0.016 L67.974,0.016 Z M69.974,2.176 L69.974,0.352 L71.91,0.352 L71.91,2.176 L69.974,2.176 Z M70.07,11.904 L70.07,3.712 L71.814,3.712 L71.814,11.904 L70.07,11.904 Z M73.622,7.808 C73.622,5.28 75.35,3.536 77.83,3.536 C80.326,3.536 82.054,5.28 82.054,7.808 C82.054,10.336 80.326,12.064 77.83,12.064 C75.35,12.064 73.622,10.336 73.622,7.808 Z M75.414,7.792 C75.414,9.472 76.374,10.56 77.83,10.56 C79.302,10.56 80.262,9.472 80.262,7.792 C80.262,6.096 79.302,5.024 77.83,5.024 C76.374,5.024 75.414,6.096 75.414,7.792 Z M88.822,10.288 L94.886,10.288 L94.886,11.904 L87.014,11.904 L87.014,0.512 L94.63,0.512 L94.63,2.112 L88.822,2.112 L88.822,5.376 L93.334,5.376 L93.334,6.96 L88.822,6.96 L88.822,10.288 Z M97.446,3.696 L99.894,10.048 L102.31,3.696 L104.198,3.696 L100.838,11.904 L98.886,11.904 L95.606,3.696 L97.446,3.696 Z M112.79,10.592 L113.094,10.592 L113.094,11.904 L112.102,11.904 C111.43,11.904 110.822,11.648 110.694,10.864 C110.23,11.584 109.222,12.064 107.942,12.064 C106.134,12.064 104.982,11.12 104.982,9.552 C104.982,8.16 105.862,7.136 108.102,7.136 L110.486,7.136 L110.486,6.72 C110.486,5.52 109.766,4.96 108.694,4.96 C107.606,4.96 106.902,5.504 106.854,6.352 L105.238,6.352 C105.286,4.576 106.742,3.552 108.758,3.552 C110.678,3.552 112.246,4.512 112.246,6.736 L112.246,10.048 C112.246,10.496 112.422,10.592 112.79,10.592 Z M110.486,8.672 L110.486,8.336 L108.342,8.336 C107.158,8.336 106.79,8.864 106.79,9.472 C106.79,10.304 107.446,10.672 108.342,10.672 C109.558,10.672 110.486,10.016 110.486,8.672 Z M116.31,0.016 L116.31,11.904 L114.566,11.904 L114.566,0.016 L116.31,0.016 Z M123.91,3.696 L125.59,3.696 L125.59,11.904 L124.022,11.904 L123.894,10.848 C123.446,11.584 122.63,12.064 121.574,12.064 C119.526,12.064 118.326,10.688 118.326,8.592 L118.326,3.696 L120.006,3.696 L120.006,8.352 C120.006,9.84 120.774,10.544 121.942,10.528 C123.222,10.512 123.91,9.6 123.91,8.192 L123.91,3.696 Z M135.078,10.592 L135.382,10.592 L135.382,11.904 L134.39,11.904 C133.718,11.904 133.11,11.648 132.982,10.864 C132.518,11.584 131.51,12.064 130.23,12.064 C128.422,12.064 127.27,11.12 127.27,9.552 C127.27,8.16 128.15,7.136 130.39,7.136 L132.774,7.136 L132.774,6.72 C132.774,5.52 132.054,4.96 130.982,4.96 C129.894,4.96 129.19,5.504 129.142,6.352 L127.526,6.352 C127.574,4.576 129.03,3.552 131.046,3.552 C132.966,3.552 134.534,4.512 134.534,6.736 L134.534,10.048 C134.534,10.496 134.71,10.592 135.078,10.592 Z M132.774,8.672 L132.774,8.336 L130.63,8.336 C129.446,8.336 129.078,8.864 129.078,9.472 C129.078,10.304 129.734,10.672 130.63,10.672 C131.846,10.672 132.774,10.016 132.774,8.672 Z M139.542,11.904 C138.118,11.904 137.334,11.104 137.334,9.68 L137.334,5.264 L135.958,5.264 L135.958,3.712 L136.662,3.712 C137.174,3.712 137.334,3.456 137.334,2.944 L137.334,1.52 L139.078,1.52 L139.078,3.712 L140.982,3.712 L140.982,5.264 L139.078,5.264 L139.078,9.344 C139.078,10 139.27,10.352 140.038,10.352 L140.966,10.352 L140.966,11.904 L139.542,11.904 Z M142.518,2.176 L142.518,0.352 L144.454,0.352 L144.454,2.176 L142.518,2.176 Z M142.614,11.904 L142.614,3.712 L144.358,3.712 L144.358,11.904 L142.614,11.904 Z M146.166,7.808 C146.166,5.28 147.894,3.536 150.374,3.536 C152.87,3.536 154.598,5.28 154.598,7.808 C154.598,10.336 152.87,12.064 150.374,12.064 C147.894,12.064 146.166,10.336 146.166,7.808 Z M147.958,7.792 C147.958,9.472 148.918,10.56 150.374,10.56 C151.846,10.56 152.806,9.472 152.806,7.792 C152.806,6.096 151.846,5.024 150.374,5.024 C148.918,5.024 147.958,6.096 147.958,7.792 Z M160.694,3.552 C162.758,3.552 163.974,4.912 163.974,7.008 L163.974,11.904 L162.214,11.904 L162.214,7.376 C162.214,5.84 161.43,5.088 160.23,5.088 C158.87,5.088 158.134,6.048 158.134,7.504 L158.134,11.904 L156.39,11.904 L156.39,3.712 L157.974,3.712 L158.102,4.816 C158.566,4.032 159.446,3.552 160.694,3.552 Z" id="RIPortfolioEvaluation" fill="#05004D"></path>
                    <path d="M5.082,23.794 C6.258,24.116 6.874,25.096 6.874,26.216 C6.874,27.952 5.53,29.044 3.444,29.044 C1.316,29.044 7.10542736e-15,27.84 7.10542736e-15,26.048 L1.218,26.048 C1.218,27.28 2.03,28.008 3.402,28.008 C4.788,28.008 5.614,27.294 5.614,26.174 C5.614,25.054 4.816,24.34 3.402,24.34 L2.688,24.34 L2.688,23.304 L3.374,23.304 C4.69,23.304 5.376,22.632 5.376,21.582 C5.376,20.532 4.606,19.902 3.402,19.902 C2.016,19.902 1.204,20.644 1.218,21.876 L0.028,21.876 C0.028,20.07 1.302,18.88 3.43,18.88 C5.32,18.88 6.608,19.888 6.608,21.54 C6.608,22.492 6.104,23.374 5.082,23.794 Z M18.956,21.68 C20.51,21.68 21.532,22.716 21.532,24.438 L21.532,28.904 L20.37,28.904 L20.37,24.634 C20.37,23.29 19.726,22.744 18.732,22.744 C17.766,22.744 16.996,23.374 16.954,24.746 L16.954,28.904 L15.82,28.904 L15.82,24.732 C15.82,23.416 15.218,22.744 14.196,22.744 C13.076,22.744 12.404,23.472 12.404,24.676 L12.404,28.904 L11.256,28.904 L11.256,21.82 L12.264,21.82 L12.432,22.646 C12.81,21.988 13.566,21.68 14.378,21.68 C15.442,21.68 16.282,22.142 16.688,23.052 C17.122,22.1 18.06,21.68 18.956,21.68 Z M23.31,20.294 L23.31,18.95 L24.738,18.95 L24.738,20.294 L23.31,20.294 Z M23.45,28.904 L23.45,21.82 L24.598,21.82 L24.598,28.904 L23.45,28.904 Z M30.058,21.68 C31.822,21.68 32.858,22.856 32.858,24.662 L32.858,28.904 L31.71,28.904 L31.71,24.9 C31.71,23.43 30.94,22.73 29.792,22.73 C28.462,22.73 27.748,23.682 27.748,25.068 L27.748,28.904 L26.6,28.904 L26.6,21.82 L27.608,21.82 L27.734,22.912 C28.14,22.128 28.966,21.68 30.058,21.68 Z M39.648,21.82 L40.754,21.82 L40.754,28.904 L39.76,28.904 L39.648,27.854 C39.228,28.624 38.444,29.044 37.464,29.044 C35.742,29.044 34.706,27.868 34.706,26.062 L34.706,21.82 L35.826,21.82 L35.826,25.88 C35.826,27.322 36.596,28.008 37.688,27.994 C38.962,27.994 39.648,27.056 39.648,25.698 L39.648,21.82 Z M44.912,28.904 C43.862,28.904 43.176,28.33 43.176,27.126 L43.176,22.856 L41.902,22.856 L41.902,21.82 L42.574,21.82 C43.022,21.82 43.176,21.624 43.176,21.19 L43.176,19.972 L44.324,19.972 L44.324,21.82 L45.99,21.82 L45.99,22.856 L44.324,22.856 L44.324,26.972 C44.324,27.49 44.492,27.868 45.178,27.868 L45.976,27.868 L45.976,28.904 L44.912,28.904 Z M54.18,25.18 L54.18,25.684 L48.496,25.684 C48.524,27.252 49.546,28.064 50.82,28.064 C51.772,28.064 52.57,27.602 52.92,26.678 L54.096,26.678 C53.69,28.092 52.472,29.03 50.792,29.03 C48.706,29.03 47.32,27.56 47.32,25.348 C47.32,23.136 48.706,21.68 50.778,21.68 C52.822,21.68 54.18,23.08 54.18,25.18 Z M50.778,22.618 C49.588,22.618 48.65,23.346 48.51,24.83 L53.004,24.83 C52.92,23.36 51.968,22.618 50.778,22.618 Z M55.468,26.818 L56.63,26.818 C56.658,27.658 57.386,28.148 58.478,28.148 C59.556,28.148 60.242,27.714 60.242,26.972 C60.242,26.342 59.906,26.006 59.08,25.894 L57.61,25.656 C56.266,25.432 55.65,24.788 55.65,23.724 C55.65,22.478 56.84,21.68 58.394,21.68 C60.06,21.68 61.264,22.478 61.278,23.892 L60.144,23.892 C60.116,23.038 59.402,22.576 58.408,22.576 C57.428,22.576 56.784,22.996 56.784,23.696 C56.784,24.298 57.176,24.592 58.058,24.718 L59.5,24.956 C60.788,25.166 61.404,25.782 61.404,26.874 C61.404,28.274 60.13,29.044 58.506,29.044 C56.644,29.044 55.496,28.176 55.468,26.818 Z M72.058,28.008 L72.31,28.008 L72.31,28.904 L71.61,28.904 C71.05,28.904 70.532,28.68 70.462,27.938 C70.042,28.596 69.118,29.044 67.984,29.044 C66.402,29.044 65.422,28.218 65.422,26.874 C65.422,25.74 66.122,24.83 68.138,24.83 L70.378,24.83 L70.378,24.438 C70.378,23.164 69.636,22.632 68.586,22.632 C67.508,22.632 66.836,23.15 66.78,23.99 L65.674,23.99 C65.758,22.492 66.976,21.68 68.628,21.68 C70.392,21.68 71.54,22.646 71.54,24.424 L71.54,27.462 C71.54,27.91 71.652,28.008 72.058,28.008 Z M70.378,26.006 L70.378,25.684 L68.25,25.684 C67.032,25.684 66.612,26.188 66.612,26.86 C66.612,27.686 67.27,28.092 68.18,28.092 C69.342,28.092 70.378,27.448 70.378,26.006 Z M79.184,21.82 L80.192,21.82 L80.192,28.596 C80.192,30.57 78.862,31.844 76.832,31.844 C75.11,31.844 73.892,30.906 73.626,29.464 L74.816,29.464 C75.054,30.402 75.838,30.878 76.832,30.878 C78.26,30.878 79.058,30.038 79.058,28.778 L79.058,27.434 C78.638,28.26 77.686,28.75 76.594,28.75 C74.816,28.75 73.43,27.448 73.43,25.222 C73.43,22.996 74.802,21.68 76.608,21.68 C77.672,21.68 78.568,22.156 79.044,22.968 L79.184,21.82 Z M76.79,27.756 C78.12,27.756 79.03,26.776 79.03,25.25 C79.03,23.724 78.134,22.688 76.79,22.688 C75.446,22.688 74.62,23.738 74.62,25.236 C74.62,26.762 75.46,27.756 76.79,27.756 Z M81.914,25.376 C81.914,23.192 83.356,21.68 85.498,21.68 C87.64,21.68 89.096,23.192 89.096,25.376 C89.096,27.546 87.64,29.044 85.498,29.044 C83.356,29.044 81.914,27.546 81.914,25.376 Z M83.09,25.362 C83.09,26.986 84.056,28.05 85.498,28.05 C86.94,28.05 87.906,26.986 87.906,25.362 C87.906,23.71 86.94,22.66 85.498,22.66 C84.056,22.66 83.09,23.71 83.09,25.362 Z" id="3minutesago" fill="#657286"></path>
                </g>
                <rect id="Rectangle" fill="#E6E6E6" x="68" y="51" width="161" height="6"></rect>
            </g>
        </g>
    </g>
</svg>