<?xml version="1.0" encoding="UTF-8"?>
<svg width="360px" height="440px" viewBox="0 0 360 440" version="1.1" xmlns="http://www.w3.org/2000/svg" xmlns:xlink="http://www.w3.org/1999/xlink">
    <!-- Generator: Sketch 53 (72520) - https://sketchapp.com -->
    <title>1 copy 4@2x</title>
    <desc>Created with Sketch.</desc>
    <g id="Page-1" stroke="none" stroke-width="1" fill="none" fill-rule="evenodd">
        <g id="1-copy-4">
            <path d="M4,0 L320,0 C342.09139,-4.05812251e-15 360,17.90861 360,40 L360,436 C360,438.209139 358.209139,440 356,440 L4,440 C1.790861,440 2.705415e-16,438.209139 0,436 L0,4 C-2.705415e-16,1.790861 1.790861,4.05812251e-16 4,0 Z" id="Rectangle-2-Copy-9" fill="#FFFFFF"></path>
            <path d="M39.344,42.816 C39.344,44.928 37.44,46.16 34.992,46.16 C32.208,46.16 30.496,44.8 30.496,42.768 L32.352,42.768 C32.352,43.856 33.248,44.608 35.008,44.608 C36.384,44.608 37.456,43.952 37.456,42.848 C37.456,41.856 36.848,41.424 35.648,41.2 L33.808,40.848 C31.792,40.48 30.736,39.376 30.736,37.728 C30.736,35.808 32.368,34.448 34.928,34.448 C37.232,34.448 39.152,35.504 39.152,37.808 L37.344,37.808 C37.344,36.576 36.368,35.952 34.88,35.952 C33.568,35.952 32.608,36.56 32.608,37.6 C32.608,38.528 33.184,38.992 34.448,39.232 L36.288,39.568 C38.368,39.952 39.344,41.088 39.344,42.816 Z M48.4,44.688 L48.704,44.688 L48.704,46 L47.712,46 C47.04,46 46.432,45.744 46.304,44.96 C45.84,45.68 44.832,46.16 43.552,46.16 C41.744,46.16 40.592,45.216 40.592,43.648 C40.592,42.256 41.472,41.232 43.712,41.232 L46.096,41.232 L46.096,40.816 C46.096,39.616 45.376,39.056 44.304,39.056 C43.216,39.056 42.512,39.6 42.464,40.448 L40.848,40.448 C40.896,38.672 42.352,37.648 44.368,37.648 C46.288,37.648 47.856,38.608 47.856,40.832 L47.856,44.144 C47.856,44.592 48.032,44.688 48.4,44.688 Z M46.096,42.768 L46.096,42.432 L43.952,42.432 C42.768,42.432 42.4,42.96 42.4,43.568 C42.4,44.4 43.056,44.768 43.952,44.768 C45.168,44.768 46.096,44.112 46.096,42.768 Z M51.12,37.792 L53.568,44.144 L55.984,37.792 L57.872,37.792 L54.512,46 L52.56,46 L49.28,37.792 L51.12,37.792 Z M58.96,36.272 L58.96,34.448 L60.896,34.448 L60.896,36.272 L58.96,36.272 Z M59.056,46 L59.056,37.808 L60.8,37.808 L60.8,46 L59.056,46 Z M67.2,37.648 C69.264,37.648 70.48,39.008 70.48,41.104 L70.48,46 L68.72,46 L68.72,41.472 C68.72,39.936 67.936,39.184 66.736,39.184 C65.376,39.184 64.64,40.144 64.64,41.6 L64.64,46 L62.896,46 L62.896,37.808 L64.48,37.808 L64.608,38.912 C65.072,38.128 65.952,37.648 67.2,37.648 Z M78.688,37.808 L80.24,37.808 L80.24,45.488 C80.24,47.872 78.64,49.36 76.208,49.36 C74.144,49.36 72.656,48.224 72.384,46.512 L74.128,46.512 C74.384,47.456 75.2,47.92 76.224,47.92 C77.68,47.92 78.528,47.056 78.528,45.776 L78.528,44.496 C78.064,45.328 77.056,45.824 75.856,45.824 C73.728,45.824 72.176,44.272 72.176,41.744 C72.176,39.184 73.728,37.648 75.872,37.648 C77.072,37.648 78,38.128 78.512,38.944 L78.688,37.808 Z M76.224,44.288 C77.584,44.288 78.496,43.28 78.496,41.76 C78.496,40.24 77.6,39.184 76.224,39.184 C74.848,39.184 73.984,40.24 73.984,41.76 C73.984,43.28 74.848,44.288 76.224,44.288 Z M81.808,43.52 L83.552,43.52 C83.568,44.368 84.352,44.864 85.424,44.864 C86.496,44.864 87.136,44.464 87.136,43.744 C87.136,43.12 86.816,42.784 85.888,42.64 L84.24,42.352 C82.64,42.08 82.016,41.248 82.016,40.08 C82.016,38.608 83.472,37.648 85.328,37.648 C87.328,37.648 88.784,38.608 88.8,40.24 L87.072,40.24 C87.056,39.408 86.336,38.944 85.328,38.944 C84.368,38.944 83.76,39.344 83.76,40.016 C83.76,40.608 84.176,40.88 85.088,41.04 L86.704,41.328 C88.224,41.6 88.928,42.352 88.928,43.584 C88.928,45.28 87.36,46.16 85.456,46.16 C83.296,46.16 81.84,45.12 81.808,43.52 Z M93.76,46 L93.76,34.608 L98.64,34.608 C101.008,34.608 102.576,36.016 102.576,38.256 C102.576,40.016 101.648,41.36 100.08,41.76 L102.336,46 L100.304,46 L98.192,42 L95.552,42 L95.552,46 L93.76,46 Z M95.552,40.432 L98.464,40.432 C99.904,40.432 100.688,39.68 100.688,38.304 C100.688,36.944 99.904,36.208 98.464,36.208 L95.552,36.208 L95.552,40.432 Z M111.68,44.688 L111.984,44.688 L111.984,46 L110.992,46 C110.32,46 109.712,45.744 109.584,44.96 C109.12,45.68 108.112,46.16 106.832,46.16 C105.024,46.16 103.872,45.216 103.872,43.648 C103.872,42.256 104.752,41.232 106.992,41.232 L109.376,41.232 L109.376,40.816 C109.376,39.616 108.656,39.056 107.584,39.056 C106.496,39.056 105.792,39.6 105.744,40.448 L104.128,40.448 C104.176,38.672 105.632,37.648 107.648,37.648 C109.568,37.648 111.136,38.608 111.136,40.832 L111.136,44.144 C111.136,44.592 111.312,44.688 111.68,44.688 Z M109.376,42.768 L109.376,42.432 L107.232,42.432 C106.048,42.432 105.68,42.96 105.68,43.568 C105.68,44.4 106.336,44.768 107.232,44.768 C108.448,44.768 109.376,44.112 109.376,42.768 Z M116.144,46 C114.72,46 113.936,45.2 113.936,43.776 L113.936,39.36 L112.56,39.36 L112.56,37.808 L113.264,37.808 C113.776,37.808 113.936,37.552 113.936,37.04 L113.936,35.616 L115.68,35.616 L115.68,37.808 L117.584,37.808 L117.584,39.36 L115.68,39.36 L115.68,43.44 C115.68,44.096 115.872,44.448 116.64,44.448 L117.568,44.448 L117.568,46 L116.144,46 Z M127.024,41.728 L127.024,42.384 L120.752,42.384 C120.784,43.92 121.792,44.72 123.072,44.72 C124.032,44.72 124.832,44.272 125.168,43.376 L126.944,43.376 C126.512,45.04 125.04,46.16 123.04,46.16 C120.592,46.16 118.976,44.464 118.976,41.888 C118.976,39.328 120.592,37.632 123.024,37.632 C125.408,37.632 127.024,39.264 127.024,41.728 Z M123.024,39.024 C121.856,39.024 120.896,39.744 120.768,41.168 L125.248,41.168 C125.152,39.744 124.208,39.024 123.024,39.024 Z" id="SavingsRate" fill="#05004D" fill-rule="nonzero"></path>
            <g id="main-stats" transform="translate(50.000000, 100.000000)">
                <g id="stats" stroke-width="15">
                    <g id="Group-2">
                        <path d="M256.281018,160.952381 C266.693516,118.295723 255.241137,71.3933742 221.923882,38.0761184 C171.155724,-12.6920395 88.8442764,-12.6920395 38.0761184,38.0761184 C4.75886271,71.3933742 -6.69351601,118.295723 3.71898231,160.952381" id="Combined-Shape" stroke="#E6E6E6"></path>
                        <path d="M244.341982,68.0744318 C238.50257,57.3028895 231.02987,47.1821065 221.923882,38.0761184 C171.155724,-12.6920395 88.8442764,-12.6920395 38.0761184,38.0761184 C4.75886271,71.3933742 -6.69351601,118.295723 3.71898231,160.952381" id="Combined-Shape" stroke="#00C58C"></path>
                    </g>
                </g>
                <path d="M48.518,225.384 L54.582,225.384 L54.582,227 L46.71,227 L46.71,215.608 L54.326,215.608 L54.326,217.208 L48.518,217.208 L48.518,220.472 L53.03,220.472 L53.03,222.056 L48.518,222.056 L48.518,225.384 Z M64.87,216.568 C64.006,216.568 63.83,217 63.83,217.608 L63.83,218.808 L65.782,218.808 L65.782,220.344 L63.83,220.344 L63.83,227 L62.07,227 L62.07,220.344 L58.55,220.344 L58.55,227 L56.79,227 L56.79,220.344 L55.446,220.344 L55.446,218.808 L56.79,218.808 L56.79,217.48 C56.79,215.928 57.526,215.096 59.302,215.096 L60.502,215.096 L60.502,216.568 L59.606,216.568 C58.726,216.568 58.55,217 58.55,217.608 L58.55,218.808 L62.07,218.808 L62.07,217.48 C62.07,215.928 62.806,215.096 64.582,215.096 L65.782,215.096 L65.782,216.568 L64.87,216.568 Z M74.982,222.728 L74.982,223.384 L68.71,223.384 C68.742,224.92 69.75,225.72 71.03,225.72 C71.99,225.72 72.79,225.272 73.126,224.376 L74.902,224.376 C74.47,226.04 72.998,227.16 70.998,227.16 C68.55,227.16 66.934,225.464 66.934,222.888 C66.934,220.328 68.55,218.632 70.982,218.632 C73.366,218.632 74.982,220.264 74.982,222.728 Z M70.982,220.024 C69.814,220.024 68.854,220.744 68.726,222.168 L73.206,222.168 C73.11,220.744 72.166,220.024 70.982,220.024 Z M82.598,221.752 C82.31,220.728 81.526,220.152 80.566,220.152 C79.206,220.152 78.278,221.144 78.278,222.888 C78.278,224.728 79.238,225.624 80.518,225.624 C81.542,225.624 82.294,225.048 82.63,223.96 L84.486,223.96 C84.07,225.944 82.566,227.16 80.55,227.16 C78.118,227.16 76.486,225.464 76.486,222.888 C76.486,220.328 78.118,218.632 80.566,218.632 C82.566,218.632 84.054,219.768 84.486,221.752 L82.598,221.752 Z M88.758,227 C87.334,227 86.55,226.2 86.55,224.776 L86.55,220.36 L85.174,220.36 L85.174,218.808 L85.878,218.808 C86.39,218.808 86.55,218.552 86.55,218.04 L86.55,216.616 L88.294,216.616 L88.294,218.808 L90.198,218.808 L90.198,220.36 L88.294,220.36 L88.294,224.44 C88.294,225.096 88.486,225.448 89.254,225.448 L90.182,225.448 L90.182,227 L88.758,227 Z M91.734,217.272 L91.734,215.448 L93.67,215.448 L93.67,217.272 L91.734,217.272 Z M91.83,227 L91.83,218.808 L93.574,218.808 L93.574,227 L91.83,227 Z M96.614,218.792 L99.062,225.144 L101.478,218.792 L103.366,218.792 L100.006,227 L98.054,227 L94.774,218.792 L96.614,218.792 Z M112.358,222.728 L112.358,223.384 L106.086,223.384 C106.118,224.92 107.126,225.72 108.406,225.72 C109.366,225.72 110.166,225.272 110.502,224.376 L112.278,224.376 C111.846,226.04 110.374,227.16 108.374,227.16 C105.926,227.16 104.31,225.464 104.31,222.888 C104.31,220.328 105.926,218.632 108.358,218.632 C110.742,218.632 112.358,220.264 112.358,222.728 Z M108.358,220.024 C107.19,220.024 106.23,220.744 106.102,222.168 L110.582,222.168 C110.486,220.744 109.542,220.024 108.358,220.024 Z M125.51,223.816 C125.51,225.928 123.606,227.16 121.158,227.16 C118.374,227.16 116.662,225.8 116.662,223.768 L118.518,223.768 C118.518,224.856 119.414,225.608 121.174,225.608 C122.55,225.608 123.622,224.952 123.622,223.848 C123.622,222.856 123.014,222.424 121.814,222.2 L119.974,221.848 C117.958,221.48 116.902,220.376 116.902,218.728 C116.902,216.808 118.534,215.448 121.094,215.448 C123.398,215.448 125.318,216.504 125.318,218.808 L123.51,218.808 C123.51,217.576 122.534,216.952 121.046,216.952 C119.734,216.952 118.774,217.56 118.774,218.6 C118.774,219.528 119.35,219.992 120.614,220.232 L122.454,220.568 C124.534,220.952 125.51,222.088 125.51,223.816 Z M134.566,225.688 L134.87,225.688 L134.87,227 L133.878,227 C133.206,227 132.598,226.744 132.47,225.96 C132.006,226.68 130.998,227.16 129.718,227.16 C127.91,227.16 126.758,226.216 126.758,224.648 C126.758,223.256 127.638,222.232 129.878,222.232 L132.262,222.232 L132.262,221.816 C132.262,220.616 131.542,220.056 130.47,220.056 C129.382,220.056 128.678,220.6 128.63,221.448 L127.014,221.448 C127.062,219.672 128.518,218.648 130.534,218.648 C132.454,218.648 134.022,219.608 134.022,221.832 L134.022,225.144 C134.022,225.592 134.198,225.688 134.566,225.688 Z M132.262,223.768 L132.262,223.432 L130.118,223.432 C128.934,223.432 128.566,223.96 128.566,224.568 C128.566,225.4 129.222,225.768 130.118,225.768 C131.334,225.768 132.262,225.112 132.262,223.768 Z M137.286,218.792 L139.734,225.144 L142.15,218.792 L144.038,218.792 L140.678,227 L138.726,227 L135.446,218.792 L137.286,218.792 Z M145.126,217.272 L145.126,215.448 L147.062,215.448 L147.062,217.272 L145.126,217.272 Z M145.222,227 L145.222,218.808 L146.966,218.808 L146.966,227 L145.222,227 Z M153.366,218.648 C155.43,218.648 156.646,220.008 156.646,222.104 L156.646,227 L154.886,227 L154.886,222.472 C154.886,220.936 154.102,220.184 152.902,220.184 C151.542,220.184 150.806,221.144 150.806,222.6 L150.806,227 L149.062,227 L149.062,218.808 L150.646,218.808 L150.774,219.912 C151.238,219.128 152.118,218.648 153.366,218.648 Z M164.854,218.808 L166.406,218.808 L166.406,226.488 C166.406,228.872 164.806,230.36 162.374,230.36 C160.31,230.36 158.822,229.224 158.55,227.512 L160.294,227.512 C160.55,228.456 161.366,228.92 162.39,228.92 C163.846,228.92 164.694,228.056 164.694,226.776 L164.694,225.496 C164.23,226.328 163.222,226.824 162.022,226.824 C159.894,226.824 158.342,225.272 158.342,222.744 C158.342,220.184 159.894,218.648 162.038,218.648 C163.238,218.648 164.166,219.128 164.678,219.944 L164.854,218.808 Z M162.39,225.288 C163.75,225.288 164.662,224.28 164.662,222.76 C164.662,221.24 163.766,220.184 162.39,220.184 C161.014,220.184 160.15,221.24 160.15,222.76 C160.15,224.28 161.014,225.288 162.39,225.288 Z M167.974,224.52 L169.718,224.52 C169.734,225.368 170.518,225.864 171.59,225.864 C172.662,225.864 173.302,225.464 173.302,224.744 C173.302,224.12 172.982,223.784 172.054,223.64 L170.406,223.352 C168.806,223.08 168.182,222.248 168.182,221.08 C168.182,219.608 169.638,218.648 171.494,218.648 C173.494,218.648 174.95,219.608 174.966,221.24 L173.238,221.24 C173.222,220.408 172.502,219.944 171.494,219.944 C170.534,219.944 169.926,220.344 169.926,221.016 C169.926,221.608 170.342,221.88 171.254,222.04 L172.87,222.328 C174.39,222.6 175.094,223.352 175.094,224.584 C175.094,226.28 173.526,227.16 171.622,227.16 C169.462,227.16 168.006,226.12 167.974,224.52 Z M179.926,227 L179.926,215.608 L184.806,215.608 C187.174,215.608 188.742,217.016 188.742,219.256 C188.742,221.016 187.814,222.36 186.246,222.76 L188.502,227 L186.47,227 L184.358,223 L181.718,223 L181.718,227 L179.926,227 Z M181.718,221.432 L184.63,221.432 C186.07,221.432 186.854,220.68 186.854,219.304 C186.854,217.944 186.07,217.208 184.63,217.208 L181.718,217.208 L181.718,221.432 Z M197.846,225.688 L198.15,225.688 L198.15,227 L197.158,227 C196.486,227 195.878,226.744 195.75,225.96 C195.286,226.68 194.278,227.16 192.998,227.16 C191.19,227.16 190.038,226.216 190.038,224.648 C190.038,223.256 190.918,222.232 193.158,222.232 L195.542,222.232 L195.542,221.816 C195.542,220.616 194.822,220.056 193.75,220.056 C192.662,220.056 191.958,220.6 191.91,221.448 L190.294,221.448 C190.342,219.672 191.798,218.648 193.814,218.648 C195.734,218.648 197.302,219.608 197.302,221.832 L197.302,225.144 C197.302,225.592 197.478,225.688 197.846,225.688 Z M195.542,223.768 L195.542,223.432 L193.398,223.432 C192.214,223.432 191.846,223.96 191.846,224.568 C191.846,225.4 192.502,225.768 193.398,225.768 C194.614,225.768 195.542,225.112 195.542,223.768 Z M202.31,227 C200.886,227 200.102,226.2 200.102,224.776 L200.102,220.36 L198.726,220.36 L198.726,218.808 L199.43,218.808 C199.942,218.808 200.102,218.552 200.102,218.04 L200.102,216.616 L201.846,216.616 L201.846,218.808 L203.75,218.808 L203.75,220.36 L201.846,220.36 L201.846,224.44 C201.846,225.096 202.038,225.448 202.806,225.448 L203.734,225.448 L203.734,227 L202.31,227 Z M213.19,222.728 L213.19,223.384 L206.918,223.384 C206.95,224.92 207.958,225.72 209.238,225.72 C210.198,225.72 210.998,225.272 211.334,224.376 L213.11,224.376 C212.678,226.04 211.206,227.16 209.206,227.16 C206.758,227.16 205.142,225.464 205.142,222.888 C205.142,220.328 206.758,218.632 209.19,218.632 C211.574,218.632 213.19,220.264 213.19,222.728 Z M209.19,220.024 C208.022,220.024 207.062,220.744 206.934,222.168 L211.414,222.168 C211.318,220.744 210.374,220.024 209.19,220.024 Z" id="EfectiveSavingsRate" fill="#05004D" fill-rule="nonzero"></path>
                <rect id="Rectangle" fill="#E6E6E6" x="20" y="253" width="220" height="6"></rect>
                <rect id="Rectangle-Copy-3" fill="#E6E6E6" x="50" y="269" width="160" height="6"></rect>
                <path d="M73.827,148.02 C77.715,149.316 80.091,152.718 80.091,156.984 C80.091,164.22 74.151,168.54 65.943,168.54 C57.033,168.54 51.579,163.194 51.579,155.364 L58.977,155.364 C58.977,159.9 61.893,162.06 65.619,162.06 C69.615,162.06 71.991,159.9 71.991,156.66 C71.991,153.42 69.939,151.26 65.511,151.26 L62.271,151.26 L62.271,145.32 L65.241,145.32 C69.237,145.32 71.451,143.376 71.451,140.136 C71.451,136.788 69.021,135.006 65.565,135.006 C61.839,135.006 58.869,137.112 58.977,141.702 L51.849,141.702 C51.849,133.872 56.871,128.58 65.781,128.58 C73.719,128.58 79.281,132.684 79.281,139.65 C79.281,143.322 77.229,146.454 73.827,148.02 Z M100.341,141.162 C107.361,141.162 113.625,145.86 113.625,154.554 C113.625,163.302 107.307,168.486 99.477,168.486 C92.133,168.486 84.249,163.896 84.249,149.37 C84.249,136.734 90.081,128.58 100.233,128.58 C107.199,128.58 112.707,132.576 113.625,139.11 L106.335,139.11 C105.417,136.41 103.095,135.114 99.963,135.114 C94.725,135.114 92.079,139.056 92.025,144.456 C93.753,142.35 96.777,141.162 100.341,141.162 Z M99.261,162.006 C103.527,162.006 106.335,158.874 106.335,154.608 C106.335,150.288 103.527,147.264 99.261,147.264 C95.103,147.264 92.187,150.126 92.187,154.554 C92.187,158.928 95.049,162.006 99.261,162.006 Z M117.945,168 L117.945,159.198 L126.963,159.198 L126.963,168 L117.945,168 Z M150.885,153.582 L142.029,160.926 L158.283,160.926 L158.283,168 L131.553,168 L131.553,161.142 L146.025,148.776 C148.941,146.184 150.615,144.348 150.669,141.54 C150.777,137.706 148.347,135.6 144.621,135.6 C141.003,135.6 138.411,138.138 138.249,141.918 L130.959,141.918 C131.121,133.332 137.331,128.58 144.675,128.58 C152.559,128.58 158.607,132.9 158.607,140.892 C158.607,146.562 155.313,150.018 150.885,153.582 Z M172.053,150.45 C166.329,150.45 162.657,146.076 162.657,139.542 C162.657,133.062 166.383,128.634 172.053,128.634 C177.723,128.634 181.449,133.008 181.449,139.542 C181.449,146.022 177.723,150.45 172.053,150.45 Z M170.271,168 L194.517,129.12 L201.105,129.12 L176.859,168 L170.271,168 Z M172.053,144.996 C174.645,144.996 175.293,142.296 175.293,139.542 C175.293,136.842 174.645,134.088 172.053,134.088 C169.461,134.088 168.759,136.788 168.759,139.542 C168.759,142.242 169.407,144.996 172.053,144.996 Z M199.377,168.54 C193.653,168.54 189.981,164.22 189.981,157.632 C189.981,151.152 193.653,146.724 199.377,146.724 C204.993,146.724 208.773,151.098 208.773,157.632 C208.773,164.112 205.047,168.54 199.377,168.54 Z M199.377,163.086 C201.969,163.086 202.617,160.494 202.617,157.632 C202.617,154.932 202.023,152.232 199.377,152.232 C196.731,152.232 196.083,154.878 196.083,157.632 C196.083,160.44 196.731,163.086 199.377,163.086 Z" id="36.2%" fill="#05004D" fill-rule="nonzero"></path>
                <g id="Group-3" transform="translate(106.000000, 50.000000)">
                    <circle id="Oval" fill="#CDFFF0" cx="24" cy="24" r="24"></circle>
                    <path d="M26.2955076,21.1758388 L27.2549406,13.3618841 C27.4441521,11.8208806 26.8029279,11.5495553 25.8242796,12.7432119 L16.416482,24.2178958 C15.6290172,25.1783659 15.9918768,26.073396 17.2209605,26.2243085 L22.1063689,26.8241612 L21.1469359,34.6381159 C20.9577245,36.1791194 21.5989486,36.4504447 22.5775969,35.2567882 L31.9853945,23.7821042 C32.7728593,22.8216341 32.4099997,21.926604 31.180916,21.7756915 L26.2955076,21.1758388 Z" id="Shape" fill="#007653" fill-rule="nonzero"></path>
                </g>
                <rect id="Rectangle-509" fill="#E4E8EB" x="80" y="194" width="100" height="2"></rect>
                <path d="M3.71,173.62 C5.78,173.62 6.97,175.22 6.97,177.36 C6.97,179.5 5.78,181.1 3.71,181.1 C1.66,181.1 0.52,179.5 0.52,177.36 C0.52,175.22 1.66,173.62 3.71,173.62 Z M5.2,177.36 C5.2,175.96 4.61,175.14 3.71,175.14 C2.82,175.14 2.28,175.96 2.28,177.36 C2.28,178.77 2.82,179.58 3.71,179.58 C4.61,179.58 5.2,178.77 5.2,177.36 Z M9.58,177.85 C8.48,177.85 7.73,177.01 7.73,175.74 C7.73,174.47 8.49,173.62 9.58,173.62 C10.67,173.62 11.43,174.47 11.43,175.74 C11.43,177.01 10.67,177.85 9.58,177.85 Z M9.09,181 L13.64,173.72 L15.09,173.72 L10.55,181 L9.09,181 Z M9.58,176.63 C9.99,176.63 10.06,176.14 10.06,175.74 C10.06,175.34 9.99,174.85 9.58,174.85 C9.17,174.85 9.1,175.34 9.1,175.74 C9.1,176.14 9.17,176.63 9.58,176.63 Z M14.59,181.1 C13.49,181.1 12.74,180.26 12.74,178.99 C12.74,177.72 13.5,176.87 14.59,176.87 C15.68,176.87 16.44,177.72 16.44,178.99 C16.44,180.26 15.68,181.1 14.59,181.1 Z M14.59,179.88 C15,179.88 15.07,179.39 15.07,178.99 C15.07,178.59 15,178.1 14.59,178.1 C14.18,178.1 14.11,178.59 14.11,178.99 C14.11,179.39 14.18,179.88 14.59,179.88 Z" id="0%" fill="#AAAAAA" fill-rule="nonzero"></path>
                <path d="M240.425,175.92 C241.905,175.92 242.965,176.91 242.965,178.44 C242.965,180.12 241.715,181.1 240.115,181.1 C238.695,181.1 237.345,180.33 237.345,178.56 L238.975,178.56 C238.975,179.2 239.405,179.62 240.045,179.62 C240.705,179.62 241.135,179.17 241.135,178.48 C241.135,177.79 240.705,177.3 240.045,177.3 C239.405,177.3 239.025,177.76 238.975,178.06 L237.375,178.06 L238.165,173.72 L242.555,173.72 L242.555,175.2 L239.495,175.2 L239.275,176.19 C239.515,176.03 239.875,175.92 240.425,175.92 Z M246.815,173.62 C248.885,173.62 250.075,175.22 250.075,177.36 C250.075,179.5 248.885,181.1 246.815,181.1 C244.765,181.1 243.625,179.5 243.625,177.36 C243.625,175.22 244.765,173.62 246.815,173.62 Z M248.305,177.36 C248.305,175.96 247.715,175.14 246.815,175.14 C245.925,175.14 245.385,175.96 245.385,177.36 C245.385,178.77 245.925,179.58 246.815,179.58 C247.715,179.58 248.305,178.77 248.305,177.36 Z M252.685,177.85 C251.585,177.85 250.835,177.01 250.835,175.74 C250.835,174.47 251.595,173.62 252.685,173.62 C253.775,173.62 254.535,174.47 254.535,175.74 C254.535,177.01 253.775,177.85 252.685,177.85 Z M252.195,181 L256.745,173.72 L258.195,173.72 L253.655,181 L252.195,181 Z M252.685,176.63 C253.095,176.63 253.165,176.14 253.165,175.74 C253.165,175.34 253.095,174.85 252.685,174.85 C252.275,174.85 252.205,175.34 252.205,175.74 C252.205,176.14 252.275,176.63 252.685,176.63 Z M257.695,181.1 C256.595,181.1 255.845,180.26 255.845,178.99 C255.845,177.72 256.605,176.87 257.695,176.87 C258.785,176.87 259.545,177.72 259.545,178.99 C259.545,180.26 258.785,181.1 257.695,181.1 Z M257.695,179.88 C258.105,179.88 258.175,179.39 258.175,178.99 C258.175,178.59 258.105,178.1 257.695,178.1 C257.285,178.1 257.215,178.59 257.215,178.99 C257.215,179.39 257.285,179.88 257.695,179.88 Z" id="50%" fill="#AAAAAA" fill-rule="nonzero"></path>
            </g>
        </g>
    </g>
</svg>