<?xml version="1.0" encoding="UTF-8"?>
<svg width="360px" height="440px" viewBox="0 0 360 440" version="1.1" xmlns="http://www.w3.org/2000/svg" xmlns:xlink="http://www.w3.org/1999/xlink">
    <!-- Generator: Sketch 53 (72520) - https://sketchapp.com -->
    <title>1 copy 3@2x</title>
    <desc>Created with Sketch.</desc>
    <g id="Page-1" stroke="none" stroke-width="1" fill="none" fill-rule="evenodd">
        <g id="1-copy-3">
            <path d="M40,0 L356,0 C358.209139,-4.05812251e-16 360,1.790861 360,4 L360,436 C360,438.209139 358.209139,440 356,440 L4,440 C1.790861,440 2.705415e-16,438.209139 0,436 L0,40 C-2.705415e-15,17.90861 17.90861,4.05812251e-15 40,0 Z" id="Rectangle-2-Copy-9" fill="#FFFFFF"></path>
            <g id="Group-6" transform="translate(30.000000, 121.000000)">
                <polygon id="Divider" fill="#E6E6E6" points="0 31 300 31 300 32 0 32"></polygon>
                <polygon id="Divider" fill="#E6E6E6" points="0 107 300 107 300 108 0 108"></polygon>
                <polygon id="Divider" fill="#E6E6E6" points="0 183 300 183 300 184 0 184"></polygon>
                <polygon id="Divider" fill="#E6E6E6" points="0 259 300 259 300 260 0 260"></polygon>
                <g id="Group-11" transform="translate(20.000000, 117.000000)">
                    <rect id="Bar" fill="#E7E6FF" x="0" y="23" width="14" height="120" rx="2"></rect>
                    <rect id="Bar" fill="#5C54FF" x="18" y="0" width="14" height="143" rx="2"></rect>
                </g>
                <rect id="Rectangle-Copy-3" fill="#E6E6E6" x="24" y="275" width="24" height="6"></rect>
                <rect id="Rectangle-Copy-4" fill="#E6E6E6" x="81" y="275" width="24" height="6"></rect>
                <rect id="Rectangle-Copy-5" fill="#E6E6E6" x="138" y="275" width="24" height="6"></rect>
                <rect id="Rectangle-Copy-6" fill="#E6E6E6" x="195" y="275" width="24" height="6"></rect>
                <rect id="Rectangle-Copy-7" fill="#E6E6E6" x="252" y="275" width="24" height="6"></rect>
                <g id="Group-10" transform="translate(77.000000, 74.000000)">
                    <rect id="Bar" fill="#E7E6FF" x="0" y="16" width="14" height="170" rx="2"></rect>
                    <rect id="Bar" fill="#5C54FF" x="18" y="0" width="14" height="186" rx="2"></rect>
                </g>
                <g id="Group-9" transform="translate(134.000000, 59.000000)">
                    <rect id="Bar" fill="#E7E6FF" x="0" y="14" width="14" height="187" rx="2"></rect>
                    <rect id="Bar" fill="#5C54FF" x="18" y="0" width="14" height="201" rx="2"></rect>
                </g>
                <g id="Group-8" transform="translate(191.000000, 41.000000)">
                    <rect id="Bar" fill="#E7E6FF" x="0" y="7" width="14" height="212" rx="2"></rect>
                    <rect id="Bar" fill="#5C54FF" x="18" y="0" width="14" height="219" rx="2"></rect>
                </g>
                <g id="Group-7" transform="translate(248.000000, 0.000000)">
                    <rect id="Bar" fill="#E7E6FF" x="0" y="26" width="14" height="234" rx="2"></rect>
                    <rect id="Bar" fill="#5C54FF" x="18" y="0" width="14" height="260" rx="2"></rect>
                </g>
            </g>
            <path d="M30,172.676056 L88.1762918,160 L146.352584,192.957746 L203.647416,188.732394 L261.823708,220 L320,168.450704" id="Graph" stroke="#00C58C" stroke-width="2" stroke-linecap="round" stroke-linejoin="round" stroke-dasharray="3,4" transform="translate(175.000000, 190.000000) rotate(-20.000000) translate(-175.000000, -190.000000) "></path>
            <path d="M39.344,42.816 C39.344,44.928 37.44,46.16 34.992,46.16 C32.208,46.16 30.496,44.8 30.496,42.768 L32.352,42.768 C32.352,43.856 33.248,44.608 35.008,44.608 C36.384,44.608 37.456,43.952 37.456,42.848 C37.456,41.856 36.848,41.424 35.648,41.2 L33.808,40.848 C31.792,40.48 30.736,39.376 30.736,37.728 C30.736,35.808 32.368,34.448 34.928,34.448 C37.232,34.448 39.152,35.504 39.152,37.808 L37.344,37.808 C37.344,36.576 36.368,35.952 34.88,35.952 C33.568,35.952 32.608,36.56 32.608,37.6 C32.608,38.528 33.184,38.992 34.448,39.232 L36.288,39.568 C38.368,39.952 39.344,41.088 39.344,42.816 Z M48.4,44.688 L48.704,44.688 L48.704,46 L47.712,46 C47.04,46 46.432,45.744 46.304,44.96 C45.84,45.68 44.832,46.16 43.552,46.16 C41.744,46.16 40.592,45.216 40.592,43.648 C40.592,42.256 41.472,41.232 43.712,41.232 L46.096,41.232 L46.096,40.816 C46.096,39.616 45.376,39.056 44.304,39.056 C43.216,39.056 42.512,39.6 42.464,40.448 L40.848,40.448 C40.896,38.672 42.352,37.648 44.368,37.648 C46.288,37.648 47.856,38.608 47.856,40.832 L47.856,44.144 C47.856,44.592 48.032,44.688 48.4,44.688 Z M46.096,42.768 L46.096,42.432 L43.952,42.432 C42.768,42.432 42.4,42.96 42.4,43.568 C42.4,44.4 43.056,44.768 43.952,44.768 C45.168,44.768 46.096,44.112 46.096,42.768 Z M51.12,37.792 L53.568,44.144 L55.984,37.792 L57.872,37.792 L54.512,46 L52.56,46 L49.28,37.792 L51.12,37.792 Z M58.96,36.272 L58.96,34.448 L60.896,34.448 L60.896,36.272 L58.96,36.272 Z M59.056,46 L59.056,37.808 L60.8,37.808 L60.8,46 L59.056,46 Z M67.2,37.648 C69.264,37.648 70.48,39.008 70.48,41.104 L70.48,46 L68.72,46 L68.72,41.472 C68.72,39.936 67.936,39.184 66.736,39.184 C65.376,39.184 64.64,40.144 64.64,41.6 L64.64,46 L62.896,46 L62.896,37.808 L64.48,37.808 L64.608,38.912 C65.072,38.128 65.952,37.648 67.2,37.648 Z M78.688,37.808 L80.24,37.808 L80.24,45.488 C80.24,47.872 78.64,49.36 76.208,49.36 C74.144,49.36 72.656,48.224 72.384,46.512 L74.128,46.512 C74.384,47.456 75.2,47.92 76.224,47.92 C77.68,47.92 78.528,47.056 78.528,45.776 L78.528,44.496 C78.064,45.328 77.056,45.824 75.856,45.824 C73.728,45.824 72.176,44.272 72.176,41.744 C72.176,39.184 73.728,37.648 75.872,37.648 C77.072,37.648 78,38.128 78.512,38.944 L78.688,37.808 Z M76.224,44.288 C77.584,44.288 78.496,43.28 78.496,41.76 C78.496,40.24 77.6,39.184 76.224,39.184 C74.848,39.184 73.984,40.24 73.984,41.76 C73.984,43.28 74.848,44.288 76.224,44.288 Z M81.808,43.52 L83.552,43.52 C83.568,44.368 84.352,44.864 85.424,44.864 C86.496,44.864 87.136,44.464 87.136,43.744 C87.136,43.12 86.816,42.784 85.888,42.64 L84.24,42.352 C82.64,42.08 82.016,41.248 82.016,40.08 C82.016,38.608 83.472,37.648 85.328,37.648 C87.328,37.648 88.784,38.608 88.8,40.24 L87.072,40.24 C87.056,39.408 86.336,38.944 85.328,38.944 C84.368,38.944 83.76,39.344 83.76,40.016 C83.76,40.608 84.176,40.88 85.088,41.04 L86.704,41.328 C88.224,41.6 88.928,42.352 88.928,43.584 C88.928,45.28 87.36,46.16 85.456,46.16 C83.296,46.16 81.84,45.12 81.808,43.52 Z M98.48,36.208 L98.48,46 L96.688,46 L96.688,36.208 L92.96,36.208 L92.96,34.608 L102.208,34.608 L102.208,36.208 L98.48,36.208 Z M107.36,37.808 L108.432,37.808 L108.432,39.376 L107.264,39.376 C105.904,39.376 105.376,40.24 105.376,41.632 L105.376,46 L103.616,46 L103.616,37.808 L105.216,37.808 L105.424,38.864 C105.728,38.288 106.416,37.808 107.36,37.808 Z M117.632,41.728 L117.632,42.384 L111.36,42.384 C111.392,43.92 112.4,44.72 113.68,44.72 C114.64,44.72 115.44,44.272 115.776,43.376 L117.552,43.376 C117.12,45.04 115.648,46.16 113.648,46.16 C111.2,46.16 109.584,44.464 109.584,41.888 C109.584,39.328 111.2,37.632 113.632,37.632 C116.016,37.632 117.632,39.264 117.632,41.728 Z M113.632,39.024 C112.464,39.024 111.504,39.744 111.376,41.168 L115.856,41.168 C115.76,39.744 114.816,39.024 113.632,39.024 Z M123.728,37.648 C125.792,37.648 127.008,39.008 127.008,41.104 L127.008,46 L125.248,46 L125.248,41.472 C125.248,39.936 124.464,39.184 123.264,39.184 C121.904,39.184 121.168,40.144 121.168,41.6 L121.168,46 L119.424,46 L119.424,37.808 L121.008,37.808 L121.136,38.912 C121.6,38.128 122.48,37.648 123.728,37.648 Z M135.408,34.112 L137.168,34.112 L137.168,46 L135.568,46 L135.424,44.752 C134.928,45.584 133.856,46.16 132.592,46.16 C130.336,46.16 128.704,44.592 128.704,41.92 C128.704,39.168 130.416,37.632 132.592,37.632 C133.872,37.632 134.912,38.176 135.408,39.008 L135.408,34.112 Z M132.944,44.608 C134.32,44.608 135.376,43.616 135.376,41.92 C135.376,40.24 134.32,39.184 132.944,39.2 C131.504,39.2 130.512,40.256 130.512,41.92 C130.512,43.616 131.52,44.608 132.944,44.608 Z" id="SavingsTrend" fill="#05004D" fill-rule="nonzero"></path>
            <g id="12.4%-Savings-growth" transform="translate(30.432000, 85.672000)" fill-rule="nonzero">
                <path d="M6.456,17.328 L3.84,17.328 L3.84,2.952 L0,4.872 L0,2.232 L3.84,0.24 L6.456,0.24 L6.456,17.328 Z M17.664,10.728 L13.032,14.832 L20.928,14.832 L20.928,17.328 L9.408,17.328 L9.408,14.928 L15.864,9.12 C17.448,7.68 18.168,6.72 18.192,5.4 C18.216,3.528 17.064,2.424 15.096,2.424 C13.296,2.424 11.952,3.672 11.88,5.472 L9.24,5.472 C9.384,1.944 12.048,-1.42108547e-14 15.096,-1.42108547e-14 C18.456,-1.42108547e-14 20.952,1.824 20.952,5.16 C20.952,7.488 19.632,9.048 17.664,10.728 Z M23.16,17.328 L23.16,14.016 L26.52,14.016 L26.52,17.328 L23.16,17.328 Z M36.432,17.328 L36.432,13.992 L28.296,13.992 L28.296,11.64 L36.24,0.24 L39.12,0.24 L39.12,11.616 L41.52,11.616 L41.52,13.992 L39.12,13.992 L39.12,17.328 L36.432,17.328 Z M31.032,11.616 L36.432,11.616 L36.432,3.96 L31.032,11.616 Z M46.896,9.312 C44.448,9.312 42.96,7.44 42.96,4.656 C42.96,1.92 44.448,-1.42108547e-14 46.896,-1.42108547e-14 C49.32,-1.42108547e-14 50.832,1.872 50.832,4.656 C50.832,7.416 49.368,9.312 46.896,9.312 Z M46.416,17.328 L57.072,0.24 L59.544,0.24 L48.888,17.328 L46.416,17.328 Z M46.896,7.32 C48.216,7.32 48.6,6.12 48.6,4.656 C48.6,3.264 48.216,1.992 46.896,1.992 C45.6,1.992 45.192,3.216 45.192,4.656 C45.192,6.072 45.552,7.32 46.896,7.32 Z M59.136,17.568 C56.688,17.568 55.2,15.72 55.2,12.912 C55.2,10.176 56.688,8.256 59.136,8.256 C61.56,8.256 63.096,10.152 63.096,12.912 C63.096,15.648 61.608,17.568 59.136,17.568 Z M59.136,15.576 C60.432,15.576 60.84,14.448 60.84,12.912 C60.84,11.496 60.48,10.272 59.136,10.272 C57.816,10.272 57.432,11.448 57.432,12.912 C57.432,14.4 57.816,15.576 59.136,15.576 Z" id="12.4%" fill="#05004D"></path>
                <path d="M76.216,14.272 C76.216,16.288 74.376,17.488 72.008,17.488 C69.352,17.488 67.72,16.176 67.72,14.224 L69.16,14.224 C69.16,15.456 70.168,16.272 72.056,16.272 C73.512,16.272 74.776,15.552 74.776,14.272 C74.776,13.136 74.056,12.624 72.76,12.4 L70.904,12.048 C68.92,11.696 67.96,10.592 67.96,9.008 C67.96,7.12 69.592,5.872 71.976,5.872 C74.328,5.872 76.024,7.04 76.024,9.136 L74.6,9.136 C74.6,7.824 73.608,7.072 71.912,7.072 C70.52,7.072 69.384,7.728 69.384,8.96 C69.384,10.032 70.056,10.544 71.352,10.784 L73.208,11.12 C75.24,11.488 76.216,12.608 76.216,14.272 Z M85.16,16.304 L85.448,16.304 L85.448,17.328 L84.648,17.328 C84.008,17.328 83.416,17.072 83.336,16.224 C82.856,16.976 81.8,17.488 80.504,17.488 C78.696,17.488 77.576,16.544 77.576,15.008 C77.576,13.712 78.376,12.672 80.68,12.672 L83.24,12.672 L83.24,12.224 C83.24,10.768 82.392,10.16 81.192,10.16 C79.96,10.16 79.192,10.752 79.128,11.712 L77.864,11.712 C77.96,10 79.352,9.072 81.24,9.072 C83.256,9.072 84.568,10.176 84.568,12.208 L84.568,15.68 C84.568,16.192 84.696,16.304 85.16,16.304 Z M83.24,14.016 L83.24,13.648 L80.808,13.648 C79.416,13.648 78.936,14.224 78.936,14.992 C78.936,15.936 79.688,16.4 80.728,16.4 C82.056,16.4 83.24,15.664 83.24,14.016 Z M87.48,9.232 L90.152,15.856 L92.84,9.232 L94.248,9.232 L90.856,17.328 L89.432,17.328 L86.072,9.232 L87.48,9.232 Z M95.4,7.488 L95.4,5.952 L97.032,5.952 L97.032,7.488 L95.4,7.488 Z M95.56,17.328 L95.56,9.232 L96.872,9.232 L96.872,17.328 L95.56,17.328 Z M103.112,9.072 C105.128,9.072 106.312,10.416 106.312,12.48 L106.312,17.328 L105,17.328 L105,12.752 C105,11.072 104.12,10.272 102.808,10.272 C101.288,10.272 100.472,11.36 100.472,12.944 L100.472,17.328 L99.16,17.328 L99.16,9.232 L100.312,9.232 L100.456,10.48 C100.92,9.584 101.864,9.072 103.112,9.072 Z M114.776,9.232 L115.928,9.232 L115.928,16.976 C115.928,19.232 114.408,20.688 112.088,20.688 C110.12,20.688 108.728,19.616 108.424,17.968 L109.784,17.968 C110.056,19.04 110.952,19.584 112.088,19.584 C113.72,19.584 114.632,18.624 114.632,17.184 L114.632,15.648 C114.152,16.592 113.064,17.152 111.816,17.152 C109.784,17.152 108.2,15.664 108.2,13.12 C108.2,10.576 109.768,9.072 111.832,9.072 C113.048,9.072 114.072,9.616 114.616,10.544 L114.776,9.232 Z M112.04,16.016 C113.56,16.016 114.6,14.896 114.6,13.152 C114.6,11.408 113.576,10.224 112.04,10.224 C110.504,10.224 109.56,11.424 109.56,13.136 C109.56,14.88 110.52,16.016 112.04,16.016 Z M117.704,14.944 L119.032,14.944 C119.064,15.904 119.896,16.464 121.144,16.464 C122.376,16.464 123.16,15.968 123.16,15.12 C123.16,14.4 122.776,14.016 121.832,13.888 L120.152,13.616 C118.616,13.36 117.912,12.624 117.912,11.408 C117.912,9.984 119.272,9.072 121.048,9.072 C122.952,9.072 124.328,9.984 124.344,11.6 L123.048,11.6 C123.016,10.624 122.2,10.096 121.064,10.096 C119.944,10.096 119.208,10.576 119.208,11.376 C119.208,12.064 119.656,12.4 120.664,12.544 L122.312,12.816 C123.784,13.056 124.488,13.76 124.488,15.008 C124.488,16.608 123.032,17.488 121.176,17.488 C119.048,17.488 117.736,16.496 117.704,14.944 Z M135.784,9.232 L136.936,9.232 L136.936,16.976 C136.936,19.232 135.416,20.688 133.096,20.688 C131.128,20.688 129.736,19.616 129.432,17.968 L130.792,17.968 C131.064,19.04 131.96,19.584 133.096,19.584 C134.728,19.584 135.64,18.624 135.64,17.184 L135.64,15.648 C135.16,16.592 134.072,17.152 132.824,17.152 C130.792,17.152 129.208,15.664 129.208,13.12 C129.208,10.576 130.776,9.072 132.84,9.072 C134.056,9.072 135.08,9.616 135.624,10.544 L135.784,9.232 Z M133.048,16.016 C134.568,16.016 135.608,14.896 135.608,13.152 C135.608,11.408 134.584,10.224 133.048,10.224 C131.512,10.224 130.568,11.424 130.568,13.136 C130.568,14.88 131.528,16.016 133.048,16.016 Z M142.6,9.232 L143.624,9.232 L143.624,10.448 L142.552,10.448 C141.16,10.448 140.536,11.36 140.536,12.864 L140.536,17.328 L139.224,17.328 L139.224,9.232 L140.376,9.232 L140.552,10.384 C140.888,9.744 141.656,9.232 142.6,9.232 Z M144.856,13.296 C144.856,10.8 146.504,9.072 148.952,9.072 C151.4,9.072 153.064,10.8 153.064,13.296 C153.064,15.776 151.4,17.488 148.952,17.488 C146.504,17.488 144.856,15.776 144.856,13.296 Z M146.2,13.28 C146.2,15.136 147.304,16.352 148.952,16.352 C150.6,16.352 151.704,15.136 151.704,13.28 C151.704,11.392 150.6,10.192 148.952,10.192 C147.304,10.192 146.2,11.392 146.2,13.28 Z M155.592,9.232 L157.4,15.872 L159.512,9.232 L160.872,9.232 L162.968,15.872 L164.728,9.232 L166.104,9.232 L163.768,17.328 L162.264,17.328 L160.168,10.8 L158.072,17.328 L156.568,17.328 L154.184,9.232 L155.592,9.232 Z M170.024,17.328 C168.824,17.328 168.04,16.672 168.04,15.296 L168.04,10.416 L166.584,10.416 L166.584,9.232 L167.352,9.232 C167.864,9.232 168.04,9.008 168.04,8.512 L168.04,7.12 L169.352,7.12 L169.352,9.232 L171.256,9.232 L171.256,10.416 L169.352,10.416 L169.352,15.12 C169.352,15.712 169.544,16.144 170.328,16.144 L171.24,16.144 L171.24,17.328 L170.024,17.328 Z M177.016,9.072 C178.568,9.072 180.184,9.904 180.184,12.56 L180.184,17.328 L178.872,17.328 L178.872,12.784 C178.872,11.04 178.04,10.288 176.744,10.304 C175.176,10.304 174.328,11.408 174.328,12.928 L174.328,17.328 L173.016,17.328 L173.016,5.552 L174.328,5.552 L174.328,10.432 C174.824,9.568 175.848,9.072 177.016,9.072 Z" id="Savingsgrowth" fill="#444F62"></path>
            </g>
        </g>
    </g>
</svg>