<?xml version="1.0" encoding="UTF-8"?>
<svg width="360px" height="440px" viewBox="0 0 360 440" version="1.1" xmlns="http://www.w3.org/2000/svg" xmlns:xlink="http://www.w3.org/1999/xlink">
    <!-- Generator: Sketch 53 (72520) - https://sketchapp.com -->
    <title>03@2x</title>
    <desc>Created with Sketch.</desc>
    <g id="Page-1" stroke="none" stroke-width="1" fill="none" fill-rule="evenodd">
        <g id="03">
            <path d="M4,0 L356,0 C358.209139,-4.05812251e-16 360,1.790861 360,4 L360,436 C360,438.209139 358.209139,440 356,440 L40,440 C17.90861,440 2.705415e-15,422.09139 0,400 L0,4 C-2.705415e-16,1.790861 1.790861,4.05812251e-16 4,0 Z" id="Rectangle-2-Copy-9" fill="#FFFFFF"></path>
            <path d="M39.344,42.816 C39.344,44.928 37.44,46.16 34.992,46.16 C32.208,46.16 30.496,44.8 30.496,42.768 L32.352,42.768 C32.352,43.856 33.248,44.608 35.008,44.608 C36.384,44.608 37.456,43.952 37.456,42.848 C37.456,41.856 36.848,41.424 35.648,41.2 L33.808,40.848 C31.792,40.48 30.736,39.376 30.736,37.728 C30.736,35.808 32.368,34.448 34.928,34.448 C37.232,34.448 39.152,35.504 39.152,37.808 L37.344,37.808 C37.344,36.576 36.368,35.952 34.88,35.952 C33.568,35.952 32.608,36.56 32.608,37.6 C32.608,38.528 33.184,38.992 34.448,39.232 L36.288,39.568 C38.368,39.952 39.344,41.088 39.344,42.816 Z M48.4,44.688 L48.704,44.688 L48.704,46 L47.712,46 C47.04,46 46.432,45.744 46.304,44.96 C45.84,45.68 44.832,46.16 43.552,46.16 C41.744,46.16 40.592,45.216 40.592,43.648 C40.592,42.256 41.472,41.232 43.712,41.232 L46.096,41.232 L46.096,40.816 C46.096,39.616 45.376,39.056 44.304,39.056 C43.216,39.056 42.512,39.6 42.464,40.448 L40.848,40.448 C40.896,38.672 42.352,37.648 44.368,37.648 C46.288,37.648 47.856,38.608 47.856,40.832 L47.856,44.144 C47.856,44.592 48.032,44.688 48.4,44.688 Z M46.096,42.768 L46.096,42.432 L43.952,42.432 C42.768,42.432 42.4,42.96 42.4,43.568 C42.4,44.4 43.056,44.768 43.952,44.768 C45.168,44.768 46.096,44.112 46.096,42.768 Z M51.12,37.792 L53.568,44.144 L55.984,37.792 L57.872,37.792 L54.512,46 L52.56,46 L49.28,37.792 L51.12,37.792 Z M58.96,36.272 L58.96,34.448 L60.896,34.448 L60.896,36.272 L58.96,36.272 Z M59.056,46 L59.056,37.808 L60.8,37.808 L60.8,46 L59.056,46 Z M67.2,37.648 C69.264,37.648 70.48,39.008 70.48,41.104 L70.48,46 L68.72,46 L68.72,41.472 C68.72,39.936 67.936,39.184 66.736,39.184 C65.376,39.184 64.64,40.144 64.64,41.6 L64.64,46 L62.896,46 L62.896,37.808 L64.48,37.808 L64.608,38.912 C65.072,38.128 65.952,37.648 67.2,37.648 Z M78.688,37.808 L80.24,37.808 L80.24,45.488 C80.24,47.872 78.64,49.36 76.208,49.36 C74.144,49.36 72.656,48.224 72.384,46.512 L74.128,46.512 C74.384,47.456 75.2,47.92 76.224,47.92 C77.68,47.92 78.528,47.056 78.528,45.776 L78.528,44.496 C78.064,45.328 77.056,45.824 75.856,45.824 C73.728,45.824 72.176,44.272 72.176,41.744 C72.176,39.184 73.728,37.648 75.872,37.648 C77.072,37.648 78,38.128 78.512,38.944 L78.688,37.808 Z M76.224,44.288 C77.584,44.288 78.496,43.28 78.496,41.76 C78.496,40.24 77.6,39.184 76.224,39.184 C74.848,39.184 73.984,40.24 73.984,41.76 C73.984,43.28 74.848,44.288 76.224,44.288 Z M81.808,43.52 L83.552,43.52 C83.568,44.368 84.352,44.864 85.424,44.864 C86.496,44.864 87.136,44.464 87.136,43.744 C87.136,43.12 86.816,42.784 85.888,42.64 L84.24,42.352 C82.64,42.08 82.016,41.248 82.016,40.08 C82.016,38.608 83.472,37.648 85.328,37.648 C87.328,37.648 88.784,38.608 88.8,40.24 L87.072,40.24 C87.056,39.408 86.336,38.944 85.328,38.944 C84.368,38.944 83.76,39.344 83.76,40.016 C83.76,40.608 84.176,40.88 85.088,41.04 L86.704,41.328 C88.224,41.6 88.928,42.352 88.928,43.584 C88.928,45.28 87.36,46.16 85.456,46.16 C83.296,46.16 81.84,45.12 81.808,43.52 Z M98.672,39.632 L104.032,39.632 L104.032,46.016 L102.544,46.016 L102.352,44.416 C101.536,45.536 100.224,46.144 98.592,46.144 C95.488,46.144 93.264,43.92 93.264,40.448 C93.264,36.928 95.488,34.448 98.832,34.448 C101.536,34.448 103.44,35.904 103.984,38.192 L101.984,38.192 C101.456,36.752 100.272,36.096 98.816,36.096 C96.592,36.096 95.136,37.76 95.136,40.32 C95.136,42.88 96.576,44.512 98.768,44.512 C100.24,44.512 102.128,43.664 102.224,41.472 L102.32,41.504 L102.32,41.152 L98.672,41.152 L98.672,39.632 Z M113.84,41.728 L113.84,42.384 L107.568,42.384 C107.6,43.92 108.608,44.72 109.888,44.72 C110.848,44.72 111.648,44.272 111.984,43.376 L113.76,43.376 C113.328,45.04 111.856,46.16 109.856,46.16 C107.408,46.16 105.792,44.464 105.792,41.888 C105.792,39.328 107.408,37.632 109.84,37.632 C112.224,37.632 113.84,39.264 113.84,41.728 Z M109.84,39.024 C108.672,39.024 107.712,39.744 107.584,41.168 L112.064,41.168 C111.968,39.744 111.024,39.024 109.84,39.024 Z M119.936,37.648 C122,37.648 123.216,39.008 123.216,41.104 L123.216,46 L121.456,46 L121.456,41.472 C121.456,39.936 120.672,39.184 119.472,39.184 C118.112,39.184 117.376,40.144 117.376,41.6 L117.376,46 L115.632,46 L115.632,37.808 L117.216,37.808 L117.344,38.912 C117.808,38.128 118.688,37.648 119.936,37.648 Z M133.008,41.728 L133.008,42.384 L126.736,42.384 C126.768,43.92 127.776,44.72 129.056,44.72 C130.016,44.72 130.816,44.272 131.152,43.376 L132.928,43.376 C132.496,45.04 131.024,46.16 129.024,46.16 C126.576,46.16 124.96,44.464 124.96,41.888 C124.96,39.328 126.576,37.632 129.008,37.632 C131.392,37.632 133.008,39.264 133.008,41.728 Z M129.008,39.024 C127.84,39.024 126.88,39.744 126.752,41.168 L131.232,41.168 C131.136,39.744 130.192,39.024 129.008,39.024 Z M138.56,37.808 L139.632,37.808 L139.632,39.376 L138.464,39.376 C137.104,39.376 136.576,40.24 136.576,41.632 L136.576,46 L134.816,46 L134.816,37.808 L136.416,37.808 L136.624,38.864 C136.928,38.288 137.616,37.808 138.56,37.808 Z M148.432,44.688 L148.736,44.688 L148.736,46 L147.744,46 C147.072,46 146.464,45.744 146.336,44.96 C145.872,45.68 144.864,46.16 143.584,46.16 C141.776,46.16 140.624,45.216 140.624,43.648 C140.624,42.256 141.504,41.232 143.744,41.232 L146.128,41.232 L146.128,40.816 C146.128,39.616 145.408,39.056 144.336,39.056 C143.248,39.056 142.544,39.6 142.496,40.448 L140.88,40.448 C140.928,38.672 142.384,37.648 144.4,37.648 C146.32,37.648 147.888,38.608 147.888,40.832 L147.888,44.144 C147.888,44.592 148.064,44.688 148.432,44.688 Z M146.128,42.768 L146.128,42.432 L143.984,42.432 C142.8,42.432 142.432,42.96 142.432,43.568 C142.432,44.4 143.088,44.768 143.984,44.768 C145.2,44.768 146.128,44.112 146.128,42.768 Z M152.896,46 C151.472,46 150.688,45.2 150.688,43.776 L150.688,39.36 L149.312,39.36 L149.312,37.808 L150.016,37.808 C150.528,37.808 150.688,37.552 150.688,37.04 L150.688,35.616 L152.432,35.616 L152.432,37.808 L154.336,37.808 L154.336,39.36 L152.432,39.36 L152.432,43.44 C152.432,44.096 152.624,44.448 153.392,44.448 L154.32,44.448 L154.32,46 L152.896,46 Z M163.776,41.728 L163.776,42.384 L157.504,42.384 C157.536,43.92 158.544,44.72 159.824,44.72 C160.784,44.72 161.584,44.272 161.92,43.376 L163.696,43.376 C163.264,45.04 161.792,46.16 159.792,46.16 C157.344,46.16 155.728,44.464 155.728,41.888 C155.728,39.328 157.344,37.632 159.776,37.632 C162.16,37.632 163.776,39.264 163.776,41.728 Z M159.776,39.024 C158.608,39.024 157.648,39.744 157.52,41.168 L162,41.168 C161.904,39.744 160.96,39.024 159.776,39.024 Z M171.984,34.112 L173.744,34.112 L173.744,46 L172.144,46 L172,44.752 C171.504,45.584 170.432,46.16 169.168,46.16 C166.912,46.16 165.28,44.592 165.28,41.92 C165.28,39.168 166.992,37.632 169.168,37.632 C170.448,37.632 171.488,38.176 171.984,39.008 L171.984,34.112 Z M169.52,44.608 C170.896,44.608 171.952,43.616 171.952,41.92 C171.952,40.24 170.896,39.184 169.52,39.2 C168.08,39.2 167.088,40.256 167.088,41.92 C167.088,43.616 168.096,44.608 169.52,44.608 Z" id="SavingsGenerated" fill="#05004D" fill-rule="nonzero"></path>
            <path d="M63.384,267.144 L59.192,259.704 L60.856,259.704 L64.088,265.688 L67.336,259.704 L68.968,259.704 L64.744,267.144 L64.744,271 L63.384,271 L63.384,267.144 Z M69.976,266.968 C69.976,264.472 71.624,262.744 74.072,262.744 C76.52,262.744 78.184,264.472 78.184,266.968 C78.184,269.448 76.52,271.16 74.072,271.16 C71.624,271.16 69.976,269.448 69.976,266.968 Z M71.32,266.952 C71.32,268.808 72.424,270.024 74.072,270.024 C75.72,270.024 76.824,268.808 76.824,266.952 C76.824,265.064 75.72,263.864 74.072,263.864 C72.424,263.864 71.32,265.064 71.32,266.952 Z M85.704,262.904 L86.968,262.904 L86.968,271 L85.832,271 L85.704,269.8 C85.224,270.68 84.328,271.16 83.208,271.16 C81.24,271.16 80.056,269.816 80.056,267.752 L80.056,262.904 L81.336,262.904 L81.336,267.544 C81.336,269.192 82.216,269.976 83.464,269.96 C84.92,269.96 85.704,268.888 85.704,267.336 L85.704,262.904 Z M92.648,262.904 L93.672,262.904 L93.672,264.12 L92.6,264.12 C91.208,264.12 90.584,265.032 90.584,266.536 L90.584,271 L89.272,271 L89.272,262.904 L90.424,262.904 L90.6,264.056 C90.936,263.416 91.704,262.904 92.648,262.904 Z M97.848,268.616 L99.176,268.616 C99.208,269.576 100.04,270.136 101.288,270.136 C102.52,270.136 103.304,269.64 103.304,268.792 C103.304,268.072 102.92,267.688 101.976,267.56 L100.296,267.288 C98.76,267.032 98.056,266.296 98.056,265.08 C98.056,263.656 99.416,262.744 101.192,262.744 C103.096,262.744 104.472,263.656 104.488,265.272 L103.192,265.272 C103.16,264.296 102.344,263.768 101.208,263.768 C100.088,263.768 99.352,264.248 99.352,265.048 C99.352,265.736 99.8,266.072 100.808,266.216 L102.456,266.488 C103.928,266.728 104.632,267.432 104.632,268.68 C104.632,270.28 103.176,271.16 101.32,271.16 C99.192,271.16 97.88,270.168 97.848,268.616 Z M113.672,269.976 L113.96,269.976 L113.96,271 L113.16,271 C112.52,271 111.928,270.744 111.848,269.896 C111.368,270.648 110.312,271.16 109.016,271.16 C107.208,271.16 106.088,270.216 106.088,268.68 C106.088,267.384 106.888,266.344 109.192,266.344 L111.752,266.344 L111.752,265.896 C111.752,264.44 110.904,263.832 109.704,263.832 C108.472,263.832 107.704,264.424 107.64,265.384 L106.376,265.384 C106.472,263.672 107.864,262.744 109.752,262.744 C111.768,262.744 113.08,263.848 113.08,265.88 L113.08,269.352 C113.08,269.864 113.208,269.976 113.672,269.976 Z M111.752,267.688 L111.752,267.32 L109.32,267.32 C107.928,267.32 107.448,267.896 107.448,268.664 C107.448,269.608 108.2,270.072 109.24,270.072 C110.568,270.072 111.752,269.336 111.752,267.688 Z M115.992,262.904 L118.664,269.528 L121.352,262.904 L122.76,262.904 L119.368,271 L117.944,271 L114.584,262.904 L115.992,262.904 Z M123.912,261.16 L123.912,259.624 L125.544,259.624 L125.544,261.16 L123.912,261.16 Z M124.072,271 L124.072,262.904 L125.384,262.904 L125.384,271 L124.072,271 Z M131.624,262.744 C133.64,262.744 134.824,264.088 134.824,266.152 L134.824,271 L133.512,271 L133.512,266.424 C133.512,264.744 132.632,263.944 131.32,263.944 C129.8,263.944 128.984,265.032 128.984,266.616 L128.984,271 L127.672,271 L127.672,262.904 L128.824,262.904 L128.968,264.152 C129.432,263.256 130.376,262.744 131.624,262.744 Z M143.288,262.904 L144.44,262.904 L144.44,270.648 C144.44,272.904 142.92,274.36 140.6,274.36 C138.632,274.36 137.24,273.288 136.936,271.64 L138.296,271.64 C138.568,272.712 139.464,273.256 140.6,273.256 C142.232,273.256 143.144,272.296 143.144,270.856 L143.144,269.32 C142.664,270.264 141.576,270.824 140.328,270.824 C138.296,270.824 136.712,269.336 136.712,266.792 C136.712,264.248 138.28,262.744 140.344,262.744 C141.56,262.744 142.584,263.288 143.128,264.216 L143.288,262.904 Z M140.552,269.688 C142.072,269.688 143.112,268.568 143.112,266.824 C143.112,265.08 142.088,263.896 140.552,263.896 C139.016,263.896 138.072,265.096 138.072,266.808 C138.072,268.552 139.032,269.688 140.552,269.688 Z M146.216,268.616 L147.544,268.616 C147.576,269.576 148.408,270.136 149.656,270.136 C150.888,270.136 151.672,269.64 151.672,268.792 C151.672,268.072 151.288,267.688 150.344,267.56 L148.664,267.288 C147.128,267.032 146.424,266.296 146.424,265.08 C146.424,263.656 147.784,262.744 149.56,262.744 C151.464,262.744 152.84,263.656 152.856,265.272 L151.56,265.272 C151.528,264.296 150.712,263.768 149.576,263.768 C148.456,263.768 147.72,264.248 147.72,265.048 C147.72,265.736 148.168,266.072 149.176,266.216 L150.824,266.488 C152.296,266.728 153,267.432 153,268.68 C153,270.28 151.544,271.16 149.688,271.16 C147.56,271.16 146.248,270.168 146.216,268.616 Z M162.024,262.744 C163.576,262.744 165.192,263.576 165.192,266.232 L165.192,271 L163.88,271 L163.88,266.456 C163.88,264.712 163.048,263.96 161.752,263.976 C160.184,263.976 159.336,265.08 159.336,266.6 L159.336,271 L158.024,271 L158.024,259.224 L159.336,259.224 L159.336,264.104 C159.832,263.24 160.856,262.744 162.024,262.744 Z M174.536,269.976 L174.824,269.976 L174.824,271 L174.024,271 C173.384,271 172.792,270.744 172.712,269.896 C172.232,270.648 171.176,271.16 169.88,271.16 C168.072,271.16 166.952,270.216 166.952,268.68 C166.952,267.384 167.752,266.344 170.056,266.344 L172.616,266.344 L172.616,265.896 C172.616,264.44 171.768,263.832 170.568,263.832 C169.336,263.832 168.568,264.424 168.504,265.384 L167.24,265.384 C167.336,263.672 168.728,262.744 170.616,262.744 C172.632,262.744 173.944,263.848 173.944,265.88 L173.944,269.352 C173.944,269.864 174.072,269.976 174.536,269.976 Z M172.616,267.688 L172.616,267.32 L170.184,267.32 C168.792,267.32 168.312,267.896 168.312,268.664 C168.312,269.608 169.064,270.072 170.104,270.072 C171.432,270.072 172.616,269.336 172.616,267.688 Z M176.856,262.904 L179.528,269.528 L182.216,262.904 L183.624,262.904 L180.232,271 L178.808,271 L175.448,262.904 L176.856,262.904 Z M192.536,266.744 L192.536,267.32 L186.04,267.32 C186.072,269.112 187.24,270.04 188.696,270.04 C189.784,270.04 190.696,269.512 191.096,268.456 L192.44,268.456 C191.976,270.072 190.584,271.144 188.664,271.144 C186.28,271.144 184.696,269.464 184.696,266.936 C184.696,264.408 186.28,262.744 188.648,262.744 C190.984,262.744 192.536,264.344 192.536,266.744 Z M188.648,263.816 C187.288,263.816 186.216,264.648 186.056,266.344 L191.192,266.344 C191.096,264.664 190.008,263.816 188.648,263.816 Z M59.976,280.16 L59.976,278.624 L61.608,278.624 L61.608,280.16 L59.976,280.16 Z M60.136,290 L60.136,281.904 L61.448,281.904 L61.448,290 L60.136,290 Z M72.536,281.744 C74.312,281.744 75.48,282.928 75.48,284.896 L75.48,290 L74.152,290 L74.152,285.12 C74.152,283.584 73.416,282.96 72.28,282.96 C71.176,282.96 70.296,283.68 70.248,285.248 L70.248,290 L68.952,290 L68.952,285.232 C68.952,283.728 68.264,282.96 67.096,282.96 C65.816,282.96 65.048,283.792 65.048,285.168 L65.048,290 L63.736,290 L63.736,281.904 L64.888,281.904 L65.08,282.848 C65.512,282.096 66.376,281.744 67.304,281.744 C68.52,281.744 69.48,282.272 69.944,283.312 C70.44,282.224 71.512,281.744 72.536,281.744 Z M81.944,281.744 C84.04,281.744 85.8,283.248 85.8,285.968 C85.8,288.64 84.072,290.16 81.944,290.16 C80.696,290.16 79.544,289.648 78.984,288.688 L78.984,293.2 L77.672,293.2 L77.672,281.904 L78.84,281.904 L78.984,283.248 C79.56,282.304 80.696,281.744 81.944,281.744 Z M81.736,289.008 C83.32,289.008 84.44,287.872 84.44,285.968 C84.44,284.08 83.336,282.912 81.736,282.912 C80.216,282.896 79.032,284.096 79.032,286 C79.032,287.888 80.216,289.008 81.736,289.008 Z M91.16,281.904 L92.184,281.904 L92.184,283.12 L91.112,283.12 C89.72,283.12 89.096,284.032 89.096,285.536 L89.096,290 L87.784,290 L87.784,281.904 L88.936,281.904 L89.112,283.056 C89.448,282.416 90.216,281.904 91.16,281.904 Z M93.416,285.968 C93.416,283.472 95.064,281.744 97.512,281.744 C99.96,281.744 101.624,283.472 101.624,285.968 C101.624,288.448 99.96,290.16 97.512,290.16 C95.064,290.16 93.416,288.448 93.416,285.968 Z M94.76,285.952 C94.76,287.808 95.864,289.024 97.512,289.024 C99.16,289.024 100.264,287.808 100.264,285.952 C100.264,284.064 99.16,282.864 97.512,282.864 C95.864,282.864 94.76,284.064 94.76,285.952 Z M104.024,281.904 L106.696,288.528 L109.384,281.904 L110.792,281.904 L107.4,290 L105.976,290 L102.616,281.904 L104.024,281.904 Z M119.704,285.744 L119.704,286.32 L113.208,286.32 C113.24,288.112 114.408,289.04 115.864,289.04 C116.952,289.04 117.864,288.512 118.264,287.456 L119.608,287.456 C119.144,289.072 117.752,290.144 115.832,290.144 C113.448,290.144 111.864,288.464 111.864,285.936 C111.864,283.408 113.448,281.744 115.816,281.744 C118.152,281.744 119.704,283.344 119.704,285.744 Z M115.816,282.816 C114.456,282.816 113.384,283.648 113.224,285.344 L118.36,285.344 C118.264,283.664 117.176,282.816 115.816,282.816 Z M128.184,278.224 L129.496,278.224 L129.496,290 L128.344,290 L128.184,288.624 C127.624,289.584 126.488,290.16 125.224,290.16 C123.096,290.16 121.368,288.672 121.368,285.984 C121.368,283.264 123.128,281.744 125.224,281.744 C126.52,281.744 127.624,282.304 128.184,283.232 L128.184,278.224 Z M125.432,289.008 C126.952,289.008 128.152,287.888 128.152,285.984 C128.152,284.096 126.952,282.896 125.432,282.912 C123.832,282.928 122.728,284.112 122.728,285.984 C122.728,287.888 123.848,289.008 125.432,289.008 Z M139.192,281.744 C141.32,281.744 143.048,283.28 143.048,285.968 C143.048,288.672 141.288,290.16 139.192,290.16 C137.944,290.16 136.808,289.648 136.232,288.72 L136.088,290 L134.92,290 L134.92,278.224 L136.248,278.224 L136.248,283.264 C136.808,282.288 137.928,281.744 139.192,281.744 Z M138.984,289.008 C140.568,289.008 141.688,287.856 141.688,285.968 C141.688,284.08 140.584,282.912 138.984,282.896 C137.464,282.896 136.28,284.08 136.28,285.984 C136.28,287.888 137.464,289.008 138.984,289.008 Z M145.48,281.904 L148.136,289.12 L150.584,281.888 L151.976,281.904 L148.584,291.312 C148.008,292.88 147.128,293.2 145.944,293.2 L144.344,293.2 L144.344,292.016 L145.96,292.016 C146.792,292.016 147.304,291.568 147.304,290.656 C147.304,290.432 147.256,290.208 147.16,289.952 L144.056,281.904 L145.48,281.904 Z M163.832,283.776 L163.832,285.792 L161.08,285.792 L161.08,288.576 L159.064,288.576 L159.064,285.792 L156.312,285.792 L156.312,283.776 L159.064,283.776 L159.064,280.992 L161.08,280.992 L161.08,283.776 L163.832,283.776 Z M174.344,286.672 C174.344,288.64 172.824,289.856 170.824,290.096 L170.824,291.408 L169.064,291.408 L169.064,290.08 C166.888,289.792 165.608,288.48 165.608,286.608 L167.72,286.608 C167.72,287.552 168.424,288.224 170.024,288.224 C171.256,288.224 172.056,287.76 172.056,286.816 C172.056,286.032 171.592,285.696 170.44,285.424 L168.68,284.992 C167.368,284.688 165.816,283.792 165.816,281.776 C165.816,280.064 167.016,278.688 169.064,278.384 L169.064,277.072 L170.824,277.072 L170.824,278.384 C172.568,278.624 174.104,279.664 174.104,281.84 L172.008,281.84 C172.008,280.688 171.16,280.208 169.928,280.208 C168.664,280.208 168.104,280.72 168.104,281.568 C168.104,282.304 168.568,282.72 169.752,283.008 L171.496,283.424 C173.24,283.84 174.344,284.912 174.344,286.672 Z M182.872,283.792 C183.768,284.288 184.472,285.28 184.472,286.48 C184.472,288.624 182.76,290.16 180.088,290.16 C177.48,290.16 175.736,288.672 175.736,286.528 C175.736,285.36 176.424,284.304 177.352,283.776 C176.712,283.328 176.152,282.496 176.152,281.44 C176.152,279.584 177.8,278.32 180.104,278.32 C182.408,278.32 184.072,279.584 184.072,281.456 C184.072,282.512 183.512,283.328 182.872,283.792 Z M180.12,280.016 C179.032,280.016 178.296,280.624 178.296,281.52 C178.296,282.432 179.032,283.04 180.12,283.04 C181.192,283.04 181.912,282.432 181.912,281.52 C181.912,280.624 181.192,280.016 180.12,280.016 Z M180.12,288.288 C181.384,288.288 182.232,287.568 182.232,286.496 C182.232,285.472 181.384,284.768 180.12,284.768 C178.856,284.768 177.992,285.472 177.992,286.496 C177.992,287.568 178.856,288.288 180.12,288.288 Z M191.448,285.728 L188.824,287.904 L193.64,287.904 L193.64,290 L185.72,290 L185.72,287.968 L190.008,284.304 C190.872,283.536 191.368,282.992 191.384,282.16 C191.416,281.024 190.696,280.4 189.592,280.4 C188.52,280.4 187.752,281.152 187.704,282.272 L185.544,282.272 C185.592,279.728 187.432,278.32 189.608,278.32 C191.944,278.32 193.736,279.6 193.736,281.968 C193.736,283.648 192.76,284.672 191.448,285.728 Z M200.648,285.728 L198.024,287.904 L202.84,287.904 L202.84,290 L194.92,290 L194.92,287.968 L199.208,284.304 C200.072,283.536 200.568,282.992 200.584,282.16 C200.616,281.024 199.896,280.4 198.792,280.4 C197.72,280.4 196.952,281.152 196.904,282.272 L194.744,282.272 C194.792,279.728 196.632,278.32 198.808,278.32 C201.144,278.32 202.936,279.6 202.936,281.968 C202.936,283.648 201.96,284.672 200.648,285.728 Z M204.232,290 L204.232,287.392 L206.904,287.392 L206.904,290 L204.232,290 Z M213.32,290 L213.32,287.888 L207.992,287.888 L207.992,285.92 L213.208,278.48 L215.592,278.48 L215.592,285.92 L217.112,285.92 L217.112,287.888 L215.592,287.888 L215.592,290 L213.32,290 Z M210.232,285.92 L213.32,285.92 L213.32,281.632 L210.232,285.92 Z M225.192,283.792 C226.088,284.288 226.792,285.28 226.792,286.48 C226.792,288.624 225.08,290.16 222.408,290.16 C219.8,290.16 218.056,288.672 218.056,286.528 C218.056,285.36 218.744,284.304 219.672,283.776 C219.032,283.328 218.472,282.496 218.472,281.44 C218.472,279.584 220.12,278.32 222.424,278.32 C224.728,278.32 226.392,279.584 226.392,281.456 C226.392,282.512 225.832,283.328 225.192,283.792 Z M222.44,280.016 C221.352,280.016 220.616,280.624 220.616,281.52 C220.616,282.432 221.352,283.04 222.44,283.04 C223.512,283.04 224.232,282.432 224.232,281.52 C224.232,280.624 223.512,280.016 222.44,280.016 Z M222.44,288.288 C223.704,288.288 224.552,287.568 224.552,286.496 C224.552,285.472 223.704,284.768 222.44,284.768 C221.176,284.768 220.312,285.472 220.312,286.496 C220.312,287.568 221.176,288.288 222.44,288.288 Z M231.528,280.16 L231.528,278.624 L233.16,278.624 L233.16,280.16 L231.528,280.16 Z M231.688,290 L231.688,281.904 L233,281.904 L233,290 L231.688,290 Z M239.24,281.744 C241.256,281.744 242.44,283.088 242.44,285.152 L242.44,290 L241.128,290 L241.128,285.424 C241.128,283.744 240.248,282.944 238.936,282.944 C237.416,282.944 236.6,284.032 236.6,285.616 L236.6,290 L235.288,290 L235.288,281.904 L236.44,281.904 L236.584,283.152 C237.048,282.256 237.992,281.744 239.24,281.744 Z M62.6,309 C61.4,309 60.616,308.344 60.616,306.968 L60.616,302.088 L59.16,302.088 L59.16,300.904 L59.928,300.904 C60.44,300.904 60.616,300.68 60.616,300.184 L60.616,298.792 L61.928,298.792 L61.928,300.904 L63.832,300.904 L63.832,302.088 L61.928,302.088 L61.928,306.792 C61.928,307.384 62.12,307.816 62.904,307.816 L63.816,307.816 L63.816,309 L62.6,309 Z M69.592,300.744 C71.144,300.744 72.76,301.576 72.76,304.232 L72.76,309 L71.448,309 L71.448,304.456 C71.448,302.712 70.616,301.96 69.32,301.976 C67.752,301.976 66.904,303.08 66.904,304.6 L66.904,309 L65.592,309 L65.592,297.224 L66.904,297.224 L66.904,302.104 C67.4,301.24 68.424,300.744 69.592,300.744 Z M82.552,304.744 L82.552,305.32 L76.056,305.32 C76.088,307.112 77.256,308.04 78.712,308.04 C79.8,308.04 80.712,307.512 81.112,306.456 L82.456,306.456 C81.992,308.072 80.6,309.144 78.68,309.144 C76.296,309.144 74.712,307.464 74.712,304.936 C74.712,302.408 76.296,300.744 78.664,300.744 C81,300.744 82.552,302.344 82.552,304.744 Z M78.664,301.816 C77.304,301.816 76.232,302.648 76.072,304.344 L81.208,304.344 C81.112,302.664 80.024,301.816 78.664,301.816 Z M88.968,297.224 L88.968,309 L87.656,309 L87.656,297.224 L88.968,297.224 Z M98.408,307.976 L98.696,307.976 L98.696,309 L97.896,309 C97.256,309 96.664,308.744 96.584,307.896 C96.104,308.648 95.048,309.16 93.752,309.16 C91.944,309.16 90.824,308.216 90.824,306.68 C90.824,305.384 91.624,304.344 93.928,304.344 L96.488,304.344 L96.488,303.896 C96.488,302.44 95.64,301.832 94.44,301.832 C93.208,301.832 92.44,302.424 92.376,303.384 L91.112,303.384 C91.208,301.672 92.6,300.744 94.488,300.744 C96.504,300.744 97.816,301.848 97.816,303.88 L97.816,307.352 C97.816,307.864 97.944,307.976 98.408,307.976 Z M96.488,305.688 L96.488,305.32 L94.056,305.32 C92.664,305.32 92.184,305.896 92.184,306.664 C92.184,307.608 92.936,308.072 93.976,308.072 C95.304,308.072 96.488,307.336 96.488,305.688 Z M99.784,306.616 L101.112,306.616 C101.144,307.576 101.976,308.136 103.224,308.136 C104.456,308.136 105.24,307.64 105.24,306.792 C105.24,306.072 104.856,305.688 103.912,305.56 L102.232,305.288 C100.696,305.032 99.992,304.296 99.992,303.08 C99.992,301.656 101.352,300.744 103.128,300.744 C105.032,300.744 106.408,301.656 106.424,303.272 L105.128,303.272 C105.096,302.296 104.28,301.768 103.144,301.768 C102.024,301.768 101.288,302.248 101.288,303.048 C101.288,303.736 101.736,304.072 102.744,304.216 L104.392,304.488 C105.864,304.728 106.568,305.432 106.568,306.68 C106.568,308.28 105.112,309.16 103.256,309.16 C101.128,309.16 99.816,308.168 99.784,306.616 Z M110.92,309 C109.72,309 108.936,308.344 108.936,306.968 L108.936,302.088 L107.48,302.088 L107.48,300.904 L108.248,300.904 C108.76,300.904 108.936,300.68 108.936,300.184 L108.936,298.792 L110.248,298.792 L110.248,300.904 L112.152,300.904 L112.152,302.088 L110.248,302.088 L110.248,306.792 C110.248,307.384 110.44,307.816 111.224,307.816 L112.136,307.816 L112.136,309 L110.92,309 Z M118.264,307.704 L123.912,307.704 L123.912,309 L116.44,309 L116.44,307.768 L120.76,303.736 C121.976,302.6 122.456,301.864 122.472,300.936 C122.472,299.592 121.672,298.776 120.152,298.776 C118.84,298.776 117.848,299.672 117.784,300.936 L116.408,300.936 C116.536,298.776 118.264,297.544 120.152,297.544 C122.296,297.544 123.88,298.728 123.88,300.84 C123.88,302.248 123.064,303.288 121.752,304.488 L118.264,307.704 Z M129.448,300.904 L131.256,307.544 L133.368,300.904 L134.728,300.904 L136.824,307.544 L138.584,300.904 L139.96,300.904 L137.624,309 L136.12,309 L134.024,302.472 L131.928,309 L130.424,309 L128.04,300.904 L129.448,300.904 Z M149.016,304.744 L149.016,305.32 L142.52,305.32 C142.552,307.112 143.72,308.04 145.176,308.04 C146.264,308.04 147.176,307.512 147.576,306.456 L148.92,306.456 C148.456,308.072 147.064,309.144 145.144,309.144 C142.76,309.144 141.176,307.464 141.176,304.936 C141.176,302.408 142.76,300.744 145.128,300.744 C147.464,300.744 149.016,302.344 149.016,304.744 Z M145.128,301.816 C143.768,301.816 142.696,302.648 142.536,304.344 L147.672,304.344 C147.576,302.664 146.488,301.816 145.128,301.816 Z M158.584,304.744 L158.584,305.32 L152.088,305.32 C152.12,307.112 153.288,308.04 154.744,308.04 C155.832,308.04 156.744,307.512 157.144,306.456 L158.488,306.456 C158.024,308.072 156.632,309.144 154.712,309.144 C152.328,309.144 150.744,307.464 150.744,304.936 C150.744,302.408 152.328,300.744 154.696,300.744 C157.032,300.744 158.584,302.344 158.584,304.744 Z M154.696,301.816 C153.336,301.816 152.264,302.648 152.104,304.344 L157.24,304.344 C157.144,302.664 156.056,301.816 154.696,301.816 Z M160.552,309 L160.552,297.224 L161.864,297.224 L161.864,304.872 L165.784,300.904 L167.448,300.904 L163.944,304.44 L167.464,309 L165.816,309 L163.016,305.368 L161.88,306.504 L161.88,309 L160.552,309 Z M168.344,306.616 L169.672,306.616 C169.704,307.576 170.536,308.136 171.784,308.136 C173.016,308.136 173.8,307.64 173.8,306.792 C173.8,306.072 173.416,305.688 172.472,305.56 L170.792,305.288 C169.256,305.032 168.552,304.296 168.552,303.08 C168.552,301.656 169.912,300.744 171.688,300.744 C173.592,300.744 174.968,301.656 174.984,303.272 L173.688,303.272 C173.656,302.296 172.84,301.768 171.704,301.768 C170.584,301.768 169.848,302.248 169.848,303.048 C169.848,303.736 170.296,304.072 171.304,304.216 L172.952,304.488 C174.424,304.728 175.128,305.432 175.128,306.68 C175.128,308.28 173.672,309.16 171.816,309.16 C169.688,309.16 168.376,308.168 168.344,306.616 Z M176.776,309 L176.776,307.16 L178.632,307.16 L178.632,309 L176.776,309 Z" id="Yoursavingshaveimprovedby+$822.48inthelast2weeks." fill="#444F62" fill-rule="nonzero"></path>
            <path d="M40.1954962,268.067807 L31.7915251,268.067807 C31.3532117,268.067807 31,268.420562 31,268.855707 L31,271.658715 C31,272.095681 31.3543779,272.446615 31.7915251,272.446615 L40.1954962,272.446615 L40.1954962,275.509916 C40.1954962,276.479923 40.8295782,276.802153 41.6117579,276.233295 L48.4126115,271.28722 C49.1968004,270.7169 49.1947912,269.796061 48.4126115,269.227203 L41.6117579,264.281127 C40.827569,263.710808 40.1954962,264.036137 40.1954962,265.004506 L40.1954962,268.067807 Z" id="Shape" fill="#00C58C" fill-rule="nonzero" transform="translate(40.000000, 270.257069) scale(-1, 1) rotate(-90.000000) translate(-40.000000, -270.257069) "></path>
            <path d="M62.287,216.768 C62.287,223.41 57.157,227.514 50.407,228.324 L50.407,232.752 L44.467,232.752 L44.467,228.27 C37.123,227.298 32.803,222.87 32.803,216.552 L39.931,216.552 C39.931,219.738 42.307,222.006 47.707,222.006 C51.865,222.006 54.565,220.44 54.565,217.254 C54.565,214.608 52.999,213.474 49.111,212.556 L43.171,211.098 C38.743,210.072 33.505,207.048 33.505,200.244 C33.505,194.466 37.555,189.822 44.467,188.796 L44.467,184.368 L50.407,184.368 L50.407,188.796 C56.293,189.606 61.477,193.116 61.477,200.46 L54.403,200.46 C54.403,196.572 51.541,194.952 47.383,194.952 C43.117,194.952 41.227,196.68 41.227,199.542 C41.227,202.026 42.793,203.43 46.789,204.402 L52.675,205.806 C58.561,207.21 62.287,210.828 62.287,216.768 Z M83.563,195.708 L65.419,195.708 L65.419,189.12 L92.527,189.12 L92.527,195.222 C84.427,205.428 79.405,217.524 78.001,228 L70.495,228 C71.791,217.524 76.867,205.59 83.563,195.708 Z M95.659,228 L95.659,219.198 L104.677,219.198 L104.677,228 L100.951,234.48 L96.685,234.48 L99.925,228 L95.659,228 Z M124.117,228 L116.611,228 L116.611,196.788 L108.133,200.946 L108.133,193.494 L116.611,189.12 L124.117,189.12 L124.117,228 Z M147.121,188.58 C157.813,188.58 163.915,196.896 163.915,208.56 C163.915,220.224 157.813,228.54 147.121,228.54 C136.483,228.54 130.597,220.224 130.597,208.56 C130.597,196.896 136.483,188.58 147.121,188.58 Z M156.193,208.56 C156.193,200.298 152.845,195.222 147.121,195.222 C141.451,195.222 138.265,200.298 138.265,208.56 C138.265,216.876 141.451,221.898 147.121,221.898 C152.845,221.898 156.193,216.876 156.193,208.56 Z M184.759,188.58 C195.451,188.58 201.553,196.896 201.553,208.56 C201.553,220.224 195.451,228.54 184.759,228.54 C174.121,228.54 168.235,220.224 168.235,208.56 C168.235,196.896 174.121,188.58 184.759,188.58 Z M193.831,208.56 C193.831,200.298 190.483,195.222 184.759,195.222 C179.089,195.222 175.903,200.298 175.903,208.56 C175.903,216.876 179.089,221.898 184.759,221.898 C190.483,221.898 193.831,216.876 193.831,208.56 Z M205.185,228 L205.185,222.784 L210.529,222.784 L210.529,228 L205.185,228 Z M222.145,212.128 C226.785,212.128 230.049,215.264 230.049,220.064 C230.049,225.248 226.305,228.32 221.409,228.32 C217.057,228.32 213.121,225.888 212.993,220.864 L217.249,220.864 C217.377,223.104 218.977,224.48 221.249,224.48 C223.745,224.48 225.377,222.752 225.377,220.128 C225.377,217.536 223.745,215.744 221.281,215.744 C219.201,215.744 217.825,217.088 217.409,218.24 L213.185,218.24 L215.585,204.96 L228.897,204.96 L228.897,208.832 L219.009,208.832 L218.081,213.312 C218.913,212.608 220.161,212.128 222.145,212.128 Z M241.121,228 L236.673,228 L236.673,209.504 L231.649,211.968 L231.649,207.552 L236.673,204.96 L241.121,204.96 L241.121,228 Z" id="$7,100.51" fill="#05004D" fill-rule="nonzero"></path>
            <rect id="Rectangle" fill="#E6E6E6" x="30" y="369" width="220" height="6"></rect>
            <rect id="Rectangle-Copy-3" fill="#E6E6E6" x="30" y="385" width="160" height="6"></rect>
            <g id="Group-3" transform="translate(30.000000, 87.000000)">
                <circle id="Oval" fill="#D4D1FF" cx="36" cy="36" r="36"></circle>
                <g id="Group-12" transform="translate(16.000000, 22.000000)" fill-rule="nonzero">
                    <path d="M40,2.50113125 C40,1.120682 38.8797363,0 37.4978209,0 L2.50217912,0 C1.12211031,0 0,1.11979462 0,2.50113125 L0,24.9988687 C0,26.379318 1.12026375,27.5 2.50217912,27.5 L37.4978209,27.5 C38.8778897,27.5 40,26.3802054 40,24.9988687 L40,2.50113125 Z" id="Shape" fill="#9C97FF"></path>
                    <path d="M36.875,19.8543054 L36.875,7.64569462 C36.4979897,7.77620681 36.0922837,7.84722225 35.6696429,7.84722225 C33.6725418,7.84722225 32.0535714,6.26156406 32.0535714,4.30555556 C32.0535714,3.89161094 32.1260787,3.49425287 32.2593327,3.125 L7.74066725,3.125 C7.87392125,3.49425287 7.94642856,3.89161094 7.94642856,4.30555556 C7.94642856,6.26156406 6.32745825,7.84722225 4.33035712,7.84722225 C3.90771625,7.84722225 3.50201031,7.77620681 3.125,7.64569462 L3.125,19.8543054 C3.50201031,19.7237932 3.90771625,19.6527778 4.33035712,19.6527778 C6.32745825,19.6527778 7.94642856,21.2384359 7.94642856,23.1944444 C7.94642856,23.6083891 7.87392125,24.0057471 7.74066725,24.375 L32.2593327,24.375 C32.1260787,24.0057471 32.0535714,23.6083891 32.0535714,23.1944444 C32.0535714,21.2384359 33.6725418,19.6527778 35.6696429,19.6527778 C36.0922837,19.6527778 36.4979897,19.7237932 36.875,19.8543054 Z" id="Shape" fill="#5C54FF"></path>
                    <circle id="Oval" fill="#FFFFFF" cx="20" cy="13.75" r="6.875"></circle>
                </g>
            </g>
        </g>
    </g>
</svg>