<svg xmlns="http://www.w3.org/2000/svg" width="83.089" height="97.607" viewBox="0 0 83.089 97.607"><g transform="translate(0)"><g transform="translate(0 0)"><g transform="translate(0 35.875)"><g transform="translate(1.396 16.784)"><path d="M2355.833,1820.1l-4.767,1.831-1.667-1.831.216-6.571,1.745-1.308h9.616l.661,1.6-1.716,3.75Z" transform="translate(-2349.399 -1812.222)" fill="#9fa87b"/></g><g transform="translate(69.282 16.784)"><path d="M2713.41,1822.254l2.663-.323,1.667-1.831-.216-6.571-1.745-1.308h-9.616l-.661,1.6,1.648,4.247Z" transform="translate(-2705.501 -1812.222)" fill="#9fa87b"/></g><g transform="translate(0 15.54)"><path d="M2348.334,1817.768h-2.021a4.24,4.24,0,0,1-4.235-4.235v-3.6a4.24,4.24,0,0,1,4.235-4.235h9.558a1.118,1.118,0,0,1,0,2.235h-9.558a2,2,0,0,0-2,2v3.6a2,2,0,0,0,2,2h2.021a1.118,1.118,0,1,1,0,2.235Z" transform="translate(-2342.078 -1805.697)" fill="#fff"/><g transform="translate(68.178)"><path d="M2710.384,1817.768h-2.021a1.118,1.118,0,1,1,0-2.235h2.021a2,2,0,0,0,2-2v-3.6a2,2,0,0,0-2-2h-9.558a1.118,1.118,0,0,1,0-2.235h9.558a4.24,4.24,0,0,1,4.235,4.235v3.6A4.24,4.24,0,0,1,2710.384,1817.768Z" transform="translate(-2699.709 -1805.697)" fill="#fff"/></g></g><g transform="translate(5.079 21.711)"><path d="M2434.73,1866.1h-59.09a6.928,6.928,0,0,1-6.92-6.921v-14.193a6.928,6.928,0,0,1,6.92-6.92h59.09a6.928,6.928,0,0,1,6.92,6.92v14.193A6.928,6.928,0,0,1,2434.73,1866.1Zm-59.09-25.8a4.691,4.691,0,0,0-4.685,4.685v14.193a4.69,4.69,0,0,0,4.685,4.685h59.09a4.691,4.691,0,0,0,4.685-4.685v-14.193a4.691,4.691,0,0,0-4.685-4.685Z" transform="translate(-2368.72 -1838.069)" fill="#fff"/></g><g transform="translate(11.21)"><path d="M2460.432,1748.129H2402a1.118,1.118,0,0,1-1.073-1.433l5.063-17.223a6.9,6.9,0,0,1,6.726-5.29h37a6.9,6.9,0,0,1,6.726,5.291l5.063,17.223a1.118,1.118,0,0,1-1.072,1.433Zm-56.94-2.235h55.446l-4.65-15.817c-.006-.019-.01-.038-.015-.057a4.67,4.67,0,0,0-4.559-3.6h-37a4.67,4.67,0,0,0-4.558,3.6c0,.019-.01.038-.015.057Z" transform="translate(-2400.881 -1724.183)" fill="#fff"/></g><g transform="translate(16.585 3.994)"><path d="M2477.876,1765.086h-47.683a1.118,1.118,0,0,1-1.073-1.433l4.13-14.05a5.833,5.833,0,0,1,5.687-4.469h30.193a5.832,5.832,0,0,1,5.687,4.469l4.13,14.05a1.118,1.118,0,0,1-1.072,1.433Zm-46.19-2.235h44.7l-3.717-12.644c-.005-.019-.01-.038-.015-.057a3.605,3.605,0,0,0-3.52-2.781h-30.193a3.605,3.605,0,0,0-3.52,2.781c0,.019-.009.038-.015.057Z" transform="translate(-2429.074 -1745.134)" fill="#fff"/></g><g transform="translate(10.02 28.748)"><path d="M2401.809,1889.324a7.172,7.172,0,1,1,7.172-7.171A7.18,7.18,0,0,1,2401.809,1889.324Zm0-12.108a4.936,4.936,0,1,0,4.936,4.936A4.942,4.942,0,0,0,2401.809,1877.216Z" transform="translate(-2394.638 -1874.981)" fill="#9fa87b"/><g transform="translate(48.706)"><path d="M2657.3,1889.324a7.172,7.172,0,1,1,7.171-7.171A7.179,7.179,0,0,1,2657.3,1889.324Zm0-12.108a4.936,4.936,0,1,0,4.936,4.936A4.942,4.942,0,0,0,2657.3,1877.216Z" transform="translate(-2650.126 -1874.981)" fill="#9fa87b"/></g></g><g transform="translate(8.61 47.509)"><path d="M2399.006,1987.618h-7.619a4.151,4.151,0,0,1-4.146-4.146v-8.959a1.118,1.118,0,0,1,1.118-1.118h13.676a1.118,1.118,0,0,1,1.118,1.118v8.959A4.151,4.151,0,0,1,2399.006,1987.618Zm-9.53-11.987v7.841a1.913,1.913,0,0,0,1.911,1.911h7.619a1.913,1.913,0,0,0,1.911-1.911v-7.841Z" transform="translate(-2387.241 -1973.395)" fill="#fff"/><g transform="translate(49.958)"><path d="M2661.061,1987.618h-7.619a4.151,4.151,0,0,1-4.146-4.146v-8.959a1.118,1.118,0,0,1,1.118-1.118h13.676a1.118,1.118,0,0,1,1.118,1.118v8.959A4.151,4.151,0,0,1,2661.061,1987.618Zm-9.53-11.987v7.841a1.913,1.913,0,0,0,1.911,1.911h7.619a1.913,1.913,0,0,0,1.911-1.911v-7.841Z" transform="translate(-2649.296 -1973.395)" fill="#fff"/></g></g><rect width="24" height="3" rx="1.5" transform="translate(29.027 32.681)" fill="#fff"/></g><g transform="translate(15.188)"><g transform="translate(0 3.99)"><path d="M2427.387,1581.024a1.114,1.114,0,0,1-.791-.327,16.594,16.594,0,0,1,0-23.44,1.118,1.118,0,0,1,1.581,1.581,14.356,14.356,0,0,0,0,20.279,1.118,1.118,0,0,1-.79,1.908Z" transform="translate(-2421.75 -1556.929)" fill="#9fa87b"/><g transform="translate(7.491 5.299)"><path d="M2464.488,1598.223a1.115,1.115,0,0,1-.791-.327,9.091,9.091,0,0,1,0-12.842,1.118,1.118,0,0,1,1.581,1.581,6.853,6.853,0,0,0,0,9.681,1.118,1.118,0,0,1-.79,1.908Z" transform="translate(-2461.042 -1584.727)" fill="#9fa87b"/></g><g transform="translate(40.658)"><g transform="translate(5.299)"><path d="M2663.936,1581.024a1.118,1.118,0,0,1-.79-1.908,14.34,14.34,0,0,0,0-20.279,1.118,1.118,0,0,1,1.58-1.581,16.574,16.574,0,0,1,0,23.44A1.114,1.114,0,0,1,2663.936,1581.024Z" transform="translate(-2662.819 -1556.929)" fill="#9fa87b"/></g><g transform="translate(0 5.299)"><path d="M2636.138,1598.223a1.118,1.118,0,0,1-.79-1.908,6.846,6.846,0,0,0,0-9.68,1.118,1.118,0,0,1,1.58-1.581,9.08,9.08,0,0,1,0,12.842A1.115,1.115,0,0,1,2636.138,1598.223Z" transform="translate(-2635.021 -1584.727)" fill="#9fa87b"/></g></g></g><g transform="translate(14.461)"><path d="M2515.37,1568.075h-11.74a6.031,6.031,0,0,1-6.025-6.025v-20.025a6.031,6.031,0,0,1,6.025-6.025h11.74a6.032,6.032,0,0,1,6.025,6.025v20.025A6.032,6.032,0,0,1,2515.37,1568.075Zm-11.74-29.839a3.794,3.794,0,0,0-3.789,3.79v20.025a3.794,3.794,0,0,0,3.789,3.79h11.74a3.794,3.794,0,0,0,3.79-3.79v-20.025a3.794,3.794,0,0,0-3.79-3.79Z" transform="translate(-2497.605 -1536)" fill="#fff"/><g transform="translate(5.748 3.539)"><path d="M2533.9,1566.859a6.147,6.147,0,1,1,6.147-6.147A6.154,6.154,0,0,1,2533.9,1566.859Zm0-10.059a3.912,3.912,0,1,0,3.912,3.912A3.916,3.916,0,0,0,2533.9,1556.8Z" transform="translate(-2527.756 -1554.565)" fill="#fff"/></g><g transform="translate(5.282 16.105)"><g transform="translate(0 0.477)"><circle cx="2.256" cy="2.256" r="2.256" transform="translate(0 4.392) rotate(-76.718)" fill="#fff"/></g><g transform="translate(7.321 0)"><circle cx="2.256" cy="2.256" r="2.256" transform="translate(0 3.191) rotate(-45)" fill="#fff"/></g><g transform="translate(0 6.568)"><circle cx="2.256" cy="2.256" r="2.256" transform="translate(0 4.392) rotate(-76.718)" fill="#fff"/></g><g transform="translate(7.321 6.092)"><circle cx="2.256" cy="2.256" r="2.256" transform="translate(0 3.191) rotate(-45)" fill="#fff"/></g></g></g></g></g></g></svg>