<svg xmlns="http://www.w3.org/2000/svg" width="169.971" height="41.357" viewBox="0 0 169.971 41.357"><g transform="translate(-662.067 -466.759)"><g transform="translate(662.067 466.759)"><path d="M678.133,481.385a5.69,5.69,0,0,1-2.077,1.586,6.276,6.276,0,0,1-2.613.56,6.084,6.084,0,0,1-2.309-.443,5.829,5.829,0,0,1-3.168-3.04,5.443,5.443,0,0,1,0-4.363,5.831,5.831,0,0,1,3.168-3.04,6.1,6.1,0,0,1,2.308-.442,6.248,6.248,0,0,1,2.483.509,5.676,5.676,0,0,1,2.024,1.459l.728.813,4.018-3.671-.724-.8a11.569,11.569,0,0,0-12.948-2.881A11.679,11.679,0,0,0,665.41,470a11.1,11.1,0,0,0-2.446,3.535,10.9,10.9,0,0,0,0,8.658,11.1,11.1,0,0,0,2.446,3.535,11.653,11.653,0,0,0,3.616,2.368,11.33,11.33,0,0,0,4.418.875,11.555,11.555,0,0,0,4.9-1.07,11.322,11.322,0,0,0,3.956-3.049l.692-.83-4.169-3.475Z" transform="translate(-662.067 -466.759)" fill="#fff"/><path d="M916.517,480.016l-7.76-12.106h-5.849v21.559h5.443V477.364l7.759,12.106h5.849V467.91h-5.443Z" transform="translate(-834.208 -467.582)" fill="#fff"/><rect width="5.444" height="21.559" transform="translate(91.261 0.328)" fill="#fff"/><path d="M1008.68,473.354h6.238v16.116h5.444V473.354h6.237V467.91H1008.68Z" transform="translate(-909.809 -467.582)" fill="#fff"/><rect width="5.444" height="21.559" transform="translate(118.956 0.328)" fill="#fff"/><path d="M1124.164,470a11.691,11.691,0,0,0-3.616-2.368,11.66,11.66,0,0,0-8.865,0,11.686,11.686,0,0,0-3.615,2.368,11.1,11.1,0,0,0-2.446,3.535,10.9,10.9,0,0,0,0,8.658,11.082,11.082,0,0,0,2.446,3.535,11.658,11.658,0,0,0,3.616,2.368,11.661,11.661,0,0,0,8.865,0,11.666,11.666,0,0,0,3.616-2.369,11.1,11.1,0,0,0,2.446-3.535,10.894,10.894,0,0,0,0-8.658A11.112,11.112,0,0,0,1124.164,470Zm-2.1,7.864a5.267,5.267,0,0,1-.456,2.182,5.828,5.828,0,0,1-3.168,3.04,6.167,6.167,0,0,1-2.338.442,6.084,6.084,0,0,1-2.309-.443,5.827,5.827,0,0,1-3.167-3.04,5.44,5.44,0,0,1,0-4.363,5.828,5.828,0,0,1,3.167-3.04,6.1,6.1,0,0,1,2.309-.443,6.179,6.179,0,0,1,2.338.442,5.83,5.83,0,0,1,3.168,3.04A5.273,5.273,0,0,1,1122.064,477.867Z" transform="translate(-978.457 -466.759)" fill="#fff"/><path d="M1204.75,480.016l-7.759-12.106h-5.849v21.559h5.443V477.364l7.759,12.106h5.849V467.91h-5.443Z" transform="translate(-1040.223 -467.582)" fill="#fff"/><path d="M775.254,474.373c.088.088.17.179.251.271l5.213-2.847a11.146,11.146,0,0,0-17.055-1.592l-11.669,11.627a5.266,5.266,0,1,1,0-7.466l1.22,1.211,1.411,1.4,4.166-4.142-1.286-1.275-1.366-1.355a11.136,11.136,0,1,0,0,15.787l11.669-11.627A5.278,5.278,0,0,1,775.254,474.373Z" transform="translate(-715.723 -466.905)" fill="#9fa87b"/><path d="M842.431,499.3h-9.912v4.81h3.254a5.274,5.274,0,0,1-8.121.834l-2.629-2.615-4.16,4.144,2.644,2.632a11.14,11.14,0,0,0,18.98-7.138A19.739,19.739,0,0,0,842.431,499.3Z" transform="translate(-775.565 -490.02)" fill="#9fa87b"/></g><g transform="translate(673.192 497.207)"><path d="M701.069,573.5h2.186a2.8,2.8,0,0,1,1.637.393,1.884,1.884,0,0,1,.9,1.727,1.864,1.864,0,0,1-1.11,1.761,2.129,2.129,0,0,1,1.592,2.108,2.1,2.1,0,0,1-1.132,1.94,3.082,3.082,0,0,1-1.783.37h-2.287Zm.919,3.588h1.256a2.3,2.3,0,0,0,.976-.168,1.269,1.269,0,0,0,.673-1.233,1.253,1.253,0,0,0-.673-1.177,2.243,2.243,0,0,0-1.031-.191h-1.2Zm0,3.891h1.5a2.759,2.759,0,0,0,1.009-.157,1.411,1.411,0,0,0,.875-1.379,1.476,1.476,0,0,0-.886-1.4,2.647,2.647,0,0,0-1.166-.168h-1.334Z" transform="translate(-701.069 -573.5)" fill="#fff"/><path d="M736.194,587.472h-.785V586.4a2.249,2.249,0,0,1-2.231,1.245c-1.883-.034-2.545-1.312-2.545-2.781v-3.42h.818V584.7c0,1.3.583,2.175,1.94,2.164a1.834,1.834,0,0,0,1.973-2.018V581.44h.83Z" transform="translate(-722.2 -579.175)" fill="#fff"/><path d="M764.684,582.532a1.039,1.039,0,0,0-2.074-.022c.022.572.46.807,1.188,1.02.864.235,1.828.482,1.873,1.771a1.876,1.876,0,0,1-2,1.917,1.936,1.936,0,0,1-2.063-1.884h.818a1.194,1.194,0,0,0,1.256,1.2,1.117,1.117,0,0,0,1.166-1.132c-.023-.684-.471-.964-1.514-1.267-.863-.258-1.536-.605-1.559-1.559a1.739,1.739,0,0,1,1.884-1.726,1.709,1.709,0,0,1,1.839,1.681Z" transform="translate(-744.342 -578.754)" fill="#fff"/><path d="M787.637,573.5h.83v1.155h-.83Zm0,2.265h.83V581.8h-.83Z" transform="translate(-762.943 -573.5)" fill="#fff"/><path d="M803.284,581.017h.785c0,.336,0,.673-.011,1.076a2.258,2.258,0,0,1,2.242-1.245c1.872.022,2.534,1.3,2.534,2.769v3.431h-.818v-3.263c0-1.3-.583-2.186-1.94-2.164a1.831,1.831,0,0,0-1.962,2.018v3.408h-.829Z" transform="translate(-774.127 -578.752)" fill="#fff"/><path d="M834.659,584.271a2.3,2.3,0,0,0,2.355,2.231,2.231,2.231,0,0,0,2.074-1.245h.863a3.194,3.194,0,0,1-1.222,1.469,3.157,3.157,0,0,1-1.716.494,3.115,3.115,0,0,1-3.184-3.173,3.169,3.169,0,1,1,6.324.224Zm4.676-.661a2.351,2.351,0,0,0-4.664,0Z" transform="translate(-795.96 -578.754)" fill="#fff"/><path d="M869.021,582.532a1.039,1.039,0,0,0-2.074-.022c.022.572.46.807,1.188,1.02.863.235,1.828.482,1.873,1.771a1.876,1.876,0,0,1-2,1.917,1.936,1.936,0,0,1-2.063-1.884h.818a1.194,1.194,0,0,0,1.256,1.2,1.117,1.117,0,0,0,1.166-1.132c-.023-.684-.471-.964-1.514-1.267-.863-.258-1.536-.605-1.559-1.559A1.739,1.739,0,0,1,868,580.851a1.709,1.709,0,0,1,1.839,1.681Z" transform="translate(-818.917 -578.754)" fill="#fff"/><path d="M893.788,582.532a.945.945,0,0,0-1.031-1,.954.954,0,0,0-1.043.976c.022.572.46.807,1.188,1.02.864.235,1.828.482,1.872,1.771a1.876,1.876,0,0,1-2,1.917,1.936,1.936,0,0,1-2.063-1.884h.819a1.194,1.194,0,0,0,1.256,1.2,1.117,1.117,0,0,0,1.166-1.132c-.023-.684-.471-.964-1.514-1.267-.864-.258-1.536-.605-1.559-1.559a1.739,1.739,0,0,1,1.884-1.726,1.709,1.709,0,0,1,1.839,1.681Z" transform="translate(-836.619 -578.754)" fill="#fff"/><path d="M927.356,573.5h.919v8.3h-.919Z" transform="translate(-862.808 -573.5)" fill="#fff"/><path d="M943.435,581.017h.785c0,.336,0,.673-.011,1.076a2.259,2.259,0,0,1,2.243-1.245c1.872.022,2.534,1.3,2.534,2.769v3.431h-.819v-3.263c0-1.3-.583-2.186-1.939-2.164a1.83,1.83,0,0,0-1.962,2.018v3.408h-.83Z" transform="translate(-874.3 -578.752)" fill="#fff"/><path d="M974.265,576.426h-1.189v-.661h1.189V573.5h.818v2.265h1.323v.661h-1.323V581.8h-.818Z" transform="translate(-895.487 -573.5)" fill="#fff"/><path d="M993.053,584.271a2.3,2.3,0,0,0,2.354,2.231,2.23,2.23,0,0,0,2.074-1.245h.864a3.2,3.2,0,0,1-1.222,1.469,3.155,3.155,0,0,1-1.715.494,3.115,3.115,0,0,1-3.184-3.173,3.169,3.169,0,1,1,6.324.224Zm4.675-.661a2.351,2.351,0,0,0-4.664,0Z" transform="translate(-909.171 -578.754)" fill="#fff"/><path d="M1025.6,573.5h.83v8.3h-.83Z" transform="translate(-933.028 -573.5)" fill="#fff"/><path d="M1041.207,573.5h.829v8.3h-.829Z" transform="translate(-944.183 -573.5)" fill="#fff"/><path d="M1056.814,573.5h.83v1.155h-.83Zm0,2.265h.83V581.8h-.83Z" transform="translate(-955.338 -573.5)" fill="#fff"/><path d="M1077.537,586.356a3.088,3.088,0,0,1-.9,2.377,3.372,3.372,0,0,1-2.287.93,3.052,3.052,0,0,1-2.982-1.951h.953a2.317,2.317,0,0,0,.718.8,2.376,2.376,0,0,0,1.334.437,2.336,2.336,0,0,0,2.332-2.4v-.774a2.607,2.607,0,0,1-2.433,1.446,3.184,3.184,0,0,1,0-6.368,2.669,2.669,0,0,1,2.444,1.413v-1.245h.818Zm-5.584-2.321a2.345,2.345,0,0,0,2.422,2.411,2.314,2.314,0,0,0,1.693-.7,2.529,2.529,0,0,0,.673-1.7,2.6,2.6,0,0,0-.549-1.581,2.221,2.221,0,0,0-1.839-.841,2.346,2.346,0,0,0-2.4,2.4Z" transform="translate(-965.566 -578.754)" fill="#fff"/><path d="M1105.528,584.271a2.3,2.3,0,0,0,2.355,2.231,2.231,2.231,0,0,0,2.074-1.245h.864a3.2,3.2,0,0,1-1.222,1.469,3.156,3.156,0,0,1-1.715.494,3.115,3.115,0,0,1-3.184-3.173,3.169,3.169,0,1,1,6.324.224Zm4.676-.661a2.351,2.351,0,0,0-4.664,0Z" transform="translate(-989.563 -578.754)" fill="#fff"/><path d="M1138.075,581.017h.785c0,.336,0,.673-.011,1.076a2.259,2.259,0,0,1,2.242-1.245c1.873.022,2.534,1.3,2.534,2.769v3.431h-.819v-3.263c0-1.3-.583-2.186-1.94-2.164a1.831,1.831,0,0,0-1.962,2.018v3.408h-.829Z" transform="translate(-1013.419 -578.752)" fill="#fff"/><path d="M1175.152,585.011a3.207,3.207,0,1,1,0-1.906h-.852a2.392,2.392,0,0,0-3.891-.807,2.475,2.475,0,0,0-.684,1.738,2.344,2.344,0,0,0,2.377,2.411,2.276,2.276,0,0,0,2.187-1.435Z" transform="translate(-1035.448 -578.754)" fill="#fff"/><path d="M1201.295,584.271a2.3,2.3,0,0,0,2.354,2.231,2.23,2.23,0,0,0,2.074-1.245h.864a3.2,3.2,0,0,1-1.222,1.469,3.155,3.155,0,0,1-1.715.494,3.115,3.115,0,0,1-3.184-3.173,3.169,3.169,0,1,1,6.324.224Zm4.676-.661a2.351,2.351,0,0,0-4.664,0Z" transform="translate(-1058.012 -578.754)" fill="#fff"/></g></g></svg>