<svg xmlns="http://www.w3.org/2000/svg" width="167.917" height="40.857" viewBox="0 0 167.917 40.857"><g transform="translate(-662.067 -466.759)"><g transform="translate(662.067 466.759)"><path d="M677.939,481.208a5.623,5.623,0,0,1-2.052,1.567,6.2,6.2,0,0,1-2.581.553,6.011,6.011,0,0,1-2.281-.437,5.759,5.759,0,0,1-3.129-3,5.377,5.377,0,0,1,0-4.311,5.759,5.759,0,0,1,3.13-3,6.024,6.024,0,0,1,2.281-.437,6.173,6.173,0,0,1,2.453.5,5.607,5.607,0,0,1,2,1.441l.719.8,3.969-3.626-.715-.788a11.43,11.43,0,0,0-12.791-2.846,11.54,11.54,0,0,0-3.572,2.34,10.969,10.969,0,0,0-2.416,3.492,10.765,10.765,0,0,0,0,8.553,10.958,10.958,0,0,0,2.416,3.492,11.513,11.513,0,0,0,3.572,2.34,11.192,11.192,0,0,0,4.364.865,11.415,11.415,0,0,0,4.842-1.057,11.186,11.186,0,0,0,3.909-3.012l.684-.82-4.119-3.433Z" transform="translate(-662.067 -466.759)" fill="#182e54"/><path d="M916.352,479.87l-7.666-11.959h-5.779v21.3h5.378V477.249l7.666,11.959h5.779v-21.3h-5.378Z" transform="translate(-835.038 -467.586)" fill="#182e54"/><rect width="5.378" height="21.299" transform="translate(90.159 0.324)" fill="#182e54"/><path d="M1008.68,473.288h6.162v15.921h5.378V473.288h6.162V467.91h-17.7Z" transform="translate(-911.003 -467.586)" fill="#182e54"/><rect width="5.378" height="21.299" transform="translate(117.519 0.324)" fill="#182e54"/><path d="M1123.929,469.963a11.546,11.546,0,0,0-3.572-2.34,11.519,11.519,0,0,0-8.758,0,11.546,11.546,0,0,0-3.572,2.34,10.961,10.961,0,0,0-2.416,3.492,10.764,10.764,0,0,0,0,8.553,10.945,10.945,0,0,0,2.416,3.493,11.516,11.516,0,0,0,3.572,2.34,11.52,11.52,0,0,0,8.758,0,11.525,11.525,0,0,0,3.573-2.34,10.967,10.967,0,0,0,2.416-3.492,10.763,10.763,0,0,0,0-8.553A10.973,10.973,0,0,0,1123.929,469.963Zm-2.075,7.769a5.205,5.205,0,0,1-.451,2.155,5.758,5.758,0,0,1-3.13,3,6.091,6.091,0,0,1-2.31.437,6.011,6.011,0,0,1-2.281-.437,5.757,5.757,0,0,1-3.129-3,5.375,5.375,0,0,1,0-4.311,5.756,5.756,0,0,1,3.129-3,6.023,6.023,0,0,1,2.281-.437,6.1,6.1,0,0,1,2.31.437,5.759,5.759,0,0,1,3.13,3A5.209,5.209,0,0,1,1121.854,477.733Z" transform="translate(-979.982 -466.759)" fill="#182e54"/><path d="M1204.586,479.87l-7.666-11.959h-5.779v21.3h5.378V477.249l7.666,11.959h5.779v-21.3h-5.378Z" transform="translate(-1042.047 -467.586)" fill="#182e54"/><path d="M774.794,474.283c.087.087.168.176.248.268l5.15-2.813a11.011,11.011,0,0,0-16.849-1.572l-11.528,11.486a5.2,5.2,0,1,1,0-7.376l1.205,1.2,1.394,1.384,4.116-4.092-1.27-1.26-1.349-1.338a11,11,0,1,0,0,15.6l11.528-11.486A5.214,5.214,0,0,1,774.794,474.283Z" transform="translate(-715.982 -466.905)" fill="#9fa87b"/><path d="M842.17,499.3h-9.793v4.752h3.214a5.21,5.21,0,0,1-8.023.824l-2.6-2.584-4.11,4.094,2.612,2.6a11.006,11.006,0,0,0,18.751-7.052A19.516,19.516,0,0,0,842.17,499.3Z" transform="translate(-776.112 -490.132)" fill="#9fa87b"/></g><g transform="translate(673.058 496.839)"><path d="M701.069,573.5h2.16a2.761,2.761,0,0,1,1.618.388,1.861,1.861,0,0,1,.886,1.706,1.842,1.842,0,0,1-1.1,1.739,2.1,2.1,0,0,1,1.573,2.082,2.076,2.076,0,0,1-1.119,1.916,3.046,3.046,0,0,1-1.761.365h-2.259Zm.908,3.544h1.24a2.274,2.274,0,0,0,.964-.166,1.254,1.254,0,0,0,.665-1.218,1.238,1.238,0,0,0-.665-1.163,2.216,2.216,0,0,0-1.019-.188h-1.185Zm0,3.844h1.484a2.725,2.725,0,0,0,1-.155,1.394,1.394,0,0,0,.864-1.362,1.458,1.458,0,0,0-.875-1.385,2.614,2.614,0,0,0-1.152-.166h-1.318Z" transform="translate(-701.069 -573.5)" fill="#182e54"/><path d="M736.127,587.4h-.775v-1.064a2.222,2.222,0,0,1-2.2,1.23c-1.861-.033-2.514-1.3-2.514-2.747V581.44h.809v3.223c0,1.285.576,2.149,1.916,2.138a1.812,1.812,0,0,0,1.95-1.994V581.44h.82Z" transform="translate(-722.302 -579.202)" fill="#182e54"/><path d="M764.647,582.512a1.026,1.026,0,0,0-2.049-.022c.022.565.454.8,1.174,1.008.853.232,1.806.476,1.85,1.75a1.853,1.853,0,0,1-1.972,1.894,1.913,1.913,0,0,1-2.038-1.861h.808a1.18,1.18,0,0,0,1.241,1.185,1.1,1.1,0,0,0,1.152-1.119c-.022-.676-.466-.953-1.5-1.252-.853-.255-1.518-.6-1.54-1.54a1.718,1.718,0,0,1,1.861-1.705,1.688,1.688,0,0,1,1.816,1.661Z" transform="translate(-744.551 -578.78)" fill="#182e54"/><path d="M787.637,573.5h.82v1.141h-.82Zm0,2.238h.82V581.7h-.82Z" transform="translate(-763.242 -573.5)" fill="#182e54"/><path d="M803.284,581.015h.775c0,.332,0,.665-.011,1.063a2.231,2.231,0,0,1,2.215-1.229c1.85.022,2.5,1.285,2.5,2.736v3.389h-.809v-3.224c0-1.285-.576-2.16-1.916-2.137a1.808,1.808,0,0,0-1.938,1.994v3.367h-.819Z" transform="translate(-774.479 -578.777)" fill="#182e54"/><path d="M834.649,584.229a2.27,2.27,0,0,0,2.326,2.2,2.2,2.2,0,0,0,2.049-1.23h.853a3.156,3.156,0,0,1-1.207,1.451,3.119,3.119,0,0,1-1.695.488,3.078,3.078,0,0,1-3.146-3.135,3.131,3.131,0,1,1,6.247.221Zm4.619-.653a2.323,2.323,0,0,0-4.608,0Z" transform="translate(-796.417 -578.78)" fill="#182e54"/><path d="M868.984,582.512a1.026,1.026,0,0,0-2.049-.022c.022.565.454.8,1.174,1.008.853.232,1.806.476,1.85,1.75a1.854,1.854,0,0,1-1.972,1.894,1.913,1.913,0,0,1-2.038-1.861h.809A1.18,1.18,0,0,0,868,586.467a1.1,1.1,0,0,0,1.152-1.119c-.022-.676-.465-.953-1.5-1.252-.853-.255-1.517-.6-1.54-1.54a1.718,1.718,0,0,1,1.861-1.705,1.688,1.688,0,0,1,1.817,1.661Z" transform="translate(-819.485 -578.78)" fill="#182e54"/><path d="M893.751,582.512a1.026,1.026,0,0,0-2.049-.022c.022.565.454.8,1.174,1.008.853.232,1.805.476,1.85,1.75a1.853,1.853,0,0,1-1.971,1.894,1.913,1.913,0,0,1-2.038-1.861h.809a1.179,1.179,0,0,0,1.241,1.185,1.1,1.1,0,0,0,1.152-1.119c-.022-.676-.465-.953-1.5-1.252-.853-.255-1.518-.6-1.54-1.54a1.718,1.718,0,0,1,1.861-1.705,1.688,1.688,0,0,1,1.816,1.661Z" transform="translate(-837.273 -578.78)" fill="#182e54"/><path d="M927.356,573.5h.908v8.2h-.908Z" transform="translate(-863.587 -573.5)" fill="#182e54"/><path d="M943.435,581.015h.776c0,.332,0,.665-.011,1.063a2.231,2.231,0,0,1,2.216-1.229c1.85.022,2.5,1.285,2.5,2.736v3.389h-.809v-3.224c0-1.285-.576-2.16-1.916-2.137a1.808,1.808,0,0,0-1.939,1.994v3.367h-.82Z" transform="translate(-875.135 -578.777)" fill="#182e54"/><path d="M974.251,576.391h-1.174v-.654h1.174V573.5h.808v2.238h1.307v.654H975.06V581.7h-.808Z" transform="translate(-896.424 -573.5)" fill="#182e54"/><path d="M993.043,584.229a2.27,2.27,0,0,0,2.326,2.2,2.2,2.2,0,0,0,2.049-1.23h.853a3.158,3.158,0,0,1-1.208,1.451,3.116,3.116,0,0,1-1.694.488,3.078,3.078,0,0,1-3.146-3.135,3.131,3.131,0,1,1,6.247.221Zm4.619-.653a2.323,2.323,0,0,0-4.608,0Z" transform="translate(-910.175 -578.78)" fill="#182e54"/><path d="M1025.6,573.5h.819v8.2h-.819Z" transform="translate(-934.146 -573.5)" fill="#182e54"/><path d="M1041.207,573.5h.819v8.2h-.819Z" transform="translate(-945.355 -573.5)" fill="#182e54"/><path d="M1056.814,573.5h.82v1.141h-.82Zm0,2.238h.82V581.7h-.82Z" transform="translate(-956.564 -573.5)" fill="#182e54"/><path d="M1077.46,586.29a3.05,3.05,0,0,1-.886,2.348,3.331,3.331,0,0,1-2.26.919,3.015,3.015,0,0,1-2.946-1.927h.942a2.291,2.291,0,0,0,.709.786,2.348,2.348,0,0,0,1.318.432,2.308,2.308,0,0,0,2.3-2.37v-.764a2.575,2.575,0,0,1-2.4,1.429,3.146,3.146,0,0,1,0-6.292,2.637,2.637,0,0,1,2.415,1.4v-1.23h.808ZM1071.944,584a2.317,2.317,0,0,0,2.393,2.382,2.286,2.286,0,0,0,1.673-.687,2.5,2.5,0,0,0,.665-1.683,2.572,2.572,0,0,0-.543-1.562,2.194,2.194,0,0,0-1.817-.831,2.318,2.318,0,0,0-2.37,2.371Z" transform="translate(-966.841 -578.78)" fill="#182e54"/><path d="M1105.518,584.229a2.27,2.27,0,0,0,2.326,2.2,2.2,2.2,0,0,0,2.049-1.23h.853a3.156,3.156,0,0,1-1.208,1.451,3.118,3.118,0,0,1-1.695.488,3.078,3.078,0,0,1-3.146-3.135,3.131,3.131,0,1,1,6.247.221Zm4.619-.653a2.323,2.323,0,0,0-4.608,0Z" transform="translate(-990.954 -578.78)" fill="#182e54"/><path d="M1138.075,581.015h.775c0,.332,0,.665-.011,1.063a2.232,2.232,0,0,1,2.215-1.229c1.85.022,2.5,1.285,2.5,2.736v3.389h-.809v-3.224c0-1.285-.576-2.16-1.916-2.137a1.808,1.808,0,0,0-1.938,1.994v3.367h-.819Z" transform="translate(-1014.925 -578.777)" fill="#182e54"/><path d="M1175.077,584.961a3.168,3.168,0,1,1,0-1.883h-.842a2.363,2.363,0,0,0-3.844-.8,2.445,2.445,0,0,0-.676,1.717,2.316,2.316,0,0,0,2.348,2.382,2.248,2.248,0,0,0,2.16-1.418Z" transform="translate(-1037.061 -578.78)" fill="#182e54"/><path d="M1201.284,584.229a2.27,2.27,0,0,0,2.326,2.2,2.2,2.2,0,0,0,2.049-1.23h.853a3.159,3.159,0,0,1-1.207,1.451,3.118,3.118,0,0,1-1.695.488,3.078,3.078,0,0,1-3.146-3.135,3.131,3.131,0,1,1,6.247.221Zm4.619-.653a2.323,2.323,0,0,0-4.608,0Z" transform="translate(-1059.733 -578.78)" fill="#182e54"/></g></g></svg>