<svg xmlns="http://www.w3.org/2000/svg" width="98.33" height="98.33" viewBox="0 0 98.33 98.33"><g transform="translate(-200.475 -96.956)"><path d="M281.526,171.409a6.325,6.325,0,0,1-6.222,6.423H223.975a6.325,6.325,0,0,1-6.222-6.423V120.834a6.325,6.325,0,0,1,6.222-6.423H275.3a6.324,6.324,0,0,1,6.222,6.423Z" fill="none" stroke="#9fa87b" stroke-width="3"/><rect width="1.357" height="24.103" transform="translate(241 105.843)" fill="#fff"/><path d="M244.212,105.843a2.533,2.533,0,1,1-2.533-2.533A2.533,2.533,0,0,1,244.212,105.843Z" fill="#fff"/><rect width="1.357" height="24.103" transform="translate(256.922 105.843)" fill="#fff"/><circle cx="2.533" cy="2.533" r="2.533" transform="translate(255.068 103.31)" fill="#fff"/><rect width="1.357" height="30.457" transform="translate(248.961 99.489)" fill="#fff"/><path d="M252.173,99.489a2.533,2.533,0,1,1-2.533-2.533A2.533,2.533,0,0,1,252.173,99.489Z" fill="#fff"/><rect width="1.357" height="24.103" transform="translate(256.922 162.297)" fill="#fff"/><path d="M255.068,186.4a2.533,2.533,0,1,1,2.533,2.533A2.533,2.533,0,0,1,255.068,186.4Z" fill="#fff"/><rect width="1.357" height="24.103" transform="translate(241 162.297)" fill="#fff"/><path d="M239.146,186.4a2.533,2.533,0,1,1,2.533,2.533A2.533,2.533,0,0,1,239.146,186.4Z" fill="#fff"/><rect width="1.357" height="30.457" transform="translate(248.961 162.297)" fill="#fff"/><path d="M247.107,192.753a2.533,2.533,0,1,1,2.533,2.533A2.533,2.533,0,0,1,247.107,192.753Z" fill="#fff"/><rect width="24.103" height="1.357" transform="translate(209.361 153.404)" fill="#fff"/><circle cx="2.533" cy="2.533" r="2.533" transform="translate(206.828 151.549)" fill="#fff"/><rect width="24.103" height="1.357" transform="translate(209.361 137.482)" fill="#fff"/><circle cx="2.533" cy="2.533" r="2.533" transform="translate(206.828 135.627)" fill="#fff"/><rect width="30.457" height="1.357" transform="translate(203.008 145.443)" fill="#fff"/><circle cx="2.533" cy="2.533" r="2.533" transform="translate(200.475 143.588)" fill="#fff"/><rect width="24.103" height="1.357" transform="translate(265.815 137.482)" fill="#fff"/><path d="M289.918,140.693a2.533,2.533,0,1,1,2.533-2.533A2.533,2.533,0,0,1,289.918,140.693Z" fill="#fff"/><rect width="24.103" height="1.357" transform="translate(265.815 153.404)" fill="#fff"/><path d="M289.918,156.615a2.533,2.533,0,1,1,2.533-2.533A2.533,2.533,0,0,1,289.918,156.615Z" fill="#fff"/><rect width="30.456" height="1.357" transform="translate(265.815 145.443)" fill="#fff"/><path d="M296.272,148.654a2.533,2.533,0,1,1,2.533-2.533A2.533,2.533,0,0,1,296.272,148.654Z" fill="#fff"/><path d="M4,0H42.577a4,4,0,0,1,4,4V40.752a4,4,0,0,1-4,4H4a4,4,0,0,1-4-4V4A4,4,0,0,1,4,0Z" transform="translate(226.351 123.745)" fill="#fff"/><rect width="38.766" height="35.781" rx="4" transform="translate(230.257 128.231)" fill="#1a3b74" stroke="#fff" stroke-width="1"/><g opacity="0.2"><rect width="12.904" height="12.904" transform="translate(243.188 139.669)" fill="none" stroke="#fff" stroke-miterlimit="10" stroke-width="1"/><path d="M251.439,139.43v-4.7l3.858-2.4v-4.8" fill="none" stroke="#fff" stroke-miterlimit="10" stroke-width="1"/><path d="M247.841,139.43v-5.1l-3.858-2.4v-4.8" fill="none" stroke="#fff" stroke-miterlimit="10" stroke-width="1"/><path d="M247.841,152.813v4.7l-3.858,2.4v4.8" fill="none" stroke="#fff" stroke-miterlimit="10" stroke-width="1"/><path d="M251.439,152.813v5.1l3.858,2.4v4.8" fill="none" stroke="#fff" stroke-miterlimit="10" stroke-width="1"/><path d="M242.948,144.322h-4.7l-2.4-3.858h-6.7" fill="none" stroke="#fff" stroke-miterlimit="10" stroke-width="1"/><path d="M242.948,147.92h-5.1l-2.4,3.858h-6.7" fill="none" stroke="#fff" stroke-miterlimit="10" stroke-width="1"/><path d="M256.331,147.92h4.7l2.4,3.858h6.7" fill="none" stroke="#fff" stroke-miterlimit="10" stroke-width="1"/><path d="M256.331,144.322h5.1l2.4-3.858h6.7" fill="none" stroke="#fff" stroke-miterlimit="10" stroke-width="1"/></g><rect width="5.745" height="5.745" rx="0.947" opacity="0.2" fill="none" stroke="#fff" stroke-miterlimit="10" stroke-width="1" transform="translate(246.767 143.249)"/></g></svg>