<svg xmlns="http://www.w3.org/2000/svg" width="94.577" height="74.045" viewBox="0 0 94.577 74.045"><g transform="translate(0.5 0.5)"><path d="M135.048,412.2H119l-3.778,12.981h23.605Z" transform="translate(-80.236 -352.284)" fill="none" stroke="#9fa87b" stroke-width="1"/><path d="M83,401.493v12.242a1.738,1.738,0,0,0,1.724,1.75H174.85a1.738,1.738,0,0,0,1.724-1.75V401.493Z" transform="translate(-82.997 -353.401)" fill="#fff"/><path d="M93.577,48.292H91.524V2.686a1,1,0,0,0-1-1H3.053a1,1,0,0,0-1,1V48.291H0V1.725A1.726,1.726,0,0,1,1.724,0H91.852a1.727,1.727,0,0,1,1.724,1.725V48.291Z" transform="translate(0)" fill="#fff" stroke="rgba(0,0,0,0)" stroke-width="1"/><path d="M144.826,424.11c0,.456-.758.825-1.693.825H110.395c-.935,0-1.693-.37-1.693-.825h0c0-.456.758-.826,1.693-.826h32.738c.935,0,1.693.37,1.693.826Z" transform="translate(-79.975 -351.39)" fill="#fff"/><g transform="translate(13.164 11.12)"><g transform="translate(0.752)"><path d="M97.273,368.275h-.022L96,368.949l-.188-.743,1.57-.838h.827v7.185h-.939Z" transform="translate(-95.815 -367.245)" fill="#9fa87b"/><path d="M105.219,370.891c0,2.444-.907,3.793-2.5,3.793-1.4,0-2.354-1.317-2.377-3.692,0-2.41,1.039-3.737,2.5-3.737C104.357,367.255,105.219,368.6,105.219,370.891Zm-3.9.113c0,1.867.574,2.928,1.459,2.928.994,0,1.47-1.16,1.47-3,0-1.769-.454-2.928-1.459-2.928C101.936,368.007,101.317,369.045,101.317,371Z" transform="translate(-95.427 -367.255)" fill="#9fa87b"/><path d="M110.442,370.891c0,2.444-.907,3.793-2.5,3.793-1.4,0-2.355-1.317-2.377-3.692,0-2.41,1.039-3.737,2.5-3.737C109.58,367.255,110.442,368.6,110.442,370.891Zm-3.9.113c0,1.867.575,2.928,1.46,2.928.994,0,1.47-1.16,1.47-3,0-1.769-.454-2.928-1.459-2.928C107.159,368.007,106.539,369.045,106.539,371Z" transform="translate(-94.979 -367.255)" fill="#9fa87b"/><path d="M112.941,368.275h-.023l-1.249.674-.187-.743,1.569-.838h.828v7.185h-.939Z" transform="translate(-94.472 -367.245)" fill="#9fa87b"/><path d="M120.888,370.891c0,2.444-.907,3.793-2.5,3.793-1.4,0-2.355-1.317-2.377-3.692,0-2.41,1.039-3.737,2.5-3.737C120.026,367.255,120.888,368.6,120.888,370.891Zm-3.9.113c0,1.867.575,2.928,1.46,2.928.994,0,1.47-1.16,1.47-3,0-1.769-.454-2.928-1.46-2.928C117.6,368.007,116.985,369.045,116.985,371Z" transform="translate(-94.084 -367.255)" fill="#9fa87b"/><path d="M123.387,368.275h-.023l-1.249.674-.188-.743,1.57-.838h.828v7.185h-.939Z" transform="translate(-93.577 -367.245)" fill="#9fa87b"/><path d="M128.61,368.275h-.023l-1.249.674-.189-.743,1.571-.838h.828v7.185h-.939Z" transform="translate(-93.13 -367.245)" fill="#9fa87b"/><path d="M133.833,368.275h-.023l-1.249.674-.188-.743,1.57-.838h.828v7.185h-.939Z" transform="translate(-92.682 -367.245)" fill="#9fa87b"/><path d="M141.78,370.891c0,2.444-.907,3.793-2.5,3.793-1.4,0-2.355-1.317-2.377-3.692,0-2.41,1.039-3.737,2.5-3.737C140.918,367.255,141.78,368.6,141.78,370.891Zm-3.9.113c0,1.867.575,2.928,1.459,2.928.994,0,1.47-1.16,1.47-3,0-1.769-.453-2.928-1.459-2.928C138.5,368.007,137.877,369.045,137.877,371Z" transform="translate(-92.294 -367.255)" fill="#9fa87b"/><path d="M144.278,368.275h-.022l-1.249.674-.188-.743,1.57-.838h.828v7.185h-.94Z" transform="translate(-91.787 -367.245)" fill="#9fa87b"/><path d="M149.5,368.275h-.022l-1.249.674-.188-.743,1.57-.838h.828v7.185h-.94Z" transform="translate(-91.34 -367.245)" fill="#9fa87b"/><path d="M157.448,370.891c0,2.444-.907,3.793-2.5,3.793-1.4,0-2.354-1.317-2.377-3.692,0-2.41,1.039-3.737,2.5-3.737C156.586,367.255,157.448,368.6,157.448,370.891Zm-3.9.113c0,1.867.575,2.928,1.459,2.928.994,0,1.47-1.16,1.47-3,0-1.769-.453-2.928-1.459-2.928C154.164,368.007,153.545,369.045,153.545,371Z" transform="translate(-90.951 -367.255)" fill="#9fa87b"/></g><g transform="translate(0.752 11.206)"><path d="M97.273,378.6h-.022L96,379.271l-.188-.743,1.57-.838h.827v7.185h-.939Z" transform="translate(-95.815 -377.567)" fill="#9fa87b"/><path d="M102.5,378.6h-.023l-1.249.674-.187-.743,1.57-.838h.827v7.185H102.5Z" transform="translate(-95.368 -377.567)" fill="#9fa87b"/><path d="M110.442,381.213c0,2.444-.907,3.793-2.5,3.793-1.4,0-2.355-1.317-2.377-3.692,0-2.41,1.039-3.737,2.5-3.737C109.58,377.577,110.442,378.927,110.442,381.213Zm-3.9.113c0,1.867.575,2.928,1.46,2.928.994,0,1.47-1.16,1.47-3,0-1.769-.454-2.928-1.459-2.928C107.159,378.329,106.539,379.367,106.539,381.326Z" transform="translate(-94.979 -377.577)" fill="#9fa87b"/><path d="M112.941,378.6h-.023l-1.249.674-.187-.743,1.569-.838h.828v7.185h-.939Z" transform="translate(-94.472 -377.567)" fill="#9fa87b"/><path d="M120.888,381.213c0,2.444-.907,3.793-2.5,3.793-1.4,0-2.355-1.317-2.377-3.692,0-2.41,1.039-3.737,2.5-3.737C120.026,377.577,120.888,378.927,120.888,381.213Zm-3.9.113c0,1.867.575,2.928,1.46,2.928.994,0,1.47-1.16,1.47-3,0-1.769-.454-2.928-1.46-2.928C117.6,378.329,116.985,379.367,116.985,381.326Z" transform="translate(-94.084 -377.577)" fill="#9fa87b"/><path d="M123.387,378.6h-.023l-1.249.674-.188-.743,1.57-.838h.828v7.185h-.939Z" transform="translate(-93.577 -377.567)" fill="#9fa87b"/><path d="M131.334,381.213c0,2.444-.907,3.793-2.5,3.793-1.4,0-2.355-1.317-2.377-3.692,0-2.41,1.039-3.737,2.5-3.737C130.472,377.577,131.334,378.927,131.334,381.213Zm-3.9.113c0,1.867.575,2.928,1.46,2.928.995,0,1.47-1.16,1.47-3,0-1.769-.454-2.928-1.46-2.928C128.051,378.329,127.431,379.367,127.431,381.326Z" transform="translate(-93.189 -377.577)" fill="#9fa87b"/><path d="M133.833,378.6h-.023l-1.249.674-.188-.743,1.57-.838h.828v7.185h-.939Z" transform="translate(-92.682 -377.567)" fill="#9fa87b"/><path d="M141.78,381.213c0,2.444-.907,3.793-2.5,3.793-1.4,0-2.355-1.317-2.377-3.692,0-2.41,1.039-3.737,2.5-3.737C140.918,377.577,141.78,378.927,141.78,381.213Zm-3.9.113c0,1.867.575,2.928,1.459,2.928.994,0,1.47-1.16,1.47-3,0-1.769-.453-2.928-1.459-2.928C138.5,378.329,137.877,379.367,137.877,381.326Z" transform="translate(-92.294 -377.577)" fill="#9fa87b"/><path d="M144.278,378.6h-.022l-1.249.674-.188-.743,1.57-.838h.828v7.185h-.94Z" transform="translate(-91.787 -377.567)" fill="#9fa87b"/><path d="M152.225,381.213c0,2.444-.907,3.793-2.5,3.793-1.4,0-2.354-1.317-2.377-3.692,0-2.41,1.039-3.737,2.5-3.737C151.363,377.577,152.225,378.927,152.225,381.213Zm-3.9.113c0,1.867.575,2.928,1.459,2.928.995,0,1.47-1.16,1.47-3,0-1.769-.453-2.928-1.459-2.928C148.942,378.329,148.322,379.367,148.322,381.326Z" transform="translate(-91.399 -377.577)" fill="#9fa87b"/><path d="M157.448,381.213c0,2.444-.907,3.793-2.5,3.793-1.4,0-2.354-1.317-2.377-3.692,0-2.41,1.039-3.737,2.5-3.737C156.586,377.577,157.448,378.927,157.448,381.213Zm-3.9.113c0,1.867.575,2.928,1.459,2.928.994,0,1.47-1.16,1.47-3,0-1.769-.453-2.928-1.459-2.928C154.164,378.329,153.545,379.367,153.545,381.326Z" transform="translate(-90.951 -377.577)" fill="#9fa87b"/></g><g transform="translate(0 22.413)"><path d="M100,391.535c0,2.444-.907,3.793-2.5,3.793-1.4,0-2.354-1.317-2.377-3.692,0-2.41,1.039-3.737,2.5-3.737C99.135,387.9,100,389.249,100,391.535Zm-3.9.113c0,1.867.574,2.928,1.459,2.928.994,0,1.47-1.16,1.47-3,0-1.769-.454-2.928-1.459-2.928C96.714,388.651,96.095,389.689,96.095,391.648Z" transform="translate(-95.122 -387.899)" fill="#9fa87b"/><path d="M102.5,388.919h-.023l-1.249.674-.187-.743,1.57-.838h.827V395.2H102.5Z" transform="translate(-94.615 -387.889)" fill="#9fa87b"/><path d="M107.718,388.919H107.7l-1.249.674-.188-.743,1.57-.838h.828V395.2h-.939Z" transform="translate(-94.168 -387.889)" fill="#9fa87b"/><path d="M112.941,388.919h-.023l-1.249.674-.187-.743,1.569-.838h.828V395.2h-.939Z" transform="translate(-93.72 -387.889)" fill="#9fa87b"/><path d="M118.164,388.919h-.023l-1.249.674-.189-.743,1.571-.838h.828V395.2h-.939Z" transform="translate(-93.273 -387.889)" fill="#9fa87b"/><path d="M126.111,391.535c0,2.444-.907,3.793-2.5,3.793-1.4,0-2.355-1.317-2.377-3.692,0-2.41,1.039-3.737,2.5-3.737C125.249,387.9,126.111,389.249,126.111,391.535Zm-3.9.113c0,1.867.575,2.928,1.46,2.928.994,0,1.47-1.16,1.47-3,0-1.769-.454-2.928-1.46-2.928C122.828,388.651,122.208,389.689,122.208,391.648Z" transform="translate(-92.884 -387.899)" fill="#9fa87b"/><path d="M131.334,391.535c0,2.444-.907,3.793-2.5,3.793-1.4,0-2.355-1.317-2.377-3.692,0-2.41,1.039-3.737,2.5-3.737C130.472,387.9,131.334,389.249,131.334,391.535Zm-3.9.113c0,1.867.575,2.928,1.46,2.928.995,0,1.47-1.16,1.47-3,0-1.769-.454-2.928-1.46-2.928C128.051,388.651,127.431,389.689,127.431,391.648Z" transform="translate(-92.437 -387.899)" fill="#9fa87b"/><path d="M136.557,391.535c0,2.444-.907,3.793-2.5,3.793-1.4,0-2.355-1.317-2.377-3.692,0-2.41,1.039-3.737,2.5-3.737C135.695,387.9,136.557,389.249,136.557,391.535Zm-3.9.113c0,1.867.575,2.928,1.46,2.928.993,0,1.469-1.16,1.469-3,0-1.769-.453-2.928-1.459-2.928C133.274,388.651,132.654,389.689,132.654,391.648Z" transform="translate(-91.989 -387.899)" fill="#9fa87b"/><path d="M141.78,391.535c0,2.444-.907,3.793-2.5,3.793-1.4,0-2.355-1.317-2.377-3.692,0-2.41,1.039-3.737,2.5-3.737C140.918,387.9,141.78,389.249,141.78,391.535Zm-3.9.113c0,1.867.575,2.928,1.459,2.928.994,0,1.47-1.16,1.47-3,0-1.769-.453-2.928-1.459-2.928C138.5,388.651,137.877,389.689,137.877,391.648Z" transform="translate(-91.542 -387.899)" fill="#9fa87b"/><path d="M144.278,388.919h-.022l-1.249.674-.188-.743,1.57-.838h.828V395.2h-.94Z" transform="translate(-91.035 -387.889)" fill="#9fa87b"/><path d="M152.225,391.535c0,2.444-.907,3.793-2.5,3.793-1.4,0-2.354-1.317-2.377-3.692,0-2.41,1.039-3.737,2.5-3.737C151.363,387.9,152.225,389.249,152.225,391.535Zm-3.9.113c0,1.867.575,2.928,1.459,2.928.995,0,1.47-1.16,1.47-3,0-1.769-.453-2.928-1.459-2.928C148.942,388.651,148.322,389.689,148.322,391.648Z" transform="translate(-90.647 -387.899)" fill="#9fa87b"/><path d="M154.723,388.919H154.7l-1.249.674-.189-.743,1.571-.838h.827V395.2h-.939Z" transform="translate(-90.14 -387.889)" fill="#9fa87b"/></g></g><path d="M128.758,408.6a2.47,2.47,0,1,1-2.471-2.471A2.47,2.47,0,0,1,128.758,408.6Z" transform="translate(-79.499 -352.805)" fill="#9fa87b"/></g></svg>