<svg xmlns="http://www.w3.org/2000/svg" width="32.773" height="24.941" viewBox="0 0 32.773 24.941"><g transform="translate(0 -57.75)"><g transform="translate(0 57.75)"><path d="M28.772,57.75H4.008A4.011,4.011,0,0,0,0,61.758V78.683a4.011,4.011,0,0,0,4.008,4.008H28.765a4.011,4.011,0,0,0,4.008-4.008V61.764A4.007,4.007,0,0,0,28.772,57.75Zm2.177,20.933a2.179,2.179,0,0,1-2.177,2.177H4.008a2.179,2.179,0,0,1-2.177-2.177V61.764a2.179,2.179,0,0,1,2.177-2.177H28.765a2.179,2.179,0,0,1,2.177,2.177V78.683Z" transform="translate(0 -57.75)" fill="#fff"/><path d="M72.64,117.694l8.015-7.188a.917.917,0,0,0-1.227-1.363l-11.053,9.921-2.156-1.926c-.007-.007-.014-.014-.014-.02a1.357,1.357,0,0,0-.149-.129l-8.775-7.852a.917.917,0,0,0-1.221,1.37l8.11,7.249-8.076,7.561a.919.919,0,0,0-.041,1.3.937.937,0,0,0,.671.292.917.917,0,0,0,.624-.244l8.2-7.669,2.224,1.987a.913.913,0,0,0,1.221-.007l2.285-2.048,8.151,7.744a.918.918,0,0,0,1.3-.034.919.919,0,0,0-.034-1.3Z" transform="translate(-51.972 -105.434)" fill="#9fa87b"/></g></g></svg>