<svg xmlns="http://www.w3.org/2000/svg" width="35.299" height="35.299" viewBox="0 0 35.299 35.299"><path d="M90.482,30.137a33.6,33.6,0,0,0,15.615,0c2.568-.725,3.871-1.776,3.871-3.121s-1.3-2.4-3.871-3.121a24.35,24.35,0,0,0-4.064-.734c2.948-5.032,5.87-10.729,5.87-13.547a9.613,9.613,0,0,0-19.227,0c0,2.818,2.921,8.515,5.869,13.547a24.341,24.341,0,0,0-4.064.734c-2.568.725-3.871,1.776-3.871,3.121S87.913,29.412,90.482,30.137ZM98.289,2.068a7.554,7.554,0,0,1,7.545,7.545c0,2.137-2.644,7.739-7.073,14.985a.553.553,0,0,1-.945,0c-4.429-7.246-7.073-12.848-7.073-14.985A7.554,7.554,0,0,1,98.289,2.068Zm-6.87,23.716a25.139,25.139,0,0,1,4.3-.649l.33.542a2.621,2.621,0,0,0,4.474,0l.33-.542a25.14,25.14,0,0,1,4.3.649c1.89.481,2.581,1.023,2.723,1.232-.142.208-.832.75-2.723,1.232a29.021,29.021,0,0,1-6.87.741,29.02,29.02,0,0,1-6.87-.741c-1.89-.481-2.581-1.023-2.723-1.232C88.839,26.807,89.529,26.265,91.419,25.784Z" transform="translate(-80.64)" fill="#fff"/><path d="M32.288,357.243a1.034,1.034,0,1,0-1,1.813c1.232.677,1.938,1.427,1.938,2.058,0,.772-1.094,1.969-4.165,3.012a36.926,36.926,0,0,1-11.416,1.6,36.926,36.926,0,0,1-11.416-1.6c-3.071-1.043-4.165-2.24-4.165-3.012,0-.631.707-1.382,1.938-2.058a1.034,1.034,0,1,0-1-1.813C1.637,358,0,359.282,0,361.114c0,1.4.966,3.407,5.568,4.971a39.015,39.015,0,0,0,12.081,1.708,39.015,39.015,0,0,0,12.081-1.708c4.6-1.564,5.568-3.566,5.568-4.971C35.3,359.282,33.662,358,32.288,357.243Z" transform="translate(0 -332.494)" fill="#9fa87b"/><path d="M207.681,77.684a3.864,3.864,0,1,0-3.864,3.864A3.868,3.868,0,0,0,207.681,77.684Zm-5.66,0a1.8,1.8,0,1,1,1.8,1.8A1.8,1.8,0,0,1,202.021,77.684Z" transform="translate(-186.168 -68.731)" fill="#9fa87b"/></svg>