<svg xmlns="http://www.w3.org/2000/svg" width="32.773" height="32.773" viewBox="0 0 32.773 32.773"><g transform="translate(-0.002)"><g transform="translate(0.002 0.669)"><g transform="translate(0)"><path d="M31.53,35.418,25.109,29a1.968,1.968,0,0,0-2.78,0l-1.67,1.67a1.967,1.967,0,0,0-.5,1.936l-.63.63h0c-.447.448-3.234-.239-6.6-3.608s-4.055-6.154-3.608-6.6h0l.631-.631a1.968,1.968,0,0,0,1.936-.5l1.67-1.67a1.968,1.968,0,0,0,0-2.78L7.135,11.023a1.966,1.966,0,0,0-2.78,0l-1.67,1.67a1.967,1.967,0,0,0-.5,1.936s-.534.539-.561.573C-.15,17.176-.483,20.285.695,24a28.012,28.012,0,0,0,7,10.856,28.016,28.016,0,0,0,10.856,7,13.586,13.586,0,0,0,4.072.693,6.771,6.771,0,0,0,4.951-1.835l.35-.35a1.973,1.973,0,0,0,.546.078,1.953,1.953,0,0,0,1.39-.576l1.67-1.67A1.968,1.968,0,0,0,31.53,35.418ZM5.745,12.413l6.422,6.422L10.5,20.505h0l-.024-.024L7.286,17.294,4.075,14.083ZM26.184,39.327h0c-1.414,1.414-3.914,1.648-7.039.657a26.033,26.033,0,0,1-10.06-6.517,26.032,26.032,0,0,1-6.517-10.06c-.99-3.125-.757-5.625.658-7.039h0l.177-.177,4.984,4.984-.457.457h0c-1.894,1.9.382,6.154,3.609,9.381,2.415,2.415,5.408,4.3,7.556,4.3a2.482,2.482,0,0,0,1.826-.69h0l.457-.457,4.984,4.984Zm2.287-.848-6.422-6.422,1.67-1.67,6.422,6.422S28.471,38.479,28.47,38.478Z" transform="translate(-0.002 -10.447)" fill="#fff"/></g></g><g transform="translate(16.908 4.986)"><path d="M272.1,80.79a9.833,9.833,0,0,0-7-2.9.983.983,0,1,0,0,1.966,7.932,7.932,0,0,1,7.932,7.932.983.983,0,0,0,1.966,0A9.834,9.834,0,0,0,272.1,80.79Z" transform="translate(-264.118 -77.891)" fill="#9fa87b"/></g><g transform="translate(16.908)"><path d="M275.62,4.36A14.787,14.787,0,0,0,265.095,0a.983.983,0,1,0,0,1.966,12.918,12.918,0,0,1,12.918,12.918.983.983,0,0,0,1.966,0A14.786,14.786,0,0,0,275.62,4.36Z" transform="translate(-264.112)" fill="#9fa87b"/></g><g transform="translate(16.908 9.972)"><path d="M268.577,157.222a4.815,4.815,0,0,0-3.473-1.439h0a.983.983,0,1,0,0,1.966h0a2.851,2.851,0,0,1,2.083.863,2.888,2.888,0,0,1,.863,2.083.983.983,0,0,0,.983.983h0a.983.983,0,0,0,.983-.983A4.816,4.816,0,0,0,268.577,157.222Z" transform="translate(-264.121 -155.783)" fill="#9fa87b"/></g></g></svg>